<svg width="608" height="317" viewBox="0 0 608 317" fill="none" xmlns="http://www.w3.org/2000/svg">
            <path
                d="M61.0301 208.55H7.13007C3.50156 208.55 0.560059 211.491 0.560059 215.12V306.48C0.560059 310.108 3.50156 313.05 7.13007 313.05H61.0301C64.6586 313.05 67.6001 310.108 67.6001 306.48V215.12C67.6001 211.491 64.6586 208.55 61.0301 208.55Z"
                fill="#EDEDED" />
            <path
                d="M57.5201 219.72H10.6401C8.94455 219.72 7.57007 221.094 7.57007 222.79V240.75C7.57007 242.445 8.94455 243.82 10.6401 243.82H57.5201C59.2156 243.82 60.5901 242.445 60.5901 240.75V222.79C60.5901 221.094 59.2156 219.72 57.5201 219.72Z"
                stroke="#DFDFDF" stroke-width="0.93" stroke-miterlimit="10" />
            <path
                d="M57.5201 247.76H10.6401C8.94455 247.76 7.57007 249.134 7.57007 250.83V268.79C7.57007 270.485 8.94455 271.86 10.6401 271.86H57.5201C59.2156 271.86 60.5901 270.485 60.5901 268.79V250.83C60.5901 249.134 59.2156 247.76 57.5201 247.76Z"
                stroke="#DFDFDF" stroke-width="0.93" stroke-miterlimit="10" />
            <path
                d="M36.8801 232.04C36.8801 233.58 35.63 234.83 34.09 234.83C32.55 234.83 31.3 233.58 31.3 232.04C31.3 230.5 32.55 229.25 34.09 229.25C35.63 229.25 36.8801 230.5 36.8801 232.04Z"
                fill="#BDBDBD" />
            <path
                d="M36.8801 260.14C36.8801 261.68 35.63 262.93 34.09 262.93C32.55 262.93 31.3 261.68 31.3 260.14C31.3 258.6 32.55 257.35 34.09 257.35C35.63 257.35 36.8801 258.6 36.8801 260.14Z"
                fill="#BDBDBD" />
            <path d="M314.58 178.92L314.17 182.85L312.52 185.54V186.78H329.07L327 183.47L321.83 180.99L314.58 178.92Z"
                fill="#FBA894" />
            <path
                d="M344.31 89.6999C340.73 83.7599 332.54 82.7399 327.22 87.1799C325.08 88.9699 322.95 91.5099 321.82 95.0099C319.9 100.99 315.04 118.73 312.19 129.21C311 133.6 313.66 138.11 318.08 139.19C321.6 140.05 325.25 138.47 327.04 135.33C332.8 125.18 344.78 103.46 345.72 96.8699C346.12 94.0799 345.49 91.6699 344.3 89.6999H344.31Z"
                fill="#24ADB2" />
            <path
                d="M446.29 93.46L452.5 88.8L456.53 82.9L467.27 77.94C468 77.6 468.82 78.21 468.7 79C468.59 79.67 468.32 80.48 467.7 81.34C466.15 83.51 463.67 84.44 463.67 84.44L482.6 82.89L481.98 86.3L472.67 88.47C472.67 88.47 470.5 95.61 468.32 97.47C466.14 99.33 455.59 96.85 455.59 96.85L452.8 101.2L446.28 93.44L446.29 93.46Z"
                fill="#FBA894" />
            <path d="M377.7 298.929V314.449L368.07 314.139L369.94 298.619L377.7 298.929Z" fill="#FBA894" />
            <path
                d="M362.77 309.799C363.12 309.709 363.43 309.519 363.64 309.219C364.15 308.499 365.33 307.199 366.88 307.549C368.07 307.809 368.74 308.819 369.1 309.649C369.39 310.319 370.1 310.699 370.81 310.539C371.26 310.439 371.74 310.559 372.1 310.849C372.88 311.479 374.46 312.439 376.27 311.779C376.59 311.669 376.87 311.569 377.11 311.469C378.02 311.089 379.05 311.649 379.2 312.619L379.54 314.799C379.68 315.689 379.01 316.509 378.1 316.529C371.99 316.709 351.46 317.239 350.66 316.239C349.75 315.109 357.37 311.129 362.76 309.799H362.77Z"
                fill="#464F6A" />
            <path d="M345.64 288.689L352.47 302.629L343.69 306.579L338.53 291.829L345.64 288.689Z" fill="#FBA894" />
            <path
                d="M337.01 305.02C337.29 304.79 337.48 304.48 337.54 304.12C337.69 303.25 338.17 301.56 339.71 301.19C340.89 300.9 341.94 301.51 342.63 302.1C343.18 302.57 343.99 302.6 344.56 302.14C344.92 301.84 345.4 301.75 345.86 301.85C346.84 302.07 348.68 302.23 350.02 300.85C350.26 300.62 350.46 300.4 350.64 300.2C351.29 299.46 352.46 299.51 353.02 300.32L354.28 302.13C354.8 302.87 354.55 303.9 353.75 304.32C348.35 307.17 330.14 316.68 328.98 316.14C327.67 315.52 332.76 308.6 337.01 305.03V305.02Z"
                fill="#464F6A" />
            <path
                d="M347.59 291.169C341.8 298.209 337.86 294.579 337.86 294.579C337.86 294.579 320.48 245.329 320.48 235.809C320.48 226.289 331.24 170.009 331.24 170.009C336.21 160.909 350.28 156.349 356.9 167.109C363.52 177.869 356.07 187.389 356.07 188.629L341.17 235.389C341.17 235.389 347.38 244.489 348.21 251.529C349.04 258.569 347.59 291.159 347.59 291.159V291.169Z"
                fill="#464F6A" />
            <path
                d="M368.43 300.859C368.43 300.859 361.23 243.439 361.16 238.049C361.08 232.649 355.31 173.759 355.31 173.759C357.78 155.249 383.23 160.939 385.93 167.759C388.63 174.579 381.67 223.729 381.41 234.559C381.41 234.559 384.47 247.679 384.92 256.059C385.37 264.439 378.71 300.879 378.71 300.879C378.71 300.879 373.31 304.379 368.43 300.879V300.859Z"
                fill="#464F6A" />
            <path
                d="M338.51 83.9092C338.51 83.9092 330.6 83.2492 326.97 89.8092C323.34 96.3692 330.05 171.779 330.05 171.779C330.05 171.779 353.98 179.389 386.7 173.749C386.7 173.749 393.83 97.6792 393.23 92.4392C392.63 87.1892 388.4 83.9192 381.14 82.5992C373.89 81.2892 338.51 83.9092 338.51 83.9092Z"
                fill="#24ADB2" />
            <path
                d="M374.59 61.0896C374.59 61.0896 376.13 73.0796 373.47 79.3096C371.45 82.0496 362.94 79.3096 358.88 74.6196C354.82 69.9196 353.85 62.1696 355.93 57.4996C358.01 52.8296 366.96 52.9496 369.73 54.0896C372.5 55.2296 374.48 59.1596 374.59 61.0896Z"
                fill="#FBA894" />
            <path
                d="M366.01 78.6992L364.98 86.9792C364.98 86.9792 364.67 88.8092 359.6 91.9492C358.23 92.7992 357.14 89.9792 356.08 88.3992C353.98 85.2792 352.46 81.4692 352.46 81.4692L357.12 68.1592L366.02 78.7092L366.01 78.6992Z"
                fill="#FBA894" />
            <path
                d="M379.35 82.29C379.35 82.29 388.04 83.1201 392.18 86.4301C396.32 89.7401 415.77 111.26 415.77 111.26C415.77 111.26 443.5 93.0501 448.46 90.5701L455.5 99.67C455.5 99.67 426.94 128.23 417.84 131.95C408.74 135.67 373.14 105.88 373.14 105.88C373.14 105.88 362.38 90.57 379.35 82.29Z"
                fill="#24ADB2" />
            <path d="M415.77 113.739C415.77 113.739 413.29 117.459 414.53 125.329" stroke="#29456A" stroke-width="0.83"
                stroke-miterlimit="10" />
            <path d="M448.46 90.5596L455.5 99.6696L451.36 104.22L443.08 92.2195" stroke="#29456A" stroke-width="0.83"
                stroke-miterlimit="10" />
            <path d="M391.97 102.77L391.35 119.84" stroke="#29456A" stroke-width="0.83" stroke-miterlimit="10" />
            <path
                d="M468.95 78.3496C468.95 78.3496 468.12 82.6996 463.67 84.4496C463.67 84.4496 463.57 89.3096 459.84 91.1796"
                stroke="#29456A" stroke-width="0.83" stroke-miterlimit="10" />
            <path d="M482.61 82.9092L481.99 86.3192L466.67 89.7392" stroke="#29456A" stroke-width="0.83"
                stroke-miterlimit="10" />
            <path d="M472.67 88.4893L471.23 91.7993L464.6 93.0493" stroke="#29456A" stroke-width="0.83"
                stroke-miterlimit="10" />
            <path d="M464.4 95.7392L469.78 94.9092" stroke="#29456A" stroke-width="0.83" stroke-miterlimit="10" />
            <path d="M352.45 81.25C352.45 81.25 354.73 88.91 358.86 91.8L350.79 97.39L348.1 83.73L352.45 81.25Z"
                stroke="#29456A" stroke-width="0.83" stroke-linecap="round" stroke-linejoin="round" />
            <path
                d="M365.9 81.8691C365.9 81.8691 366.32 89.3891 359.59 91.9391L365.9 97.5991L368.38 84.5591L365.9 81.8691Z"
                stroke="#29456A" stroke-width="0.83" stroke-linecap="round" stroke-linejoin="round" />
            <path d="M339.83 112.39C339.83 112.39 360.32 138.77 383.59 140.63" stroke="#29456A" stroke-width="0.83"
                stroke-linecap="round" stroke-linejoin="round" />
            <path d="M337.97 164.54C337.97 164.54 365.59 170.75 380.49 168.26" stroke="#29456A" stroke-width="0.83"
                stroke-linecap="round" stroke-linejoin="round" />
            <path
                d="M323.95 128.369C318.94 125.039 312.17 128.589 311.65 134.589C311.45 136.839 311.28 139.369 311.28 141.259C311.28 145.609 312.83 181.299 312.83 181.299H323.38C323.38 181.299 328.04 140.329 327.41 134.119C327.17 131.679 325.87 129.639 323.95 128.369Z"
                fill="#24ADB2" />
            <path d="M315 129.77C315 129.77 320.9 127.6 326.48 131.32" stroke="#29456A" stroke-width="0.83"
                stroke-linecap="round" stroke-linejoin="round" />
            <path d="M328.66 99.0498C328.66 99.0498 327.73 115.19 327.42 125.12" stroke="#29456A" stroke-width="0.83"
                stroke-linecap="round" stroke-linejoin="round" />
            <path d="M312.83 181.3H323.38L324.52 177.06L315.41 177.47" stroke="#29456A" stroke-width="0.83"
                stroke-linecap="round" stroke-linejoin="round" />
            <path
                d="M356.89 54.2599C356.89 54.2599 367.24 49.8199 373.32 54.0999C376.77 57.5499 374.63 60.9999 367.08 63.4699C363.63 64.6199 361 64.4599 361 64.4599L362.15 68.2399L361 68.7299L358.7 66.0999C358.7 66.0999 357.22 67.4099 357.88 69.0599C358.54 70.6999 358.21 71.6899 358.21 71.6899L355.25 73.1699L354.59 69.2299C354.59 69.2299 350.81 61.8399 352.29 58.5499C353.77 55.2599 356.89 55.0999 356.89 55.0999"
                fill="#BA792D" />
            <path d="M360.61 73.7002C360.61 73.7002 360.94 76.3302 365.54 79.2902" stroke="#29456A" stroke-width="0.83"
                stroke-linecap="round" stroke-linejoin="round" />
            <path
                d="M182.23 46.6895H61.2801C59.7944 46.6895 58.5901 47.8938 58.5901 49.3795V114.369C58.5901 115.855 59.7944 117.059 61.2801 117.059H182.23C183.716 117.059 184.92 115.855 184.92 114.369V49.3795C184.92 47.8938 183.716 46.6895 182.23 46.6895Z"
                fill="#EDEDED" />
            <path d="M77.58 62.0098H71.79V107.53H77.58V62.0098Z" fill="#DFDFDF" />
            <path d="M85.8501 82.7002H80.0601V107.53H85.8501V82.7002Z" fill="#BDBDBD" />
            <path d="M94.7501 91.7998H88.9601V107.53H94.7501V91.7998Z" fill="#DFDFDF" />
            <path d="M103.03 86.0098H97.2401V107.53H103.03V86.0098Z" fill="#BDBDBD" />
            <path d="M111.93 67.5898H106.14V107.53H111.93V67.5898Z" fill="#DFDFDF" />
            <path d="M120.2 75.25H114.41V107.53H120.2V75.25Z" fill="#BDBDBD" />
            <path d="M129.1 62.0098H123.31V107.53H129.1V62.0098Z" fill="#DFDFDF" />
            <path d="M137.38 90.1494H131.59V107.529H137.38V90.1494Z" fill="#BDBDBD" />
            <path d="M146.27 67.7998H140.48V107.53H146.27V67.7998Z" fill="#DFDFDF" />
            <path d="M154.55 79.7998H148.76V107.53H154.55V79.7998Z" fill="#BDBDBD" />
            <path d="M163.45 70.4902H157.66V107.53H163.45V70.4902Z" fill="#DFDFDF" />
            <path d="M171.73 63.8701H165.94V107.53H171.73V63.8701Z" fill="#BDBDBD" />
            <path
                d="M253.85 185.639C253.85 185.639 259.13 189.989 266.58 184.709C274.03 179.429 293.89 140.639 293.89 140.639L305.06 133.039L304.13 131.179C304.13 131.179 301.65 128.389 299.78 128.079C297.92 127.769 290.78 130.409 290.78 130.409C290.78 130.409 294.81 127.309 295.13 124.819C295.26 123.809 294.17 123.089 293.29 123.619C290.53 125.279 285.95 128.099 284.89 129.169C283.65 130.719 282.41 137.549 282.41 137.549C282.41 137.549 257.89 165.799 254.48 173.239C251.07 180.689 253.86 185.659 253.86 185.659L253.85 185.639Z"
                fill="#FBA894" />
            <path
                d="M293.89 140.64C293.89 140.02 303.67 134.12 303.67 134.12C303.67 134.12 303.2 133.34 301.81 133.34C300.42 133.34 296.53 135.51 296.53 135.51"
                stroke="#29456A" stroke-width="0.83" stroke-miterlimit="10" />
            <path d="M295.91 133.339L303.51 130.859" stroke="#29456A" stroke-width="0.83" stroke-miterlimit="10" />
            <path d="M295.13 131.169L301.65 128.999" stroke="#29456A" stroke-width="0.83" stroke-miterlimit="10" />
            <path d="M295.13 124.81C295.13 124.81 292.96 129.31 290.78 130.4C290.78 130.4 292.8 133.81 291.09 136.14"
                stroke="#29456A" stroke-width="0.83" stroke-miterlimit="10" />
            <path
                d="M236.33 141.1C236.33 141.1 245.33 137.69 250.3 145.45C255.27 153.21 266.13 179.28 266.13 179.28C266.13 179.28 267.68 186.11 260.54 187.97C253.4 189.83 249.68 182.69 249.68 182.69C249.68 182.69 231.99 153.2 231.99 148.55C231.99 143.9 236.34 141.1 236.34 141.1H236.33Z"
                fill="#FBA894" />
            <path
                d="M242.06 139.09C242.06 139.09 248.89 140.95 251.99 146.23C255.09 151.51 259.75 162.68 259.75 162.68C259.75 162.68 246.4 174.47 241.13 174.79C235.85 174.79 228.71 146.86 242.06 139.1V139.09Z"
                fill="#6C98DF" />
            <path d="M234.2 240.68L241.75 313.21" stroke="#29456A" stroke-width="1.63" stroke-linecap="round"
                stroke-linejoin="round" />
            <path d="M216.02 240.479L222.53 313.21" stroke="#29456A" stroke-width="1.63" stroke-linecap="round"
                stroke-linejoin="round" />
            <path d="M183.1 240.479L176.59 313.21" stroke="#29456A" stroke-width="1.63" stroke-linecap="round"
                stroke-linejoin="round" />
            <path
                d="M221.3 241.63H177.57C175.7 241.63 174.11 240.24 173.86 238.39L164.92 172.39C164.62 170.14 166.36 168.14 168.63 168.14H212.36C214.23 168.14 215.82 169.53 216.07 171.38L225.01 237.38C225.31 239.63 223.57 241.63 221.3 241.63Z"
                fill="#FFC918" />
            <path d="M244.05 241.68H192.38V235.75H238.12C241.4 235.75 244.05 238.41 244.05 241.68Z" fill="#FFC918" />
            <path
                d="M234.51 296.869L233.27 304.109L236.37 308.459C236.37 308.459 246.51 314.459 246.3 315.079C246.09 315.699 221.06 314.869 221.06 314.869L225.61 297.699L234.51 296.869Z"
                fill="#BA7F79" />
            <path
                d="M293.58 296.869L296.06 304.839L299.47 308.459C299.47 308.459 309.61 314.459 309.4 315.079C309.19 315.699 284.16 314.869 284.16 314.869L284.68 297.699L293.58 296.869Z"
                fill="#BA7F79" />
            <path
                d="M232.48 204.42C232.48 204.42 257.04 209.24 278.07 218.1C282.25 219.86 285.31 223.56 286.18 228.01C288.96 242.26 294.9 275.6 294.49 298.78H284.24L265.37 235.42C265.37 235.42 258.36 238.39 235.17 235.69C211.98 232.99 207.13 216.82 207.13 216.82L232.47 204.42H232.48Z"
                fill="#464F6A" />
            <path
                d="M197.98 202.4C197.98 202.4 184.89 224.91 197.43 232.59C209.97 240.27 231.4 236.23 231.4 236.23L223.31 299.32L235.85 299.72C235.85 299.72 250.78 249.47 254.76 228.57C255.64 223.93 253.36 219.28 249.15 217.15L226.15 205.49L197.99 202.39L197.98 202.4Z"
                fill="#505E83" />
            <path d="M236.37 308.449L232.75 311.189" stroke="#29456A" stroke-width="0.83" stroke-miterlimit="10" />
            <path d="M234.3 305.449L230.57 307.629" stroke="#29456A" stroke-width="0.83" stroke-miterlimit="10" />
            <path d="M299.48 308.449L297.62 311.819" stroke="#29456A" stroke-width="0.83" stroke-miterlimit="10" />
            <path d="M296.07 304.83L293.58 308.87" stroke="#29456A" stroke-width="0.83" stroke-miterlimit="10" />
            <path
                d="M244.44 139.809C244.44 139.809 248.79 141.359 250.03 145.089C251.27 148.809 239.17 190.719 239.17 190.719C239.17 190.719 240.51 202.719 239.58 205.199C238.65 207.679 232.03 207.789 232.03 207.789C232.03 207.789 211.15 207.199 200.62 206.019C197.39 205.659 194.9 203.029 194.7 199.789C194.22 192.049 193.54 178.619 193.54 178.619C193.54 178.619 194.16 145.409 198.2 137.029C201.61 135.169 213.72 135.479 213.72 135.479C213.72 135.479 239.48 137.649 244.45 139.829L244.44 139.809Z"
                fill="#6C98DF" />
            <path d="M231.4 236.239C231.4 236.239 232.12 228.479 241.12 225.689" stroke="#29456A" stroke-width="0.83"
                stroke-miterlimit="10" />
            <path
                d="M205.74 137.529C205.74 137.529 196.74 134.119 191.77 141.879C186.8 149.639 175.94 175.709 175.94 175.709C175.94 175.709 174.39 182.539 181.53 184.399C188.67 186.259 192.39 179.119 192.39 179.119C192.39 179.119 210.08 149.629 210.08 144.979C210.08 140.329 205.73 137.529 205.73 137.529H205.74Z"
                fill="#FBA894" />
            <path
                d="M177.5 173.539C177.5 173.539 182.47 171.059 190.85 172.299C199.23 173.539 228.41 181.919 228.41 181.919C228.41 181.919 239.58 176.639 241.76 176.639C243.94 176.639 254.49 182.229 254.49 182.229L253.25 186.889L244.25 186.579C244.25 186.579 235.87 191.549 232.15 190.929L228.43 190.309C228.43 190.309 196.59 190.809 181.35 185.279C177.41 183.849 175.08 179.609 176.22 175.569C176.52 174.509 176.99 173.759 177.53 173.549L177.5 173.539Z"
                fill="#FBA894" />
            <path
                d="M205.74 135.88C205.74 135.88 196.64 134.33 191.67 140.85C186.7 147.37 181.53 160.51 181.53 160.51C181.53 160.51 192.7 167.34 201.39 167.65C201.39 167.65 212.56 148.1 212.56 143.75C212.56 139.4 206.97 136.2 205.73 135.89L205.74 135.88Z"
                fill="#6C98DF" />
            <path d="M195.4 173.33C195.4 173.33 188.78 172.5 183.81 176.85" stroke="#29456A" stroke-width="0.83"
                stroke-miterlimit="10" />
            <path d="M241.75 176.64L240.82 186.26" stroke="#29456A" stroke-width="0.83" stroke-miterlimit="10" />
            <path d="M241.44 178.659L251.53 182.699" stroke="#29456A" stroke-width="0.83" stroke-miterlimit="10" />
            <path d="M241.75 181.76L249.97 184.56" stroke="#29456A" stroke-width="0.83" stroke-miterlimit="10" />
            <path d="M241.13 184.56L247.65 185.95" stroke="#29456A" stroke-width="0.83" stroke-miterlimit="10" />
            <path d="M199.95 167.539C199.95 167.539 208.23 151.399 208.85 146.229" stroke="#29456A" stroke-width="0.83"
                stroke-miterlimit="10" />
            <path
                d="M239.08 112.969C239.08 112.969 238.79 125.049 235.22 130.809C232.81 133.219 224.81 129.229 221.51 123.969C218.21 118.709 218.42 110.899 221.18 106.599C223.95 102.299 232.77 103.769 235.34 105.309C237.91 106.849 239.27 111.039 239.09 112.969H239.08Z"
                fill="#FBA894" />
            <path
                d="M229.75 129.05L228.72 137.33C228.72 137.33 229.75 142.09 223.34 142.3C216.93 142.51 214.44 135.89 214.44 135.89L220.85 118.51L229.75 129.06V129.05Z"
                fill="#FBA894" />
            <path
                d="M217.12 109.6C217.12 109.6 218.15 104.01 223.12 101.74C228.09 99.4597 234.29 101.33 235.54 101.12C236.78 100.91 238.85 97.5997 240.3 98.8397C241.75 100.08 241.13 102.36 241.13 102.36C241.13 102.36 243.41 99.8797 244.85 101.53C246.3 103.19 242.37 106.91 242.37 106.91C242.37 106.91 244.85 105.46 245.47 106.7C246.09 107.94 242.82 113.85 239.28 112.76C235.74 111.67 229.33 108.77 227.05 108.98C224.77 109.19 223.53 111.46 223.53 111.46V118.08L221.67 118.7V114.56C221.67 114.56 219.86 113.99 219.45 116.06C219.04 118.13 220.23 120.97 220.23 120.97L218.57 125.11C218.57 125.11 213.6 117.04 214.22 113.73C214.84 110.42 217.12 109.59 217.12 109.59V109.6Z"
                fill="#414D75" />
            <path
                d="M233.47 117.769C233.47 119.659 231.94 121.179 230.06 121.179C228.18 121.179 226.65 119.649 226.65 117.769C226.65 115.889 228.18 114.359 230.06 114.359C231.94 114.359 233.47 115.889 233.47 117.769Z"
                stroke="#29456A" stroke-width="0.83" stroke-miterlimit="10" />
            <path
                d="M242.58 117.769C242.58 119.659 241.05 121.179 239.17 121.179C237.29 121.179 235.76 119.649 235.76 117.769C235.76 115.889 237.29 114.359 239.17 114.359C241.05 114.359 242.58 115.889 242.58 117.769Z"
                stroke="#29456A" stroke-width="0.83" stroke-miterlimit="10" />
            <path d="M233.47 117.77H235.75" stroke="#29456A" stroke-width="0.83" stroke-miterlimit="10" />
            <path d="M214.43 135.88C214.43 135.88 216.71 143.74 225.4 142.29" stroke="#29456A" stroke-width="0.83"
                stroke-miterlimit="10" />
            <path
                d="M299.04 186.58H247.59C246.14 186.58 245.02 185.3 245.22 183.86L249.95 148.92C250.11 147.73 251.12 146.85 252.32 146.85H303.77C305.22 146.85 306.34 148.13 306.14 149.57L301.41 184.51C301.25 185.7 300.24 186.58 299.04 186.58Z"
                fill="#DFDFDF" />
            <path
                d="M277.55 174.78C280.637 174.78 283.14 172.277 283.14 169.19C283.14 166.102 280.637 163.6 277.55 163.6C274.463 163.6 271.96 166.102 271.96 169.19C271.96 172.277 274.463 174.78 277.55 174.78Z"
                fill="#BDBDBD" />
            <path d="M206.05 173.23C206.05 173.23 225.91 174.16 238.64 161.75" stroke="#29456A" stroke-width="0.83"
                stroke-miterlimit="10" />
            <path d="M243.92 150.569C243.92 150.569 244.54 165.469 243.3 172.299" stroke="#29456A" stroke-width="0.83"
                stroke-miterlimit="10" />
            <path d="M222.81 124.64C222.81 124.64 223.03 128.36 228.51 130.34" stroke="#29456A" stroke-width="0.83"
                stroke-linecap="round" stroke-linejoin="round" />
            <path
                d="M204.27 186.58H152.82C151.37 186.58 150.25 185.3 150.45 183.86L155.18 148.92C155.34 147.73 156.35 146.85 157.55 146.85H209C210.45 146.85 211.57 148.13 211.37 149.57L206.64 184.51C206.48 185.7 205.47 186.58 204.27 186.58Z"
                fill="#DFDFDF" />
            <path d="M203.4 181.199L207.7 149.449H158.8L154.5 181.199H203.4Z" fill="#A9C9FC" />
            <path
                d="M394.27 186.58H445.72C447.17 186.58 448.29 185.3 448.09 183.86L443.36 148.92C443.2 147.73 442.19 146.85 440.99 146.85H389.54C388.09 146.85 386.97 148.13 387.17 149.57L391.9 184.51C392.06 185.7 393.07 186.58 394.27 186.58Z"
                fill="#DFDFDF" />
            <path d="M395.14 181.199L390.85 149.449H439.75L444.04 181.199H395.14Z" fill="#A9C9FC" />
            <path d="M530.41 186.699H38.4501V192.819H530.41V186.699Z" fill="#DFDFDF" />
            <path
                d="M476.71 146.54C476.71 146.54 483.23 148.4 485.09 154.3C486.95 160.2 491.61 188.13 491.61 188.13L467.71 187.51L476.71 146.54Z"
                fill="#BE0A2D" />
            <path
                d="M435.74 298.729L437.39 304.519L429.53 311.349C429.53 311.349 434.7 312.179 437.39 310.939C440.08 309.699 447.53 309.909 447.53 309.909L444.43 298.529L435.74 298.739V298.729Z"
                fill="#FBA894" />
            <path
                d="M446.6 305.76C446.6 305.76 443.03 304.83 440.08 306.85C437.13 308.87 436.05 311.66 430.62 311.35C429.84 311.04 430.62 310.57 430.62 310.57C430.62 310.57 426.28 311.04 425.5 313.21C425.34 314.76 445.05 314.14 448.15 313.37C449.24 312.13 446.6 305.77 446.6 305.77V305.76Z"
                fill="#414D75" />
            <path
                d="M423.85 268.619L436.48 301.159L444.79 300.389C444.79 300.389 446.82 279.339 440.69 259.819C434.57 240.299 423.85 268.619 423.85 268.619Z"
                fill="#FBA894" />
            <path
                d="M475.82 297.489L477.47 303.279L469.61 310.109C469.61 310.109 474.78 310.939 477.47 309.699C480.16 308.459 487.61 308.669 487.61 308.669L484.51 297.289L475.82 297.499V297.489Z"
                fill="#FBA894" />
            <path
                d="M486.68 304.519C486.68 304.519 483.11 303.589 480.16 305.609C477.21 307.629 476.13 310.419 470.7 310.109C469.92 309.799 470.7 309.329 470.7 309.329C470.7 309.329 466.36 309.799 465.58 311.969C465.42 313.519 485.13 312.899 488.23 312.129C489.32 310.889 486.68 304.529 486.68 304.529V304.519Z"
                fill="#414D75" />
            <path
                d="M463.93 267.379L476.56 299.919L484.99 299.199C484.99 299.199 486.9 278.099 480.77 258.579C474.65 239.059 463.93 267.379 463.93 267.379Z"
                fill="#FBA894" />
            <path
                d="M446.32 203.09C446.32 203.09 420.57 209.32 412.91 223.1C405.64 237.65 420.57 271.71 423.63 272.86C426.69 274.01 470.78 281.82 485.71 267.27C484.94 259.23 475.46 239.54 476.61 239.54C477.76 239.54 485.24 231.86 485.63 221.91C486.01 211.96 481.42 205.07 481.42 205.07C481.42 205.07 452.2 202.25 446.33 203.09H446.32Z"
                fill="#6C98DF" />
            <path
                d="M450.93 112.83C450.93 112.83 447.28 124.26 449.4 130.63C450.58 133.23 452.38 132.08 453.32 133.02C454.26 133.96 451.62 148.64 451.62 148.64L466.25 149.35C466.25 149.35 472.86 129.29 472.15 121.74C471.44 114.19 456.59 107.87 450.93 112.83Z"
                fill="#FBA894" />
            <path
                d="M442.81 157.98C442.81 157.98 445.15 183.17 450.43 190.79C450.43 190.79 446.33 198.99 446.33 203.09C446.33 203.09 469.77 206.61 486.76 204.85C476.8 165.98 477.97 155.63 477.97 155.63L442.81 157.97V157.98Z"
                fill="#BE0A2D" />
            <path
                d="M448.87 148.04C448.87 148.04 449.25 144.6 454.23 144.6C459.21 144.6 475.28 144.6 478.73 147.66C482.18 150.72 478.35 170.63 478.35 170.63L447.35 166.8L448.88 148.04H448.87Z"
                fill="#BE0A2D" />
            <path
                d="M398.87 169.94C398.87 169.94 425.96 194.13 441.01 191.47C451.07 187.07 459.6 155.53 457.15 150.72C454.7 145.9 450.08 145.58 450.08 145.58C450.08 145.58 445.74 145.18 442.51 150.25C439.28 155.32 433.08 173.55 433.08 173.55C433.08 173.55 407.69 159.51 398.44 157.66L387.45 153.13C387.45 153.13 386.3 155.71 388.31 157.44C390.32 159.16 394.91 160.31 394.91 160.31L379.69 162.61C379.69 162.61 383.13 168.35 386.01 169.79C388.88 171.23 398.87 169.96 398.87 169.96V169.94Z"
                fill="#FBA894" />
            <path
                d="M453.43 144.979C453.43 144.979 445.57 142.909 440.81 150.979C436.05 159.049 432.53 172.909 432.53 172.909C432.53 172.909 421.36 166.699 418.67 165.459C418.67 165.459 411.22 174.769 412.88 181.809C412.88 181.809 431.71 195.469 441.44 192.359C449.3 188.839 457.79 164.429 457.79 164.429C457.79 164.429 464 148.699 453.44 144.979H453.43Z"
                fill="#BE0A2D" />
            <path d="M433.15 175.819C433.15 175.819 433.36 181.609 436.05 185.549" stroke="#29456A" stroke-width="0.83"
                stroke-miterlimit="10" />
            <path d="M381.58 165.159L389.18 164.229" stroke="#29456A" stroke-width="0.83" stroke-miterlimit="10" />
            <path d="M383.7 167.75L389.8 167.02" stroke="#29456A" stroke-width="0.83" stroke-miterlimit="10" />
            <path d="M386.7 169.919L391.46 168.779" stroke="#29456A" stroke-width="0.83" stroke-miterlimit="10" />
            <path d="M396.01 160.189L379.69 162.589" stroke="#29456A" stroke-width="0.83" stroke-miterlimit="10" />
            <path d="M398.87 169.94C398.87 169.94 398.5 166.71 399.43 165.01" stroke="#29456A" stroke-width="0.83"
                stroke-miterlimit="10" />
            <path
                d="M450.07 145.57C450.07 145.57 450.12 139.19 452.81 138.77C455.5 138.36 470.4 140.22 471.43 142.29C472.26 144.15 471.43 148.29 471.43 148.29L450.07 145.57Z"
                fill="#BE0A2D" />
            <path
                d="M449.4 112.45C449.4 112.45 449.41 112.84 449.49 113.53C449.79 116.17 451.07 123.14 456.54 128.91L454.63 141.16C454.63 141.16 474.92 146.52 484.87 138.48C483.72 130.44 481.43 115.9 471.86 109.39C462.29 102.88 451.85 105.56 449.41 112.45H449.4Z"
                fill="#6C98DF" />
            <path d="M458.09 159.26C458.09 159.26 452.5 176.95 448.78 183.16" stroke="#29456A" stroke-width="0.83"
                stroke-miterlimit="10" />
            <path
                d="M450.42 190.79C450.42 190.79 446.66 200.37 446.32 203.09C445.98 205.81 446.19 203.75 446.19 203.75H450.74"
                stroke="#29456A" stroke-width="0.83" stroke-miterlimit="10" />
            <path d="M450.07 145.57C450.07 145.57 461.91 144.15 468.32 145.39" stroke="#29456A" stroke-width="0.83"
                stroke-miterlimit="10" />
            <path d="M438.54 240.68L433.56 309.9" stroke="#29456A" stroke-width="1.63" stroke-linecap="round"
                stroke-linejoin="round" />
            <path d="M456.72 240.479L450.21 313.21" stroke="#29456A" stroke-width="1.63" stroke-linecap="round"
                stroke-linejoin="round" />
            <path d="M489.64 240.479L496.15 313.21" stroke="#29456A" stroke-width="1.63" stroke-linecap="round"
                stroke-linejoin="round" />
            <path
                d="M451.44 241.63H495.17C497.04 241.63 498.63 240.24 498.88 238.39L507.82 172.39C508.12 170.14 506.38 168.14 504.11 168.14H460.38C458.51 168.14 456.92 169.53 456.67 171.38L447.73 237.38C447.43 239.63 449.17 241.63 451.44 241.63Z"
                fill="#FFC918" />
            <path d="M428.69 241.68H480.36V235.75H434.62C431.34 235.75 428.69 238.41 428.69 241.68Z" fill="#FFC918" />
            <path d="M174.5 183.26H129.39V188.23H174.5V183.26Z" fill="#DFDFDF" />
            <path
                d="M104.34 298.729L102.69 304.519L110.55 311.349C110.55 311.349 105.38 312.179 102.69 310.939C100 309.699 92.55 309.909 92.55 309.909L95.65 298.529L104.34 298.739V298.729Z"
                fill="#FBA894" />
            <path
                d="M93.4801 305.76C93.4801 305.76 97.0501 304.83 100 306.85C102.95 308.87 104.03 311.66 109.46 311.35C110.24 311.04 109.46 310.57 109.46 310.57C109.46 310.57 113.8 311.04 114.58 313.21C114.74 314.76 95.0301 314.14 91.9301 313.37C90.8401 312.13 93.4801 305.77 93.4801 305.77V305.76Z"
                fill="#414D75" />
            <path
                d="M125.42 220.88C122.41 217.87 116.64 215 110.3 212.5C109.82 214.59 109.16 217.32 108.36 220.35C110.03 226.15 108.29 231.72 104.1 234.54C102.5 239.19 100.75 243.45 98.9901 246.35C97.4301 251.1 95.6001 257.59 95.2101 262.92C94.5201 272.57 93.3201 297.65 93.3201 299.03C100.9 301.1 104.88 300.21 104.88 300.21C104.88 300.21 132.99 230.54 125.41 220.89L125.42 220.88Z"
                fill="#24ADB2" />
            <path
                d="M141.09 298.729L139.44 304.519L147.3 311.349C147.3 311.349 142.13 312.179 139.44 310.939C136.75 309.699 129.3 309.909 129.3 309.909L132.4 298.529L141.09 298.739V298.729Z"
                fill="#FBA894" />
            <path
                d="M130.23 305.76C130.23 305.76 133.8 304.83 136.75 306.85C139.7 308.87 140.78 311.66 146.21 311.35C146.99 311.04 146.21 310.57 146.21 310.57C146.21 310.57 150.55 311.04 151.33 313.21C151.49 314.76 131.78 314.14 128.68 313.37C127.59 312.13 130.23 305.77 130.23 305.77V305.76Z"
                fill="#414D75" />
            <path
                d="M120.01 204.1C120.01 204.1 153.59 211.91 162.55 220.88C170.13 230.53 142.02 300.2 142.02 300.2C142.02 300.2 138.04 301.09 130.46 299.02C130.46 297.64 131.66 272.57 132.35 262.91C133.04 253.26 138.49 239.78 138.49 239.78C138.49 239.78 133.81 237.87 126.23 237.19C118.65 236.5 97.2702 237.88 85.5502 228.23C73.8302 218.58 79.3502 204.1 79.3502 204.1C79.3502 204.1 111.06 201.34 120.03 204.1H120.01Z"
                fill="#24ADB2" />
            <path
                d="M113.8 112.83C113.8 112.83 117.46 124.26 115.33 130.63C114.15 133.23 112.35 132.08 111.41 133.02C110.47 133.96 113.11 148.64 113.11 148.64L98.4801 149.35C98.4801 149.35 91.8701 129.29 92.5801 121.74C93.2901 114.19 108.14 107.87 113.8 112.83Z"
                fill="#FBA894" />
            <path
                d="M121.92 157.98C121.92 157.98 119.58 183.17 114.3 190.79C114.3 190.79 118.4 198.99 118.4 203.09C118.4 203.09 94.9601 206.61 77.9701 204.85C87.9301 165.98 86.7601 155.63 86.7601 155.63L121.92 157.97V157.98Z"
                fill="#FF725E" />
            <path
                d="M113.89 141.36C113.89 141.36 118.23 140.96 121.46 146.03C124.69 151.1 130.89 169.33 130.89 169.33C130.89 169.33 156.28 155.29 165.53 153.44C165.53 153.44 180.67 152.19 181.52 153.62C182.37 155.05 184.09 162.45 177.9 164.18C171.93 165.06 165.1 165.73 165.1 165.73C165.1 165.73 138.01 189.92 122.96 187.26C112.9 182.86 104.37 151.32 106.82 146.51C109.27 141.69 113.89 141.37 113.89 141.37V141.36Z"
                fill="#FBA894" />
            <path d="M172.66 155.12L182.08 154.97" stroke="#29456A" stroke-width="0.83" stroke-miterlimit="10" />
            <path d="M173.82 157.69L182.49 157.29" stroke="#29456A" stroke-width="0.83" stroke-miterlimit="10" />
            <path d="M175.13 160.04L182.16 160.13" stroke="#29456A" stroke-width="0.83" stroke-miterlimit="10" />
            <path d="M180.77 162.4L176.41 162.49" stroke="#29456A" stroke-width="0.83" stroke-miterlimit="10" />
            <path d="M131.16 171.82C131.16 171.82 130.84 177.79 127.54 181.17" stroke="#29456A" stroke-width="0.83"
                stroke-miterlimit="10" />
            <path
                d="M112.08 140.96C112.08 140.96 115.91 139.62 119.54 142.3C123.17 144.98 126.81 154.55 127.39 155.31C127.77 156.08 117.82 163.35 108.44 162.97C99.0601 162.2 112.08 140.96 112.08 140.96Z"
                fill="#FF725E" />
            <path
                d="M98.8401 101.94C98.8401 101.94 110.27 101.12 114.09 109.56C117.63 117.73 105.11 121.27 105.92 129.16C106.74 137.06 115.45 137.6 113.81 147.13C112.18 156.66 108.09 158.29 112.72 169.45C117.35 180.61 117.08 190.14 101.01 195.59C84.9501 201.03 70.2501 193.41 66.7101 177.35C63.1701 161.29 81.1101 146.82 83.0101 134.3C84.9201 121.78 83.7201 117.14 86.2001 111.29C88.8101 105.12 94.2101 102.48 98.8401 101.94Z"
                fill="#414D75" />
            <path d="M130.45 299.02C130.45 299.02 135.41 299.96 142.01 300.2" stroke="#29456A" stroke-width="0.83"
                stroke-miterlimit="10" />
            <path d="M138.47 239.79C138.47 239.79 148.15 239.44 153.1 229.88" stroke="#29456A" stroke-width="0.83"
                stroke-miterlimit="10" />
            <path d="M124.33 240.68L129.3 309.9" stroke="#29456A" stroke-width="1.63" stroke-linecap="round"
                stroke-linejoin="round" />
            <path d="M106.14 240.479L112.65 313.21" stroke="#29456A" stroke-width="1.63" stroke-linecap="round"
                stroke-linejoin="round" />
            <path d="M73.2201 240.479L66.7201 313.21" stroke="#29456A" stroke-width="1.63" stroke-linecap="round"
                stroke-linejoin="round" />
            <path
                d="M111.43 241.63H67.7001C65.8301 241.63 64.2401 240.24 63.9901 238.39L55.0501 172.39C54.7501 170.14 56.4901 168.14 58.7601 168.14H102.49C104.36 168.14 105.95 169.53 106.2 171.38L115.14 237.38C115.44 239.63 113.7 241.63 111.43 241.63Z"
                fill="#FFC918" />
            <path d="M134.18 241.68H82.51V235.75H128.25C131.53 235.75 134.18 238.41 134.18 241.68Z" fill="#FFC918" />
            <path d="M115.71 213.399L155.4 226.629C156.81 227.099 157.6 228.589 157.21 230.019L138.4 297.799"
                stroke="#29456A" stroke-width="0.41" stroke-miterlimit="10" />
            <path d="M222.5 47.5195H190.84V92.2195H222.5V47.5195Z" fill="#EDEDED" />
            <path d="M217.54 55.8994H195.81V58.3794H217.54V55.8994Z" fill="#DFDFDF" />
            <path d="M205.12 60.5596H195.81V63.0396H205.12V60.5596Z" fill="#DFDFDF" />
            <path d="M261.48 26.4896V0.849609" stroke="#EDEDED" stroke-width="0.93" stroke-miterlimit="10" />
            <path d="M265.75 30.9792H266.19V23.5293H257.42V30.9792H257.86L228.94 45.8793H261.81H294.67L265.75 30.9792Z"
                fill="#EDEDED" />
            <path d="M343.06 26.4896V0.849609" stroke="#EDEDED" stroke-width="0.93" stroke-miterlimit="10" />
            <path d="M347.34 30.9792H347.77V23.5293H339.01V30.9792H339.45L310.53 45.8793H343.39H376.25L347.34 30.9792Z"
                fill="#EDEDED" />
            <path
                d="M429.08 37.3492L412.64 56.1592V31.1592C398.38 31.1592 386.91 43.0892 387.67 57.5092C388.33 70.1292 398.67 80.4692 411.29 81.1292C425.71 81.8892 437.64 70.4192 437.64 56.1592C437.64 48.6492 434.31 41.9292 429.07 37.3492H429.08Z"
                fill="#EDEDED" />
            <path
                d="M432.22 41.7496L415.78 60.5596V35.5596C401.52 35.5596 390.05 47.4895 390.81 61.9095C391.47 74.5295 401.81 84.8696 414.43 85.5296C428.85 86.2896 440.78 74.8196 440.78 60.5596C440.78 53.0496 437.45 46.3296 432.21 41.7496H432.22Z"
                stroke="#DFDFDF" stroke-width="0.93" stroke-miterlimit="10" />
            <path
                d="M430.85 28.3194C427.1 25.4694 422.53 23.6494 417.55 23.2994C416.59 23.2294 415.78 23.9894 415.78 24.9394V43.8694C415.78 45.3894 417.66 46.0894 418.66 44.9494L431.1 30.7094C431.73 29.9894 431.61 28.8894 430.85 28.3094V28.3194Z"
                fill="#24ADB2" />
            <path d="M255 112.93H250.83V122.28H255V112.93Z" fill="#EDEDED" />
            <path d="M261.8 117.6H257.63V122.27H261.8V117.6Z" fill="#EDEDED" />
            <path d="M268.61 108.619H264.44V122.279H268.61V108.619Z" fill="#EDEDED" />
            <path d="M275.42 101.409H271.25V122.279H275.42V101.409Z" fill="#EDEDED" />
            <path d="M587.38 173.12H507.85L527.57 45.79H607.1L587.38 173.12Z" fill="#EDEDED" />
            <path d="M527.24 171.82H522.73V314.17H527.24V171.82Z" fill="#EDEDED" />
            <path d="M579.55 171.82H575.04V314.17H579.55V171.82Z" fill="#EDEDED" />
            <path d="M536.47 57.1404L597.18 55.9004L594.82 67.8004L534.12 68.1504L536.47 57.1404Z" stroke="#DFDFDF"
                stroke-width="0.93" stroke-miterlimit="10" />
            <path d="M534.12 73.1504L575.04 73.7004L573.41 81.8704L530.41 82.2903L534.12 73.1504Z" stroke="#DFDFDF"
                stroke-width="0.93" stroke-miterlimit="10" />
            <path
                d="M522.73 121.19L534.12 111.07L541.18 114.36L549.82 98.5603L565.65 105.67L577.3 92.2203L583.53 95.7403L590.59 86.3203"
                stroke="#24ADB2" stroke-width="2" stroke-miterlimit="10" />
            <path
                d="M35.94 128.84C35.94 130.13 34.9 131.17 33.61 131.17C32.32 131.17 31.28 130.13 31.28 128.84C31.28 127.55 32.32 126.51 33.61 126.51C34.9 126.51 35.94 127.55 35.94 128.84Z"
                stroke="#DFDFDF" stroke-width="0.93" stroke-miterlimit="10" />
            <path
                d="M49.82 131.17C51.1068 131.17 52.15 130.127 52.15 128.84C52.15 127.553 51.1068 126.51 49.82 126.51C48.5332 126.51 47.49 127.553 47.49 128.84C47.49 130.127 48.5332 131.17 49.82 131.17Z"
                stroke="#DFDFDF" stroke-width="0.93" stroke-miterlimit="10" />
            <path
                d="M68.3501 128.84C68.3501 130.13 67.3101 131.17 66.0201 131.17C64.7301 131.17 63.6901 130.13 63.6901 128.84C63.6901 127.55 64.7301 126.51 66.0201 126.51C67.3101 126.51 68.3501 127.55 68.3501 128.84Z"
                stroke="#DFDFDF" stroke-width="0.93" stroke-miterlimit="10" />
        </svg>