<svg width="103" height="104" viewBox="0 0 103 104" fill="none" xmlns="http://www.w3.org/2000/svg">
<path d="M51.5 23.4004C40.8511 23.4004 32.1875 32.1481 32.1875 42.9004C32.1875 53.6527 40.8511 62.4004 51.5 62.4004C62.1489 62.4004 70.8125 53.6527 70.8125 42.9004C70.8125 32.1481 62.1489 23.4004 51.5 23.4004ZM51.5 59.8004C42.2712 59.8004 34.7625 52.2188 34.7625 42.9004C34.7625 33.582 42.2712 26.0004 51.5 26.0004C60.7288 26.0004 68.2375 33.582 68.2375 42.9004C68.2375 52.2188 60.7288 59.8004 51.5 59.8004Z" fill="white"/>
<path d="M91.4125 87.1C89.0203 87.1 87.0221 88.764 86.4453 91H65.6625V67.1125C65.799 67.0306 65.9406 66.9617 66.0745 66.8785L69.525 69.4889V79.3C69.525 79.6448 69.6606 79.9754 69.9021 80.2192C70.1436 80.463 70.471 80.6 70.8125 80.6H80.0078C80.5833 82.836 82.5828 84.5 84.975 84.5C87.8152 84.5 90.125 82.1678 90.125 79.3C90.125 76.4322 87.8152 74.1 84.975 74.1C82.5828 74.1 80.5846 75.764 80.0078 78H72.1V71.4389L72.4167 71.6794C72.9291 72.0694 73.6463 72.0174 74.0995 71.5585L79.8829 65.7189C80.1023 65.4978 80.2352 65.2041 80.2572 64.8919C80.2792 64.5798 80.1888 64.27 80.0027 64.0198L75.2467 57.616C76.7928 55.0913 77.9286 52.3329 78.6109 49.4455L86.4453 48.3171C86.752 48.2727 87.0325 48.1181 87.2355 47.8817C87.4384 47.6453 87.55 47.3429 87.55 47.0301V38.7699C87.55 38.4571 87.4384 38.1547 87.2355 37.9183C87.0325 37.6819 86.752 37.5273 86.4453 37.4829L78.6109 36.3545C77.9286 33.4671 76.7928 30.7087 75.2467 28.184L80.0027 21.7802C80.1888 21.53 80.2792 21.2202 80.2572 20.9081C80.2352 20.5959 80.1023 20.3022 79.8829 20.0811L74.0995 14.2415C73.8808 14.0195 73.5899 13.885 73.2805 13.8627C72.9712 13.8405 72.6644 13.9321 72.4167 14.1206L66.0758 18.9228C63.575 17.362 60.8432 16.2148 57.9838 15.5246L56.8637 7.6154C56.8197 7.30574 56.6666 7.02249 56.4325 6.8176C56.1984 6.61272 55.8989 6.49996 55.5891 6.5H47.4109C47.1011 6.49996 46.8016 6.61272 46.5675 6.8176C46.3334 7.02249 46.1803 7.30574 46.1363 7.6154L45.0162 15.5246C42.1568 16.2148 39.425 17.362 36.9242 18.9228L30.5833 14.1206C30.3356 13.9321 30.0288 13.8405 29.7195 13.8627C29.4101 13.885 29.1192 14.0195 28.9005 14.2415L23.1171 20.0811C22.8977 20.3022 22.7648 20.5959 22.7428 20.9081C22.7208 21.2202 22.8112 21.53 22.9973 21.7802L27.7533 28.184C26.2072 30.7087 25.0714 33.4671 24.3891 36.3545L16.5547 37.4829C16.248 37.5273 15.9675 37.6819 15.7646 37.9183C15.5616 38.1547 15.45 38.4571 15.45 38.7699V47.0301C15.45 47.3429 15.5616 47.6453 15.7646 47.8817C15.9675 48.1181 16.248 48.2727 16.5547 48.3171L24.3891 49.4455C25.0714 52.3329 26.2072 55.0913 27.7533 57.616L22.9973 64.0198C22.8112 64.27 22.7208 64.5798 22.7428 64.8919C22.7648 65.2041 22.8977 65.4978 23.1171 65.7189L28.9005 71.5585C29.1194 71.7802 29.4102 71.9146 29.7195 71.9368C30.0287 71.9591 30.3355 71.8676 30.5833 71.6794L30.9 71.4389V78H22.9922C22.4167 75.764 20.4172 74.1 18.025 74.1C15.1848 74.1 12.875 76.4322 12.875 79.3C12.875 82.1678 15.1848 84.5 18.025 84.5C20.4172 84.5 22.4154 82.836 22.9922 80.6H32.1875C32.529 80.6 32.8564 80.463 33.0979 80.2192C33.3394 79.9754 33.475 79.6448 33.475 79.3V69.4902L36.9255 66.8772C37.0594 66.9617 37.201 67.0306 37.3375 67.1125V91H16.5547C15.9792 88.764 13.9797 87.1 11.5875 87.1C8.74727 87.1 6.4375 89.4322 6.4375 92.3C6.4375 95.1678 8.74727 97.5 11.5875 97.5C13.9797 97.5 15.9779 95.836 16.5547 93.6H38.625C38.9665 93.6 39.2939 93.463 39.5354 93.2192C39.7769 92.9754 39.9125 92.6448 39.9125 92.3V68.471C41.5508 69.2404 43.2603 69.8448 45.0162 70.2754L46.1363 78.1846C46.1803 78.4943 46.3334 78.7775 46.5675 78.9824C46.8016 79.1873 47.1011 79.3 47.4109 79.3H50.2125V87.2846C47.998 87.8657 46.35 89.8846 46.35 92.3C46.35 95.1678 48.6598 97.5 51.5 97.5C54.3402 97.5 56.65 95.1678 56.65 92.3C56.65 89.8833 55.002 87.867 52.7875 87.2846V79.3H55.5891C55.8989 79.3 56.1984 79.1873 56.4325 78.9824C56.6666 78.7775 56.8197 78.4943 56.8637 78.1846L57.9838 70.2754C59.7397 69.8444 61.4492 69.2396 63.0875 68.4697V92.3C63.0875 92.6448 63.2231 92.9754 63.4646 93.2192C63.7061 93.463 64.0335 93.6 64.375 93.6H86.4453C87.0208 95.836 89.0203 97.5 91.4125 97.5C94.2527 97.5 96.5625 95.1678 96.5625 92.3C96.5625 89.4322 94.2527 87.1 91.4125 87.1ZM84.975 76.7C86.3951 76.7 87.55 77.8661 87.55 79.3C87.55 80.7339 86.3951 81.9 84.975 81.9C83.5549 81.9 82.4 80.7339 82.4 79.3C82.4 77.8661 83.5549 76.7 84.975 76.7ZM18.025 81.9C16.6049 81.9 15.45 80.7339 15.45 79.3C15.45 77.8661 16.6049 76.7 18.025 76.7C19.4451 76.7 20.6 77.8661 20.6 79.3C20.6 80.7339 19.4451 81.9 18.025 81.9ZM11.5875 94.9C10.1674 94.9 9.0125 93.7339 9.0125 92.3C9.0125 90.8661 10.1674 89.7 11.5875 89.7C13.0076 89.7 14.1625 90.8661 14.1625 92.3C14.1625 93.7339 13.0076 94.9 11.5875 94.9ZM54.075 92.3C54.075 93.7339 52.9201 94.9 51.5 94.9C50.0799 94.9 48.925 93.7339 48.925 92.3C48.925 90.8661 50.0799 89.7 51.5 89.7C52.9201 89.7 54.075 90.8661 54.075 92.3ZM56.5779 67.9263C56.3177 67.9797 56.0803 68.1131 55.8982 68.3081C55.7161 68.5032 55.5982 68.7503 55.5608 69.0157L54.4728 76.7H48.5272L47.4392 69.0157C47.4018 68.7503 47.2839 68.5032 47.1018 68.3081C46.9197 68.1131 46.6823 67.9797 46.4221 67.9263C43.2642 67.2747 40.2606 66.0141 37.5757 64.2135C37.3542 64.0655 37.0927 63.9902 36.8271 63.9982C36.5616 64.0061 36.305 64.0967 36.0925 64.2577L29.9318 68.9234L25.7268 64.6776L30.349 58.4558C30.5084 58.2412 30.598 57.982 30.6056 57.7138C30.6132 57.4456 30.5384 57.1817 30.3914 56.9582C28.608 54.248 27.3599 51.2154 26.7156 48.0272C26.6625 47.7644 26.5302 47.5247 26.3368 47.3408C26.1434 47.1569 25.8984 47.038 25.6354 47.0002L18.025 45.903V39.897L25.6354 38.8011C25.8986 38.7633 26.1437 38.6441 26.3371 38.46C26.5305 38.2759 26.6627 38.0358 26.7156 37.7728C27.3599 34.5846 28.608 31.552 30.3914 28.8418C30.5382 28.6182 30.6128 28.3541 30.605 28.086C30.5972 27.8178 30.5073 27.5587 30.3477 27.3442L25.7268 21.1224L29.9318 16.8766L36.0925 21.5436C36.5277 21.8725 37.1225 21.892 37.5757 21.5865C40.2606 19.7859 43.2642 18.5253 46.4221 17.8737C46.6823 17.8203 46.9197 17.6869 47.1018 17.4919C47.2839 17.2968 47.4018 17.0497 47.4392 16.7843L48.5272 9.1H54.4728L55.5608 16.7843C55.638 17.3277 56.0449 17.7645 56.5779 17.8737C59.7284 18.5224 62.7064 19.7717 65.4243 21.5865C65.6456 21.7351 65.9072 21.8106 66.1729 21.8027C66.4386 21.7948 66.6952 21.7038 66.9075 21.5423L73.0682 16.8766L77.2732 21.1224L72.6511 27.3442C72.4916 27.5588 72.402 27.818 72.3944 28.0862C72.3868 28.3544 72.4616 28.6183 72.6086 28.8418C74.392 31.552 75.6401 34.5846 76.2844 37.7728C76.3375 38.0356 76.4698 38.2753 76.6632 38.4592C76.8566 38.6431 77.1016 38.762 77.3646 38.7998L84.975 39.897V45.903L77.3646 46.9989C77.1014 47.0367 76.8563 47.1559 76.6629 47.34C76.4695 47.5241 76.3373 47.7642 76.2844 48.0272C75.6401 51.2154 74.392 54.248 72.6086 56.9582C72.4618 57.1818 72.3872 57.4459 72.395 57.714C72.4028 57.9822 72.4927 58.2413 72.6523 58.4558L77.2732 64.6776L73.0682 68.9234L66.9075 64.2564C66.6949 64.0956 66.4382 64.0052 66.1726 63.9975C65.9071 63.9898 65.6457 64.0653 65.4243 64.2135C62.7394 66.0141 59.7358 67.2747 56.5779 67.9263ZM91.4125 94.9C89.9924 94.9 88.8375 93.7339 88.8375 92.3C88.8375 90.8661 89.9924 89.7 91.4125 89.7C92.8326 89.7 93.9875 90.8661 93.9875 92.3C93.9875 93.7339 92.8326 94.9 91.4125 94.9Z" fill="white"/>
</svg>
