<svg width="632" height="553" viewBox="0 0 632 553" fill="none" xmlns="http://www.w3.org/2000/svg">
<g filter="url(#filter0_d_649_40)">
<path d="M121.182 33.5469C120.834 32.3371 120.345 31.2682 119.715 30.3402C119.085 29.3956 118.315 28.6001 117.403 27.9538C116.509 27.291 115.481 26.7855 114.321 26.4375C113.178 26.0895 111.91 25.9155 110.518 25.9155C107.916 25.9155 105.629 26.5618 103.657 27.8544C101.701 29.147 100.177 31.0279 99.0831 33.4972C97.9893 35.9498 97.4425 38.9493 97.4425 42.4957C97.4425 46.0421 97.9811 49.0582 99.0582 51.544C100.135 54.0298 101.66 55.9273 103.632 57.2365C105.604 58.5291 107.933 59.1754 110.617 59.1754C113.053 59.1754 115.133 58.7446 116.857 57.8828C118.597 57.0045 119.922 55.7699 120.834 54.179C121.762 52.5881 122.226 50.7071 122.226 48.5362L124.413 48.8594H111.288V40.7557H132.592V47.169C132.592 51.6435 131.647 55.4882 129.758 58.7031C127.869 61.9015 125.267 64.3707 121.952 66.1108C118.638 67.8343 114.843 68.696 110.567 68.696C105.795 68.696 101.602 67.6437 97.9893 65.5391C94.3767 63.4179 91.5594 60.41 89.5376 56.5156C87.5324 52.6046 86.5298 47.9645 86.5298 42.5952C86.5298 38.4687 87.1264 34.7898 88.3196 31.5582C89.5294 28.3101 91.2197 25.5592 93.3906 23.3054C95.5616 21.0516 98.0888 19.3364 100.972 18.1598C103.856 16.9832 106.98 16.3949 110.344 16.3949C113.227 16.3949 115.912 16.8175 118.398 17.6626C120.884 18.4912 123.088 19.6678 125.01 21.1925C126.949 22.7171 128.531 24.5317 129.758 26.6364C130.984 28.7244 131.771 31.0279 132.119 33.5469H121.182ZM157.729 68.7457C153.868 68.7457 150.529 67.9254 147.711 66.2848C144.911 64.6276 142.748 62.3241 141.224 59.3743C139.699 56.4079 138.937 52.9692 138.937 49.0582C138.937 45.1141 139.699 41.6671 141.224 38.7173C142.748 35.7509 144.911 33.4474 147.711 31.8068C150.529 30.1496 153.868 29.321 157.729 29.321C161.59 29.321 164.921 30.1496 167.722 31.8068C170.539 33.4474 172.71 35.7509 174.235 38.7173C175.76 41.6671 176.522 45.1141 176.522 49.0582C176.522 52.9692 175.76 56.4079 174.235 59.3743C172.71 62.3241 170.539 64.6276 167.722 66.2848C164.921 67.9254 161.59 68.7457 157.729 68.7457ZM157.779 60.5426C159.536 60.5426 161.002 60.0455 162.179 59.0511C163.355 58.0402 164.242 56.6648 164.839 54.9247C165.452 53.1847 165.758 51.2043 165.758 48.9837C165.758 46.763 165.452 44.7827 164.839 43.0426C164.242 41.3026 163.355 39.9271 162.179 38.9162C161.002 37.9053 159.536 37.3999 157.779 37.3999C156.006 37.3999 154.514 37.9053 153.305 38.9162C152.111 39.9271 151.208 41.3026 150.595 43.0426C149.998 44.7827 149.7 46.763 149.7 48.9837C149.7 51.2043 149.998 53.1847 150.595 54.9247C151.208 56.6648 152.111 58.0402 153.305 59.0511C154.514 60.0455 156.006 60.5426 157.779 60.5426ZM193.997 17.0909V68H183.407V17.0909H193.997ZM216.549 68.6214C213.649 68.6214 211.023 67.8757 208.669 66.3842C206.333 64.8762 204.477 62.6638 203.101 59.7472C201.742 56.8139 201.063 53.2178 201.063 48.9588C201.063 44.5838 201.767 40.9463 203.176 38.0462C204.584 35.1295 206.457 32.9503 208.794 31.5085C211.147 30.0502 213.724 29.321 216.525 29.321C218.662 29.321 220.444 29.6856 221.869 30.4148C223.311 31.1274 224.471 32.0223 225.349 33.0994C226.244 34.16 226.923 35.2041 227.387 36.2315H227.711V17.0909H238.275V68H227.835V61.8849H227.387C226.89 62.9455 226.186 63.9979 225.275 65.0419C224.38 66.0694 223.211 66.9228 221.77 67.6023C220.344 68.2817 218.604 68.6214 216.549 68.6214ZM219.905 60.1946C221.612 60.1946 223.054 59.7306 224.23 58.8026C225.424 57.858 226.335 56.5405 226.965 54.8501C227.611 53.1598 227.934 51.1794 227.934 48.9091C227.934 46.6387 227.619 44.6667 226.99 42.9929C226.36 41.3191 225.449 40.0265 224.255 39.1151C223.062 38.2036 221.612 37.7479 219.905 37.7479C218.165 37.7479 216.699 38.2202 215.505 39.1648C214.312 40.1094 213.409 41.4186 212.796 43.0923C212.183 44.7661 211.876 46.705 211.876 48.9091C211.876 51.1297 212.183 53.0935 212.796 54.8004C213.426 56.4908 214.329 57.8165 215.505 58.7777C216.699 59.7223 218.165 60.1946 219.905 60.1946ZM290.999 31.7322C290.8 29.727 289.947 28.1693 288.439 27.0589C286.931 25.9486 284.884 25.3935 282.299 25.3935C280.542 25.3935 279.059 25.642 277.849 26.1392C276.639 26.6198 275.711 27.291 275.065 28.1527C274.435 29.0144 274.12 29.9922 274.12 31.0859C274.087 31.9974 274.278 32.7929 274.692 33.4723C275.123 34.1518 275.711 34.7401 276.457 35.2372C277.203 35.7178 278.065 36.1404 279.042 36.505C280.02 36.853 281.064 37.1513 282.174 37.3999L286.748 38.4936C288.969 38.9908 291.007 39.6536 292.863 40.4822C294.719 41.3108 296.327 42.33 297.686 43.5398C299.045 44.7495 300.097 46.1747 300.843 47.8153C301.605 49.456 301.994 51.3369 302.011 53.4581C301.994 56.5736 301.199 59.2749 299.625 61.5618C298.067 63.8321 295.813 65.5971 292.863 66.8565C289.93 68.0994 286.392 68.7209 282.249 68.7209C278.139 68.7209 274.56 68.0911 271.51 66.8317C268.478 65.5722 266.108 63.7079 264.401 61.2386C262.711 58.7528 261.824 55.6787 261.741 52.0163H272.157C272.273 53.7232 272.761 55.1484 273.623 56.2919C274.502 57.4188 275.67 58.2723 277.128 58.8523C278.603 59.4157 280.269 59.6974 282.125 59.6974C283.948 59.6974 285.53 59.4323 286.873 58.902C288.231 58.3717 289.284 57.6342 290.029 56.6896C290.775 55.745 291.148 54.6596 291.148 53.4332C291.148 52.2898 290.808 51.3286 290.129 50.5497C289.466 49.7708 288.488 49.108 287.196 48.5611C285.92 48.0142 284.354 47.517 282.498 47.0696L276.954 45.6776C272.662 44.6335 269.273 43.0012 266.787 40.7805C264.301 38.5599 263.067 35.5687 263.083 31.8068C263.067 28.7244 263.887 26.0315 265.544 23.728C267.218 21.4245 269.513 19.6264 272.43 18.3338C275.347 17.0412 278.661 16.3949 282.373 16.3949C286.152 16.3949 289.449 17.0412 292.267 18.3338C295.1 19.6264 297.305 21.4245 298.879 23.728C300.453 26.0315 301.265 28.6996 301.315 31.7322H290.999ZM309.052 82.3182V29.8182H319.492V36.2315H319.965C320.429 35.2041 321.1 34.16 321.978 33.0994C322.873 32.0223 324.033 31.1274 325.458 30.4148C326.9 29.6856 328.69 29.321 330.828 29.321C333.612 29.321 336.18 30.0502 338.534 31.5085C340.887 32.9503 342.768 35.1295 344.176 38.0462C345.585 40.9463 346.289 44.5838 346.289 48.9588C346.289 53.2178 345.602 56.8139 344.226 59.7472C342.867 62.6638 341.011 64.8762 338.658 66.3842C336.321 67.8757 333.703 68.6214 330.803 68.6214C328.748 68.6214 326.999 68.2817 325.558 67.6023C324.133 66.9228 322.964 66.0694 322.053 65.0419C321.141 63.9979 320.445 62.9455 319.965 61.8849H319.642V82.3182H309.052ZM319.418 48.9091C319.418 51.1794 319.733 53.1598 320.362 54.8501C320.992 56.5405 321.904 57.858 323.097 58.8026C324.29 59.7306 325.74 60.1946 327.447 60.1946C329.17 60.1946 330.629 59.7223 331.822 58.7777C333.015 57.8165 333.918 56.4908 334.531 54.8004C335.161 53.0935 335.476 51.1297 335.476 48.9091C335.476 46.705 335.169 44.7661 334.556 43.0923C333.943 41.4186 333.04 40.1094 331.847 39.1648C330.654 38.2202 329.187 37.7479 327.447 37.7479C325.723 37.7479 324.265 38.2036 323.072 39.1151C321.895 40.0265 320.992 41.3191 320.362 42.9929C319.733 44.6667 319.418 46.6387 319.418 48.9091ZM370.6 68.7457C366.739 68.7457 363.4 67.9254 360.583 66.2848C357.782 64.6276 355.619 62.3241 354.095 59.3743C352.57 56.4079 351.808 52.9692 351.808 49.0582C351.808 45.1141 352.57 41.6671 354.095 38.7173C355.619 35.7509 357.782 33.4474 360.583 31.8068C363.4 30.1496 366.739 29.321 370.6 29.321C374.462 29.321 377.793 30.1496 380.593 31.8068C383.41 33.4474 385.581 35.7509 387.106 38.7173C388.631 41.6671 389.393 45.1141 389.393 49.0582C389.393 52.9692 388.631 56.4079 387.106 59.3743C385.581 62.3241 383.41 64.6276 380.593 66.2848C377.793 67.9254 374.462 68.7457 370.6 68.7457ZM370.65 60.5426C372.407 60.5426 373.873 60.0455 375.05 59.0511C376.227 58.0402 377.113 56.6648 377.71 54.9247C378.323 53.1847 378.629 51.2043 378.629 48.9837C378.629 46.763 378.323 44.7827 377.71 43.0426C377.113 41.3026 376.227 39.9271 375.05 38.9162C373.873 37.9053 372.407 37.3999 370.65 37.3999C368.877 37.3999 367.385 37.9053 366.176 38.9162C364.982 39.9271 364.079 41.3026 363.466 43.0426C362.869 44.7827 362.571 46.763 362.571 48.9837C362.571 51.2043 362.869 53.1847 363.466 54.9247C364.079 56.6648 364.982 58.0402 366.176 59.0511C367.385 60.0455 368.877 60.5426 370.65 60.5426ZM406.868 45.9261V68H396.279V29.8182H406.371V36.5547H406.818C407.664 34.334 409.08 32.5774 411.069 31.2848C413.058 29.9756 415.469 29.321 418.303 29.321C420.954 29.321 423.266 29.901 425.238 31.0611C427.21 32.2211 428.743 33.8783 429.837 36.0327C430.931 38.1705 431.477 40.7225 431.477 43.6889V68H420.888V45.5781C420.905 43.2415 420.308 41.4186 419.098 40.1094C417.888 38.7836 416.223 38.1207 414.102 38.1207C412.677 38.1207 411.417 38.4273 410.323 39.0405C409.246 39.6536 408.401 40.5485 407.788 41.7251C407.191 42.8852 406.885 44.2855 406.868 45.9261ZM471.592 40.706L461.897 41.3026C461.732 40.474 461.375 39.7282 460.828 39.0653C460.282 38.3859 459.561 37.8473 458.666 37.4496C457.788 37.0353 456.735 36.8281 455.509 36.8281C453.868 36.8281 452.484 37.1761 451.358 37.8722C450.231 38.5516 449.667 39.4631 449.667 40.6065C449.667 41.518 450.032 42.2886 450.761 42.9183C451.49 43.5481 452.741 44.0535 454.515 44.4347L461.425 45.8267C465.137 46.589 467.905 47.8153 469.728 49.5057C471.551 51.196 472.462 53.4167 472.462 56.1676C472.462 58.67 471.725 60.8658 470.25 62.755C468.791 64.6442 466.786 66.1191 464.234 67.1797C461.699 68.2237 458.774 68.7457 455.459 68.7457C450.405 68.7457 446.378 67.6934 443.378 65.5888C440.395 63.4676 438.647 60.584 438.133 56.9382L448.549 56.3913C448.864 57.9325 449.626 59.1091 450.836 59.9212C452.045 60.7166 453.595 61.1143 455.484 61.1143C457.34 61.1143 458.832 60.758 459.958 60.0455C461.102 59.3163 461.682 58.38 461.699 57.2365C461.682 56.2753 461.276 55.4882 460.48 54.875C459.685 54.2453 458.459 53.7647 456.801 53.4332L450.189 52.1158C446.461 51.37 443.685 50.0774 441.862 48.2379C440.056 46.3984 439.152 44.0535 439.152 41.2031C439.152 38.7505 439.815 36.6375 441.141 34.8643C442.483 33.0911 444.364 31.724 446.784 30.7628C449.22 29.8016 452.07 29.321 455.335 29.321C460.157 29.321 463.952 30.3402 466.72 32.3785C469.504 34.4169 471.128 37.1927 471.592 40.706ZM496.382 68.7457C492.52 68.7457 489.181 67.9254 486.364 66.2848C483.563 64.6276 481.401 62.3241 479.876 59.3743C478.351 56.4079 477.589 52.9692 477.589 49.0582C477.589 45.1141 478.351 41.6671 479.876 38.7173C481.401 35.7509 483.563 33.4474 486.364 31.8068C489.181 30.1496 492.52 29.321 496.382 29.321C500.243 29.321 503.574 30.1496 506.374 31.8068C509.192 33.4474 511.363 35.7509 512.887 38.7173C514.412 41.6671 515.174 45.1141 515.174 49.0582C515.174 52.9692 514.412 56.4079 512.887 59.3743C511.363 62.3241 509.192 64.6276 506.374 66.2848C503.574 67.9254 500.243 68.7457 496.382 68.7457ZM496.431 60.5426C498.188 60.5426 499.655 60.0455 500.831 59.0511C502.008 58.0402 502.894 56.6648 503.491 54.9247C504.104 53.1847 504.411 51.2043 504.411 48.9837C504.411 46.763 504.104 44.7827 503.491 43.0426C502.894 41.3026 502.008 39.9271 500.831 38.9162C499.655 37.9053 498.188 37.3999 496.431 37.3999C494.658 37.3999 493.167 37.9053 491.957 38.9162C490.764 39.9271 489.861 41.3026 489.247 43.0426C488.651 44.7827 488.352 46.763 488.352 48.9837C488.352 51.2043 488.651 53.1847 489.247 54.9247C489.861 56.6648 490.764 58.0402 491.957 59.0511C493.167 60.0455 494.658 60.5426 496.431 60.5426ZM522.06 68V29.8182H532.326V36.4801H532.724C533.42 34.1103 534.588 32.3205 536.229 31.1108C537.869 29.8845 539.759 29.2713 541.896 29.2713C542.427 29.2713 542.999 29.3044 543.612 29.3707C544.225 29.437 544.763 29.5282 545.227 29.6442V39.0405C544.73 38.8913 544.043 38.7588 543.164 38.6428C542.286 38.5268 541.482 38.4688 540.753 38.4688C539.195 38.4688 537.803 38.8085 536.577 39.4879C535.367 40.1508 534.406 41.0788 533.693 42.272C532.997 43.4652 532.649 44.8407 532.649 46.3984V68H522.06Z" fill="white"/>
</g>
<path d="M123.69 452H112.469V415.636H124.188C127.715 415.636 130.734 416.364 133.243 417.82C135.752 419.264 137.676 421.342 139.014 424.053C140.351 426.751 141.02 429.983 141.02 433.747C141.02 437.535 140.345 440.796 138.996 443.531C137.646 446.253 135.681 448.348 133.101 449.816C130.52 451.272 127.384 452 123.69 452ZM116.872 448.094H123.406C126.413 448.094 128.905 447.514 130.881 446.354C132.858 445.194 134.332 443.542 135.303 441.4C136.273 439.257 136.759 436.706 136.759 433.747C136.759 430.812 136.279 428.284 135.32 426.165C134.362 424.035 132.929 422.401 131.024 421.265C129.118 420.117 126.744 419.543 123.903 419.543H116.872V448.094ZM159.273 452.568C156.645 452.568 154.378 451.988 152.472 450.828C150.578 449.656 149.117 448.023 148.087 445.928C147.069 443.821 146.56 441.37 146.56 438.577C146.56 435.783 147.069 433.321 148.087 431.19C149.117 429.048 150.549 427.379 152.384 426.183C154.23 424.976 156.385 424.372 158.847 424.372C160.267 424.372 161.67 424.609 163.055 425.082C164.44 425.556 165.7 426.325 166.837 427.391C167.973 428.444 168.879 429.841 169.553 431.581C170.228 433.321 170.565 435.464 170.565 438.009V439.784H149.543V436.162H166.304C166.304 434.623 165.996 433.25 165.381 432.043C164.777 430.835 163.913 429.882 162.788 429.184C161.676 428.486 160.362 428.136 158.847 428.136C157.178 428.136 155.734 428.551 154.514 429.379C153.307 430.196 152.378 431.261 151.727 432.575C151.076 433.889 150.75 435.298 150.75 436.801V439.216C150.75 441.276 151.105 443.022 151.815 444.454C152.537 445.874 153.538 446.957 154.816 447.703C156.095 448.437 157.58 448.804 159.273 448.804C160.374 448.804 161.368 448.65 162.256 448.342C163.155 448.023 163.931 447.549 164.582 446.922C165.233 446.283 165.736 445.49 166.091 444.543L170.139 445.679C169.713 447.052 168.997 448.259 167.991 449.301C166.985 450.331 165.742 451.136 164.262 451.716C162.783 452.284 161.119 452.568 159.273 452.568ZM181.13 415.636V452H176.94V415.636H181.13ZM192.995 415.636V452H188.805V415.636H192.995ZM213.312 419.543V415.636H240.585V419.543H229.15V452H224.747V419.543H213.312ZM254.292 452.568C251.665 452.568 249.398 451.988 247.492 450.828C245.598 449.656 244.136 448.023 243.106 445.928C242.088 443.821 241.579 441.37 241.579 438.577C241.579 435.783 242.088 433.321 243.106 431.19C244.136 429.048 245.568 427.379 247.403 426.183C249.25 424.976 251.404 424.372 253.866 424.372C255.287 424.372 256.689 424.609 258.074 425.082C259.459 425.556 260.72 426.325 261.856 427.391C262.993 428.444 263.898 429.841 264.573 431.581C265.248 433.321 265.585 435.464 265.585 438.009V439.784H244.562V436.162H261.324C261.324 434.623 261.016 433.25 260.4 432.043C259.797 430.835 258.932 429.882 257.808 429.184C256.695 428.486 255.381 428.136 253.866 428.136C252.197 428.136 250.753 428.551 249.534 429.379C248.326 430.196 247.397 431.261 246.746 432.575C246.095 433.889 245.77 435.298 245.77 436.801V439.216C245.77 441.276 246.125 443.022 246.835 444.454C247.557 445.874 248.557 446.957 249.836 447.703C251.114 448.437 252.6 448.804 254.292 448.804C255.393 448.804 256.388 448.65 257.275 448.342C258.175 448.023 258.95 447.549 259.601 446.922C260.252 446.283 260.755 445.49 261.111 444.543L265.159 445.679C264.733 447.052 264.017 448.259 263.01 449.301C262.004 450.331 260.761 451.136 259.282 451.716C257.802 452.284 256.139 452.568 254.292 452.568ZM283.039 452.568C280.482 452.568 278.28 451.964 276.434 450.757C274.587 449.55 273.167 447.887 272.172 445.768C271.178 443.649 270.681 441.228 270.681 438.506C270.681 435.736 271.19 433.291 272.208 431.173C273.238 429.042 274.67 427.379 276.505 426.183C278.351 424.976 280.506 424.372 282.968 424.372C284.885 424.372 286.614 424.727 288.152 425.438C289.691 426.148 290.952 427.142 291.934 428.42C292.917 429.699 293.526 431.19 293.763 432.895H289.573C289.253 431.652 288.543 430.551 287.442 429.592C286.353 428.622 284.885 428.136 283.039 428.136C281.405 428.136 279.973 428.562 278.742 429.415C277.523 430.255 276.57 431.445 275.883 432.984C275.209 434.511 274.871 436.304 274.871 438.364C274.871 440.471 275.203 442.305 275.866 443.868C276.54 445.43 277.487 446.644 278.706 447.508C279.937 448.372 281.382 448.804 283.039 448.804C284.128 448.804 285.116 448.615 286.004 448.236C286.892 447.857 287.643 447.312 288.259 446.602C288.874 445.892 289.312 445.04 289.573 444.045H293.763C293.526 445.655 292.941 447.105 292.005 448.396C291.082 449.674 289.857 450.692 288.33 451.45C286.815 452.195 285.051 452.568 283.039 452.568ZM304.079 435.594V452H299.889V415.636H304.079V428.989H304.434C305.074 427.58 306.032 426.461 307.311 425.633C308.601 424.792 310.317 424.372 312.46 424.372C314.318 424.372 315.946 424.745 317.343 425.491C318.74 426.225 319.823 427.355 320.592 428.882C321.373 430.397 321.764 432.327 321.764 434.67V452H317.574V434.955C317.574 432.788 317.011 431.113 315.887 429.93C314.774 428.734 313.229 428.136 311.253 428.136C309.879 428.136 308.648 428.426 307.559 429.006C306.482 429.586 305.63 430.433 305.003 431.545C304.387 432.658 304.079 434.008 304.079 435.594ZM333.62 435.594V452H329.43V424.727H333.478V428.989H333.833C334.473 427.604 335.443 426.491 336.745 425.651C338.047 424.798 339.728 424.372 341.788 424.372C343.634 424.372 345.25 424.751 346.635 425.509C348.02 426.254 349.097 427.391 349.867 428.918C350.636 430.433 351.021 432.35 351.021 434.67V452H346.831V434.955C346.831 432.812 346.274 431.143 345.161 429.947C344.049 428.74 342.522 428.136 340.581 428.136C339.243 428.136 338.047 428.426 336.994 429.006C335.952 429.586 335.13 430.433 334.526 431.545C333.922 432.658 333.62 434.008 333.62 435.594ZM369.758 452.568C367.295 452.568 365.135 451.982 363.277 450.81C361.43 449.638 359.986 447.999 358.944 445.892C357.915 443.785 357.4 441.323 357.4 438.506C357.4 435.665 357.915 433.185 358.944 431.066C359.986 428.947 361.43 427.302 363.277 426.13C365.135 424.958 367.295 424.372 369.758 424.372C372.22 424.372 374.374 424.958 376.221 426.13C378.079 427.302 379.523 428.947 380.553 431.066C381.595 433.185 382.116 435.665 382.116 438.506C382.116 441.323 381.595 443.785 380.553 445.892C379.523 447.999 378.079 449.638 376.221 450.81C374.374 451.982 372.22 452.568 369.758 452.568ZM369.758 448.804C371.628 448.804 373.167 448.325 374.374 447.366C375.581 446.407 376.475 445.146 377.055 443.584C377.635 442.021 377.925 440.329 377.925 438.506C377.925 436.683 377.635 434.984 377.055 433.41C376.475 431.835 375.581 430.563 374.374 429.592C373.167 428.622 371.628 428.136 369.758 428.136C367.887 428.136 366.348 428.622 365.141 429.592C363.934 430.563 363.04 431.835 362.46 433.41C361.88 434.984 361.59 436.683 361.59 438.506C361.59 440.329 361.88 442.021 362.46 443.584C363.04 445.146 363.934 446.407 365.141 447.366C366.348 448.325 367.887 448.804 369.758 448.804ZM392.702 415.636V452H388.512V415.636H392.702ZM411.457 452.568C408.995 452.568 406.834 451.982 404.976 450.81C403.129 449.638 401.685 447.999 400.644 445.892C399.614 443.785 399.099 441.323 399.099 438.506C399.099 435.665 399.614 433.185 400.644 431.066C401.685 428.947 403.129 427.302 404.976 426.13C406.834 424.958 408.995 424.372 411.457 424.372C413.919 424.372 416.073 424.958 417.92 426.13C419.778 427.302 421.222 428.947 422.252 431.066C423.294 433.185 423.815 435.665 423.815 438.506C423.815 441.323 423.294 443.785 422.252 445.892C421.222 447.999 419.778 449.638 417.92 450.81C416.073 451.982 413.919 452.568 411.457 452.568ZM411.457 448.804C413.327 448.804 414.866 448.325 416.073 447.366C417.281 446.407 418.174 445.146 418.754 443.584C419.334 442.021 419.624 440.329 419.624 438.506C419.624 436.683 419.334 434.984 418.754 433.41C418.174 431.835 417.281 430.563 416.073 429.592C414.866 428.622 413.327 428.136 411.457 428.136C409.586 428.136 408.048 428.622 406.84 429.592C405.633 430.563 404.739 431.835 404.159 433.41C403.579 434.984 403.289 436.683 403.289 438.506C403.289 440.329 403.579 442.021 404.159 443.584C404.739 445.146 405.633 446.407 406.84 447.366C408.048 448.325 409.586 448.804 411.457 448.804ZM441.22 462.795C439.196 462.795 437.456 462.535 436 462.014C434.544 461.505 433.33 460.83 432.36 459.99C431.401 459.161 430.637 458.274 430.069 457.327L433.407 454.983C433.786 455.48 434.265 456.048 434.845 456.688C435.425 457.339 436.219 457.901 437.225 458.374C438.243 458.86 439.574 459.102 441.22 459.102C443.421 459.102 445.238 458.57 446.671 457.504C448.103 456.439 448.819 454.77 448.819 452.497V446.957H448.464C448.156 447.455 447.718 448.07 447.15 448.804C446.594 449.526 445.789 450.171 444.735 450.739C443.694 451.296 442.285 451.574 440.509 451.574C438.308 451.574 436.331 451.053 434.579 450.011C432.839 448.97 431.46 447.455 430.442 445.466C429.436 443.477 428.933 441.062 428.933 438.222C428.933 435.428 429.424 432.996 430.407 430.924C431.389 428.841 432.756 427.231 434.508 426.094C436.26 424.946 438.284 424.372 440.581 424.372C442.356 424.372 443.765 424.668 444.806 425.26C445.86 425.84 446.665 426.503 447.221 427.249C447.789 427.982 448.227 428.586 448.535 429.06H448.961V424.727H453.01V452.781C453.01 455.125 452.477 457.031 451.411 458.499C450.358 459.978 448.938 461.061 447.15 461.748C445.375 462.446 443.398 462.795 441.22 462.795ZM441.078 447.81C442.759 447.81 444.179 447.425 445.339 446.656C446.499 445.886 447.381 444.779 447.985 443.335C448.588 441.891 448.89 440.163 448.89 438.151C448.89 436.186 448.594 434.451 448.002 432.948C447.411 431.445 446.535 430.267 445.375 429.415C444.215 428.562 442.782 428.136 441.078 428.136C439.302 428.136 437.822 428.586 436.639 429.486C435.467 430.385 434.585 431.593 433.993 433.108C433.413 434.623 433.123 436.304 433.123 438.151C433.123 440.045 433.419 441.719 434.011 443.175C434.615 444.62 435.502 445.756 436.674 446.585C437.858 447.401 439.326 447.81 441.078 447.81ZM460.68 452V424.727H464.87V452H460.68ZM462.811 420.182C461.994 420.182 461.29 419.904 460.698 419.347C460.118 418.791 459.828 418.122 459.828 417.341C459.828 416.56 460.118 415.891 460.698 415.335C461.29 414.778 461.994 414.5 462.811 414.5C463.627 414.5 464.326 414.778 464.906 415.335C465.498 415.891 465.794 416.56 465.794 417.341C465.794 418.122 465.498 418.791 464.906 419.347C464.326 419.904 463.627 420.182 462.811 420.182ZM483.98 452.568C481.352 452.568 479.085 451.988 477.179 450.828C475.285 449.656 473.824 448.023 472.794 445.928C471.776 443.821 471.267 441.37 471.267 438.577C471.267 435.783 471.776 433.321 472.794 431.19C473.824 429.048 475.256 427.379 477.091 426.183C478.937 424.976 481.092 424.372 483.554 424.372C484.974 424.372 486.377 424.609 487.762 425.082C489.147 425.556 490.407 426.325 491.544 427.391C492.68 428.444 493.586 429.841 494.26 431.581C494.935 433.321 495.272 435.464 495.272 438.009V439.784H474.25V436.162H491.011C491.011 434.623 490.703 433.25 490.088 432.043C489.484 430.835 488.62 429.882 487.495 429.184C486.383 428.486 485.069 428.136 483.554 428.136C481.885 428.136 480.441 428.551 479.221 429.379C478.014 430.196 477.085 431.261 476.434 432.575C475.783 433.889 475.457 435.298 475.457 436.801V439.216C475.457 441.276 475.812 443.022 476.522 444.454C477.245 445.874 478.245 446.957 479.523 447.703C480.802 448.437 482.287 448.804 483.98 448.804C485.081 448.804 486.075 448.65 486.963 448.342C487.862 448.023 488.638 447.549 489.289 446.922C489.94 446.283 490.443 445.49 490.798 444.543L494.846 445.679C494.42 447.052 493.704 448.259 492.698 449.301C491.692 450.331 490.449 451.136 488.969 451.716C487.49 452.284 485.826 452.568 483.98 452.568ZM520.965 430.835L517.201 431.901C516.964 431.273 516.615 430.664 516.153 430.072C515.703 429.468 515.088 428.971 514.307 428.58C513.525 428.19 512.525 427.994 511.306 427.994C509.637 427.994 508.246 428.379 507.133 429.148C506.032 429.906 505.482 430.871 505.482 432.043C505.482 433.084 505.861 433.907 506.618 434.511C507.376 435.114 508.56 435.617 510.169 436.02L514.218 437.014C516.656 437.606 518.473 438.512 519.669 439.731C520.864 440.938 521.462 442.495 521.462 444.401C521.462 445.963 521.012 447.36 520.113 448.591C519.225 449.822 517.982 450.793 516.384 451.503C514.786 452.213 512.928 452.568 510.809 452.568C508.027 452.568 505.725 451.964 503.902 450.757C502.079 449.55 500.925 447.786 500.439 445.466L504.417 444.472C504.795 445.939 505.512 447.04 506.565 447.774C507.63 448.508 509.021 448.875 510.738 448.875C512.691 448.875 514.241 448.461 515.39 447.632C516.55 446.792 517.13 445.786 517.13 444.614C517.13 443.667 516.798 442.874 516.135 442.234C515.473 441.583 514.455 441.098 513.081 440.778L508.536 439.713C506.038 439.121 504.204 438.204 503.032 436.961C501.872 435.706 501.292 434.138 501.292 432.256C501.292 430.717 501.724 429.356 502.588 428.172C503.464 426.988 504.653 426.059 506.157 425.384C507.672 424.71 509.388 424.372 511.306 424.372C514.005 424.372 516.124 424.964 517.662 426.148C519.213 427.331 520.314 428.894 520.965 430.835Z" fill="#FFFDFD"/>
<rect x="23" y="163" width="593" height="172.342" rx="52" fill="#F7F7F7"/>
<path d="M577 258.221C577 251.919 573.496 249.121 566.494 247.72C559.496 246.323 555.297 245.617 555.297 240.722C555.297 237.224 558.095 235.121 563 235.121C569.302 235.121 571.399 237.919 571.399 241.423L572.1 242.124H574.898L575.598 241.423C575.598 234.426 569.997 231.623 562.995 231.623C555.292 231.623 551.097 235.822 551.097 240.727C551.097 246.328 555.297 249.126 562.294 250.528C569.297 251.929 572.795 252.63 572.795 258.231C572.795 261.73 570.698 264.533 563.696 264.533C557.394 264.533 554.596 261.029 554.596 256.83L553.895 256.129H551.097L550.397 256.83C550.397 263.131 555.297 268.032 563.696 268.032C572.795 268.032 577 263.832 577 258.231M546.898 251.234L547.593 250.533V248.436C547.593 238.635 541.992 231.633 532.192 231.633C522.392 231.633 516.791 238.635 516.791 248.436V249.832C516.791 259.633 521.691 268.032 532.893 268.032C542.693 268.032 546.192 261.73 546.893 257.53L546.192 256.83H543.394L542.693 257.53C541.292 261.73 538.494 264.533 532.893 264.533C523.788 264.533 520.99 256.134 520.99 251.935L521.691 251.234H546.893H546.898ZM542.698 247.73H521.696L520.995 247.029C520.995 242.129 523.793 235.132 532.197 235.132C540.601 235.132 543.399 242.129 543.399 247.029L542.698 247.73ZM511.895 266.63V233.014L511.195 232.313H508.397L507.696 233.014V266.62L508.397 267.321H511.195L511.895 266.62V266.63ZM511.895 226.027V221.827L511.195 221.127H508.397L507.696 221.827V226.027L508.397 226.728H511.195L511.895 226.027ZM485.297 264.528C478.295 264.528 474.095 259.628 474.095 249.827C474.095 240.027 478.295 235.126 485.297 235.126C492.3 235.126 496.494 240.027 496.494 249.827C496.494 259.628 492.295 264.528 485.297 264.528ZM496.494 262.426C496.494 271.525 494.392 278.528 485.993 278.528C479.691 278.528 477.594 275.73 476.893 272.226L476.192 271.525H473.394L472.694 272.226C473.394 277.827 477.594 282.026 485.993 282.026C495.098 282.026 500.693 276.425 500.693 262.426V233.024L499.993 232.323H497.89L497.19 233.024L496.489 237.229H495.788C494.392 234.431 490.888 231.628 484.586 231.628C474.786 231.628 469.885 239.331 469.885 249.832C469.885 260.334 474.786 268.032 484.586 268.032C490.888 268.032 494.387 265.234 495.788 262.431H496.489L496.494 262.426ZM450.996 235.126C457.993 235.126 462.893 240.727 462.893 249.827C462.893 258.927 457.993 264.528 450.996 264.528C443.998 264.528 439.093 258.927 439.093 249.827C439.093 240.727 443.993 235.126 450.996 235.126ZM450.996 268.027C460.095 268.027 467.093 261.725 467.093 249.827C467.093 237.93 460.095 231.623 450.996 231.623C441.896 231.623 434.893 237.924 434.893 249.827C434.893 261.73 441.891 268.027 450.996 268.027ZM429.993 266.63V219.019L429.292 218.318H426.494L425.794 219.019V266.625L426.494 267.326H429.292L429.993 266.625V266.63ZM404.796 235.126C411.794 235.126 416.694 240.727 416.694 249.827C416.694 258.927 411.794 264.528 404.796 264.528C397.799 264.528 392.894 258.927 392.894 249.827C392.894 240.727 397.794 235.126 404.796 235.126ZM404.796 268.027C413.896 268.027 420.899 261.725 420.899 249.827C420.899 237.93 413.896 231.623 404.796 231.623C395.697 231.623 388.694 237.924 388.694 249.827C388.694 261.73 395.697 268.027 404.796 268.027ZM384.495 266.63V245.628C384.495 236.528 379.595 231.628 371.896 231.628C366.996 231.628 362.792 233.73 360.694 237.229H359.994L359.298 233.024L358.597 232.323H356.495L355.794 233.024V266.63L356.495 267.331H359.298L359.994 266.63V247.73C359.994 240.027 363.497 235.132 371.196 235.132C376.797 235.132 380.295 238.63 380.295 245.628V266.63L380.996 267.331H383.794L384.495 266.63ZM348.792 266.63V245.628C348.792 236.528 343.891 231.628 336.193 231.628C331.293 231.628 327.094 233.73 324.991 237.229H324.29V219.019L323.59 218.318H320.792L320.091 219.019V266.625L320.792 267.326H323.59L324.29 266.625V247.725C324.29 240.022 327.794 235.126 335.492 235.126C341.093 235.126 344.592 238.625 344.592 245.623V266.625L345.293 267.326H348.096L348.792 266.625V266.63ZM288.593 249.827C288.593 240.027 293.493 235.126 300.49 235.126C307.487 235.126 310.291 239.326 310.986 243.525L311.687 244.226H314.49L315.191 243.525C314.49 236.528 308.889 231.628 300.49 231.628C291.39 231.628 284.393 237.229 284.393 249.832C284.393 262.436 291.39 268.032 300.49 268.032C308.889 268.032 314.49 263.131 315.191 256.134L314.49 255.433H311.687L310.986 256.134C310.285 260.334 307.487 264.533 300.49 264.533C293.493 264.533 288.593 259.633 288.593 249.832M280.889 251.234L281.59 250.533V248.436C281.59 238.635 275.989 231.633 266.183 231.633C256.378 231.633 250.782 238.635 250.782 248.436V249.832C250.782 259.633 255.682 268.032 266.884 268.032C276.685 268.032 280.183 261.73 280.884 257.53L280.183 256.83H277.385L276.685 257.53C275.288 261.73 272.485 264.533 266.884 264.533C257.784 264.533 254.987 256.134 254.987 251.935L255.687 251.234H280.889ZM276.69 247.73H255.687L254.987 247.029C254.987 242.129 257.784 235.132 266.183 235.132C274.582 235.132 277.385 242.129 277.385 247.029L276.685 247.73H276.69ZM257.826 221.132V219.029L257.125 218.329H220.721L220.02 219.029V221.132L220.721 221.833H236.122L236.823 222.533V266.635L237.524 267.336H240.322L241.023 266.635V222.518L241.723 221.817H257.125L257.826 221.116V221.132Z" fill="#0076CE"/>
<path d="M220.02 257.582V267.321H188.408V218.318H199.538V257.582H220.02ZM73.8637 267.321C85.2666 267.321 94.8507 259.53 97.5816 248.987L125.303 270.644L153.009 248.998V267.321H184.621V257.582H164.139V218.318H153.009V236.641L126.437 257.402L120.496 252.759L133.218 242.819L147.068 231.999L139.159 225.821L112.586 246.581L106.645 241.938L133.218 221.178L125.308 215L97.5868 236.657C94.8507 226.109 85.2666 218.318 73.8637 218.318H54V267.321H73.8637ZM65.1299 257.582V228.057H73.8637C81.2475 228.057 87.235 234.668 87.235 242.819C87.235 250.971 81.2475 257.582 73.8637 257.582H65.1299Z" fill="#0076CE"/>
<defs>
<filter id="filter0_d_649_40" x="82.5298" y="16.3945" width="466.698" height="73.9238" filterUnits="userSpaceOnUse" color-interpolation-filters="sRGB">
<feFlood flood-opacity="0" result="BackgroundImageFix"/>
<feColorMatrix in="SourceAlpha" type="matrix" values="0 0 0 0 0 0 0 0 0 0 0 0 0 0 0 0 0 0 127 0" result="hardAlpha"/>
<feOffset dy="4"/>
<feGaussianBlur stdDeviation="2"/>
<feComposite in2="hardAlpha" operator="out"/>
<feColorMatrix type="matrix" values="0 0 0 0 0 0 0 0 0 0 0 0 0 0 0 0 0 0 0.25 0"/>
<feBlend mode="normal" in2="BackgroundImageFix" result="effect1_dropShadow_649_40"/>
<feBlend mode="normal" in="SourceGraphic" in2="effect1_dropShadow_649_40" result="shape"/>
</filter>
</defs>
</svg>
