<?xml version="1.0" encoding="UTF-8"?>
<svg xmlns="http://www.w3.org/2000/svg" xmlns:xlink="http://www.w3.org/1999/xlink" viewBox="0 0 45.01 40.51">
  <defs>
    <style>
      .cls-1 {
        fill: url(#radial-gradient-11);
      }

      .cls-1, .cls-2, .cls-3, .cls-4, .cls-5 {
        mix-blend-mode: multiply;
      }

      .cls-6 {
        fill: url(#linear-gradient-2);
      }

      .cls-7 {
        fill: url(#radial-gradient-10);
      }

      .cls-2 {
        fill: #dc988d;
      }

      .cls-2, .cls-8 {
        opacity: .55;
      }

      .cls-3 {
        fill: url(#radial-gradient-6);
      }

      .cls-9 {
        fill: url(#radial-gradient-8);
      }

      .cls-10 {
        fill: url(#radial-gradient-5);
      }

      .cls-11 {
        fill: url(#radial-gradient-4);
      }

      .cls-12 {
        isolation: isolate;
      }

      .cls-4 {
        fill: url(#radial-gradient-9);
      }

      .cls-13 {
        fill: url(#radial-gradient);
      }

      .cls-14 {
        fill: url(#linear-gradient-5);
      }

      .cls-15 {
        fill: #6a2e25;
      }

      .cls-16 {
        fill: url(#radial-gradient-3);
      }

      .cls-8 {
        fill: url(#radial-gradient-12);
        mix-blend-mode: overlay;
      }

      .cls-17 {
        fill: url(#radial-gradient-2);
        mix-blend-mode: screen;
      }

      .cls-18 {
        fill: url(#linear-gradient-3);
      }

      .cls-19 {
        fill: url(#linear-gradient);
      }

      .cls-5 {
        fill: url(#radial-gradient-7);
      }

      .cls-20 {
        fill: url(#linear-gradient-4);
      }
    </style>
    <linearGradient id="linear-gradient" x1="31.14" y1="24.66" x2="14" y2="35.19" gradientUnits="userSpaceOnUse">
      <stop offset=".04" stop-color="#a5422d"/>
      <stop offset=".99" stop-color="#6a2e25"/>
    </linearGradient>
    <radialGradient id="radial-gradient" cx="72.34" cy="64.96" fx="72.34" fy="64.96" r="14.8" gradientTransform="translate(-10.29 -3.79) scale(.45 .6)" gradientUnits="userSpaceOnUse">
      <stop offset=".01" stop-color="#f6c054"/>
      <stop offset=".54" stop-color="#ffea72"/>
      <stop offset=".58" stop-color="#ffef71"/>
      <stop offset=".59" stop-color="#fff171"/>
      <stop offset=".82" stop-color="#ffe05a"/>
      <stop offset=".96" stop-color="#ffd44a"/>
    </radialGradient>
    <radialGradient id="radial-gradient-2" cx="72.34" cy="32.82" fx="72.34" fy="32.82" r="14.77" gradientTransform="translate(-10.29 9.96) scale(.45 .77)" gradientUnits="userSpaceOnUse">
      <stop offset="0" stop-color="#ffffc3"/>
      <stop offset=".95" stop-color="#ffea72"/>
    </radialGradient>
    <linearGradient id="linear-gradient-2" x1="22.5" y1="35.87" x2="22.5" y2="39.14" gradientUnits="userSpaceOnUse">
      <stop offset=".04" stop-color="#a5422d"/>
      <stop offset=".48" stop-color="#8a3929"/>
      <stop offset=".99" stop-color="#6a2e25"/>
    </linearGradient>
    <radialGradient id="radial-gradient-3" cx="50.96" cy="-18.26" fx="50.96" fy="-18.26" r="37.31" gradientTransform="translate(-2.84 24.39) scale(.5)" gradientUnits="userSpaceOnUse">
      <stop offset=".01" stop-color="#f6c054"/>
      <stop offset=".3" stop-color="#f2a942"/>
      <stop offset=".54" stop-color="#ffea72"/>
      <stop offset=".58" stop-color="#ffef71"/>
      <stop offset=".59" stop-color="#fff171"/>
      <stop offset=".76" stop-color="#fada61"/>
      <stop offset=".96" stop-color="#f3b94a"/>
    </radialGradient>
    <radialGradient id="radial-gradient-4" cx="50.96" cy="-18.26" fx="50.96" fy="-18.26" r="37.31" xlink:href="#radial-gradient-3"/>
    <radialGradient id="radial-gradient-5" cx="50.96" cy="-18.26" fx="50.96" fy="-18.26" r="37.31" xlink:href="#radial-gradient-3"/>
    <radialGradient id="radial-gradient-6" cx="50.98" cy="-18.26" fx="50.98" fy="-18.26" r="37.31" xlink:href="#radial-gradient-3"/>
    <radialGradient id="radial-gradient-7" cx="-428.36" cy="-18.26" fx="-428.36" fy="-18.26" r="37.31" gradientTransform="translate(-191.81 24.39) rotate(-180) scale(.5 -.5)" xlink:href="#radial-gradient-3"/>
    <radialGradient id="radial-gradient-8" cx="83.39" cy="11.33" fx="83.39" fy="11.33" r="20.4" gradientTransform="translate(-2.84 24.39) scale(.5)" gradientUnits="userSpaceOnUse">
      <stop offset="0" stop-color="#04a852"/>
      <stop offset=".29" stop-color="#019d4f"/>
      <stop offset=".61" stop-color="#01994e"/>
      <stop offset="1" stop-color="#056839"/>
    </radialGradient>
    <radialGradient id="radial-gradient-9" cx="-478.84" cy="57.34" fx="-478.84" fy="57.34" r="19.79" gradientTransform="translate(-204.74 43.63) rotate(169.07) scale(.5 -.5)" gradientUnits="userSpaceOnUse">
      <stop offset="0" stop-color="#5c0b10"/>
      <stop offset=".21" stop-color="#600b10"/>
      <stop offset=".43" stop-color="#6c0b10"/>
      <stop offset=".65" stop-color="#810b10"/>
      <stop offset=".87" stop-color="#9e0b10"/>
      <stop offset="1" stop-color="#b30b10"/>
    </radialGradient>
    <radialGradient id="radial-gradient-10" cx="17.35" cy="10.88" fx="17.35" fy="10.88" r="20.62" xlink:href="#radial-gradient-8"/>
    <radialGradient id="radial-gradient-11" cx="13.83" cy="-37.8" fx="13.83" fy="-37.8" r="19.79" gradientTransform="translate(-1.12 43.63) rotate(10.93) scale(.5)" xlink:href="#radial-gradient-9"/>
    <linearGradient id="linear-gradient-3" x1="5.44" y1="29.09" x2="39.57" y2="29.09" gradientUnits="userSpaceOnUse">
      <stop offset="0" stop-color="#056839"/>
      <stop offset=".31" stop-color="#04a852"/>
      <stop offset=".7" stop-color="#04a752"/>
      <stop offset="1" stop-color="#056839"/>
    </linearGradient>
    <linearGradient id="linear-gradient-4" x1="16.68" y1="17.38" x2="28.36" y2="10.56" gradientUnits="userSpaceOnUse">
      <stop offset=".39" stop-color="#864a25"/>
      <stop offset="1" stop-color="#e8b175"/>
    </linearGradient>
    <linearGradient id="linear-gradient-5" x1="22.49" y1="7.95" x2="22.49" y2="20.41" gradientUnits="userSpaceOnUse">
      <stop offset="0" stop-color="#e59f69"/>
      <stop offset=".43" stop-color="#b46d43"/>
      <stop offset=".52" stop-color="#984b28"/>
      <stop offset=".6" stop-color="#873717"/>
      <stop offset=".65" stop-color="#813012"/>
      <stop offset=".7" stop-color="#964824"/>
      <stop offset=".77" stop-color="#ae6238"/>
      <stop offset=".84" stop-color="#c07547"/>
      <stop offset=".92" stop-color="#ca8150"/>
      <stop offset="1" stop-color="#ce8553"/>
    </linearGradient>
    <radialGradient id="radial-gradient-12" cx="50.68" cy="-8.28" fx="50.68" fy="-8.28" r="42.82" gradientTransform="translate(-2.84 24.39) scale(.5)" gradientUnits="userSpaceOnUse">
      <stop offset="0" stop-color="#ececbb"/>
      <stop offset="1" stop-color="#784f58"/>
    </radialGradient>
  </defs>
  <g class="cls-12">
    <g id="Layer_2" data-name="Layer 2">
      <g id="Layer_1-2" data-name="Layer 1">
        <g>
          <g>
            <g>
              <g>
                <g>
                  <path class="cls-19" d="m30.73,37.59v-12.14c0-2.39-.99-4.32-2.2-4.32h-11.91c-1.22,0-2.2,1.94-2.2,4.32v12.14h16.32Z"/>
                  <path class="cls-13" d="m13.52,34.68l-.41,1.69h18.92l-.41-1.69c-.1-.42-.35-.7-.62-.7H14.13c-.27,0-.51.28-.62.7Z"/>
                  <path class="cls-17" d="m31.62,34.68c-.1-.42-.35-.7-.62-.7H14.13c-.27,0-.51.28-.62.7l-.41,1.69h.22l.4-1.42c.1-.36.34-.59.6-.59h16.48c.26,0,.5.23.6.59l.4,1.42h.22l-.41-1.69Z"/>
                  <path class="cls-15" d="m33.06,39.02l-.23-1.91c-.05-.41-.28-.74-.52-.74H12.7c-.24,0-.47.33-.52.74l-.23,1.91h21.11Z"/>
                  <path class="cls-6" d="m32.82,37.11c-.05-.41-.28-.74-.52-.74H12.7c-.24,0-.47.33-.52.74l-.23,1.91h.32l.23-1.55c.05-.33.27-.6.51-.6h19.01c.23,0,.46.27.51.6l.23,1.55h.32l-.23-1.91Z"/>
                </g>
                <path class="cls-2" d="m32.3,36.37h-.27l-.41-1.69c-.08-.32-.23-.55-.42-.65-.06-.03-.13-.05-.2-.05h-.28v-5.29H14.41v5.29h-.28c-.27,0-.51.28-.62.7l-.41,1.69h-.41c-.24,0-.47.33-.52.74l-.23,1.91h21.11l-.23-1.91c-.05-.41-.28-.74-.52-.74Z"/>
              </g>
              <g>
                <path class="cls-16" d="m35.88,18.98s.01,0,.02,0c.13.06.26.12.4.17.24.09.5.16.76.18.49.05.98-.06,1.39-.34.5-.35.83-.88,1.06-1.44.2-.48.32-1.01.35-1.52-.3-.23-.7-.37-1.08-.4-.54-.04-1.06.16-1.47.51-.53.45-.9,1.06-1.21,1.7.14-.81.22-1.63.25-2.45.27.07.54.13.81.14.48.03.97-.07,1.36-.37.48-.36.75-.9.9-1.47.14-.51.19-1.08.13-1.61-.69-.35-1.56-.25-2.13.28-.59.55-.86,1.33-1.07,2.09,0-.81-.06-1.62-.16-2.42.02,0,.04,0,.06,0,.07,0,.14.01.21.02.13,0,.26,0,.39,0,.45-.03.9-.16,1.24-.46.4-.35.61-.87.69-1.39.09-.52.06-1.1-.07-1.62-.6-.2-1.32-.06-1.78.38-.55.53-.73,1.35-.83,2.08,0,.07-.02.14-.02.21,0,0,0,0,0-.01-.12-.77-.29-1.52-.49-2.27.02,0,.04,0,.06,0,.07,0,.14,0,.21-.01.45-.04.91-.16,1.26-.46.42-.35.61-.88.65-1.41.02-.3,0-.6-.06-.89-.04-.22-.08-.45-.17-.66-.51-.1-1.09.05-1.47.41-.43.41-.58,1.03-.63,1.61-.02.28-.03.56-.01.84-.21-.73-.46-1.45-.74-2.16.02,0,.04,0,.06,0,.07,0,.14-.02.2-.04.12-.02.24-.06.36-.1.21-.07.4-.17.58-.3.87-.66.72-1.98.29-2.86-.4-.04-.84.09-1.15.35-.33.27-.48.67-.55,1.08-.08.48-.03.97.05,1.45-.23-.57-.49-1.13-.76-1.69-.05-.1-.1-.2-.15-.3.06-.01.12-.03.18-.05.24-.07.47-.16.67-.29.45-.29.69-.78.68-1.32,0-.5-.16-1.01-.42-1.44-.57,0-1.11.33-1.32.86-.2.51-.14,1.1-.02,1.61.03.12.06.25.09.37-.23-.45-.48-.9-.73-1.33.02-.11.11-.51.11-.72,0-.56-.12-.83-.42-1.17-.32-.35-1.03-.43-1.47-.26-.07.41-.05.85.09,1.25.15.42.48.73.92.83.16.04.52.08.68.1.06.12.13.23.2.35.04.08.08.16.12.24-.19-.19-.35-.28-.62-.34-.35-.07-.87.14-1.14.42.13.27.36.53.65.7.31.18.67.2,1,.04.1-.05.31-.17.41-.24.25.51.5,1.02.72,1.55-.02-.03-.03-.05-.05-.08-.09-.12-.18-.24-.29-.35-.2-.2-.44-.39-.71-.49-.5-.18-1.02.05-1.33.45,0,0,0,0-.01.01.2.42.56.82,1,.99.5.19,1.02.01,1.43-.28.02-.01.04-.03.06-.04.11.26.21.52.31.78.11.3.22.61.33.92-.06-.09-.11-.18-.18-.27-.13-.19-.29-.36-.46-.51-.24-.2-.53-.35-.85-.36-.41-.01-.82.21-1.09.51.2.48.55.94,1.03,1.16.48.22,1.02.12,1.47-.12.06-.03.12-.07.18-.1.06.19.13.39.18.58.12.41.23.83.33,1.25-.08-.15-.16-.29-.26-.43-.26-.37-.61-.73-1.06-.84-.5-.12-1.04.08-1.4.43.15.47.43.92.82,1.22.39.3.89.38,1.37.28.13-.03.25-.06.37-.11.07-.03.14-.05.2-.08.02,0,.04-.02.06-.03.01.06.03.13.04.19.14.59.23,1.21.3,1.81-.02-.05-.04-.1-.06-.15-.17-.4-.4-.78-.73-1.06-.32-.27-.73-.41-1.15-.35-.32.04-.64.18-.9.38.08.47.33.97.66,1.31.35.36.82.55,1.31.55.27,0,.54-.05.8-.13.04-.01.08-.03.12-.04.05.52.09,1.04.1,1.56,0,.19,0,.38,0,.57-.13-.49-.32-.95-.66-1.33-.57-.63-1.51-.64-2.22-.22.05.51.23,1.06.55,1.47.3.39.73.65,1.21.74.25.05.51.05.76.03.12-.01.23-.03.35-.05-.03.74-.09,1.47-.2,2.2-.04-.38-.13-.75-.3-1.1-.24-.5-.64-.9-1.19-1.03-.43-.1-.92-.04-1.33.13,0,.5.07,1.01.28,1.46.23.48.61.86,1.11,1.07.21.09.44.15.67.18.13.02.26.03.39.03.07,0,.14,0,.21,0,0,0,.01,0,.02,0-.14.74-.33,1.48-.56,2.2,0-.24,0-.47-.04-.71-.09-.58-.32-1.15-.81-1.5-.5-.36-1.2-.42-1.79-.28-.11.48-.08,1.01.03,1.48.14.52.43.97.87,1.29.42.31.93.48,1.45.56-.05.14-.11.28-.16.42-.24.59-.51,1.16-.82,1.71.03-.14.05-.27.07-.41.08-.73-.03-1.52-.6-2.04-.46-.43-1.16-.61-1.78-.59-.41,1.01-.32,2.23.44,3.05.33.35.74.61,1.19.8.05.02.11.04.16.06-.43.67-.91,1.3-1.44,1.89.02-.05.04-.09.06-.14.28-.66.39-1.45.07-2.12-.34-.71-1.14-1.14-1.89-1.29-.63.92-.72,2.15-.18,3.13.23.43.57.8.95,1.1.06.05.12.09.17.13-.06.05-.12.11-.18.16-.48.43-1,.81-1.53,1.16-.09.06-.18.11-.27.17.55-.66.97-1.5.73-2.37-.2-.75-.86-1.34-1.53-1.7-.17.13-.31.31-.45.48-.17.21-.31.45-.43.69-.26.53-.36,1.13-.27,1.72.06.4.2.77.39,1.13,2.05.49,3.98,1.45,5.76,2.67.69-.32,1.32-.79,1.83-1.33-.1-.62-.53-1.21-1.08-1.52-.91-.51-2.03-.29-2.98,0-.19.06-.38.12-.56.18.7-.54,1.35-1.15,1.93-1.82.02.03.04.05.06.08.35.44.77.85,1.3,1.07.58.24,1.23.19,1.8-.06,1.03-.44,1.85-1.38,2.37-2.35-.04-.07-.09-.14-.14-.21-.31-.43-.76-.76-1.28-.88-.58-.14-1.18-.01-1.71.23-.53.24-.99.57-1.46.91.49-.71.92-1.46,1.28-2.24.39.3.84.57,1.32.68.5.12,1.02.05,1.48-.19.54-.28.97-.75,1.29-1.26.3-.46.54-.98.68-1.52-.03-.03-.06-.06-.09-.09-.38-.37-.9-.61-1.43-.62-.59-.02-1.14.25-1.6.61-.35.27-.65.59-.93.93-.07.08-.13.16-.2.25.3-.78.54-1.58.73-2.39,0-.01,0-.03,0-.04Z"/>
                <path class="cls-11" d="m15.9,27.92c.62-.41,1.27-.75,1.96-.99,0-.04.02-.08.03-.13.09-.59-.02-1.19-.27-1.72-.12-.25-.26-.48-.43-.69-.13-.17-.28-.34-.45-.48-.66.36-1.32.96-1.53,1.7-.23.85.16,1.66.69,2.31Z"/>
                <path class="cls-10" d="m10.99,27.74c-.55.31-.97.9-1.08,1.52.65.7,1.52,1.29,2.45,1.57.05-.04.11-.08.16-.12,1.1-1.01,2.18-2.01,3.36-2.78-.07-.04-.13-.08-.2-.12-.54-.35-1.06-.73-1.53-1.16-.06-.05-.12-.11-.18-.16.06-.04.12-.09.17-.13.38-.31.71-.67.95-1.1.53-.98.45-2.21-.18-3.13-.75.15-1.55.58-1.89,1.29-.32.67-.21,1.45.07,2.12.02.05.04.09.06.14-.53-.59-1.02-1.22-1.44-1.89.05-.02.11-.04.16-.06.44-.19.86-.45,1.19-.8.76-.81.85-2.04.44-3.05-.62-.02-1.32.16-1.78.59-.56.52-.67,1.31-.6,2.04.01.14.04.27.07.41-.31-.55-.58-1.13-.82-1.71-.06-.14-.11-.28-.16-.42.52-.08,1.03-.25,1.45-.56.44-.32.72-.77.87-1.29.11-.47.14-1,.03-1.48-.59-.13-1.29-.07-1.79.28-.49.35-.73.92-.81,1.5-.03.23-.04.47-.04.71-.23-.72-.42-1.45-.56-2.2,0,0,.01,0,.02,0,.07,0,.14,0,.21,0,.13,0,.26-.01.39-.03.23-.03.46-.09.67-.18.49-.21.87-.59,1.11-1.07.22-.45.29-.97.28-1.46-.41-.17-.9-.23-1.33-.13-.55.13-.95.53-1.19,1.03-.17.34-.25.72-.3,1.1-.11-.73-.17-1.46-.2-2.2.11.02.23.04.35.05.25.02.51.02.76-.03.48-.09.91-.35,1.21-.74.31-.41.5-.96.55-1.47-.7-.42-1.65-.41-2.22.22-.34.38-.53.85-.66,1.33,0-.19,0-.38,0-.57.01-.52.05-1.04.1-1.56.04.01.08.03.12.04.26.08.53.13.8.13.5,0,.97-.19,1.31-.55.33-.34.58-.84.66-1.31-.25-.2-.58-.34-.9-.38-.42-.06-.83.07-1.15.35-.33.28-.56.66-.73,1.06-.02.05-.04.1-.06.15.07-.61.17-1.22.3-1.81.01-.06.03-.13.04-.19.02,0,.04.02.06.03.07.03.13.06.2.08.12.05.25.08.37.11.48.1.98.02,1.37-.28.39-.3.67-.76.82-1.22-.36-.35-.9-.56-1.4-.43-.45.11-.81.47-1.06.84-.1.14-.18.28-.26.43.1-.42.21-.83.33-1.25.06-.19.12-.39.18-.58.06.04.12.07.18.1.45.24.99.34,1.47.12s.83-.68,1.03-1.16c-.26-.31-.68-.52-1.09-.51-.32,0-.61.16-.85.36-.18.15-.33.33-.46.51-.06.09-.12.18-.18.27.11-.31.22-.61.33-.92.1-.26.2-.52.31-.78.02.01.04.03.06.04.42.29.94.47,1.43.28.44-.17.8-.57,1-.99,0,0,0,0-.01-.01-.32-.4-.83-.62-1.33-.45-.27.1-.51.28-.71.49-.11.11-.2.23-.29.35-.02.02-.03.05-.05.08.22-.53.47-1.04.72-1.55.1.06.31.19.42.24.32.16.69.14,1-.04.29-.17.52-.42.65-.7-.26-.28-.79-.49-1.14-.42-.28.06-.45.15-.64.36.04-.09.09-.17.13-.26.06-.12.13-.23.19-.35.16-.01.53-.06.69-.1.44-.1.77-.41.92-.83.14-.39.17-.84.09-1.25-.44-.17-1.15-.09-1.47.26-.3.34-.42.61-.42,1.17,0,.2.08.59.11.71-.26.44-.51.89-.74,1.35.03-.12.06-.24.09-.37.12-.52.18-1.11-.02-1.61-.21-.53-.76-.87-1.32-.86-.25.43-.41.94-.42,1.44,0,.54.23,1.02.68,1.32.21.13.44.23.67.29.06.02.12.03.18.05-.05.1-.1.2-.15.3-.27.55-.52,1.12-.76,1.69.08-.48.12-.97.05-1.45-.07-.41-.22-.81-.55-1.08-.31-.26-.75-.39-1.15-.35-.43.88-.58,2.2.29,2.86.17.13.37.23.58.3.12.04.24.07.36.1.07.01.13.03.2.04.02,0,.04,0,.06,0-.28.71-.53,1.43-.74,2.16.01-.28,0-.56-.01-.84-.05-.58-.19-1.19-.63-1.61-.38-.36-.96-.51-1.47-.41-.09.21-.13.44-.17.66-.05.29-.08.59-.06.89.04.53.23,1.06.65,1.41.35.29.81.42,1.26.46.07,0,.14.01.21.01.02,0,.04,0,.06,0-.2.75-.36,1.51-.49,2.27,0,0,0,0,0,.01,0-.07-.02-.14-.02-.21-.1-.73-.27-1.55-.83-2.08-.46-.44-1.18-.58-1.78-.38-.13.52-.16,1.1-.07,1.62.09.51.29,1.04.69,1.39.35.3.79.43,1.24.46.13,0,.26,0,.39,0,.07,0,.14,0,.21-.02.02,0,.04,0,.06,0-.1.8-.15,1.61-.16,2.42-.21-.76-.48-1.54-1.07-2.09-.57-.52-1.44-.63-2.13-.28-.06.53,0,1.1.13,1.61.15.56.42,1.11.9,1.47.39.29.88.39,1.36.37.28-.01.55-.07.81-.14.03.82.12,1.64.25,2.45-.31-.63-.68-1.24-1.21-1.7-.41-.35-.93-.55-1.47-.51-.38.03-.77.17-1.08.4.03.51.15,1.05.35,1.52.23.56.56,1.09,1.06,1.44.41.29.9.39,1.39.34.26-.03.51-.09.76-.18.14-.05.27-.11.4-.17,0,0,.01,0,.02,0,0,.01,0,.03,0,.04.19.81.43,1.61.73,2.39-.07-.08-.13-.17-.2-.25-.28-.34-.58-.66-.93-.93-.46-.36-1.01-.62-1.6-.61-.53.01-1.05.26-1.43.62-.03.03-.06.06-.09.09.14.54.38,1.05.68,1.52.32.51.75.98,1.29,1.26.46.24.98.31,1.48.19.49-.12.93-.38,1.32-.68.37.78.8,1.53,1.28,2.24-.46-.34-.93-.67-1.46-.91-.53-.24-1.13-.37-1.71-.23-.52.12-.97.46-1.28.88-.05.07-.1.14-.14.21.51.98,1.34,1.91,2.37,2.35.57.24,1.22.29,1.8.06.53-.22.95-.63,1.3-1.07.02-.03.04-.05.06-.08.58.67,1.23,1.28,1.93,1.82-.19-.06-.38-.13-.56-.18-.95-.28-2.07-.5-2.98,0Z"/>
                <path class="cls-3" d="m11,27.74c-.55.31-.97.9-1.08,1.52.65.7,1.52,1.29,2.45,1.57.05-.04.11-.08.16-.12,1.1-1.01,2.18-2.01,3.36-2.78-.07-.04-.13-.08-.2-.12-.54-.35-1.06-.73-1.53-1.16-.06-.05-.12-.11-.18-.16.06-.04.12-.09.17-.13.38-.31.71-.67.95-1.1.53-.98.45-2.21-.18-3.13-.45.53-.07,1.43-.25,2.2-.31,1.33-1.3,1.55-1.28,1.59-.53-.59-1.24-1.47-1.67-2.14.05-.02.11-.04.16-.06.44-.19.86-.45,1.19-.8.76-.81.85-2.04.44-3.05-.62-.02-.31,1.61-.97,2.19-1.16,1.01-1.34.85-1.34.85-.31-.55-.58-1.13-.82-1.71-.06-.14-.11-.28-.16-.42.52-.08,1.03-.25,1.45-.56.44-.32.72-.77.87-1.29.11-.47.14-1,.03-1.48-.59-.13-.84,1.58-1.32,1.97-.73.59-1.33.52-1.33.52-.23-.72-.42-1.45-.56-2.2,0,0,.01,0,.02,0,.07,0,.14,0,.21,0,.13,0,.26-.01.39-.03.23-.03.46-.09.67-.18.49-.21.88-.59,1.11-1.07.22-.45.29-.97.28-1.46-.41-.17-1.07,1.2-1.44,1.44-.8.52-1.37.56-1.37.56-.11-.73-.17-1.46-.2-2.2.11.02.23.04.35.05.25.02.51.02.76-.03.48-.09.91-.35,1.21-.74.31-.41.5-.96.55-1.47-.7-.42-.81.5-1.38,1.14-.34.38-1.5.42-1.5.42,0-.19,0-.38,0-.57.01-.52.05-1.04.1-1.56.04.01.08.03.12.04.26.08.53.13.8.13.5,0,.97-.19,1.31-.55.33-.34.58-.84.66-1.31-.25-.2-.95.21-1.36.84-.24.37-1.01.47-1.48.33.07-.61.17-1.22.3-1.81.01-.06.03-.13.04-.19.02,0,.04.02.06.03.07.03.13.06.2.08.12.05.25.08.37.11.48.1.98.02,1.37-.28.39-.3.67-.76.82-1.22-.36-.35-1.04.64-1.52.79-.81.25-.98.13-1.2.05.1-.42.21-.83.33-1.25.06-.19.12-.39.18-.58.06.04.12.07.18.1.45.24.99.34,1.47.12.48-.22.83-.68,1.03-1.16-.26-.31-1.11.37-1.4.5-.75.34-1.13.03-1.18.12.11-.31.22-.61.33-.92.1-.26.2-.52.31-.78.02.01.04.03.06.04.42.29.94.47,1.43.28.44-.17.8-.57,1-.99,0,0,0,0-.01-.01-.32-.4-.86.28-1.36.46-.27.1-1.01-.02-1.03,0,.22-.53.47-1.04.72-1.55.1.06.31.19.42.24.32.16.69.14,1-.04.29-.17.52-.42.65-.7-.49-.17-.75.17-1.1.24-.28.06-.68-.31-.68-.31.04-.09.09-.17.13-.26.06-.12.13-.23.19-.35,0,0,.31-1.71,1.7-2.18-.44-.17-1.15-.09-1.47.26-.3.34-.42.61-.42,1.17,0,.2.08.59.11.71-.26.44-.51.89-.74,1.35-.31-.3-.72-.64-.92-1.15-.21-.53.23-1.7-.33-1.69-.25.43-.41.94-.42,1.44,0,.54.23,1.02.68,1.32.21.13.44.23.67.29.06.02.12.03.18.05-.05.1-.1.2-.15.3-.27.55-.52,1.12-.76,1.69-.98-.4-1.09-.86-1.29-1.46-.13-.38.04-1.46-.36-1.42-.43.88-.58,2.2.29,2.86.17.13.37.23.58.3.12.04.24.07.36.1.07.01.13.03.2.04.02,0,.04,0,.06,0-.28.71-.53,1.43-.74,2.16-.59-.1-1.01-.31-1.46-1.07-.27-.45-.14-1.88-.65-1.78-.09.21-.13.44-.17.66-.05.29-.08.59-.06.89.04.53.23,1.06.65,1.41.35.29.81.42,1.26.46.07,0,.14.01.21.01.02,0,.04,0,.06,0-.2.75-.36,1.51-.49,2.27,0,0,0,0,0,.01-1.14.14-1.37-.2-1.73-.67-.39-.51-.3-2.2-.9-1.99-.13.52-.16,1.1-.07,1.62.09.51.29,1.04.69,1.39.35.3.79.43,1.24.46.13,0,.26,0,.39,0,.07,0,.14,0,.21-.02.02,0,.04,0,.06,0-.1.8-.15,1.61-.16,2.42,0,0-1.46.17-2.05-.38-.57-.52-.46-2.34-1.15-1.99-.06.53,0,1.1.13,1.61.15.56.42,1.11.9,1.47.39.29.88.39,1.36.37.28-.01.55-.07.81-.14.03.82.12,1.64.25,2.45,0,0-1.02.59-2.05-.09-.63-.42-.83-1.8-1.71-1.72.03.51.15,1.05.35,1.52.23.56.56,1.09,1.06,1.44.41.29.9.39,1.39.34.26-.03.51-.09.76-.18.14-.05.27-.11.4-.17,0,0,.01,0,.02,0,0,.01,0,.03,0,.04.19.81.43,1.61.73,2.39-.32.8-1.51.82-1.91.65-1.58-.66-1.28-2.23-2.25-1.81-.04.02-.06.06-.09.09.14.54.38,1.05.68,1.52.32.51.75.98,1.29,1.26.46.24.98.31,1.48.19.49-.12.93-.38,1.32-.68.37.78,1.17,2.09,1.66,2.8,0,0-.61.99-2.52.48-.94-.25-1.98-1.72-2.29-1.3-.05.07-.1.14-.14.21.51.98,1.34,1.91,2.37,2.35.57.24,1.22.29,1.8.06.53-.22.95-.63,1.3-1.07.02-.03.04-.05.06-.08.58.67,1.23,1.28,1.93,1.82-.19-.06-.38-.13-.57-.18-.95-.28-2.07-.5-2.98,0Z"/>
                <path class="cls-5" d="m34.02,27.74c.55.31.97.9,1.08,1.52-.65.7-1.52,1.29-2.45,1.57-.05-.04-.11-.08-.16-.12-1.1-1.01-2.18-2.01-3.36-2.78.07-.04.13-.08.2-.12.54-.35,1.06-.73,1.53-1.16.06-.05.12-.11.18-.16-.06-.04-.12-.09-.17-.13-.38-.31-.71-.67-.95-1.1-.53-.98-.45-2.21.18-3.13.45.53.07,1.43.25,2.2.31,1.33,1.3,1.55,1.28,1.59.53-.59,1.24-1.47,1.67-2.14-.05-.02-.11-.04-.16-.06-.44-.19-.86-.45-1.19-.8-.76-.81-.85-2.04-.44-3.05.62-.02.31,1.61.97,2.19,1.16,1.01,1.34.85,1.34.85.31-.55.58-1.13.82-1.71.06-.14.11-.28.16-.42-.52-.08-1.03-.25-1.45-.56-.44-.32-.72-.77-.87-1.29-.11-.47-.14-1-.03-1.48.59-.13.84,1.58,1.32,1.97.73.59,1.33.52,1.33.52.23-.72.42-1.45.56-2.2,0,0-.01,0-.02,0-.07,0-.14,0-.21,0-.13,0-.26-.01-.39-.03-.23-.03-.46-.09-.67-.18-.49-.21-.88-.59-1.11-1.07-.22-.45-.29-.97-.28-1.46.41-.17,1.07,1.2,1.44,1.44.8.52,1.37.56,1.37.56.11-.73.17-1.46.2-2.2-.11.02-.23.04-.35.05-.25.02-.51.02-.76-.03-.48-.09-.91-.35-1.21-.74-.31-.41-.5-.96-.55-1.47.7-.42.81.5,1.38,1.14.34.38,1.5.42,1.5.42,0-.19,0-.38,0-.57-.01-.52-.05-1.04-.1-1.56-.04.01-.08.03-.12.04-.26.08-.53.13-.8.13-.5,0-.97-.19-1.31-.55-.33-.34-.58-.84-.66-1.31.25-.2.95.21,1.36.84.24.37,1.01.47,1.48.33-.07-.61-.17-1.22-.3-1.81-.01-.06-.03-.13-.04-.19-.02,0-.04.02-.06.03-.07.03-.13.06-.2.08-.12.05-.25.08-.37.11-.48.1-.98.02-1.37-.28-.39-.3-.67-.76-.82-1.22.36-.35,1.04.64,1.52.79.81.25.98.13,1.2.05-.1-.42-.21-.83-.33-1.25-.06-.19-.12-.39-.18-.58-.06.04-.12.07-.18.1-.45.24-.99.34-1.47.12-.48-.22-.83-.68-1.03-1.16.26-.31,1.11.37,1.4.5.75.34,1.13.03,1.18.12-.11-.31-.22-.61-.33-.92-.1-.26-.2-.52-.31-.78-.02.01-.04.03-.06.04-.42.29-.94.47-1.43.28-.44-.17-.8-.57-1-.99,0,0,0,0,.01-.01.32-.4.86.28,1.36.46.27.1,1.01-.02,1.03,0-.22-.53-.47-1.04-.72-1.55-.1.06-.31.19-.42.24-.32.16-.69.14-1-.04-.29-.17-.52-.42-.65-.7.49-.17.75.17,1.1.24.28.06.68-.31.68-.31-.04-.09-.09-.17-.13-.26-.06-.12-.13-.23-.19-.35,0,0-.31-1.71-1.7-2.18.44-.17,1.15-.09,1.47.26.3.34.42.61.42,1.17,0,.2-.08.59-.11.71.26.44.51.89.74,1.35.31-.3.72-.64.92-1.15.21-.53-.23-1.7.33-1.69.25.43.41.94.42,1.44,0,.54-.23,1.02-.68,1.32-.21.13-.44.23-.67.29-.06.02-.12.03-.18.05.05.1.1.2.15.3.27.55.52,1.12.76,1.69.98-.4,1.09-.86,1.29-1.46.13-.38-.04-1.46.36-1.42.43.88.58,2.2-.29,2.86-.17.13-.37.23-.58.3-.12.04-.24.07-.36.1-.07.01-.13.03-.2.04-.02,0-.04,0-.06,0,.28.71.53,1.43.74,2.16.59-.1,1.01-.31,1.46-1.07.27-.45.14-1.88.65-1.78.09.21.13.44.17.66.05.29.08.59.06.89-.04.53-.23,1.06-.65,1.41-.35.29-.81.42-1.26.46-.07,0-.14.01-.21.01-.02,0-.04,0-.06,0,.2.75.36,1.51.49,2.27,0,0,0,0,0,.01,1.14.14,1.37-.2,1.73-.67.39-.51.3-2.2.9-1.99.13.52.16,1.1.07,1.62-.09.51-.29,1.04-.69,1.39-.35.3-.79.43-1.24.46-.13,0-.26,0-.39,0-.07,0-.14,0-.21-.02-.02,0-.04,0-.06,0,.1.8.15,1.61.16,2.42,0,0,1.46.17,2.05-.38.57-.52.46-2.34,1.15-1.99.06.53,0,1.1-.13,1.61-.15.56-.42,1.11-.9,1.47-.39.29-.88.39-1.36.37-.28-.01-.55-.07-.81-.14-.03.82-.12,1.64-.25,2.45,0,0,1.02.59,2.05-.09.63-.42.83-1.8,1.71-1.72-.03.51-.15,1.05-.35,1.52-.23.56-.56,1.09-1.06,1.44-.41.29-.9.39-1.39.34-.26-.03-.51-.09-.76-.18-.14-.05-.27-.11-.4-.17,0,0-.01,0-.02,0,0,.01,0,.03,0,.04-.19.81-.43,1.61-.73,2.39.32.8,1.51.82,1.92.65,1.58-.66,1.28-2.23,2.25-1.81.04.02.06.06.09.09-.14.54-.38,1.05-.68,1.52-.32.51-.75.98-1.29,1.26-.46.24-.98.31-1.48.19-.49-.12-.93-.38-1.32-.68-.37.78-1.17,2.09-1.66,2.8,0,0,.61.99,2.52.48.94-.25,1.98-1.72,2.29-1.3.05.07.1.14.14.21-.51.98-1.34,1.91-2.37,2.35-.57.24-1.22.29-1.8.06-.53-.22-.95-.63-1.3-1.07-.02-.03-.04-.05-.06-.08-.58.67-1.23,1.28-1.93,1.82.19-.06.38-.13.57-.18.95-.28,2.07-.5,2.98,0Z"/>
              </g>
              <g>
                <g>
                  <path class="cls-9" d="m32.06,26.83l-2.11,7.24s6.76,1.23,10.56,6.45c0,0,.98-3.38.71-5.09,0,0,2.43-.58,3.79-.79,0,0-2.22-4.38-12.94-7.81Z"/>
                  <path class="cls-4" d="m36.36,35.06l-6.4-.99,2.11-7.24c2.12.68,3.9,1.39,5.4,2.1-.89,1.9-1.38,4.06-1.1,6.13Z"/>
                </g>
                <g>
                  <path class="cls-7" d="m12.94,26.83l2.11,7.24s-6.76,1.23-10.56,6.45c0,0-.98-3.38-.71-5.09,0,0-2.43-.58-3.79-.79,0,0,2.22-4.38,12.94-7.81Z"/>
                  <path class="cls-1" d="m8.65,35.06l6.4-.99-2.11-7.24c-2.12.68-3.9,1.39-5.4,2.1.89,1.9,1.38,4.06,1.1,6.13Z"/>
                </g>
                <path class="cls-18" d="m36.36,35.06c-9.45-5.75-18.27-5.75-27.72,0-1.28-2.63-1.92-3.94-3.2-6.57,11.42-7.16,22.71-7.16,34.12,0-1.28,2.63-1.92,3.94-3.2,6.57Z"/>
              </g>
            </g>
            <g>
              <path class="cls-20" d="m26.39,13.61v-.08c1.22-.45,1.75-1.7,1.75-3.1,0-2.08-1.99-3.82-5.52-3.82s-5.7,1.74-5.7,3.84v.12c0,.08-.03.15-.03.23v.48h3.88c0-.79.83-1.24,1.32-1.24,1.1,0,1.47.51,1.47,1.3,0,.94-.6.95-1.35.95h-1.1v2.97h1.41c.75,0,1.35.28,1.35,1.22,0,1.02-.52,1.33-2,1.33-.92,0-1.38-.77-1.38-1.64h-4.01v.5h0v.43c0,2.23,1.91,4.04,6.07,4.04s5.91-1.82,6.01-4.06c0-1.72-.58-2.98-2.16-3.47Z"/>
              <path class="cls-14" d="m27.72,10.64c0,1.33-.79,2.5-1.93,2.93v.08c1.46.46,2.31,1.66,2.31,3.27-.1,2.12-1.77,3.83-5.59,3.83s-5.64-1.71-5.64-3.81v-.4h3.39c0,.87.46,1.58,2,1.58s2-.75,2-1.77c0-.94-.6-1.39-1.35-1.39h-1.41v-2.37h1.1c.75,0,1.35-.44,1.35-1.39,0-.79-.6-1.52-1.7-1.52-1.16,0-1.75.67-1.75,1.46h-3.22v-.48c0-1.98,1.91-3.62,5.3-3.62s5.12,1.64,5.12,3.6Z"/>
            </g>
          </g>
          <path class="cls-8" d="m45.01,34.64s-1.19-2.34-6.03-4.94c.18-.37.38-.77.59-1.2-1.06-.66-2.12-1.27-3.17-1.81.64-.49,1.17-1.16,1.53-1.86-.04-.07-.09-.14-.14-.21-.01-.02-.02-.02-.04-.03-.31-.41-.75-.73-1.25-.85-.58-.14-1.18-.01-1.71.23-.52.24-.98.56-1.44.9.16-.25.33-.53.5-.81.09-.16.19-.32.28-.48.19-.34.37-.67.49-.93.39.3.83.56,1.32.68.13.03.26.05.39.05.38.02.76-.07,1.1-.24.54-.28.97-.75,1.29-1.26.3-.46.54-.98.68-1.52-.03-.03-.05-.07-.09-.09,0,0-.01,0-.02,0-.38-.36-.9-.6-1.43-.62-.59-.02-1.14.25-1.6.61-.35.27-.65.59-.93.93-.06.07-.12.15-.18.23.29-.77.54-1.57.72-2.37,0-.01,0-.03,0-.04,0,0,0,0,0,0,.13.06.26.12.4.17.24.09.5.16.76.18.12.01.25.02.37,0,.37-.02.72-.14,1.03-.35.5-.35.83-.88,1.06-1.44.2-.48.32-1.01.35-1.52,0,0,0,0,0,0h0c-.3-.23-.7-.37-1.08-.4-.54-.04-1.06.16-1.47.51-.52.45-.89,1.05-1.2,1.67.13-.8.22-1.61.25-2.42.26.07.53.12.81.14,0,0,0,0,0,0,0,0,0,0,0,0,.48.03.97-.07,1.36-.37.48-.36.75-.9.9-1.47.14-.51.19-1.08.13-1.61-.02-.01-.04-.01-.05-.02-.68-.33-1.53-.22-2.08.3-.58.54-.85,1.31-1.06,2.06,0-.8-.06-1.6-.15-2.39.02,0,.03,0,.05,0,.07,0,.14.01.21.02,0,0,0,0,0,0h0c.13,0,.26,0,.39,0,.45-.03.9-.16,1.24-.46.4-.35.61-.87.69-1.39.09-.52.06-1.1-.07-1.62,0,0-.02,0-.02,0-.6-.2-1.31-.06-1.76.38-.55.53-.73,1.35-.83,2.08,0,.06-.01.12-.02.18-.12-.76-.28-1.51-.48-2.25.02,0,.04,0,.06,0,.07,0,.14,0,.21-.01.45-.04.91-.16,1.26-.46.42-.35.61-.88.65-1.41.02-.3,0-.6-.06-.89-.04-.22-.08-.45-.17-.66,0,0,0,0-.01,0-.51-.1-1.09.05-1.47.41-.43.41-.58,1.03-.63,1.61-.02.27-.03.54-.01.8-.21-.72-.46-1.43-.73-2.13.02,0,.04,0,.06,0,.07,0,.14-.02.2-.04.12-.02.24-.06.36-.1.21-.07.4-.17.58-.3.87-.66.72-1.98.29-2.86,0,0,0,0,0,0h0c-.4-.04-.84.09-1.15.35-.33.27-.48.67-.55,1.08-.07.47-.03.95.04,1.42-.23-.56-.48-1.11-.75-1.66-.05-.1-.1-.2-.15-.3.06-.01.12-.03.18-.05.24-.07.47-.16.67-.29.45-.29.69-.78.68-1.32,0-.5-.16-1.01-.42-1.44,0,0,0,0,0,0h0c-.57,0-1.11.33-1.32.86-.2.51-.14,1.1-.02,1.61.03.11.05.22.08.34-.23-.44-.47-.88-.72-1.31,0-.04.02-.1.04-.18,0-.03.01-.06.02-.09,0-.03.01-.06.02-.09,0-.05.02-.1.02-.15,0-.02,0-.03,0-.04,0-.06.01-.11.01-.15,0,0,0,0,0-.01,0-.56-.12-.83-.42-1.17-.2-.22-.55-.33-.9-.35-.21,0-.41.02-.58.08-.07.41-.05.85.09,1.25.15.42.48.73.92.83.16.04.52.08.68.1.06.12.13.23.2.35.04.08.08.16.12.24-.19-.19-.35-.28-.62-.34-.35-.07-.87.14-1.14.42.13.27.36.53.65.7.15.09.32.14.49.15.17,0,.34-.03.5-.1.1-.05.31-.17.41-.24.25.51.5,1.02.72,1.55h0s-.03-.05-.05-.07c-.09-.12-.18-.24-.29-.35-.2-.2-.44-.39-.71-.49-.5-.18-1.02.05-1.33.45,0,0,0,0-.01.01.2.42.56.82,1,.99.13.05.25.07.38.08.38.02.75-.14,1.06-.35.02-.01.03-.02.05-.04.11.26.21.51.3.77.11.3.22.61.33.91,0,0,0,0,0,0-.05-.09-.11-.18-.17-.26-.13-.19-.29-.36-.46-.51-.24-.2-.53-.35-.85-.36-.41-.01-.82.21-1.09.51.2.48.55.94,1.03,1.16.18.08.37.12.56.12.32,0,.63-.09.92-.24.06-.03.11-.06.17-.1.06.19.12.38.18.58.12.41.23.83.33,1.25-.08-.15-.16-.29-.26-.43-.26-.37-.61-.73-1.06-.84-.5-.12-1.04.08-1.4.43.15.47.43.92.82,1.22.3.23.65.33,1.01.32.12,0,.24-.01.37-.04.13-.03.25-.06.37-.11.07-.03.14-.05.2-.08.02,0,.03-.02.05-.02.01.06.03.12.04.18.14.59.23,1.21.3,1.81-.02-.05-.04-.1-.06-.15-.17-.4-.4-.78-.73-1.06-.32-.27-.73-.41-1.15-.35-.32.04-.64.18-.9.38.08.47.33.97.66,1.31.35.36.82.55,1.31.55,0,0,0,0,0,0,0,0,0,0,0,0,.27,0,.54-.05.8-.13.04-.01.07-.02.11-.04.05.52.09,1.04.1,1.56,0,.19,0,.38,0,.56h0c-.13-.49-.32-.95-.66-1.33-.57-.63-1.51-.64-2.22-.22.05.51.23,1.06.55,1.47.3.39.73.65,1.21.74.13.02.26.04.39.04.13,0,.26,0,.38-.01.11-.01.22-.03.34-.05-.03.74-.09,1.47-.2,2.2h0c-.04-.38-.13-.75-.3-1.1-.24-.5-.64-.9-1.19-1.03-.43-.1-.92-.04-1.33.13,0,.5.07,1.01.28,1.46.23.48.61.86,1.11,1.07.21.09.44.15.67.18.13.02.26.03.39.03.07,0,.14,0,.21,0h0s0,0,0,0c0,0,0,0,.01,0-.14.74-.33,1.48-.56,2.2,0-.24,0-.47-.04-.71-.09-.58-.32-1.15-.81-1.5-.5-.36-1.2-.42-1.79-.28-.11.48-.08,1.01.03,1.48.14.52.43.97.87,1.29.42.31.93.48,1.45.56-.05.14-.11.28-.16.42-.24.59-.51,1.16-.82,1.71.03-.14.05-.27.07-.41.08-.73-.03-1.52-.6-2.04-.46-.42-1.15-.61-1.76-.59,0,0,0,0,0,0h0s0,0,0,0c-.41,1.01-.32,2.23.44,3.05.33.35.74.61,1.19.8.05.02.11.04.16.06-.2.3-.4.6-.62.89-.05.06-.1.13-.15.19-.03.03-.06.07-.08.1-.11-.04-.21-.08-.32-.12.09-.48.07-.98-.14-1.42-.34-.71-1.13-1.14-1.87-1.29,0,0,0,0,0,0,0,0,0,0,0,0,0,0,0,0,0,0-.03.04-.05.09-.08.14-.39-.71-.91-1.14-1.49-1.14h-5.17c3.52-.23,5.09-1.95,5.19-4.04,0-1.72-.58-2.98-2.16-3.47v-.08c1.22-.45,1.75-1.7,1.75-3.1,0-2.08-1.99-3.82-5.52-3.82s-5.7,1.74-5.7,3.84v.12c0,.08-.03.15-.03.23v.48h3.88c0-.79.83-1.24,1.32-1.24,1.1,0,1.47.51,1.47,1.3,0,.94-.6.95-1.35.95h-1.1v2.97h1.41c.75,0,1.35.28,1.35,1.22,0,1.02-.52,1.33-2,1.33-.92,0-1.38-.77-1.38-1.64h-4.01v.5h0v.43c0,2.07,1.65,3.79,5.24,4.02h-5.08c-.6,0-1.15.48-1.55,1.25-.05-.08-.09-.17-.15-.25,0,0,0,0,0,0,0,0,0,0,0,0-.75.15-1.55.58-1.89,1.29-.21.45-.23.94-.14,1.42-.1.04-.21.08-.31.12-.32-.4-.62-.82-.85-1.17.05-.02.11-.04.16-.06.44-.19.86-.45,1.19-.8.76-.81.85-2.04.44-3.05,0,0,0,0,0,0,0,0,0,0,0,0-.62-.02-1.32.16-1.78.59-.56.52-.67,1.31-.6,2.04.01.13.04.26.06.38-.3-.55-.57-1.11-.8-1.69-.06-.14-.11-.28-.16-.42.52-.08,1.03-.25,1.45-.56.44-.32.72-.77.87-1.29.11-.47.14-1,.03-1.48,0,0,0,0-.01,0-.59-.13-1.29-.07-1.79.28-.49.35-.73.92-.81,1.5-.03.22-.04.45-.04.68-.23-.71-.41-1.43-.55-2.17,0,0,0,0,.01,0,0,0,0,0,0,0h0c.07,0,.14,0,.21,0,.13,0,.26-.01.39-.03.23-.03.46-.09.67-.18.49-.21.88-.59,1.11-1.07.22-.45.29-.97.28-1.46,0,0-.01,0-.02,0-.41-.17-.89-.22-1.32-.12-.55.13-.95.53-1.19,1.03-.16.33-.25.7-.29,1.06-.11-.72-.17-1.44-.2-2.16.11.02.22.04.34.05.13.01.26.02.38.01.13,0,.26-.02.39-.04.48-.09.91-.35,1.21-.74.31-.41.5-.96.55-1.47-.05-.03-.1-.05-.15-.07-.68-.34-1.54-.3-2.07.3-.33.37-.52.83-.65,1.3,0-.18,0-.36,0-.53.01-.52.05-1.04.1-1.56.04.01.07.03.11.04.26.08.53.13.8.13,0,0,0,0,0,0,0,0,0,0,0,0,.5,0,.97-.19,1.31-.55.33-.34.58-.84.66-1.31,0,0-.02,0-.02,0-.25-.19-.57-.33-.88-.37-.42-.06-.83.07-1.15.35-.33.28-.56.66-.73,1.06-.02.04-.03.07-.04.11.07-.59.17-1.19.3-1.78.01-.06.03-.12.04-.18.02,0,.03.02.05.02.07.03.13.06.2.08.12.05.25.08.37.11.12.03.24.04.37.04.36,0,.72-.09,1.01-.32.39-.3.67-.76.82-1.22-.02-.02-.03-.03-.05-.04-.36-.33-.88-.51-1.36-.4-.45.11-.81.47-1.06.84-.09.13-.17.27-.24.4.1-.41.2-.82.32-1.22.06-.19.12-.38.18-.58.06.03.11.07.17.1.28.15.6.24.92.24.19,0,.38-.04.56-.12.48-.22.83-.68,1.03-1.16,0,0-.02,0-.02-.01-.26-.3-.67-.51-1.07-.5-.32,0-.61.16-.85.36-.18.15-.33.33-.46.51-.05.08-.11.16-.15.24.1-.3.21-.59.32-.89.1-.26.2-.52.3-.77.02.01.03.02.05.04.31.22.68.37,1.06.35.13,0,.26-.03.38-.08.44-.17.8-.57,1-.99,0,0,0,0-.01-.01-.01-.01-.02-.02-.03-.03-.32-.38-.82-.59-1.31-.42-.27.1-.51.28-.71.49-.11.11-.2.23-.29.35,0,.01-.02.02-.03.04.22-.51.46-1.01.7-1.51.1.07.31.19.41.24.16.08.33.11.51.1.17,0,.34-.06.5-.14.29-.17.52-.42.65-.7,0,0,0,0-.01,0-.26-.27-.79-.49-1.13-.42-.27.06-.44.14-.62.34.04-.08.08-.16.12-.24.06-.12.13-.23.19-.35h0c.16-.02.52-.06.68-.1.44-.1.77-.41.92-.83.14-.39.17-.84.09-1.24,0,0,0,0,0,0-.17-.06-.37-.09-.58-.08-.35.01-.7.12-.9.35-.3.34-.42.61-.42,1.17,0,.2.08.59.11.71-.26.44-.5.89-.74,1.34h0c.03-.12.06-.24.09-.36.12-.52.18-1.11-.02-1.61-.21-.52-.74-.86-1.3-.86,0,0,0,0,0,0h0s0,0,0,0c-.25.43-.41.94-.42,1.44,0,.54.23,1.02.68,1.32.21.13.44.23.67.29.06.02.12.03.18.05-.05.1-.1.2-.15.3-.27.55-.52,1.12-.76,1.69h0c.08-.48.12-.97.05-1.45-.07-.41-.22-.81-.55-1.08-.31-.25-.74-.38-1.14-.35h0s0,0,0,0c-.43.88-.58,2.2.29,2.86.17.13.37.23.58.3.12.04.24.07.36.1.07.01.13.03.2.04.02,0,.04,0,.06,0-.28.71-.52,1.43-.74,2.16h0c.01-.28,0-.56-.01-.83-.05-.58-.19-1.19-.63-1.61-.38-.36-.96-.51-1.47-.41-.09.21-.13.44-.17.66-.05.29-.08.59-.06.89.04.53.23,1.06.65,1.41.35.29.81.42,1.26.46.07,0,.14.01.21.01.02,0,.04,0,.06,0-.2.75-.36,1.51-.49,2.27,0,0,0,0,0,.01,0-.07-.02-.14-.02-.21-.1-.73-.27-1.55-.83-2.08-.46-.44-1.18-.58-1.78-.38-.13.52-.16,1.1-.07,1.62.09.51.29,1.04.69,1.39.35.3.79.43,1.24.46.13,0,.26,0,.39,0h0s0,0,0,0c.07,0,.14,0,.21-.02.02,0,.03,0,.05,0-.1.8-.15,1.61-.16,2.42-.21-.76-.48-1.54-1.07-2.09-.57-.52-1.44-.63-2.13-.28-.06.53,0,1.1.13,1.61.15.56.42,1.11.9,1.47.39.29.88.39,1.36.37,0,0,0,0,0,0,0,0,0,0,0,0,.27-.01.54-.07.81-.14.03.82.12,1.64.25,2.44-.31-.63-.68-1.24-1.21-1.7-.41-.35-.93-.55-1.47-.51-.38.03-.77.17-1.08.4.03.51.15,1.05.35,1.52.23.56.56,1.09,1.06,1.44.31.22.66.33,1.03.35.12,0,.25,0,.37,0,.26-.03.51-.09.76-.18.14-.05.27-.11.4-.17,0,0,0,0,0,0,0,.01,0,.03,0,.04.19.81.43,1.61.73,2.39-.07-.08-.13-.17-.2-.25-.28-.34-.58-.66-.93-.93-.46-.36-1.01-.62-1.6-.61-.53.01-1.05.26-1.43.62-.01.01-.03.03-.04.04h0s-.03.03-.05.05c.14.54.38,1.05.68,1.52.32.51.75.98,1.29,1.26.34.18.72.26,1.1.24.13,0,.26-.02.39-.05.48-.11.92-.37,1.32-.68.37.78.79,1.53,1.28,2.23-.46-.34-.93-.67-1.46-.91-.53-.24-1.13-.37-1.71-.23-.52.12-.97.46-1.28.88-.05.07-.1.14-.14.21.37.69.89,1.37,1.53,1.86-1.06.54-2.12,1.14-3.17,1.81.21.43.4.83.59,1.2-4.84,2.6-6.03,4.95-6.03,4.95,1.36.21,3.79.79,3.79.79-.28,1.71.71,5.09.71,5.09,2.7-3.71,6.9-5.4,9.1-6.07-.03.07-.06.15-.08.24l-.41,1.69h-.41c-.09,0-.18.05-.26.13-.03.03-.05.06-.07.09-.09.13-.16.32-.19.52l-.23,1.91h21.11l-.23-1.91c-.02-.2-.1-.39-.19-.52-.09-.13-.21-.22-.33-.22h-.27l-.41-1.69c-.02-.07-.04-.13-.06-.19,2.24.7,6.31,2.4,8.95,6.03,0,0,.98-3.38.71-5.09,0,0,2.43-.58,3.79-.79Z"/>
        </g>
      </g>
    </g>
  </g>
</svg>