<?xml version="1.0" encoding="UTF-8"?>
<svg xmlns="http://www.w3.org/2000/svg" xmlns:xlink="http://www.w3.org/1999/xlink" viewBox="0 0 45.01 40.51">
  <defs>
    <style>
      .cls-1 {
        fill: url(#radial-gradient-11);
      }

      .cls-1, .cls-2, .cls-3, .cls-4, .cls-5, .cls-6 {
        mix-blend-mode: multiply;
      }

      .cls-7 {
        fill: url(#radial-gradient-14);
      }

      .cls-7, .cls-8, .cls-9 {
        mix-blend-mode: screen;
      }

      .cls-10 {
        fill: url(#linear-gradient-2);
      }

      .cls-11 {
        fill: url(#radial-gradient-7);
      }

      .cls-2 {
        fill: #dc988d;
      }

      .cls-2, .cls-12 {
        opacity: .55;
      }

      .cls-3 {
        fill: url(#radial-gradient-6);
      }

      .cls-4 {
        fill: url(#radial-gradient-8);
      }

      .cls-13 {
        fill: url(#radial-gradient-4);
      }

      .cls-14 {
        isolation: isolate;
      }

      .cls-5 {
        fill: url(#radial-gradient-5);
      }

      .cls-15 {
        fill: url(#radial-gradient);
      }

      .cls-16 {
        fill: url(#radial-gradient-13);
      }

      .cls-8 {
        fill: url(#radial-gradient-12);
      }

      .cls-17 {
        fill: url(#linear-gradient-5);
      }

      .cls-18 {
        clip-path: url(#clippath);
      }

      .cls-19 {
        fill: #6a2e25;
      }

      .cls-20 {
        fill: none;
      }

      .cls-21 {
        fill: url(#radial-gradient-3);
      }

      .cls-12 {
        fill: url(#radial-gradient-15);
        mix-blend-mode: overlay;
      }

      .cls-9 {
        fill: url(#radial-gradient-2);
      }

      .cls-22 {
        mask: url(#mask-1);
      }

      .cls-23 {
        mask: url(#mask);
      }

      .cls-24 {
        fill: url(#linear-gradient-3);
      }

      .cls-25 {
        fill: url(#linear-gradient);
      }

      .cls-6 {
        fill: url(#radial-gradient-10);
      }

      .cls-26 {
        fill: url(#linear-gradient-4);
      }

      .cls-27 {
        fill: url(#radial-gradient-9);
      }
    </style>
    <clipPath id="clippath">
      <path class="cls-20" d="m45.01,34.64s-1.19-2.34-6.03-4.94c.18-.37.38-.77.59-1.2-1.06-.66-2.12-1.27-3.18-1.81.64-.49,1.16-1.16,1.53-1.85-.04-.07-.09-.14-.14-.21-.31-.43-.76-.76-1.28-.88-.58-.14-1.18-.01-1.71.23-.53.24-.99.57-1.46.91.49-.71.92-1.46,1.28-2.24.39.3.84.57,1.32.68.5.12,1.02.05,1.48-.19.54-.28.97-.75,1.29-1.26.3-.46.54-.98.68-1.52-.03-.03-.06-.06-.09-.09-.38-.37-.9-.61-1.43-.62-.59-.02-1.14.25-1.6.61-.35.27-.65.59-.93.93-.07.08-.13.16-.2.25.3-.78.54-1.58.73-2.39,0-.01,0-.03,0-.04,0,0,.01,0,.02,0,.13.06.26.12.4.17.24.09.5.16.76.18.49.05.98-.06,1.39-.34.5-.35.83-.88,1.06-1.44.2-.48.32-1.01.35-1.52-.3-.23-.7-.37-1.08-.4-.54-.04-1.06.16-1.47.51-.53.45-.9,1.06-1.21,1.7.14-.81.22-1.63.25-2.45.27.07.54.13.81.14.48.03.97-.07,1.36-.37.48-.36.75-.9.9-1.47.14-.51.19-1.08.13-1.61-.69-.35-1.56-.25-2.13.28-.59.55-.86,1.33-1.07,2.09,0-.81-.06-1.62-.16-2.42.02,0,.04,0,.06,0,.07,0,.14.01.21.02.13,0,.26,0,.39,0,.45-.03.9-.16,1.24-.46.4-.35.61-.87.69-1.39.09-.52.06-1.1-.07-1.62-.6-.2-1.32-.06-1.78.38-.55.53-.73,1.35-.83,2.08,0,.07-.02.14-.02.21,0,0,0,0,0-.01-.12-.77-.29-1.52-.49-2.27.02,0,.04,0,.06,0,.07,0,.14,0,.21-.01.45-.04.91-.16,1.26-.46.42-.35.61-.88.65-1.41.02-.3,0-.6-.06-.89-.04-.22-.08-.45-.17-.66-.51-.1-1.09.05-1.47.41-.43.41-.58,1.03-.63,1.61-.02.28-.03.56-.01.84-.21-.73-.46-1.45-.74-2.16.02,0,.04,0,.06,0,.07,0,.14-.02.2-.04.12-.02.24-.06.36-.1.21-.07.4-.17.58-.3.87-.66.72-1.98.29-2.86-.4-.04-.84.09-1.15.35-.33.27-.48.67-.55,1.08-.08.48-.03.97.05,1.45-.23-.57-.49-1.13-.76-1.69-.05-.1-.1-.2-.15-.3.06-.01.12-.03.18-.05.24-.07.47-.16.67-.29.45-.29.69-.78.68-1.32,0-.5-.16-1.01-.42-1.44-.57,0-1.11.33-1.32.86-.2.51-.14,1.1-.02,1.61.03.12.06.25.09.37-.23-.45-.48-.9-.73-1.33.02-.11.11-.51.11-.72,0-.56-.12-.83-.42-1.17-.32-.35-1.03-.43-1.47-.26-.07.41-.05.85.09,1.25.15.42.48.73.92.83.16.04.52.08.68.1.06.12.13.23.2.35.04.08.08.16.12.24-.19-.19-.35-.28-.62-.34-.35-.07-.87.14-1.14.42.13.27.36.53.65.7.31.18.67.2,1,.04.1-.05.31-.17.41-.24.25.51.5,1.02.72,1.55-.02-.03-.03-.05-.05-.08-.09-.12-.18-.24-.29-.35-.2-.2-.44-.39-.71-.49-.5-.18-1.02.05-1.33.45,0,0,0,0-.01.01.2.42.56.82,1,.99.5.19,1.02.01,1.43-.28.02-.01.04-.03.06-.04.11.26.21.52.31.78.11.3.22.61.33.92-.06-.09-.11-.18-.18-.27-.13-.19-.29-.36-.46-.51-.24-.2-.53-.35-.85-.36-.41-.01-.82.21-1.09.51.2.48.55.94,1.03,1.16.48.22,1.02.12,1.47-.12.06-.03.12-.07.18-.1.06.19.13.39.18.58.12.41.23.83.33,1.25-.08-.15-.16-.29-.26-.43-.26-.37-.61-.73-1.06-.84-.5-.12-1.04.08-1.4.43.15.47.43.92.82,1.22.39.3.89.38,1.37.28.13-.03.25-.06.37-.11.07-.03.14-.05.2-.08.02,0,.04-.02.06-.03.01.06.03.13.04.19.14.59.23,1.21.3,1.81-.02-.05-.04-.1-.06-.15-.17-.4-.4-.78-.73-1.06-.32-.27-.73-.41-1.15-.35-.32.04-.64.18-.9.38.08.47.33.97.66,1.31.35.36.82.55,1.31.55.27,0,.54-.05.8-.13.04-.01.08-.03.12-.04.05.52.09,1.04.1,1.56,0,.19,0,.38,0,.57-.13-.49-.32-.95-.66-1.33-.57-.63-1.51-.64-2.22-.22.05.51.23,1.06.55,1.47.3.39.73.65,1.21.74.25.05.51.05.76.03.12-.01.23-.03.35-.05-.03.74-.09,1.47-.2,2.2-.04-.38-.13-.75-.3-1.1-.24-.5-.64-.9-1.19-1.03-.43-.1-.92-.04-1.33.13,0,.5.07,1.01.28,1.46.23.48.61.86,1.11,1.07.21.09.44.15.67.18.13.02.26.03.39.03.07,0,.14,0,.21,0,0,0,.01,0,.02,0-.14.74-.33,1.48-.56,2.2,0-.24,0-.47-.04-.71-.09-.58-.32-1.15-.81-1.5-.5-.36-1.2-.42-1.79-.28-.11.48-.08,1.01.03,1.48.14.52.43.97.87,1.29.42.31.93.48,1.45.56-.05.14-.11.28-.16.42-.24.59-.51,1.16-.82,1.71.03-.14.05-.27.07-.41.08-.73-.03-1.52-.6-2.04-.46-.43-1.16-.61-1.78-.59-.41,1.01-.32,2.23.44,3.05.33.35.74.61,1.19.8.05.02.11.04.16.06-.26.41-.55.8-.85,1.18-.11-.04-.21-.08-.32-.12.09-.48.07-.98-.14-1.42-.34-.71-1.14-1.14-1.89-1.29-.03.04-.05.09-.08.14-.39-.71-.91-1.14-1.49-1.14h-.29c.13,0,.24-.11.24-.25v-3.41c0-.14-.11-.25-.25-.25h-3.04c-.14,0-.25-.11-.25-.25V6.05c0-.14-.11-.25-.25-.25h-1.19s-.08.01-.12.03c-.95.58-2.21,1.08-3.44,1.58-1.25.51-2.64.64-3.17.67-.13,0-.23.12-.23.25v2.62c0,.14.11.25.25.25h3.17c.14,0,.25.11.25.25v5.52c0,.14-.11.25-.25.25h-3.17c-.14,0-.25.11-.25.24v3.41c0,.13.1.24.24.25h-.15c-.61,0-1.15.48-1.55,1.26-.05-.09-.09-.17-.15-.26-.75.15-1.55.58-1.89,1.29-.21.45-.23.94-.14,1.42-.11.04-.21.08-.32.12-.3-.38-.59-.77-.85-1.18.05-.02.11-.04.16-.06.44-.19.86-.45,1.19-.8.76-.81.85-2.04.44-3.05-.62-.02-1.32.16-1.78.59-.56.52-.67,1.31-.6,2.04.01.14.04.27.07.41-.31-.55-.58-1.13-.82-1.71-.06-.14-.11-.28-.16-.42.52-.08,1.03-.25,1.45-.56.44-.32.72-.77.87-1.29.11-.47.14-1,.03-1.48-.59-.13-1.29-.07-1.79.28-.49.35-.73.92-.81,1.5-.03.23-.04.47-.04.71-.23-.72-.42-1.45-.56-2.2,0,0,.01,0,.02,0,.07,0,.14,0,.21,0,.13,0,.26-.01.39-.03.23-.03.46-.09.67-.18.49-.21.88-.59,1.11-1.07.22-.45.29-.97.28-1.46-.41-.17-.9-.23-1.33-.13-.55.13-.95.53-1.19,1.03-.17.34-.25.72-.3,1.1-.11-.73-.17-1.46-.2-2.2.11.02.23.04.35.05.25.02.51.02.76-.03.48-.09.91-.35,1.21-.74.31-.41.5-.96.55-1.47-.7-.42-1.65-.41-2.22.22-.34.38-.53.85-.66,1.33,0-.19,0-.38,0-.57.01-.52.05-1.04.1-1.56.04.01.08.03.12.04.26.08.53.13.8.13.5,0,.97-.19,1.31-.55.33-.34.58-.84.66-1.31-.25-.2-.58-.34-.9-.38-.42-.06-.83.07-1.15.35-.33.28-.56.66-.73,1.06-.02.05-.04.1-.06.15.07-.61.17-1.22.3-1.81.01-.06.03-.13.04-.19.02,0,.04.02.06.03.07.03.13.06.2.08.12.05.25.08.38.11.48.1.98.02,1.37-.28.39-.3.67-.76.82-1.22-.36-.35-.9-.56-1.4-.43-.45.11-.81.47-1.06.84-.1.14-.18.28-.26.43.1-.42.21-.83.33-1.25.06-.19.12-.39.18-.58.06.04.12.07.18.1.45.24.99.34,1.47.12s.83-.68,1.03-1.16c-.26-.31-.68-.52-1.09-.51-.32,0-.61.16-.85.36-.18.15-.33.33-.46.51-.06.09-.12.18-.18.27.11-.31.22-.61.33-.92.1-.26.2-.52.31-.78.02.01.04.03.06.04.42.29.94.47,1.43.28.44-.17.8-.57,1-.99,0,0,0,0-.01-.01-.32-.4-.83-.62-1.33-.45-.27.1-.51.28-.71.49-.11.11-.2.23-.29.35-.02.02-.03.05-.05.08.22-.53.47-1.04.72-1.55.1.06.31.19.42.24.32.16.69.14,1-.04.29-.17.52-.42.65-.7-.26-.28-.79-.49-1.14-.42-.28.06-.45.15-.64.36.04-.09.09-.17.13-.26.06-.12.13-.23.19-.35.16-.01.53-.06.69-.1.44-.1.77-.41.92-.83.14-.39.17-.84.09-1.25-.44-.17-1.15-.09-1.47.26-.3.34-.42.61-.42,1.17,0,.2.08.59.11.71-.26.44-.51.89-.74,1.35.03-.12.06-.24.09-.37.12-.52.18-1.11-.02-1.61-.21-.53-.76-.87-1.32-.86-.25.43-.41.94-.42,1.44,0,.54.23,1.02.68,1.32.21.13.44.23.67.29.06.02.12.03.18.05-.05.1-.1.2-.15.3-.27.55-.52,1.12-.76,1.69.08-.48.12-.97.05-1.45-.07-.41-.22-.81-.55-1.08-.31-.26-.75-.39-1.15-.35-.43.88-.58,2.2.29,2.86.17.13.37.23.58.3.12.04.24.07.36.1.07.01.13.03.2.04.02,0,.04,0,.06,0-.28.71-.53,1.43-.74,2.16.01-.28,0-.56-.01-.84-.05-.58-.19-1.19-.63-1.61-.38-.36-.96-.51-1.47-.41-.09.21-.13.44-.17.66-.05.29-.08.59-.06.89.04.53.23,1.06.65,1.41.35.29.81.42,1.26.46.07,0,.14.01.21.01.02,0,.04,0,.06,0-.2.75-.36,1.51-.49,2.27,0,0,0,0,0,.01,0-.07-.02-.14-.02-.21-.1-.73-.27-1.55-.83-2.08-.46-.44-1.18-.58-1.78-.38-.13.52-.16,1.1-.07,1.62.09.51.29,1.04.69,1.39.35.3.79.43,1.24.46.13,0,.26,0,.39,0,.07,0,.14,0,.21-.02.02,0,.04,0,.06,0-.1.8-.15,1.61-.16,2.42-.21-.76-.48-1.54-1.07-2.09-.57-.52-1.44-.63-2.13-.28-.06.53,0,1.1.13,1.61.15.56.42,1.11.9,1.47.39.29.88.39,1.36.37.28-.01.55-.07.81-.14.03.82.12,1.64.25,2.45-.31-.63-.68-1.24-1.21-1.7-.41-.35-.93-.55-1.47-.51-.38.03-.77.17-1.08.4.03.51.15,1.05.35,1.52.23.56.56,1.09,1.06,1.44.41.29.9.39,1.39.34.26-.03.51-.09.76-.18.14-.05.27-.11.4-.17,0,0,.01,0,.02,0,0,.01,0,.03,0,.04.19.81.43,1.61.73,2.39-.07-.08-.13-.17-.2-.25-.28-.34-.58-.66-.93-.93-.46-.36-1.01-.62-1.6-.61-.53.01-1.05.26-1.43.62-.03.03-.06.06-.09.09.14.54.38,1.05.68,1.52.32.51.75.98,1.29,1.26.46.24.98.31,1.48.19.49-.12.93-.38,1.32-.68.37.78.8,1.53,1.28,2.24-.46-.34-.93-.67-1.46-.91-.53-.24-1.13-.37-1.71-.23-.52.12-.97.46-1.28.88-.05.07-.1.14-.14.21.37.69.89,1.37,1.53,1.86-1.06.54-2.12,1.14-3.17,1.81.21.43.4.83.59,1.2-4.84,2.6-6.03,4.95-6.03,4.95,1.36.21,3.79.79,3.79.79-.28,1.71.7,5.09.7,5.09,2.7-3.71,6.9-5.4,9.1-6.07-.03.07-.06.15-.08.24l-.41,1.69h-.41c-.24,0-.47.33-.52.74l-.23,1.91h21.11l-.23-1.91c-.05-.41-.28-.74-.52-.74h-.27l-.41-1.69c-.02-.07-.04-.13-.06-.19,2.24.7,6.31,2.4,8.95,6.03,0,0,.98-3.38.7-5.09,0,0,2.43-.58,3.79-.79Z"/>
    </clipPath>
    <linearGradient id="linear-gradient" x1="31.59" y1="24.89" x2="13.55" y2="35.98" gradientUnits="userSpaceOnUse">
      <stop offset=".04" stop-color="#a5422d"/>
      <stop offset=".99" stop-color="#6a2e25"/>
    </linearGradient>
    <radialGradient id="radial-gradient" cx="-59.6" cy="66.27" fx="-59.6" fy="66.27" r="15.58" gradientTransform="translate(49.64 -3.79) scale(.45 .6)" gradientUnits="userSpaceOnUse">
      <stop offset=".01" stop-color="#f6c054"/>
      <stop offset=".54" stop-color="#ffea72"/>
      <stop offset=".58" stop-color="#ffef71"/>
      <stop offset=".59" stop-color="#fff171"/>
      <stop offset=".82" stop-color="#ffe05a"/>
      <stop offset=".96" stop-color="#ffd44a"/>
    </radialGradient>
    <radialGradient id="radial-gradient-2" cx="-59.6" cy="33.85" fx="-59.6" fy="33.85" r="15.55" gradientTransform="translate(49.64 9.96) scale(.45 .77)" gradientUnits="userSpaceOnUse">
      <stop offset="0" stop-color="#ffffc3"/>
      <stop offset=".95" stop-color="#ffea72"/>
    </radialGradient>
    <linearGradient id="linear-gradient-2" x1="22.5" y1="36.69" x2="22.5" y2="40.14" gradientUnits="userSpaceOnUse">
      <stop offset=".04" stop-color="#a5422d"/>
      <stop offset=".48" stop-color="#8a3929"/>
      <stop offset=".99" stop-color="#6a2e25"/>
    </linearGradient>
    <radialGradient id="radial-gradient-3" cx="-58.83" cy="-18.79" fx="-58.83" fy="-18.79" r="39.27" gradientTransform="translate(52.06 24.39) scale(.5)" gradientUnits="userSpaceOnUse">
      <stop offset=".01" stop-color="#f6c054"/>
      <stop offset=".3" stop-color="#f2a942"/>
      <stop offset=".54" stop-color="#ffea72"/>
      <stop offset=".58" stop-color="#ffef71"/>
      <stop offset=".59" stop-color="#fff171"/>
      <stop offset=".76" stop-color="#fada61"/>
      <stop offset=".96" stop-color="#f3b94a"/>
    </radialGradient>
    <radialGradient id="radial-gradient-4" cx="-58.83" cy="-18.79" fx="-58.83" fy="-18.79" r="39.27" xlink:href="#radial-gradient-3"/>
    <radialGradient id="radial-gradient-5" cx="-58.83" cy="-18.79" fx="-58.83" fy="-18.79" r="39.27" xlink:href="#radial-gradient-3"/>
    <radialGradient id="radial-gradient-6" cx="-98.91" cy="-18.79" fx="-98.91" fy="-18.79" r="39.27" gradientTransform="translate(-27.1 24.39) rotate(-180) scale(.5 -.5)" xlink:href="#radial-gradient-3"/>
    <radialGradient id="radial-gradient-7" cx="-154.63" cy="16.71" fx="-154.63" fy="16.71" r="23.33" gradientTransform="translate(-41.03 33.23) rotate(169.07) scale(.5 -.5)" gradientUnits="userSpaceOnUse">
      <stop offset="0" stop-color="#b30b10"/>
      <stop offset=".1" stop-color="#b70c11"/>
      <stop offset=".21" stop-color="#c31217"/>
      <stop offset=".31" stop-color="#d81b20"/>
      <stop offset=".34" stop-color="#df1f24"/>
      <stop offset=".74" stop-color="#db1a1f"/>
      <stop offset="1" stop-color="#b30b10"/>
    </radialGradient>
    <radialGradient id="radial-gradient-8" cx="-154.64" cy="16.6" fx="-154.64" fy="16.6" r="20.84" gradientTransform="translate(-41.03 33.23) rotate(169.07) scale(.5 -.5)" gradientUnits="userSpaceOnUse">
      <stop offset="0" stop-color="#5c0b10"/>
      <stop offset=".21" stop-color="#600b10"/>
      <stop offset=".43" stop-color="#6c0b10"/>
      <stop offset=".65" stop-color="#810b10"/>
      <stop offset=".87" stop-color="#9e0b10"/>
      <stop offset="1" stop-color="#b30b10"/>
    </radialGradient>
    <radialGradient id="radial-gradient-9" cx="-93.25" cy="4.86" fx="-93.25" fy="4.86" r="23.33" gradientTransform="translate(54.78 33.23) rotate(10.93) scale(.5)" xlink:href="#radial-gradient-7"/>
    <radialGradient id="radial-gradient-10" cx="-93.25" cy="4.75" fx="-93.25" fy="4.75" r="20.84" gradientTransform="translate(54.78 33.23) rotate(10.93) scale(.5)" xlink:href="#radial-gradient-8"/>
    <linearGradient id="linear-gradient-3" x1="4.55" y1="29.55" x2="40.47" y2="29.55" gradientUnits="userSpaceOnUse">
      <stop offset="0" stop-color="#b30b10"/>
      <stop offset=".07" stop-color="#b70c11"/>
      <stop offset=".14" stop-color="#c31217"/>
      <stop offset=".21" stop-color="#d81b20"/>
      <stop offset=".22" stop-color="#df1f24"/>
      <stop offset=".74" stop-color="#db1a1f"/>
      <stop offset="1" stop-color="#b30b10"/>
    </linearGradient>
    <linearGradient id="linear-gradient-4" x1="17.38" y1="16.72" x2="27.69" y2="11.87" gradientUnits="userSpaceOnUse">
      <stop offset="0" stop-color="#f1c848"/>
      <stop offset=".19" stop-color="#efc84e"/>
      <stop offset=".45" stop-color="#ebcb61"/>
      <stop offset=".48" stop-color="#ebcc64"/>
      <stop offset=".75" stop-color="#f4e478"/>
      <stop offset="1" stop-color="#ffff8e"/>
    </linearGradient>
    <linearGradient id="linear-gradient-5" x1="22.49" y1="5.83" x2="22.49" y2="21.08" gradientUnits="userSpaceOnUse">
      <stop offset="0" stop-color="#ffee7b"/>
      <stop offset=".15" stop-color="#ffc757"/>
      <stop offset=".27" stop-color="#e1a11b"/>
      <stop offset=".28" stop-color="#e2a621"/>
      <stop offset=".31" stop-color="#ecbf43"/>
      <stop offset=".34" stop-color="#f4d35e"/>
      <stop offset=".37" stop-color="#f9e171"/>
      <stop offset=".41" stop-color="#fcea7d"/>
      <stop offset=".44" stop-color="#feed81"/>
      <stop offset=".47" stop-color="#f8e27b"/>
      <stop offset=".51" stop-color="#e8c76a"/>
      <stop offset=".57" stop-color="#ce9b50"/>
      <stop offset=".63" stop-color="#aa5e2c"/>
      <stop offset=".65" stop-color="#a24f24"/>
      <stop offset=".76" stop-color="#e0b439"/>
      <stop offset=".86" stop-color="#f1c848"/>
      <stop offset="1" stop-color="#ffff8e"/>
    </linearGradient>
    <radialGradient id="radial-gradient-11" cx="984.27" cy="-114.12" fx="984.27" fy="-114.12" r="10.74" gradientTransform="translate(-50.97 320.71) rotate(-62.51) scale(.32 .69) skewX(-.02)" gradientUnits="userSpaceOnUse">
      <stop offset="0" stop-color="#fff"/>
      <stop offset=".14" stop-color="#e2e2e2"/>
      <stop offset=".43" stop-color="#999"/>
      <stop offset=".87" stop-color="#252525"/>
      <stop offset="1" stop-color="#000"/>
    </radialGradient>
    <mask id="mask" x="16.97" y="2.63" width="13.48" height="9.12" maskUnits="userSpaceOnUse">
      <path class="cls-1" d="m25.29,4.17c3.62,1.88,5.85,4.77,4.98,6.44-.87,1.67-4.51,1.5-8.13-.39-3.62-1.88-5.85-4.77-4.98-6.44.87-1.67,4.51-1.5,8.13.39Z"/>
    </mask>
    <radialGradient id="radial-gradient-12" cx="984.27" cy="-114.12" fx="984.27" fy="-114.12" r="10.74" gradientTransform="translate(-50.97 320.71) rotate(-62.51) scale(.32 .69) skewX(-.02)" gradientUnits="userSpaceOnUse">
      <stop offset="0" stop-color="#ecce88"/>
      <stop offset="1" stop-color="#000"/>
    </radialGradient>
    <radialGradient id="radial-gradient-13" cx="170.8" cy="-123.21" fx="170.8" fy="-123.21" r="4.87" gradientTransform="translate(-83.62 29.18) rotate(27.21) scale(.5 .56)" gradientUnits="userSpaceOnUse">
      <stop offset="0" stop-color="#fff"/>
      <stop offset=".21" stop-color="#c3c3c3"/>
      <stop offset=".6" stop-color="#5b5b5b"/>
      <stop offset=".87" stop-color="#191919"/>
      <stop offset="1" stop-color="#000"/>
    </radialGradient>
    <mask id="mask-1" x="21.15" y="4.62" width="5.12" height="5.14" maskUnits="userSpaceOnUse">
      <path class="cls-16" d="m25.99,8.36c-.65,1.26-2.2,1.77-3.45,1.12-1.26-.65-1.75-2.19-1.1-3.46.65-1.26,2.2-1.77,3.45-1.12,1.26.65,1.75,2.19,1.1,3.46Z"/>
    </mask>
    <radialGradient id="radial-gradient-14" cx="170.8" cy="-123.21" fx="170.8" fy="-123.21" r="4.87" gradientTransform="translate(-83.62 29.18) rotate(27.21) scale(.5 .56)" gradientUnits="userSpaceOnUse">
      <stop offset="0" stop-color="#ffa177"/>
      <stop offset=".13" stop-color="#e5906b"/>
      <stop offset=".4" stop-color="#a3674c"/>
      <stop offset=".79" stop-color="#3b251b"/>
      <stop offset="1" stop-color="#000"/>
    </radialGradient>
    <radialGradient id="radial-gradient-15" cx="-60.07" cy="-3.37" fx="-60.07" fy="-3.37" r="45.07" gradientTransform="translate(52.06 24.39) scale(.5)" gradientUnits="userSpaceOnUse">
      <stop offset="0" stop-color="#ececbb"/>
      <stop offset="1" stop-color="#784f58"/>
    </radialGradient>
  </defs>
  <g class="cls-14">
    <g id="Layer_2" data-name="Layer 2">
      <g id="Layer_1-2" data-name="Layer 1">
        <g class="cls-18">
          <g>
            <g>
              <g>
                <g>
                  <path class="cls-25" d="m31.17,38.5v-12.78c0-2.51-1.04-4.55-2.32-4.55h-12.54c-1.28,0-2.32,2.04-2.32,4.55v12.78h17.18Z"/>
                  <path class="cls-15" d="m13.04,35.44l-.43,1.78h19.92l-.43-1.78c-.11-.45-.36-.74-.65-.74H13.69c-.28,0-.54.29-.65.74Z"/>
                  <path class="cls-9" d="m32.1,35.44c-.11-.45-.36-.74-.65-.74H13.69c-.28,0-.54.29-.65.74l-.43,1.78h.23l.42-1.5c.1-.38.36-.62.63-.62h17.35c.28,0,.53.25.63.62l.42,1.5h.23l-.43-1.78Z"/>
                  <path class="cls-19" d="m33.61,40l-.24-2.01c-.05-.43-.3-.77-.55-.77H12.19c-.25,0-.5.35-.55.77l-.24,2.01h22.22Z"/>
                  <path class="cls-10" d="m33.37,37.99c-.05-.43-.3-.77-.55-.77H12.19c-.25,0-.5.35-.55.77l-.24,2.01h.33l.24-1.63c.05-.35.29-.63.53-.63h20.01c.24,0,.48.28.53.63l.24,1.63h.33l-.24-2.01Z"/>
                </g>
                <path class="cls-2" d="m32.82,37.22h-.29l-.43-1.78c-.08-.33-.24-.58-.44-.69-.07-.03-.14-.05-.21-.05h-.29v-5.57H13.98v5.57h-.29c-.28,0-.54.29-.65.74l-.43,1.78h-.43c-.25,0-.5.35-.55.77l-.24,2.01h22.22l-.24-2.01c-.05-.43-.3-.77-.55-.77Z"/>
              </g>
              <g>
                <path class="cls-21" d="m36.59,18.91s.01,0,.02,0c.14.07.28.12.42.18.26.09.52.16.8.19.52.06,1.04-.06,1.46-.36.53-.37.87-.93,1.12-1.51.21-.5.34-1.06.37-1.6-.32-.24-.73-.39-1.13-.42-.57-.05-1.12.16-1.55.53-.56.48-.95,1.12-1.27,1.79.14-.85.23-1.71.27-2.58.28.08.57.13.86.15.51.03,1.02-.08,1.43-.39.5-.38.79-.95.95-1.55.15-.54.2-1.14.14-1.7-.72-.37-1.64-.26-2.24.29-.62.57-.9,1.4-1.13,2.2,0-.85-.06-1.7-.16-2.55.02,0,.04,0,.06,0,.07,0,.15.01.22.02.14,0,.27,0,.41,0,.47-.03.94-.17,1.31-.49.42-.37.64-.92.73-1.46.09-.55.06-1.16-.07-1.7-.63-.21-1.39-.07-1.87.4-.58.56-.77,1.42-.87,2.19,0,.07-.02.15-.03.22,0,0,0,0,0-.01-.13-.81-.3-1.61-.51-2.39.02,0,.04,0,.06,0,.07,0,.15,0,.22-.01.47-.04.96-.17,1.33-.48.44-.37.64-.92.68-1.48.02-.31,0-.63-.06-.94-.04-.23-.09-.48-.18-.7-.54-.11-1.15.05-1.55.43-.46.44-.61,1.08-.66,1.69-.02.29-.03.59-.01.88-.23-.77-.49-1.53-.78-2.27.02,0,.04,0,.06,0,.07-.01.14-.02.21-.04.13-.03.26-.06.38-.1.22-.07.43-.17.61-.31.92-.7.76-2.09.3-3.01-.42-.04-.88.1-1.21.37-.35.29-.51.71-.58,1.14-.08.5-.03,1.02.05,1.53-.25-.6-.51-1.19-.8-1.78-.05-.11-.11-.21-.16-.32.07-.01.13-.03.19-.05.25-.07.49-.17.71-.31.48-.31.73-.82.72-1.39,0-.52-.17-1.06-.44-1.51-.6,0-1.17.35-1.39.91-.21.53-.14,1.15-.02,1.7.03.13.06.26.1.39-.24-.48-.5-.94-.77-1.41.03-.11.12-.54.12-.76,0-.59-.12-.88-.44-1.23-.33-.37-1.08-.45-1.55-.28-.08.43-.05.9.1,1.31.16.45.5.77.96.88.17.04.55.09.72.1.07.12.14.25.21.37.04.08.08.17.13.25-.2-.2-.37-.29-.65-.35-.37-.08-.92.15-1.2.44.14.29.38.56.68.73.32.19.71.21,1.05.04.11-.05.33-.18.43-.25.27.54.52,1.08.76,1.63-.02-.03-.04-.05-.06-.08-.09-.13-.19-.26-.3-.37-.21-.21-.46-.41-.75-.51-.52-.19-1.07.05-1.4.47,0,0,0,0-.01.01.21.44.59.87,1.05,1.04.52.2,1.07.02,1.51-.29.02-.01.04-.03.06-.04.11.27.22.54.32.82.12.32.24.64.35.97-.06-.1-.12-.19-.18-.28-.14-.2-.3-.38-.49-.54-.25-.21-.56-.37-.9-.38-.43-.01-.86.22-1.14.54.21.5.58.99,1.09,1.23.51.23,1.07.12,1.55-.13.06-.03.12-.07.19-.11.07.2.13.41.19.61.13.43.24.87.35,1.31-.08-.16-.17-.31-.27-.46-.27-.39-.64-.77-1.12-.88-.52-.13-1.1.09-1.48.46.16.49.45.97.86,1.29.41.32.94.4,1.44.3.13-.03.27-.07.39-.11.07-.03.14-.06.21-.09.02,0,.04-.02.06-.03.02.07.03.13.05.2.14.63.24,1.27.32,1.91-.02-.05-.04-.1-.06-.16-.18-.42-.42-.82-.77-1.12-.34-.29-.76-.43-1.21-.37-.34.05-.68.19-.94.4.09.5.35,1.02.7,1.38.36.38.86.58,1.38.58.29,0,.57-.05.84-.13.04-.01.08-.03.12-.04.06.55.09,1.1.11,1.65,0,.2,0,.4,0,.59-.14-.51-.34-1-.7-1.4-.6-.67-1.59-.68-2.33-.24.05.54.24,1.12.58,1.55.31.41.77.68,1.28.78.26.05.53.05.8.03.12-.01.24-.03.36-.05-.03.77-.1,1.55-.21,2.32-.05-.4-.14-.79-.31-1.16-.25-.53-.67-.95-1.25-1.08-.46-.1-.97-.04-1.4.13-.01.52.07,1.07.3,1.54.24.51.65.9,1.16,1.12.23.1.47.16.71.19.14.02.27.03.41.03.08,0,.15,0,.23,0,0,0,.02,0,.02,0-.15.78-.35,1.56-.59,2.31,0-.25,0-.5-.04-.74-.09-.61-.34-1.21-.86-1.58-.53-.37-1.27-.44-1.89-.3-.11.5-.08,1.06.04,1.56.15.55.45,1.02.91,1.36.44.33.98.51,1.52.59-.06.15-.11.3-.17.44-.25.62-.54,1.22-.86,1.8.03-.14.06-.29.07-.43.08-.77-.03-1.6-.63-2.15-.49-.45-1.22-.64-1.87-.62-.43,1.06-.33,2.35.46,3.21.35.37.78.65,1.25.84.06.02.11.05.17.07-.45.7-.96,1.37-1.52,1.99.02-.05.04-.1.07-.14.29-.7.41-1.52.07-2.23-.36-.75-1.2-1.2-1.99-1.36-.67.97-.75,2.26-.19,3.3.25.45.59.84,1,1.16.06.05.12.09.18.14-.06.06-.12.12-.19.17-.5.45-1.05.85-1.61,1.22-.09.06-.19.12-.28.18.58-.7,1.02-1.58.77-2.49-.21-.79-.91-1.42-1.61-1.79-.18.14-.33.33-.47.5-.18.23-.33.47-.46.73-.27.56-.38,1.19-.29,1.81.06.42.21.82.41,1.19,2.16.52,4.19,1.53,6.06,2.81.73-.34,1.39-.84,1.92-1.4-.11-.66-.56-1.27-1.14-1.6-.96-.54-2.14-.31-3.14-.01-.2.06-.4.12-.59.19.74-.57,1.42-1.21,2.03-1.92.02.03.04.06.06.08.37.46.81.9,1.37,1.13.61.25,1.29.2,1.89-.06,1.09-.46,1.95-1.45,2.49-2.48-.04-.08-.09-.15-.14-.22-.33-.45-.8-.8-1.35-.93-.61-.15-1.24-.01-1.8.24-.55.25-1.05.6-1.53.96.51-.75.96-1.54,1.35-2.36.42.32.88.6,1.39.72.53.13,1.08.05,1.56-.2.57-.3,1.02-.79,1.36-1.33.31-.49.57-1.04.71-1.6-.03-.03-.06-.06-.09-.1-.4-.39-.95-.64-1.51-.66-.63-.02-1.2.26-1.69.64-.36.28-.68.62-.98.98-.07.09-.14.17-.21.26.31-.82.57-1.66.77-2.51,0-.02,0-.03.01-.05Z"/>
                <path class="cls-13" d="m10.39,28.13c-.58.32-1.02.94-1.14,1.6.69.73,1.6,1.36,2.58,1.66.06-.04.11-.08.17-.12,1.16-1.06,2.3-2.11,3.53-2.93-.07-.04-.14-.09-.21-.13-.56-.37-1.11-.77-1.61-1.22-.06-.06-.12-.11-.19-.17.06-.05.12-.09.18-.14.4-.32.75-.71,1-1.16.56-1.03.48-2.33-.19-3.3-.79.16-1.63.61-1.98,1.36-.34.7-.22,1.53.07,2.23.02.05.04.1.07.14-.56-.62-1.07-1.28-1.52-1.99.06-.02.11-.04.17-.07.47-.2.9-.47,1.25-.84.8-.86.9-2.15.46-3.21-.65-.02-1.38.17-1.87.62-.59.55-.71,1.38-.63,2.15.02.14.04.29.07.43-.32-.58-.61-1.18-.86-1.8-.06-.15-.12-.29-.17-.44.54-.08,1.08-.26,1.52-.59.46-.34.76-.81.91-1.36.12-.5.15-1.06.04-1.56-.62-.14-1.36-.07-1.89.3-.52.37-.77.97-.86,1.58-.04.25-.05.5-.04.74-.24-.76-.44-1.53-.59-2.31,0,0,.02,0,.02,0,.08,0,.15,0,.23,0,.14,0,.28-.02.41-.03.24-.04.48-.1.71-.19.52-.22.92-.62,1.16-1.12.23-.47.31-1.02.3-1.54-.43-.18-.95-.24-1.4-.13-.58.13-1,.55-1.25,1.08-.17.36-.27.76-.31,1.16-.11-.77-.18-1.54-.21-2.32.12.02.24.04.36.05.27.03.54.02.8-.03.51-.1.96-.37,1.28-.78.33-.43.53-1.01.58-1.55-.74-.44-1.73-.43-2.33.24-.36.4-.56.89-.7,1.4,0-.2,0-.4,0-.59.01-.55.05-1.1.11-1.65.04.01.08.03.12.04.27.08.56.13.84.13.52,0,1.02-.2,1.38-.58.35-.36.61-.88.7-1.38-.27-.21-.61-.35-.94-.4-.44-.06-.87.08-1.21.37-.35.3-.59.7-.77,1.12-.02.05-.04.1-.06.16.08-.64.18-1.28.32-1.91.02-.07.03-.13.05-.2.02.01.04.02.06.03.07.03.14.06.21.09.13.05.26.09.39.11.5.1,1.03.02,1.44-.3.41-.32.7-.79.86-1.29-.38-.37-.95-.58-1.48-.46-.48.12-.85.49-1.12.88-.1.15-.19.3-.27.46.11-.44.22-.88.35-1.31.06-.2.13-.41.19-.61.06.04.12.07.19.11.48.25,1.04.36,1.55.13.51-.23.88-.72,1.09-1.23-.28-.32-.71-.55-1.14-.54-.33.01-.64.16-.9.38-.19.16-.35.34-.49.54-.07.09-.13.19-.18.28.11-.32.23-.64.35-.97.1-.27.21-.55.32-.82.02.01.04.03.06.04.44.31.99.49,1.51.29.46-.18.85-.6,1.05-1.04,0,0,0,0-.01-.01-.33-.42-.88-.66-1.4-.47-.29.1-.54.3-.75.51-.11.11-.21.24-.31.37-.02.03-.04.05-.06.08.23-.55.49-1.1.76-1.63.11.07.33.2.44.26.34.16.72.14,1.05-.04.31-.18.55-.44.68-.73-.28-.29-.83-.52-1.2-.44-.29.06-.47.16-.68.37.05-.09.09-.18.14-.27.07-.12.14-.25.21-.37.17-.01.56-.07.73-.11.46-.1.81-.43.96-.88.15-.41.17-.88.1-1.31-.46-.18-1.22-.1-1.55.28-.32.36-.44.64-.44,1.23,0,.21.09.62.11.75-.27.47-.53.94-.78,1.42.03-.13.07-.26.1-.39.12-.54.19-1.16-.02-1.7-.22-.56-.8-.91-1.39-.91-.27.45-.43.99-.44,1.51,0,.57.24,1.08.72,1.39.22.14.46.24.71.31.06.02.13.03.19.05-.05.11-.11.21-.16.32-.29.58-.55,1.18-.8,1.78.08-.5.13-1.03.05-1.53-.07-.43-.23-.85-.58-1.14-.33-.27-.79-.41-1.21-.37-.46.92-.62,2.31.3,3.01.18.14.39.24.61.31.12.04.25.07.38.1.07.01.14.03.21.04.02,0,.04,0,.06,0-.29.75-.55,1.5-.78,2.27.01-.29,0-.59-.01-.88-.05-.61-.2-1.26-.66-1.69-.4-.38-1.01-.54-1.55-.43-.09.22-.14.46-.18.7-.05.31-.08.62-.06.94.04.56.24,1.12.68,1.48.37.31.86.44,1.33.48.07,0,.15.01.22.01.02,0,.04,0,.06,0-.21.79-.38,1.59-.51,2.39,0,0,0,0,0,.01,0-.07-.02-.15-.03-.22-.1-.77-.29-1.63-.87-2.19-.48-.46-1.24-.61-1.87-.4-.14.54-.17,1.15-.07,1.7.09.54.31,1.09.73,1.46.36.32.83.46,1.31.49.14,0,.27,0,.41,0,.07,0,.15,0,.22-.02.02,0,.04,0,.06,0-.1.85-.16,1.7-.16,2.55-.22-.8-.51-1.62-1.13-2.2-.6-.55-1.51-.66-2.24-.29-.06.56,0,1.16.14,1.7.16.59.45,1.17.95,1.55.41.31.92.41,1.43.39.29-.02.58-.07.86-.15.03.86.12,1.72.27,2.58-.32-.67-.72-1.31-1.27-1.79-.43-.37-.98-.58-1.55-.53-.4.03-.81.18-1.13.42.03.54.16,1.1.37,1.6.24.59.59,1.14,1.12,1.51.43.3.95.42,1.46.36.27-.03.54-.1.8-.19.14-.05.28-.11.42-.18,0,0,.01,0,.02,0,0,.02,0,.03.01.05.2.85.46,1.69.77,2.51-.07-.09-.14-.17-.21-.26-.3-.35-.61-.69-.98-.98-.48-.38-1.06-.66-1.69-.64-.56.01-1.1.27-1.51.66-.03.03-.06.06-.09.1.14.56.4,1.11.71,1.6.34.54.79,1.03,1.36,1.33.48.25,1.03.33,1.56.2.51-.12.98-.4,1.39-.72.39.82.84,1.61,1.35,2.36-.49-.36-.98-.7-1.53-.96-.56-.25-1.19-.39-1.8-.24-.54.13-1.02.48-1.35.93-.05.07-.1.15-.14.22.54,1.03,1.41,2.01,2.49,2.48.6.26,1.28.31,1.89.06.56-.23,1-.66,1.37-1.13.02-.03.04-.06.06-.08.61.71,1.3,1.35,2.03,1.92-.2-.07-.39-.13-.59-.19-1-.3-2.18-.53-3.14.01Z"/>
                <path class="cls-5" d="m10.39,28.13c-.58.32-1.02.94-1.14,1.6.69.73,1.6,1.36,2.58,1.66.06-.04.11-.08.17-.12,1.16-1.06,2.3-2.11,3.53-2.93-.07-.04-.14-.09-.21-.13-.56-.37-1.11-.77-1.61-1.22-.06-.06-.12-.11-.19-.17.06-.05.12-.09.18-.14.4-.32.75-.71,1-1.16.56-1.03.48-2.33-.19-3.3-.47.56-.07,1.5-.26,2.31-.33,1.41-1.37,1.63-1.35,1.68-.56-.62-1.3-1.54-1.75-2.25.06-.02.11-.04.17-.07.47-.2.9-.47,1.25-.84.8-.86.9-2.15.46-3.21-.65-.02-.32,1.7-1.02,2.31-1.22,1.06-1.41.89-1.41.89-.32-.58-.61-1.18-.86-1.8-.06-.15-.12-.29-.17-.44.54-.08,1.08-.26,1.52-.59.46-.34.76-.81.91-1.36.12-.5.15-1.06.04-1.56-.62-.14-.88,1.67-1.39,2.07-.77.62-1.4.55-1.4.55-.24-.76-.44-1.53-.59-2.31,0,0,.02,0,.02,0,.08,0,.15,0,.23,0,.14,0,.28-.02.41-.03.24-.04.48-.1.71-.19.52-.22.92-.62,1.16-1.12.23-.47.31-1.02.3-1.54-.43-.18-1.13,1.26-1.52,1.52-.85.54-1.45.59-1.45.59-.11-.77-.18-1.54-.21-2.32.12.02.24.04.36.05.27.03.54.02.8-.03.51-.1.96-.37,1.28-.78.33-.43.53-1.01.58-1.55-.74-.44-.85.53-1.45,1.2-.36.4-1.58.44-1.58.44,0-.2,0-.4,0-.59.01-.55.05-1.1.11-1.65.04.01.08.03.12.04.27.08.56.13.84.13.52,0,1.02-.2,1.38-.58.35-.36.61-.88.7-1.38-.27-.21-1,.22-1.43.88-.25.39-1.06.49-1.55.35.08-.64.18-1.28.32-1.91.02-.07.03-.13.05-.2.02.01.04.02.06.03.07.03.14.06.21.09.13.05.26.09.39.11.5.1,1.03.02,1.44-.3.41-.32.7-.79.86-1.29-.38-.37-1.09.67-1.6.83-.85.27-1.04.13-1.26.05.11-.44.22-.88.35-1.31.06-.2.13-.41.19-.61.06.04.12.07.19.11.48.25,1.04.36,1.55.13.51-.23.88-.72,1.09-1.23-.28-.32-1.17.39-1.47.53-.79.36-1.19.03-1.24.13.11-.32.23-.64.35-.97.1-.27.21-.55.32-.82.02.01.04.03.06.04.44.31.99.49,1.51.29.46-.18.85-.6,1.05-1.04,0,0,0,0-.01-.01-.33-.42-.91.3-1.43.48-.29.1-1.06-.02-1.08,0,.23-.55.49-1.1.76-1.63.11.07.33.2.44.26.34.16.72.14,1.05-.04.31-.18.55-.44.68-.73-.51-.18-.79.18-1.16.26-.29.06-.72-.33-.72-.33.05-.09.09-.18.14-.27.07-.12.14-.25.21-.37,0,0,.32-1.8,1.79-2.29-.46-.18-1.22-.1-1.55.28-.32.36-.44.64-.44,1.23,0,.21.09.62.11.75-.27.47-.53.94-.78,1.42-.33-.31-.76-.68-.96-1.21-.22-.56.25-1.79-.35-1.78-.27.45-.43.99-.44,1.51,0,.57.24,1.08.72,1.39.22.14.46.24.71.31.06.02.13.03.19.05-.05.11-.11.21-.16.32-.29.58-.55,1.18-.8,1.78-1.03-.42-1.15-.91-1.36-1.53-.13-.4.04-1.54-.38-1.5-.46.92-.62,2.31.3,3.01.18.14.39.24.61.31.12.04.25.07.38.1.07.01.14.03.21.04.02,0,.04,0,.06,0-.29.75-.55,1.5-.78,2.27-.62-.1-1.06-.33-1.53-1.13-.28-.47-.15-1.98-.69-1.87-.09.22-.14.46-.18.7-.05.31-.08.62-.06.94.04.56.24,1.12.68,1.48.37.31.86.44,1.33.48.07,0,.15.01.22.01.02,0,.04,0,.06,0-.21.79-.38,1.59-.51,2.39,0,0,0,0,0,.01-1.2.15-1.45-.21-1.82-.71-.41-.53-.31-2.31-.95-2.1-.14.54-.17,1.15-.07,1.7.09.54.31,1.09.73,1.46.36.32.83.46,1.31.49.14,0,.27,0,.41,0,.07,0,.15,0,.22-.02.02,0,.04,0,.06,0-.1.85-.16,1.7-.16,2.55,0,0-1.53.17-2.16-.4-.6-.55-.49-2.46-1.21-2.09-.06.56,0,1.16.14,1.7.16.59.45,1.17.95,1.55.41.31.92.41,1.43.39.29-.02.58-.07.86-.15.03.86.12,1.72.27,2.58,0,0-1.07.62-2.16-.09-.67-.44-.88-1.9-1.8-1.81.03.54.16,1.1.37,1.6.24.59.59,1.14,1.12,1.51.43.3.95.42,1.46.36.27-.03.54-.1.8-.19.14-.05.28-.11.42-.18,0,0,.01,0,.02,0,0,.02,0,.03.01.05.2.85.46,1.69.77,2.51-.34.85-1.59.86-2.02.68-1.66-.7-1.35-2.35-2.37-1.9-.04.02-.06.06-.09.1.14.56.4,1.11.71,1.6.34.54.79,1.03,1.36,1.33.48.25,1.03.33,1.56.2.51-.12.98-.4,1.39-.72.39.82,1.23,2.2,1.74,2.95,0,0-.64,1.04-2.66.51-.99-.26-2.08-1.81-2.41-1.36-.05.07-.1.15-.14.22.54,1.03,1.41,2.01,2.49,2.48.6.26,1.28.31,1.89.06.56-.23,1-.66,1.37-1.13.02-.03.04-.06.06-.08.61.71,1.3,1.35,2.03,1.92-.2-.07-.39-.13-.59-.19-1-.3-2.18-.53-3.14.01Z"/>
                <path class="cls-3" d="m34.62,28.13c.58.32,1.02.94,1.14,1.6-.69.73-1.6,1.36-2.58,1.66-.06-.04-.11-.08-.17-.12-1.16-1.06-2.3-2.11-3.53-2.93.07-.04.14-.09.21-.13.56-.37,1.11-.77,1.61-1.22.06-.06.12-.11.19-.17-.06-.05-.12-.09-.18-.14-.4-.32-.75-.71-1-1.16-.56-1.03-.48-2.33.19-3.3.47.56.07,1.5.26,2.31.33,1.41,1.37,1.63,1.35,1.68.56-.62,1.3-1.54,1.75-2.25-.06-.02-.11-.04-.17-.07-.47-.2-.9-.47-1.25-.84-.8-.86-.9-2.15-.46-3.21.65-.02.32,1.7,1.02,2.31,1.22,1.06,1.41.89,1.41.89.32-.58.61-1.18.86-1.8.06-.15.12-.29.17-.44-.54-.08-1.08-.26-1.52-.59-.46-.34-.76-.81-.91-1.36-.12-.5-.15-1.06-.04-1.56.62-.14.88,1.67,1.39,2.07.77.62,1.4.55,1.4.55.24-.76.44-1.53.59-2.31,0,0-.02,0-.02,0-.08,0-.15,0-.23,0-.14,0-.28-.02-.41-.03-.24-.04-.48-.1-.71-.19-.52-.22-.92-.62-1.16-1.12-.23-.47-.31-1.02-.3-1.54.43-.18,1.13,1.26,1.52,1.52.85.54,1.45.59,1.45.59.11-.77.18-1.54.21-2.32-.12.02-.24.04-.36.05-.27.03-.54.02-.8-.03-.51-.1-.96-.37-1.28-.78-.33-.43-.53-1.01-.58-1.55.74-.44.85.53,1.45,1.2.36.4,1.58.44,1.58.44,0-.2,0-.4,0-.59-.01-.55-.05-1.1-.11-1.65-.04.01-.08.03-.12.04-.27.08-.56.13-.84.13-.52,0-1.02-.2-1.38-.58-.35-.36-.61-.88-.7-1.38.27-.21,1,.22,1.43.88.25.39,1.06.49,1.55.35-.08-.64-.18-1.28-.32-1.91-.02-.07-.03-.13-.05-.2-.02.01-.04.02-.06.03-.07.03-.14.06-.21.09-.13.05-.26.09-.39.11-.5.1-1.03.02-1.44-.3-.41-.32-.7-.79-.86-1.29.38-.37,1.09.67,1.6.83.85.27,1.04.13,1.26.05-.11-.44-.22-.88-.35-1.31-.06-.2-.13-.41-.19-.61-.06.04-.12.07-.19.11-.48.25-1.04.36-1.55.13-.51-.23-.88-.72-1.09-1.23.28-.32,1.17.39,1.47.53.79.36,1.19.03,1.24.13-.11-.32-.23-.64-.35-.97-.1-.27-.21-.55-.32-.82-.02.01-.04.03-.06.04-.44.31-.99.49-1.51.29-.46-.18-.85-.6-1.05-1.04,0,0,0,0,.01-.01.33-.42.91.3,1.43.48.29.1,1.06-.02,1.08,0-.23-.55-.49-1.1-.76-1.63-.11.07-.33.2-.44.26-.34.16-.72.14-1.05-.04-.31-.18-.55-.44-.68-.73.51-.18.79.18,1.16.26.29.06.72-.33.72-.33-.05-.09-.09-.18-.14-.27-.07-.12-.14-.25-.21-.37,0,0-.32-1.8-1.79-2.29.46-.18,1.22-.1,1.55.28.32.36.44.64.44,1.23,0,.21-.09.62-.11.75.27.47.53.94.78,1.42.33-.31.76-.68.96-1.21.22-.56-.25-1.79.35-1.78.27.45.43.99.44,1.51,0,.57-.24,1.08-.72,1.39-.22.14-.46.24-.71.31-.06.02-.13.03-.19.05.05.11.11.21.16.32.29.58.55,1.18.8,1.78,1.03-.42,1.15-.91,1.36-1.53.13-.4-.04-1.54.38-1.5.46.92.62,2.31-.3,3.01-.18.14-.39.24-.61.31-.12.04-.25.07-.38.1-.07.01-.14.03-.21.04-.02,0-.04,0-.06,0,.29.75.55,1.5.78,2.27.62-.1,1.06-.33,1.53-1.13.28-.47.15-1.98.69-1.87.09.22.14.46.18.7.05.31.08.62.06.94-.04.56-.24,1.12-.68,1.48-.37.31-.86.44-1.33.48-.07,0-.15.01-.22.01-.02,0-.04,0-.06,0,.21.79.38,1.59.51,2.39,0,0,0,0,0,.01,1.2.15,1.45-.21,1.82-.71.41-.53.31-2.31.95-2.1.14.54.17,1.15.07,1.7-.09.54-.31,1.09-.73,1.46-.36.32-.83.46-1.31.49-.14,0-.27,0-.41,0-.07,0-.15,0-.22-.02-.02,0-.04,0-.06,0,.1.85.16,1.7.16,2.55,0,0,1.53.17,2.16-.4.6-.55.49-2.46,1.21-2.09.06.56,0,1.16-.14,1.7-.16.59-.45,1.17-.95,1.55-.41.31-.92.41-1.43.39-.29-.02-.58-.07-.86-.15-.03.86-.12,1.72-.26,2.58,0,0,1.07.62,2.16-.09.67-.44.88-1.9,1.8-1.81-.03.54-.16,1.1-.37,1.6-.24.59-.59,1.14-1.12,1.51-.43.3-.95.42-1.46.36-.27-.03-.54-.1-.8-.19-.14-.05-.28-.11-.42-.18,0,0-.01,0-.02,0,0,.02,0,.03-.01.05-.2.85-.46,1.69-.77,2.51.34.85,1.59.86,2.02.68,1.66-.7,1.35-2.35,2.37-1.9.04.02.06.06.09.1-.14.56-.4,1.11-.71,1.6-.34.54-.79,1.03-1.36,1.33-.48.25-1.03.33-1.56.2-.51-.12-.98-.4-1.39-.72-.39.82-1.23,2.2-1.74,2.95,0,0,.64,1.04,2.66.51.99-.26,2.08-1.81,2.41-1.36.05.07.1.15.14.22-.54,1.03-1.41,2.01-2.49,2.48-.6.26-1.28.31-1.89.06-.56-.23-1-.66-1.37-1.13-.02-.03-.04-.06-.06-.08-.61.71-1.3,1.35-2.03,1.92.2-.07.39-.13.59-.19,1-.3,2.18-.53,3.14.01Z"/>
              </g>
              <g>
                <g>
                  <path class="cls-11" d="m32.57,27.17l-2.22,7.62s7.11,1.3,11.11,6.79c0,0,1.03-3.56.74-5.35,0,0,2.56-.61,3.99-.83,0,0-2.34-4.61-13.62-8.22Z"/>
                  <path class="cls-4" d="m37.09,35.84l-6.74-1.04,2.22-7.62c2.23.71,4.1,1.46,5.68,2.21-.94,2-1.45,4.27-1.16,6.45Z"/>
                </g>
                <g>
                  <path class="cls-27" d="m12.44,27.17l2.22,7.62s-7.11,1.3-11.11,6.79c0,0-1.03-3.56-.74-5.35,0,0-2.56-.61-3.99-.83,0,0,2.34-4.61,13.62-8.22Z"/>
                  <path class="cls-6" d="m7.92,35.84l6.74-1.04-2.22-7.62c-2.23.71-4.1,1.46-5.68,2.21.94,2,1.45,4.27,1.16,6.45Z"/>
                </g>
                <path class="cls-24" d="m37.09,35.84c-9.94-6.06-19.23-6.06-29.18,0-1.35-2.76-2.02-4.15-3.37-6.91,12.02-7.54,23.9-7.54,35.92,0-1.35,2.76-2.02,4.15-3.37,6.91Z"/>
              </g>
            </g>
            <g>
              <path class="cls-26" d="m28.53,17.06h-3.2c-.14,0-.26-.12-.26-.26V5.3c0-.14-.12-.26-.26-.26h-1.26s-.09.01-.13.04c-1,.61-2.32,1.14-3.62,1.67-1.32.54-2.78.67-3.34.7-.14,0-.24.12-.24.26v2.75c0,.14.12.26.26.26h3.34c.14,0,.26.12.26.26v5.81c0,.14-.12.26-.26.26h-3.34c-.14,0-.26.11-.26.26v3.59c0,.14.12.26.26.26h12.05c.14,0,.26-.12.26-.26v-3.59c0-.14-.12-.26-.26-.26Z"/>
              <path class="cls-17" d="m25.07,17.42h3.03c.14,0,.26.12.26.26v2.96c0,.14-.12.26-.26.26h-11.22c-.14,0-.26-.12-.26-.26v-2.96c0-.14.12-.26.26-.26h3.16c.14,0,.26-.12.26-.26v-6.51c0-.14-.12-.26-.26-.26h-3.16c-.14,0-.26-.12-.26-.26v-2.13c0-.13.1-.24.23-.25,2.05-.2,4.68-1.29,6.38-2.39.04-.03.09-.04.13-.04h1.18c.14,0,.26.12.26.26v11.58c0,.14.12.26.26.26Z"/>
            </g>
          </g>
          <g>
            <g class="cls-23">
              <path class="cls-8" d="m25.29,4.17c3.62,1.88,5.85,4.77,4.98,6.44-.87,1.67-4.51,1.5-8.13-.39-3.62-1.88-5.85-4.77-4.98-6.44.87-1.67,4.51-1.5,8.13.39Z"/>
            </g>
            <g class="cls-22">
              <path class="cls-7" d="m25.99,8.36c-.65,1.26-2.2,1.77-3.45,1.12-1.26-.65-1.75-2.19-1.1-3.46.65-1.26,2.2-1.77,3.45-1.12,1.26.65,1.75,2.19,1.1,3.46Z"/>
            </g>
          </g>
          <path class="cls-12" d="m46.19,35.4s-1.26-2.47-6.34-5.2c.19-.39.4-.81.62-1.27-1.12-.7-2.23-1.33-3.35-1.9.68-.52,1.23-1.22,1.61-1.95-.04-.08-.09-.15-.14-.22-.33-.45-.8-.8-1.35-.93-.61-.15-1.24-.01-1.8.24-.55.25-1.05.6-1.53.96.51-.75.96-1.54,1.35-2.36.42.32.88.6,1.39.72.53.13,1.08.05,1.56-.2.57-.3,1.02-.79,1.36-1.33.31-.49.57-1.04.71-1.6-.03-.03-.06-.06-.09-.1-.4-.39-.95-.64-1.51-.66-.63-.02-1.2.26-1.69.64-.36.28-.68.62-.98.98-.07.09-.14.17-.21.26.31-.82.57-1.66.77-2.51,0-.02,0-.03.01-.05,0,0,.01,0,.02,0,.14.07.28.12.42.18.26.09.52.16.8.19.52.06,1.04-.06,1.46-.36.53-.37.87-.93,1.12-1.51.21-.5.34-1.06.37-1.6-.32-.24-.73-.39-1.13-.42-.57-.05-1.12.16-1.55.53-.56.48-.95,1.12-1.27,1.79.14-.85.23-1.71.27-2.58.28.08.57.13.86.15.51.03,1.02-.08,1.43-.39.5-.38.79-.95.95-1.55.15-.54.2-1.14.14-1.7-.72-.37-1.64-.26-2.24.29-.62.57-.9,1.4-1.13,2.2,0-.85-.06-1.7-.16-2.55.02,0,.04,0,.06,0,.07,0,.15.01.22.02.14,0,.27,0,.41,0,.47-.03.94-.17,1.31-.49.42-.37.64-.92.73-1.46.09-.55.06-1.16-.07-1.7-.63-.21-1.39-.07-1.87.4-.58.56-.77,1.42-.87,2.19,0,.07-.02.15-.03.22,0,0,0,0,0-.01-.13-.81-.3-1.61-.51-2.39.02,0,.04,0,.06,0,.07,0,.15,0,.22-.01.47-.04.96-.17,1.33-.48.44-.37.64-.92.68-1.48.02-.31,0-.63-.06-.94-.04-.23-.09-.48-.18-.7-.54-.11-1.15.05-1.55.43-.46.44-.61,1.08-.66,1.69-.02.29-.03.59-.01.88-.23-.77-.49-1.53-.78-2.27.02,0,.04,0,.06,0,.07-.01.14-.02.21-.04.13-.03.26-.06.38-.1.22-.07.43-.17.61-.31.92-.7.76-2.09.3-3.01-.42-.04-.88.1-1.21.37-.35.29-.51.71-.58,1.14-.08.5-.03,1.02.05,1.53-.25-.6-.51-1.19-.8-1.78-.05-.11-.11-.21-.16-.32.07-.01.13-.03.19-.05.25-.07.49-.17.71-.31.48-.31.73-.82.72-1.39,0-.52-.17-1.06-.44-1.51-.6,0-1.17.35-1.39.91-.21.53-.14,1.15-.02,1.7.03.13.06.26.1.39-.24-.48-.5-.94-.77-1.41.03-.11.12-.54.12-.76,0-.59-.12-.88-.44-1.23-.33-.37-1.08-.45-1.55-.28-.08.43-.05.9.1,1.31.16.45.5.77.96.88.17.04.55.09.72.1.07.12.14.25.21.37.04.08.08.17.13.25-.2-.2-.37-.29-.65-.35-.37-.08-.92.15-1.2.44.14.29.38.56.68.73.32.19.71.21,1.05.04.11-.05.33-.18.43-.25.27.54.52,1.08.76,1.63-.02-.03-.04-.05-.06-.08-.09-.13-.19-.26-.3-.37-.21-.21-.46-.41-.75-.51-.52-.19-1.07.05-1.4.47,0,0,0,0-.01.01.21.44.59.87,1.05,1.04.52.2,1.07.02,1.51-.29.02-.01.04-.03.06-.04.11.27.22.54.32.82.12.32.24.64.35.97-.06-.1-.12-.19-.18-.28-.14-.2-.3-.38-.49-.54-.25-.21-.56-.37-.9-.38-.43-.01-.86.22-1.14.54.21.5.58.99,1.09,1.23.51.23,1.07.12,1.55-.13.06-.03.12-.07.19-.11.07.2.13.41.19.61.13.43.24.87.35,1.31-.08-.16-.17-.31-.27-.46-.27-.39-.64-.77-1.12-.88-.52-.13-1.1.09-1.48.46.16.49.45.97.86,1.29.41.32.94.4,1.44.3.13-.03.27-.07.39-.11.07-.03.14-.06.21-.09.02,0,.04-.02.06-.03.02.07.03.13.05.2.14.63.24,1.27.32,1.91-.02-.05-.04-.1-.06-.16-.18-.42-.42-.82-.77-1.12-.34-.29-.76-.43-1.21-.37-.34.05-.68.19-.94.4.09.5.35,1.02.7,1.38.36.38.86.58,1.38.58.29,0,.57-.05.84-.13.04-.01.08-.03.12-.04.06.55.09,1.1.11,1.65,0,.2,0,.4,0,.6-.14-.51-.34-1.01-.7-1.4-.6-.67-1.59-.68-2.33-.24.05.54.24,1.12.58,1.55.31.41.77.68,1.28.78.26.05.53.05.8.03.12-.01.24-.03.36-.05-.03.77-.1,1.55-.21,2.32-.05-.4-.14-.79-.31-1.16-.25-.53-.67-.95-1.25-1.08-.46-.1-.97-.04-1.4.13-.01.52.07,1.07.3,1.54.24.51.65.9,1.16,1.12.23.1.47.16.71.19.14.02.27.03.41.03.08,0,.15,0,.23,0,0,0,.02,0,.02,0-.15.78-.35,1.56-.59,2.31,0-.25,0-.5-.04-.74-.09-.61-.34-1.21-.86-1.58-.53-.37-1.27-.44-1.89-.3-.11.5-.08,1.06.04,1.56.15.55.45,1.02.91,1.36.44.33.98.51,1.52.59-.06.15-.11.3-.17.44-.25.62-.54,1.22-.86,1.8.03-.14.06-.29.07-.43.08-.77-.03-1.6-.63-2.15-.49-.45-1.22-.64-1.87-.62-.43,1.06-.33,2.35.46,3.21.35.37.78.65,1.25.84.06.02.11.05.17.07-.28.43-.58.84-.9,1.24-.11-.04-.23-.09-.34-.13.1-.5.08-1.03-.15-1.5-.36-.75-1.2-1.2-1.98-1.36-.03.05-.06.1-.09.15-.41-.74-.96-1.2-1.57-1.2h-.3c.14,0,.25-.12.25-.26v-3.59c0-.14-.12-.26-.26-.26h-3.2c-.14,0-.26-.12-.26-.26V5.3c0-.14-.12-.26-.26-.26h-1.26s-.09.01-.13.04c-1,.61-2.33,1.14-3.62,1.67-1.32.54-2.78.67-3.34.7-.14,0-.24.12-.24.26v2.75c0,.14.12.26.26.26h3.34c.14,0,.26.12.26.26v5.81c0,.14-.12.26-.26.26h-3.34c-.14,0-.26.11-.26.26v3.59c0,.14.11.25.25.26h-.16c-.64,0-1.22.51-1.63,1.32-.05-.09-.1-.18-.16-.27-.79.16-1.63.61-1.98,1.36-.22.47-.24.99-.15,1.5-.11.04-.22.08-.34.13-.32-.4-.62-.81-.9-1.24.06-.02.11-.04.17-.07.47-.2.9-.47,1.25-.84.8-.86.9-2.15.46-3.21-.65-.02-1.38.17-1.87.62-.59.55-.71,1.38-.63,2.15.02.14.04.29.07.43-.32-.58-.61-1.18-.86-1.8-.06-.15-.12-.29-.17-.44.54-.08,1.08-.26,1.52-.59.46-.34.76-.81.91-1.36.12-.5.15-1.06.04-1.56-.62-.14-1.36-.07-1.89.3-.52.37-.77.97-.86,1.58-.04.25-.05.5-.04.74-.24-.76-.44-1.53-.59-2.31,0,0,.02,0,.02,0,.08,0,.15,0,.23,0,.14,0,.28-.02.41-.03.24-.04.48-.1.71-.19.52-.22.92-.62,1.16-1.12.23-.47.31-1.02.3-1.54-.43-.18-.95-.24-1.4-.13-.58.13-1,.55-1.25,1.08-.17.36-.27.76-.31,1.16-.11-.77-.18-1.54-.21-2.32.12.02.24.04.36.05.27.03.54.02.8-.03.51-.1.96-.37,1.28-.78.33-.43.53-1.01.58-1.55-.74-.44-1.73-.43-2.33.24-.36.4-.56.89-.7,1.4,0-.2,0-.4,0-.6.01-.55.05-1.1.11-1.65.04.01.08.03.12.04.27.08.56.13.84.13.52,0,1.02-.2,1.38-.58.35-.36.61-.88.7-1.38-.27-.21-.61-.35-.94-.4-.44-.06-.87.08-1.21.37-.35.3-.59.7-.77,1.12-.02.05-.04.1-.06.16.08-.64.18-1.28.32-1.91.02-.07.03-.13.05-.2.02.01.04.02.06.03.07.03.14.06.21.09.13.05.26.09.39.11.5.1,1.03.02,1.44-.3.41-.32.7-.79.86-1.29-.38-.37-.95-.58-1.48-.46-.48.12-.85.49-1.12.88-.1.15-.19.3-.27.46.11-.44.22-.88.35-1.31.06-.2.13-.41.19-.61.06.04.12.07.19.11.48.25,1.04.36,1.55.13.51-.23.88-.72,1.09-1.23-.28-.32-.71-.55-1.14-.54-.33.01-.64.16-.9.38-.19.16-.35.34-.49.54-.07.09-.13.19-.18.28.11-.32.23-.64.35-.97.1-.27.21-.55.32-.82.02.01.04.03.06.04.44.31.99.49,1.51.29.46-.18.85-.6,1.05-1.04,0,0,0,0-.01-.01-.33-.42-.88-.66-1.4-.47-.29.1-.54.3-.75.51-.11.11-.21.24-.31.37-.02.03-.04.05-.05.08.23-.55.49-1.1.76-1.64.11.07.33.2.44.26.34.16.72.14,1.05-.04.31-.18.55-.44.68-.73-.28-.29-.83-.52-1.2-.44-.29.06-.47.16-.68.37.05-.09.09-.18.14-.27.07-.12.14-.25.21-.37.17-.01.56-.07.73-.11.46-.1.81-.43.96-.88.15-.41.17-.88.1-1.31-.46-.18-1.22-.1-1.55.28-.32.36-.44.64-.44,1.23,0,.21.09.62.11.75-.27.47-.53.94-.78,1.42.03-.13.07-.26.1-.39.12-.54.19-1.16-.02-1.7-.22-.56-.8-.91-1.39-.91-.27.45-.43.99-.44,1.51,0,.57.24,1.08.72,1.39.22.14.46.24.71.31.06.02.13.03.19.05-.05.11-.11.21-.16.32-.29.58-.55,1.18-.8,1.78.08-.5.13-1.03.05-1.53-.07-.43-.23-.85-.58-1.14-.33-.27-.79-.41-1.21-.37-.46.92-.62,2.31.3,3.01.18.14.39.24.61.31.12.04.25.07.38.1.07.01.14.03.21.04.02,0,.04,0,.06,0-.29.75-.55,1.5-.78,2.27.01-.29,0-.59-.01-.88-.05-.61-.2-1.26-.66-1.69-.4-.38-1.01-.54-1.55-.43-.09.22-.14.46-.18.7-.05.31-.08.62-.06.94.04.56.24,1.12.68,1.48.37.31.86.44,1.33.48.07,0,.15.01.22.01.02,0,.04,0,.06,0-.21.79-.38,1.59-.51,2.39,0,0,0,0,0,.01,0-.07-.02-.15-.03-.22-.1-.77-.29-1.63-.87-2.19-.48-.46-1.24-.61-1.87-.4-.14.54-.17,1.15-.07,1.7.09.54.31,1.09.73,1.46.36.32.83.46,1.31.49.14,0,.27,0,.41,0,.07,0,.15,0,.22-.02.02,0,.04,0,.06,0-.1.85-.16,1.7-.16,2.55-.22-.8-.51-1.62-1.13-2.2-.6-.55-1.51-.66-2.24-.29-.06.56,0,1.16.14,1.7.16.59.45,1.17.95,1.55.41.31.92.41,1.43.39.29-.02.58-.07.86-.15.03.86.12,1.72.27,2.58-.32-.67-.72-1.31-1.27-1.79-.43-.37-.98-.58-1.55-.53-.4.03-.81.18-1.13.42.03.54.16,1.1.37,1.6.24.59.59,1.14,1.12,1.51.43.3.95.42,1.46.36.27-.03.54-.1.8-.19.14-.05.28-.11.42-.18,0,0,.01,0,.02,0,0,.02,0,.03.01.05.2.85.46,1.69.77,2.51-.07-.09-.14-.17-.21-.26-.3-.35-.61-.69-.98-.98-.48-.38-1.06-.66-1.69-.64-.56.01-1.1.27-1.51.66-.03.03-.06.06-.09.1.14.56.4,1.11.71,1.6.34.54.79,1.03,1.36,1.33.48.25,1.03.33,1.56.2.51-.12.98-.4,1.39-.72.39.82.84,1.61,1.35,2.36-.49-.36-.98-.7-1.53-.96-.56-.25-1.19-.39-1.8-.24-.54.13-1.02.48-1.35.93-.05.07-.1.15-.14.22.39.73.94,1.44,1.61,1.95-1.11.57-2.23,1.2-3.34,1.9.22.46.43.87.62,1.26-5.09,2.74-6.35,5.21-6.35,5.21,1.43.22,3.99.83,3.99.83-.29,1.8.74,5.35.74,5.35,2.85-3.91,7.27-5.69,9.58-6.39-.03.08-.06.16-.09.25l-.43,1.78h-.43c-.25,0-.5.35-.55.77l-.24,2.01h22.22l-.24-2.01c-.05-.43-.3-.77-.55-.77h-.29l-.43-1.78c-.02-.07-.04-.14-.06-.2,2.35.74,6.64,2.52,9.42,6.34,0,0,1.03-3.56.74-5.35,0,0,2.56-.61,3.99-.83Z"/>
        </g>
      </g>
    </g>
  </g>
</svg>