<svg width="609" height="369" viewBox="0 0 609 369" fill="none" xmlns="http://www.w3.org/2000/svg">
<path opacity="0.3" d="M318.654 260.088H357.529L506.713 175.645L375.754 99.9932L282.154 150.329L318.654 260.088Z" fill="#CFC4B8"/>
<path d="M176.073 143.286L183.029 139.328L192.462 144.655L185.505 148.614L176.073 143.286Z" fill="#E4E3EE"/>
<path d="M193.893 140.318L200.833 136.359L193.725 147.739L186.768 151.698L193.893 140.318Z" fill="#B7B6E3"/>
<path d="M210.333 147.244L217.289 143.303L217.273 145.661L210.333 149.603V147.244Z" fill="#919DD6"/>
<path d="M192.613 137.234L199.57 133.275L217.289 143.303L210.333 147.245L192.613 137.234Z" fill="#E4E3EE"/>
<path d="M210.333 147.244V149.603L193.893 140.318L186.769 151.697L176.073 145.645V143.286L185.505 148.613L192.613 137.233L210.333 147.244Z" fill="#919DD6"/>
<path d="M201.894 128.888L208.851 124.93L218.283 130.257L211.327 134.215L201.894 128.888Z" fill="#E4E3EE"/>
<path d="M219.714 125.919L226.654 121.961L219.546 133.341L212.589 137.299L219.714 125.919Z" fill="#B7B6E3"/>
<path d="M236.154 132.846L243.111 128.888L243.094 131.246L236.154 135.204V132.846Z" fill="#919DD6"/>
<path d="M218.435 122.835L225.391 118.877L243.11 128.888L236.154 132.846L218.435 122.835Z" fill="#E4E3EE"/>
<path d="M236.154 132.846V135.204L219.715 125.919L212.59 137.299L201.894 131.246V128.888L211.327 134.215L218.435 122.835L236.154 132.846Z" fill="#919DD6"/>
<path d="M226.621 114.457L233.577 110.499L243.009 115.826L236.053 119.784L226.621 114.457Z" fill="#E4E3EE"/>
<path d="M244.441 111.489L251.398 107.53L244.273 118.91L237.333 122.868L244.441 111.489Z" fill="#B7B6E3"/>
<path d="M260.881 118.432L267.837 114.474V116.832L260.881 120.79V118.432Z" fill="#919DD6"/>
<path d="M243.161 108.405L250.117 104.463L267.837 114.474L260.881 118.432L243.161 108.405Z" fill="#E4E3EE"/>
<path d="M260.881 118.432V120.79L244.441 111.488L237.333 122.868L226.621 116.816V114.457L236.053 119.784L243.161 108.404L260.881 118.432Z" fill="#919DD6"/>
<path d="M150.555 158.938L157.494 154.996L166.927 160.323L159.97 164.265L150.555 158.938Z" fill="#E4E3EE"/>
<path d="M168.358 155.986L175.315 152.027L168.207 163.407L161.25 167.366L168.358 155.986Z" fill="#B7B6E3"/>
<path d="M184.815 162.912L191.755 158.954V161.313L184.798 165.271L184.815 162.912Z" fill="#919DD6"/>
<path d="M167.095 152.902L174.052 148.943L191.754 158.954L184.815 162.913L167.095 152.902Z" fill="#E4E3EE"/>
<path d="M184.815 162.912L184.798 165.271L168.359 155.985L161.251 167.365L150.538 161.313L150.555 158.938L159.97 164.265L167.095 152.901L184.815 162.912Z" fill="#919DD6"/>
<path d="M254.109 99.2512L261.066 95.293L270.498 100.62L263.542 104.578L254.109 99.2512Z" fill="#E4E3EE"/>
<path d="M271.93 96.2825L278.886 92.3242L271.761 103.704L264.822 107.662L271.93 96.2825Z" fill="#B7B6E3"/>
<path d="M288.37 103.209L295.326 99.2676V101.626L288.37 105.584V103.209Z" fill="#919DD6"/>
<path d="M270.65 93.1985L277.606 89.2402L295.326 99.2678L288.369 103.21L270.65 93.1985Z" fill="#E4E3EE"/>
<path d="M288.369 103.209V105.584L271.93 96.2824L264.822 107.662L254.109 101.609V99.2511L263.542 104.578L270.65 93.1982L288.369 103.209Z" fill="#919DD6"/>
<path d="M280.537 84.5559L287.493 80.5977L296.909 85.9248L289.969 89.883L280.537 84.5559Z" fill="#E4E3EE"/>
<path d="M298.357 81.5873L305.297 77.6455L298.189 89.0255L291.232 92.9672L298.357 81.5873Z" fill="#B7B6E3"/>
<path d="M314.797 88.5305L321.754 84.5723L321.737 86.9307L314.797 90.889V88.5305Z" fill="#919DD6"/>
<path d="M297.077 78.5198L304.034 74.5615L321.753 84.5726L314.797 88.5308L297.077 78.5198Z" fill="#E4E3EE"/>
<path d="M314.797 88.5306V90.8891L298.357 81.5872L291.233 92.9671L280.537 86.9143V84.5559L289.969 89.883L297.077 78.5195L314.797 88.5306Z" fill="#919DD6"/>
<path d="M459.062 143.632L452.106 139.674L442.69 145.001L449.63 148.959L459.062 143.632Z" fill="#E4E3EE"/>
<path d="M441.258 140.663L434.302 136.705L441.41 148.085L448.366 152.043L441.258 140.663Z" fill="#B7B6E3"/>
<path d="M424.802 147.607L417.863 143.648V146.007L424.819 149.965L424.802 147.607Z" fill="#919DD6"/>
<path d="M442.522 137.579L435.565 133.638L417.863 143.649L424.802 147.607L442.522 137.579Z" fill="#E4E3EE"/>
<path d="M424.802 147.607L424.819 149.965L441.258 140.663L448.366 152.043L459.079 145.99L459.062 143.632L449.63 148.959L442.522 137.579L424.802 147.607Z" fill="#919DD6"/>
<path d="M433.241 129.234L426.285 125.275L416.869 130.603L423.809 134.561L433.241 129.234Z" fill="#E4E3EE"/>
<path d="M415.437 126.265L408.481 122.307L415.589 133.687L422.545 137.645L415.437 126.265Z" fill="#B7B6E3"/>
<path d="M398.981 133.208L392.041 129.25V131.608L398.998 135.567L398.981 133.208Z" fill="#919DD6"/>
<path d="M416.7 123.181L409.744 119.239L392.041 129.25L398.981 133.209L416.7 123.181Z" fill="#E4E3EE"/>
<path d="M398.981 133.208L398.998 135.567L415.437 126.265L422.545 137.645L433.258 131.592L433.241 129.233L423.808 134.561L416.7 123.181L398.981 133.208Z" fill="#919DD6"/>
<path d="M408.515 114.803L401.558 110.861L392.143 116.188L399.082 120.147L408.515 114.803Z" fill="#E4E3EE"/>
<path d="M390.694 111.851L383.754 107.893L390.862 119.273L397.819 123.231L390.694 111.851Z" fill="#B7B6E3"/>
<path d="M374.255 118.778L367.298 114.819L367.315 117.178L374.255 121.136V118.778Z" fill="#919DD6"/>
<path d="M391.974 108.767L385.018 104.809L367.298 114.82L374.255 118.778L391.974 108.767Z" fill="#E4E3EE"/>
<path d="M374.255 118.778V121.136L390.694 111.851L397.819 123.231L408.515 117.178V114.803L399.082 120.147L391.974 108.767L374.255 118.778Z" fill="#919DD6"/>
<path d="M484.598 159.3L477.641 155.342L468.209 160.669L475.165 164.627L484.598 159.3Z" fill="#E4E3EE"/>
<path d="M466.777 156.331L459.82 152.373L466.945 163.753L473.885 167.711L466.777 156.331Z" fill="#B7B6E3"/>
<path d="M450.337 163.258L443.381 159.316V161.675L450.337 165.633V163.258Z" fill="#919DD6"/>
<path d="M468.057 153.247L461.1 149.289L443.381 159.317L450.337 163.258L468.057 153.247Z" fill="#E4E3EE"/>
<path d="M450.337 163.258V165.633L466.777 156.331L473.885 167.711L484.597 161.658V159.3L475.165 164.627L468.057 153.247L450.337 163.258Z" fill="#919DD6"/>
<path d="M381.026 99.5969L374.07 95.6387L364.637 100.966L371.594 104.924L381.026 99.5969Z" fill="#E4E3EE"/>
<path d="M363.205 96.6283L356.266 92.6865L363.373 104.066L370.33 108.008L363.205 96.6283Z" fill="#B7B6E3"/>
<path d="M346.766 103.572L339.81 99.6133L339.826 101.972L346.766 105.93V103.572Z" fill="#919DD6"/>
<path d="M364.486 93.5608L357.529 89.6025L339.81 99.6136L346.766 103.572L364.486 93.5608Z" fill="#E4E3EE"/>
<path d="M346.766 103.572V105.93L363.205 96.6282L370.33 108.008L381.026 101.955V99.5969L371.594 104.924L364.486 93.5605L346.766 103.572Z" fill="#919DD6"/>
<path d="M354.599 84.9182L347.659 80.96L338.227 86.2871L345.183 90.2454L354.599 84.9182Z" fill="#E4E3EE"/>
<path d="M336.795 81.9494L329.838 77.9912L336.946 89.3712L343.903 93.3294L336.795 81.9494Z" fill="#B7B6E3"/>
<path d="M320.338 88.8762L313.399 84.918V87.2929L320.355 91.2347L320.338 88.8762Z" fill="#919DD6"/>
<path d="M338.058 78.8655L331.118 74.9072L313.399 84.9183L320.338 88.8765L338.058 78.8655Z" fill="#E4E3EE"/>
<path d="M320.338 88.8763L320.355 91.2348L336.795 81.9494L343.903 93.3293L354.615 87.2765L354.598 84.918L345.183 90.2452L338.058 78.8652L320.338 88.8763Z" fill="#919DD6"/>
<path d="M467.704 159.021L467.653 175.315L318.671 260.088L318.722 243.793L467.704 159.021Z" fill="url(#paint0_linear_288_267)"/>
<path d="M318.721 243.793L318.671 260.088L168.712 175.315L168.763 159.021L318.721 243.793Z" fill="url(#paint1_linear_288_267)"/>
<path d="M467.703 159.02L318.722 243.793L168.763 159.02L317.745 74.248L467.703 159.02Z" fill="url(#paint2_linear_288_267)"/>
<path d="M431.995 154.881L431.978 163.028L318.57 227.564L318.587 219.417L431.995 154.881Z" fill="#D4D5F0"/>
<path d="M318.587 219.417L318.57 227.564L204.421 163.028L204.438 154.881L318.587 219.417Z" fill="#C4C3EC"/>
<path d="M431.995 154.881L318.587 219.417L204.437 154.881L317.845 90.3613L431.995 154.881Z" fill="white"/>
<path d="M156.534 201.06L149.578 197.102L156.602 177.739L163.558 181.697L156.534 201.06Z" fill="#C4C3EC"/>
<path d="M163.558 181.698L156.601 177.74L174.321 167.729L181.26 171.67L163.558 181.698Z" fill="#E4E3EE"/>
<path d="M147.102 206.387L140.145 202.445L149.578 197.102L156.534 201.06L147.102 206.387Z" fill="#E4E3EE"/>
<path d="M147.102 208.762L140.145 204.804V202.445L147.102 206.387V208.762Z" fill="#B7B6E3"/>
<path d="M181.261 171.67L181.278 174.045L164.838 183.33L157.814 202.709L147.102 208.762V206.387L156.534 201.06L163.558 181.697L181.261 171.67Z" fill="#919DD6"/>
<path d="M182.659 215.705L175.719 211.747L182.743 192.385L189.682 196.343L182.659 215.705Z" fill="#C4C3EC"/>
<path d="M189.682 196.343L182.743 192.385L200.462 182.374L207.402 186.332L189.682 196.343Z" fill="#E4E3EE"/>
<path d="M173.226 221.049L166.287 217.091L175.719 211.747L182.659 215.705L173.226 221.049Z" fill="#E4E3EE"/>
<path d="M173.243 223.407L166.287 219.449V217.091L173.226 221.049L173.243 223.407Z" fill="#B7B6E3"/>
<path d="M207.402 186.332L207.419 188.69L190.963 197.976L183.956 217.355L173.243 223.408L173.226 221.049L182.659 215.706L189.682 196.343L207.402 186.332Z" fill="#919DD6"/>
<path d="M208.598 230.516L201.641 226.558L208.665 207.179L215.622 211.137L208.598 230.516Z" fill="#C4C3EC"/>
<path d="M215.621 211.137L208.665 207.179L226.384 197.168L233.341 201.126L215.621 211.137Z" fill="#E4E3EE"/>
<path d="M199.165 235.843L192.209 231.885L201.641 226.558L208.598 230.516L199.165 235.843Z" fill="#E4E3EE"/>
<path d="M199.165 238.201L192.226 234.243L192.209 231.885L199.165 235.843V238.201Z" fill="#B7B6E3"/>
<path d="M233.341 201.126V203.484L216.902 212.786L209.878 232.149L199.165 238.202V235.843L208.598 230.516L215.622 211.137L233.341 201.126Z" fill="#919DD6"/>
<path d="M234.52 245.211L227.564 241.253L234.588 221.874L241.544 225.832L234.52 245.211Z" fill="#C4C3EC"/>
<path d="M241.544 225.833L234.587 221.874L252.307 211.863L259.263 215.822L241.544 225.833Z" fill="#E4E3EE"/>
<path d="M225.088 250.538L218.131 246.58L227.564 241.253L234.52 245.211L225.088 250.538Z" fill="#E4E3EE"/>
<path d="M225.088 252.897L218.131 248.939V246.58L225.088 250.538V252.897Z" fill="#B7B6E3"/>
<path d="M259.263 215.821V218.18L242.824 227.482L235.8 246.844L225.088 252.897V250.538L234.52 245.211L241.544 225.832L259.263 215.821Z" fill="#919DD6"/>
<path d="M260.762 259.79L253.806 255.832L260.83 236.47L267.786 240.428L260.762 259.79Z" fill="#C4C3EC"/>
<path d="M267.786 240.428L260.83 236.47L278.549 226.459L285.505 230.417L267.786 240.428Z" fill="#E4E3EE"/>
<path d="M251.33 265.134L244.374 261.176L253.806 255.832L260.762 259.79L251.33 265.134Z" fill="#E4E3EE"/>
<path d="M251.347 267.492L244.39 263.534L244.374 261.176L251.33 265.134L251.347 267.492Z" fill="#B7B6E3"/>
<path d="M285.506 230.417L285.523 232.775L269.066 242.061L262.043 261.44L251.347 267.493L251.33 265.134L260.762 259.79L267.786 240.428L285.506 230.417Z" fill="#919DD6"/>
<path d="M286.516 274.519L279.56 270.561L286.584 251.182L293.54 255.14L286.516 274.519Z" fill="#C4C3EC"/>
<path d="M293.54 255.14L286.583 251.182L304.303 241.171L311.259 245.129L293.54 255.14Z" fill="#E4E3EE"/>
<path d="M277.084 279.846L270.128 275.888L279.56 270.561L286.516 274.519L277.084 279.846Z" fill="#E4E3EE"/>
<path d="M277.084 282.204L270.128 278.246V275.888L277.084 279.846V282.204Z" fill="#B7B6E3"/>
<path d="M311.26 245.129V247.487L294.82 256.789L287.797 276.152L277.084 282.204V279.846L286.516 274.519L293.54 255.14L311.26 245.129Z" fill="#919DD6"/>
<path d="M480.453 201.324L487.41 197.382L480.386 178.003L473.43 181.961L480.453 201.324Z" fill="#C4C3EC"/>
<path d="M473.43 181.962L480.386 178.003L462.667 167.992L455.71 171.95L473.43 181.962Z" fill="#E4E3EE"/>
<path d="M489.886 206.667L496.825 202.709L487.41 197.382L480.453 201.324L489.886 206.667Z" fill="#E4E3EE"/>
<path d="M489.869 209.026L496.825 205.067V202.709L489.886 206.667L489.869 209.026Z" fill="#B7B6E3"/>
<path d="M455.71 171.95V174.309L472.149 183.594L479.173 202.973L489.869 209.026L489.886 206.667L480.453 201.324L473.43 181.961L455.71 171.95Z" fill="#919DD6"/>
<path d="M454.312 215.986L461.268 212.027L454.245 192.648L447.288 196.607L454.312 215.986Z" fill="#C4C3EC"/>
<path d="M447.288 196.607L454.245 192.649L436.525 182.638L429.569 186.596L447.288 196.607Z" fill="#E4E3EE"/>
<path d="M463.745 221.313L470.701 217.355L461.268 212.027L454.312 215.986L463.745 221.313Z" fill="#E4E3EE"/>
<path d="M463.745 223.671L470.684 219.713L470.701 217.354L463.745 221.313V223.671Z" fill="#B7B6E3"/>
<path d="M429.569 186.596V188.954L446.008 198.256L453.032 217.618L463.744 223.671V221.313L454.312 215.986L447.288 196.607L429.569 186.596Z" fill="#919DD6"/>
<path d="M428.39 230.78L435.329 226.821L428.306 207.459L421.366 211.417L428.39 230.78Z" fill="#C4C3EC"/>
<path d="M421.366 211.417L428.305 207.459L410.586 197.432L403.646 201.39L421.366 211.417Z" fill="#E4E3EE"/>
<path d="M437.822 236.107L444.761 232.148L435.329 226.821L428.389 230.78L437.822 236.107Z" fill="#E4E3EE"/>
<path d="M437.805 238.465L444.762 234.523V232.148L437.822 236.107L437.805 238.465Z" fill="#B7B6E3"/>
<path d="M403.646 201.39L403.63 203.748L420.086 213.05L427.093 232.412L437.805 238.465L437.822 236.107L428.39 230.78L421.366 211.417L403.646 201.39Z" fill="#919DD6"/>
<path d="M402.467 245.475L409.407 241.517L402.383 222.154L395.444 226.096L402.467 245.475Z" fill="#C4C3EC"/>
<path d="M395.444 226.096L402.383 222.155L384.664 212.127L377.724 216.085L395.444 226.096Z" fill="#E4E3EE"/>
<path d="M411.899 250.802L418.839 246.844L409.407 241.517L402.467 245.475L411.899 250.802Z" fill="#E4E3EE"/>
<path d="M411.883 253.16L418.839 249.202V246.844L411.9 250.802L411.883 253.16Z" fill="#B7B6E3"/>
<path d="M377.724 216.085L377.707 218.443L394.164 227.745L401.17 247.108L411.883 253.161L411.9 250.802L402.467 245.475L395.444 226.096L377.724 216.085Z" fill="#919DD6"/>
<path d="M376.208 260.071L383.165 256.112L376.141 236.733L369.184 240.692L376.208 260.071Z" fill="#C4C3EC"/>
<path d="M369.184 240.692L376.141 236.734L358.421 226.723L351.465 230.681L369.184 240.692Z" fill="#E4E3EE"/>
<path d="M385.641 265.398L392.597 261.439L383.165 256.112L376.208 260.071L385.641 265.398Z" fill="#E4E3EE"/>
<path d="M385.641 267.756L392.597 263.798V261.439L385.641 265.398V267.756Z" fill="#B7B6E3"/>
<path d="M351.465 230.681V233.039L367.904 242.325L374.928 261.703L385.641 267.756V265.398L376.208 260.071L369.184 240.692L351.465 230.681Z" fill="#919DD6"/>
<path d="M350.471 274.783L357.428 270.824L350.387 251.462L343.447 255.42L350.471 274.783Z" fill="#C4C3EC"/>
<path d="M343.447 255.42L350.387 251.462L332.684 241.435L325.728 245.393L343.447 255.42Z" fill="#E4E3EE"/>
<path d="M359.903 280.11L366.843 276.151L357.427 270.824L350.471 274.783L359.903 280.11Z" fill="#E4E3EE"/>
<path d="M359.887 282.468L366.843 278.526V276.151L359.904 280.11L359.887 282.468Z" fill="#B7B6E3"/>
<path d="M325.728 245.393L325.711 247.751L342.167 257.053L349.174 276.415L359.887 282.468L359.904 280.11L350.471 274.783L343.447 255.42L325.728 245.393Z" fill="#919DD6"/>
<path d="M243.818 154.881L249.393 158.031L317.98 196.805V112.676L243.818 154.881Z" fill="#D4D5F0"/>
<path d="M317.98 112.676V196.805L318.452 197.085L387.056 158.047L392.614 154.881L317.98 112.676Z" fill="#C4C3EC"/>
<path d="M387.056 158.047L318.452 197.085L249.393 158.03L317.98 118.992L387.056 158.047Z" fill="url(#paint3_linear_288_267)"/>
<path d="M387.056 158.047L318.452 197.085L249.393 158.03L317.98 118.992L387.056 158.047Z" fill="url(#paint4_linear_288_267)"/>
<path d="M355.306 152.226L355.289 156.316L347.153 160.934V156.86L355.306 152.226Z" fill="#D4D5F0"/>
<path d="M347.154 156.86V160.934L310.755 140.368L310.771 136.294L347.154 156.86Z" fill="#C4C3EC"/>
<path d="M355.306 152.226L347.153 156.86L310.771 136.294L318.907 131.659L355.306 152.226Z" fill="#EEEFF2"/>
<path d="M314.796 158.954V163.028C312.657 162.451 310.602 161.907 308.649 161.395C306.695 160.884 304.892 160.422 303.225 160.01C301.557 159.598 300.109 159.235 298.846 158.921C297.582 158.608 296.589 158.361 295.847 158.196V154.122C296.589 154.287 297.582 154.534 298.846 154.848C300.109 155.161 301.557 155.524 303.225 155.936C304.892 156.349 306.695 156.81 308.649 157.322C310.602 157.833 312.641 158.394 314.78 158.954H314.796Z" fill="#1393F2"/>
<mask id="mask0_288_267" style="mask-type:luminance" maskUnits="userSpaceOnUse" x="295" y="154" width="20" height="10">
<path d="M314.796 158.954V163.028C312.657 162.451 310.602 161.907 308.649 161.395C306.695 160.884 304.892 160.422 303.225 160.01C301.557 159.598 300.109 159.235 298.846 158.921C297.582 158.608 296.589 158.361 295.847 158.196V154.122C296.589 154.287 297.582 154.534 298.846 154.848C300.109 155.161 301.557 155.524 303.225 155.936C304.892 156.349 306.695 156.81 308.649 157.322C310.602 157.833 312.641 158.394 314.78 158.954H314.796Z" fill="white"/>
</mask>
<g mask="url(#mask0_288_267)">
<path d="M314.796 158.954V163.028C312.657 162.451 310.602 161.907 308.649 161.395C306.695 160.884 304.892 160.422 303.225 160.01C301.557 159.598 300.109 159.235 298.846 158.921C297.582 158.608 296.589 158.361 295.847 158.196V154.122C296.589 154.287 297.582 154.534 298.846 154.848C300.109 155.161 301.557 155.524 303.225 155.936C304.892 156.349 306.695 156.81 308.649 157.322C310.602 157.833 312.641 158.394 314.78 158.954H314.796Z" fill="#C4C3EC"/>
</g>
<path d="M328.608 162.995V167.069C326.806 166.574 325.004 166.096 323.235 165.601V161.527C325.021 162.022 326.806 162.5 328.608 162.995Z" fill="#1393F2"/>
<mask id="mask1_288_267" style="mask-type:luminance" maskUnits="userSpaceOnUse" x="323" y="161" width="6" height="7">
<path d="M328.608 162.995V167.069C326.806 166.574 325.004 166.096 323.235 165.601V161.527C325.021 162.022 326.806 162.5 328.608 162.995Z" fill="white"/>
</mask>
<g mask="url(#mask1_288_267)">
<path d="M328.608 162.995V167.069C326.806 166.574 325.004 166.096 323.235 165.601V161.527C325.021 162.022 326.806 162.5 328.608 162.995Z" fill="#C4C3EC"/>
</g>
<path d="M333.797 164.463V168.537C332.112 168.058 330.394 167.564 328.592 167.069V162.995C330.394 163.49 332.129 163.968 333.797 164.463Z" fill="#1393F2"/>
<mask id="mask2_288_267" style="mask-type:luminance" maskUnits="userSpaceOnUse" x="328" y="162" width="6" height="7">
<path d="M333.797 164.463V168.537C332.112 168.058 330.394 167.564 328.592 167.069V162.995C330.394 163.49 332.129 163.968 333.797 164.463Z" fill="white"/>
</mask>
<g mask="url(#mask2_288_267)">
<path d="M333.797 164.463V168.537C332.112 168.058 330.394 167.564 328.592 167.069V162.995C330.394 163.49 332.129 163.968 333.797 164.463Z" fill="#C4C3EC"/>
</g>
<path d="M342.521 159.499L342.504 163.589L333.779 168.537L333.796 164.463L342.521 159.499Z" fill="#D4D5F0"/>
<path d="M323.252 161.544L323.235 165.618L309.103 173.65L309.12 169.576L323.252 161.544Z" fill="#D4D5F0"/>
<path d="M305.886 180.345V184.419C303.309 181.434 300.985 178.646 298.879 176.074C296.774 173.501 294.837 171.043 293.068 168.718C291.3 166.392 289.649 164.149 288.15 162.022C286.651 159.878 285.236 157.75 283.939 155.639V151.565C285.253 153.676 286.651 155.821 288.167 157.948C289.683 160.092 291.317 162.319 293.085 164.644C294.854 166.97 296.791 169.427 298.896 172C301.002 174.573 303.326 177.36 305.886 180.345Z" fill="#1393F2"/>
<mask id="mask3_288_267" style="mask-type:luminance" maskUnits="userSpaceOnUse" x="283" y="151" width="23" height="34">
<path d="M305.886 180.345V184.419C303.309 181.434 300.985 178.646 298.879 176.074C296.774 173.501 294.837 171.043 293.068 168.718C291.3 166.392 289.649 164.149 288.15 162.022C286.651 159.878 285.236 157.75 283.939 155.639V151.565C285.253 153.676 286.651 155.821 288.167 157.948C289.683 160.092 291.317 162.319 293.085 164.644C294.854 166.97 296.791 169.427 298.896 172C301.002 174.573 303.326 177.36 305.886 180.345Z" fill="white"/>
</mask>
<g mask="url(#mask3_288_267)">
<path d="M305.886 180.345V184.419C303.309 181.434 300.985 178.646 298.879 176.074C296.774 173.501 294.837 171.043 293.068 168.718C291.3 166.392 289.649 164.149 288.15 162.022C286.651 159.878 285.236 157.75 283.939 155.639V151.565C285.253 153.676 286.651 155.821 288.167 157.948C289.683 160.092 291.317 162.319 293.085 164.644C294.854 166.97 296.791 169.427 298.896 172C301.002 174.573 303.326 177.36 305.886 180.345Z" fill="#C4C3EC"/>
</g>
<path d="M314.342 175.529L314.325 179.603L305.886 184.419V180.345L314.342 175.529Z" fill="#D4D5F0"/>
<path d="M328.608 162.995C326.806 162.5 325.02 162.022 323.252 161.527L309.137 169.559C310.013 170.565 310.872 171.588 311.747 172.594C312.623 173.616 313.499 174.589 314.358 175.513L305.903 180.329C303.343 177.344 301.018 174.556 298.913 171.984C296.807 169.411 294.87 166.953 293.102 164.628C291.333 162.302 289.682 160.059 288.183 157.932C286.684 155.788 285.269 153.66 283.972 151.549L291.687 147.162C295.392 147.904 299.148 148.712 302.938 149.537C306.728 150.378 310.686 151.285 314.796 152.291C318.906 153.281 323.235 154.386 327.783 155.557C332.33 156.744 337.249 158.047 342.521 159.499L333.813 164.463C332.145 163.985 330.41 163.49 328.625 162.995H328.608ZM304.471 164.826L314.813 158.938C312.674 158.361 310.636 157.816 308.682 157.305C306.728 156.794 304.926 156.332 303.258 155.92C301.591 155.507 300.142 155.145 298.879 154.831C297.616 154.518 296.622 154.27 295.881 154.106C296.235 154.501 296.689 155.062 297.245 155.771C297.801 156.48 298.458 157.305 299.199 158.229C299.94 159.152 300.765 160.191 301.641 161.313C302.517 162.434 303.46 163.605 304.471 164.826Z" fill="#EEEFF2"/>
<path d="M319.024 324.491L72.5181 185.128L317.441 45.7646L563.947 185.128L319.024 324.491ZM79.0534 185.128L319.008 320.78L557.395 185.128L317.441 49.4755L79.0534 185.128Z" fill="url(#paint5_linear_288_267)"/>
<path d="M110.754 204.886L92.5289 215.194C92.2594 215.343 91.9226 215.343 91.6699 215.194L72.9735 204.623L12.3028 238.927L6.64335 242.127C6.5086 242.209 6.35701 242.242 6.20541 242.242C5.90223 242.242 5.61589 242.094 5.46429 241.814C5.22848 241.418 5.36323 240.89 5.78432 240.659L10.5511 237.971L72.5356 202.924C72.8051 202.775 73.1251 202.775 73.3946 202.924L92.091 213.496L109.019 203.93L110.754 204.903V204.886Z" fill="url(#paint6_linear_288_267)"/>
<path d="M257.714 286.344L254.833 287.96L238.242 297.345C237.973 297.493 237.653 297.493 237.383 297.345L218.704 286.773L195.106 300.116L193.371 301.089L157.528 321.358L152.357 324.277C152.222 324.36 152.07 324.393 151.919 324.393C151.616 324.393 151.329 324.244 151.178 323.964C150.942 323.552 151.077 323.04 151.498 322.81L156.096 320.204L191.636 300.116L193.371 299.142L218.266 285.074C218.535 284.926 218.855 284.926 219.125 285.074L237.804 295.646L253.098 287.004L255.979 285.371L257.714 286.344Z" fill="url(#paint7_linear_288_267)"/>
<path d="M201.001 254.282L198.121 255.915L182.002 265.035C181.732 265.184 181.412 265.184 181.143 265.035L162.463 254.463L138.411 268.053L136.676 269.026L102.23 288.504L96.1331 291.951C95.9983 292.017 95.8468 292.067 95.6952 292.067C95.392 292.067 95.1056 291.918 94.954 291.638C94.7182 291.226 94.853 290.714 95.2741 290.483L100.849 287.333L134.958 268.053L136.693 267.08L162.042 252.748C162.312 252.6 162.632 252.6 162.901 252.748L181.581 263.32L196.403 254.942L199.283 253.309L201.018 254.282H201.001Z" fill="url(#paint8_linear_288_267)"/>
<path d="M155.76 228.702L152.879 230.335L91.9222 264.788L87.3407 267.378C87.206 267.46 87.0544 267.493 86.9028 267.493C86.5996 267.493 86.3133 267.345 86.1617 267.064C85.9259 266.669 86.0606 266.141 86.4817 265.91L90.2884 263.749L151.161 229.329L154.041 227.696L155.776 228.669L155.76 228.702Z" fill="url(#paint9_linear_288_267)"/>
<path d="M278.583 298.136L275.702 299.752L215.588 333.744L210.939 336.366C210.804 336.432 210.652 336.481 210.501 336.481C210.198 336.481 209.911 336.333 209.76 336.053C209.524 335.64 209.659 335.129 210.08 334.898L213.853 332.771L273.984 298.763L276.865 297.13L278.6 298.103L278.583 298.136Z" fill="url(#paint10_linear_288_267)"/>
<path d="M220.405 265.249L217.525 266.882L176.915 289.84L175.18 290.813L156.77 301.22L151.953 303.941C151.818 304.024 151.666 304.057 151.515 304.057C151.212 304.057 150.925 303.908 150.774 303.628C150.538 303.232 150.673 302.704 151.094 302.473L155.086 300.214L173.479 289.823L175.197 288.85L215.807 265.893L218.687 264.26L220.422 265.233L220.405 265.249Z" fill="url(#paint11_linear_288_267)"/>
<path d="M219.513 313.92L196.74 326.784L190.373 330.379L189.514 328.912L195.241 325.679L216.06 313.92L193.388 301.088L191.653 300.115L175.197 290.813L173.479 289.824L136.676 269.027L134.941 268.053L119.984 259.593L162.008 235.497L164.872 233.848L166.59 234.821L163.727 236.47L123.42 259.576L136.676 267.08L138.394 268.053L175.197 288.851L176.915 289.824L193.388 299.142L195.106 300.115L219.513 313.92Z" fill="url(#paint12_linear_288_267)"/>
<path d="M11.5613 238.432C14.1384 239.884 14.1384 242.242 11.5613 243.693C8.98422 245.145 4.82384 245.145 2.24677 243.693C-0.330303 242.242 -0.330303 239.884 2.24677 238.432C4.82384 236.981 8.98422 236.981 11.5613 238.432Z" fill="url(#paint13_linear_288_267)"/>
<path d="M124.699 235.893C124.699 236.189 124.531 236.47 124.262 236.618L72.0295 266.157L67.2459 268.861C67.1111 268.944 66.9595 268.977 66.808 268.977C66.5048 268.977 66.2184 268.829 66.0668 268.548C65.831 268.152 65.9658 267.625 66.3869 267.394L70.362 265.151L122.122 235.893L102.904 225.024C102.634 224.875 102.466 224.595 102.466 224.298C102.466 224.001 102.634 223.704 102.904 223.573L121.92 212.819L124.801 211.187L126.535 212.16L123.655 213.792L105.077 224.298L124.295 235.15C124.565 235.299 124.733 235.579 124.733 235.876L124.699 235.893Z" fill="url(#paint14_linear_288_267)"/>
<path d="M71.1539 265.53C73.731 266.981 73.731 269.34 71.1539 270.791C68.5769 272.242 64.4165 272.242 61.8394 270.791C59.2623 269.34 59.2623 266.981 61.8394 265.53C64.4165 264.079 68.5769 264.079 71.1539 265.53Z" fill="url(#paint15_linear_288_267)"/>
<path d="M289.834 328.104C289.834 328.4 289.666 328.681 289.396 328.829L238.529 357.592L232.381 361.072C232.246 361.138 232.094 361.188 231.943 361.188C231.657 361.188 231.353 361.039 231.202 360.759C230.966 360.347 231.118 359.835 231.522 359.605L236.878 356.586L287.257 328.104L268.039 317.235C267.769 317.086 267.601 316.806 267.601 316.509C267.601 316.212 267.769 315.932 268.039 315.783L286.028 305.607L288.908 303.991L290.626 304.964L287.746 306.581L270.195 316.509L289.413 327.378C289.683 327.526 289.851 327.807 289.851 328.104H289.834Z" fill="url(#paint16_linear_288_267)"/>
<path d="M237.602 356.932C240.179 358.384 240.179 360.742 237.602 362.193C235.025 363.645 230.865 363.645 228.288 362.193C225.711 360.742 225.711 358.384 228.288 356.932C230.865 355.481 235.025 355.481 237.602 356.932Z" fill="url(#paint17_linear_288_267)"/>
<path d="M90.9287 264.079C93.5057 265.53 93.5057 267.889 90.9287 269.34C88.3516 270.791 84.1912 270.791 81.6141 269.34C79.0371 267.889 79.0371 265.53 81.6141 264.079C84.1912 262.627 88.3516 262.627 90.9287 264.079Z" fill="url(#paint18_linear_288_267)"/>
<path d="M100.816 287.317C103.393 288.768 103.393 291.127 100.816 292.578C98.2385 294.03 94.0781 294.03 91.501 292.578C88.924 291.127 88.924 288.768 91.501 287.317C94.0781 285.866 98.2385 285.866 100.816 287.317Z" fill="url(#paint19_linear_288_267)"/>
<path d="M155.945 300.643C158.522 302.095 158.522 304.453 155.945 305.904C153.368 307.356 149.207 307.356 146.63 305.904C144.053 304.453 144.053 302.095 146.63 300.643C149.207 299.192 153.368 299.192 155.945 300.643Z" fill="url(#paint20_linear_288_267)"/>
<path d="M156.197 320.236C158.774 321.687 158.774 324.046 156.197 325.497C153.62 326.949 149.46 326.949 146.883 325.497C144.306 324.046 144.306 321.687 146.883 320.236C149.46 318.785 153.62 318.785 156.197 320.236Z" fill="url(#paint21_linear_288_267)"/>
<path d="M195.494 325.811C198.071 327.263 198.071 329.621 195.494 331.072C192.916 332.524 188.756 332.524 186.179 331.072C183.602 329.621 183.602 327.263 186.179 325.811C188.756 324.36 192.916 324.36 195.494 325.811Z" fill="url(#paint22_linear_288_267)"/>
<path d="M214.863 333.265C217.44 334.717 217.44 337.075 214.863 338.526C212.286 339.978 208.126 339.978 205.549 338.526C202.972 337.075 202.972 334.717 205.549 333.265C208.126 331.814 212.286 331.814 214.863 333.265Z" fill="url(#paint23_linear_288_267)"/>
<path d="M577.523 263.155C577.355 263.419 577.069 263.584 576.782 263.584C576.631 263.584 576.496 263.551 576.344 263.468L571.089 260.499L519.329 231.225C519.059 231.077 518.891 230.796 518.891 230.499C518.891 230.202 519.059 229.922 519.329 229.774L538.547 218.905L521.299 209.158L518.419 207.541L520.137 206.568L523.017 208.185L540.703 218.179C540.973 218.328 541.141 218.608 541.141 218.905C541.141 219.202 540.973 219.482 540.703 219.631L521.485 230.499L573.026 259.642L577.203 262C577.624 262.231 577.759 262.742 577.523 263.155Z" fill="url(#paint24_linear_288_267)"/>
<path d="M398.711 364.503C398.543 364.767 398.257 364.932 397.97 364.932C397.819 364.932 397.684 364.899 397.532 364.816L392.445 361.946L340.517 332.59C340.247 332.441 340.079 332.161 340.079 331.864C340.079 331.567 340.247 331.287 340.517 331.138L359.735 320.269L342.858 310.72L339.994 309.104L341.712 308.131L344.576 309.747L361.891 319.544C362.161 319.692 362.329 319.973 362.329 320.269C362.329 320.566 362.161 320.847 361.891 320.995L342.673 331.864L394.45 361.138L398.391 363.365C398.812 363.596 398.947 364.107 398.711 364.519V364.503Z" fill="url(#paint25_linear_288_267)"/>
<path d="M486.871 310.077C486.702 310.341 486.416 310.506 486.13 310.506C485.978 310.506 485.826 310.473 485.692 310.39L480.925 307.686L441.629 285.47C441.359 285.322 441.191 285.041 441.191 284.744C441.191 284.447 441.359 284.167 441.629 284.019L456.199 275.789L443.077 268.235L441.359 267.246L430.36 260.912L427.514 259.263L429.232 258.29L432.078 259.923L443.077 266.256L444.795 267.246L458.355 275.047C458.624 275.195 458.776 275.475 458.776 275.772C458.776 276.069 458.607 276.35 458.338 276.498L443.785 284.728L483.249 307.042L486.551 308.906C486.955 309.137 487.107 309.648 486.871 310.061V310.077Z" fill="url(#paint26_linear_288_267)"/>
<path d="M558.237 307.85C558.069 308.114 557.782 308.279 557.496 308.279C557.344 308.279 557.21 308.246 557.058 308.164L551.971 305.294L480.335 264.788C480.066 264.64 479.898 264.359 479.898 264.062C479.898 263.765 480.066 263.485 480.335 263.337L506.645 248.46L479.375 233.04L476.495 231.423L478.213 230.45L481.093 232.066L508.818 247.735C509.088 247.883 509.256 248.163 509.256 248.46C509.256 248.757 509.088 249.037 508.818 249.186L482.508 264.062L553.976 304.469L557.917 306.696C558.338 306.927 558.473 307.438 558.237 307.85Z" fill="url(#paint27_linear_288_267)"/>
<path d="M481.363 328.994C481.211 329.258 480.908 329.422 480.622 329.422C480.47 329.422 480.335 329.39 480.184 329.307L475.805 326.833L425.105 298.169L397.128 313.985C396.858 314.134 396.522 314.134 396.269 313.985L366.574 297.196L363.71 295.58L365.428 294.606L368.292 296.223L396.707 312.287L424.684 296.47C424.954 296.322 425.291 296.322 425.543 296.47L477.539 325.86L481.043 327.839C481.464 328.07 481.599 328.581 481.363 328.994Z" fill="url(#paint28_linear_288_267)"/>
<path d="M557.446 261.687C557.277 261.951 556.991 262.116 556.705 262.116C556.553 262.116 556.418 262.083 556.267 262L551.332 259.213L492.143 225.749L489.263 224.117L490.981 223.144L493.861 224.76L553.184 258.29L557.126 260.516C557.547 260.747 557.682 261.258 557.446 261.671V261.687Z" fill="url(#paint29_linear_288_267)"/>
<path d="M603.193 235.448C603.024 235.711 602.738 235.876 602.452 235.876C602.3 235.876 602.165 235.843 602.014 235.761L596.59 232.693L538.075 199.609L535.195 197.993L536.913 197.02L539.793 198.636L598.241 231.687L602.873 234.31C603.294 234.54 603.429 235.052 603.193 235.464V235.448Z" fill="url(#paint30_linear_288_267)"/>
<path d="M504.287 291.308C504.118 291.572 503.832 291.737 503.546 291.737C503.394 291.737 503.242 291.704 503.108 291.622L497.751 288.603L452.392 262.957L450.657 261.984L439.523 255.684L436.643 254.068L438.361 253.095L441.241 254.711L452.375 261.011L454.11 261.984L499.301 287.531L503.95 290.154C504.354 290.385 504.506 290.896 504.27 291.308H504.287Z" fill="url(#paint31_linear_288_267)"/>
<path d="M418.418 340.324C418.267 340.588 417.964 340.753 417.677 340.753C417.526 340.753 417.391 340.72 417.239 340.638L412.27 337.834L353.537 304.634L350.673 303.018L352.391 302.045L355.255 303.661L414.123 336.927L418.115 339.186C418.536 339.417 418.671 339.945 418.435 340.341L418.418 340.324Z" fill="url(#paint32_linear_288_267)"/>
<path d="M481.767 246.349L454.11 261.984L452.392 262.957L444.795 267.245L443.06 268.218L408.413 287.812L403.225 290.747L402.366 289.28L406.981 286.674L441.359 267.245L443.077 266.256L450.657 261.984L452.392 260.995L478.314 246.349L467.079 239.999L464.216 238.383L465.934 237.394L468.814 239.026L481.767 246.349Z" fill="url(#paint33_linear_288_267)"/>
<path d="M401.878 361.864C404.455 363.315 404.455 365.674 401.878 367.125C399.301 368.576 395.14 368.576 392.563 367.125C389.986 365.674 389.986 363.315 392.563 361.864C395.14 360.413 399.301 360.413 401.878 361.864Z" fill="url(#paint34_linear_288_267)"/>
<path d="M422.09 337.488C424.667 338.939 424.667 341.298 422.09 342.749C419.513 344.2 415.353 344.2 412.776 342.749C410.199 341.298 410.199 338.939 412.776 337.488C415.353 336.037 419.513 336.037 422.09 337.488Z" fill="url(#paint35_linear_288_267)"/>
<path d="M407.065 286.723C409.643 288.175 409.643 290.533 407.065 291.984C404.488 293.436 400.328 293.436 397.751 291.984C395.174 290.533 395.174 288.175 397.751 286.723C400.328 285.272 404.488 285.272 407.065 286.723Z" fill="url(#paint36_linear_288_267)"/>
<path d="M485.877 326.322C488.454 327.773 488.454 330.132 485.877 331.583C483.3 333.034 479.14 333.034 476.563 331.583C473.986 330.132 473.986 327.773 476.563 326.322C479.14 324.871 483.3 324.871 485.877 326.322Z" fill="url(#paint37_linear_288_267)"/>
<path d="M489.515 308.032C492.092 309.483 492.092 311.842 489.515 313.293C486.938 314.744 482.778 314.744 480.201 313.293C477.624 311.842 477.624 309.483 480.201 308.032C482.778 306.581 486.938 306.581 489.515 308.032Z" fill="url(#paint38_linear_288_267)"/>
<path d="M508.178 287.746C510.755 289.197 510.755 291.556 508.178 293.007C505.601 294.458 501.441 294.458 498.864 293.007C496.287 291.556 496.287 289.197 498.864 287.746C501.441 286.294 505.601 286.294 508.178 287.746Z" fill="url(#paint39_linear_288_267)"/>
<path d="M561.454 305.178C564.031 306.63 564.031 308.988 561.454 310.44C558.877 311.891 554.717 311.891 552.14 310.44C549.563 308.988 549.563 306.63 552.14 305.178C554.717 303.727 558.877 303.727 561.454 305.178Z" fill="url(#paint40_linear_288_267)"/>
<path d="M561.151 258.883C563.728 260.335 563.728 262.693 561.151 264.145C558.574 265.596 554.413 265.596 551.836 264.145C549.259 262.693 549.259 260.335 551.836 258.883C554.413 257.432 558.574 257.432 561.151 258.883Z" fill="url(#paint41_linear_288_267)"/>
<path d="M580.706 260.318C583.283 261.769 583.283 264.128 580.706 265.579C578.129 267.031 573.969 267.031 571.392 265.579C568.815 264.128 568.815 261.769 571.392 260.318C573.969 258.867 578.129 258.867 580.706 260.318Z" fill="url(#paint42_linear_288_267)"/>
<path d="M606.831 232.017C609.408 233.469 609.408 235.827 606.831 237.278C604.254 238.73 600.093 238.73 597.516 237.278C594.939 235.827 594.939 233.469 597.516 232.017C600.093 230.566 604.254 230.566 606.831 232.017Z" fill="url(#paint43_linear_288_267)"/>
<path d="M255.204 28.7113C255.204 29.0082 255.053 29.2886 254.783 29.437L241.106 37.4525L239.405 38.4585L222.241 48.5356L220.54 49.5251L204.438 58.9754L249.663 84.5391L252.543 86.1554L250.825 87.1285L247.945 85.5122L202.315 59.7176C202.046 59.5692 201.894 59.2888 201.878 58.9919C201.878 58.6951 202.029 58.4147 202.299 58.2662L218.822 48.5685L220.523 47.5625L237.687 37.4854L239.388 36.4794L252.627 28.7113L227.244 14.3627L222.949 11.9383C222.545 11.7074 222.393 11.1961 222.629 10.7838C222.865 10.3715 223.387 10.2395 223.808 10.4704L228.895 13.3401L254.75 27.9527C255.019 28.1011 255.171 28.3815 255.188 28.6784L255.204 28.7113Z" fill="url(#paint44_linear_288_267)"/>
<path d="M100.596 171.01L56.1797 145.908L75.3983 135.04C75.6678 134.891 75.8362 134.611 75.8362 134.314C75.8362 134.017 75.6678 133.737 75.3983 133.588L49.3075 118.844L44.4566 116.106C44.0355 115.875 43.5133 116.007 43.2775 116.42C43.0417 116.815 43.1765 117.343 43.5976 117.574L47.2863 119.669L73.2423 134.331L54.0237 145.199C53.7543 145.348 53.5858 145.628 53.5858 145.925C53.5858 146.222 53.7543 146.502 54.0237 146.651L98.8783 172L100.596 171.027V171.01Z" fill="url(#paint45_linear_288_267)"/>
<path d="M190.962 121.219L189.244 122.192L186.364 120.576L155.473 103.11C155.203 102.962 155.035 102.682 155.035 102.385C155.035 102.088 155.203 101.791 155.473 101.659L170.042 93.4127L134.384 72.8793L130.999 70.9331C130.578 70.7023 130.443 70.1745 130.696 69.7786C130.932 69.3828 131.471 69.2509 131.875 69.4818L136.187 71.9722L172.182 92.7035C172.451 92.8519 172.619 93.1323 172.603 93.4292C172.603 93.726 172.434 94.0064 172.165 94.1548L157.612 102.385L188.065 119.603L190.945 121.236L190.962 121.219Z" fill="url(#paint46_linear_288_267)"/>
<path d="M229.568 99.2511L227.85 100.224L224.97 98.6079L176.915 71.4444C176.646 71.296 176.477 71.0156 176.477 70.7187C176.477 70.4219 176.646 70.1415 176.915 69.9931L198.121 58.0029L171.171 42.7636L165.478 39.5311C165.057 39.3002 164.922 38.7889 165.158 38.3766C165.394 37.9643 165.916 37.8323 166.337 38.0632L172.839 41.7411L200.277 57.2607C200.547 57.4091 200.715 57.6895 200.715 57.9864C200.715 58.2832 200.547 58.5636 200.277 58.7121L179.071 70.7022L226.688 97.6183L229.568 99.2511Z" fill="url(#paint47_linear_288_267)"/>
<path d="M169.218 133.588L167.5 134.561L164.619 132.945L133.24 115.215L110.804 127.898C110.534 128.046 110.214 128.046 109.945 127.898L79.5927 110.746L75.8534 108.635C75.4323 108.404 75.2976 107.892 75.5334 107.48C75.7692 107.068 76.2913 106.936 76.7124 107.167L81.176 109.69L110.366 126.199L132.802 113.516C133.071 113.368 133.408 113.368 133.661 113.516L166.32 131.972L169.201 133.588H169.218Z" fill="url(#paint48_linear_288_267)"/>
<path d="M270.633 75.8802L268.915 76.8532L266.035 75.2205L220.557 49.5084L218.839 48.5518L204.758 40.5858L201.102 38.5242C200.681 38.2933 200.547 37.7821 200.782 37.3697C201.018 36.9574 201.54 36.8255 201.962 37.0564L206.678 39.7282L220.54 47.5622L222.258 48.5353L267.77 74.2639L270.65 75.8967L270.633 75.8802Z" fill="url(#paint49_linear_288_267)"/>
<path d="M289.801 64.9623L288.083 65.9353L285.203 64.319L239.405 38.4585L237.687 37.4854L184.714 7.56768L181.968 6.01739C181.547 5.78649 181.412 5.2752 181.648 4.86288C181.884 4.45056 182.406 4.31864 182.827 4.54954L186.853 6.82552L239.371 36.4959L241.089 37.4689L286.904 63.346L289.784 64.9623H289.801Z" fill="url(#paint50_linear_288_267)"/>
<path d="M220.22 104.561L218.502 105.534L215.622 103.918L154.918 69.5969L150.858 67.2879C150.437 67.057 150.303 66.5292 150.538 66.1334C150.774 65.7211 151.296 65.5891 151.717 65.82L156.804 68.6898L217.34 102.912L220.22 104.528V104.561Z" fill="url(#paint51_linear_288_267)"/>
<path d="M134.907 153.116L133.189 154.089L130.309 152.472L103.207 137.151L96.7055 133.473C96.3013 133.242 96.1497 132.731 96.4023 132.318C96.6381 131.922 97.1603 131.774 97.5814 132.005L105.026 136.211L132.043 151.483L134.924 153.099L134.907 153.116Z" fill="url(#paint52_linear_288_267)"/>
<path d="M49.1731 113.632C51.7502 115.084 51.7502 117.442 49.1731 118.894C46.596 120.345 42.4357 120.345 39.8586 118.894C37.2815 117.442 37.2815 115.084 39.8586 113.632C42.4357 112.181 46.596 112.181 49.1731 113.632Z" fill="url(#paint53_linear_288_267)"/>
<path d="M104.403 131.345C106.98 132.797 106.98 135.155 104.403 136.607C101.826 138.058 97.6659 138.058 95.0888 136.607C92.5117 135.155 92.5117 132.797 95.0888 131.345C97.6659 129.894 101.826 129.894 104.403 131.345Z" fill="url(#paint54_linear_288_267)"/>
<path d="M80.1148 105.205C82.6919 106.656 82.6919 109.015 80.1148 110.466C77.5377 111.917 73.3774 111.917 70.8003 110.466C68.2232 109.015 68.2232 106.656 70.8003 105.205C73.3774 103.753 77.5377 103.753 80.1148 105.205Z" fill="url(#paint55_linear_288_267)"/>
<path d="M135.598 67.0573C138.175 68.5086 138.175 70.8671 135.598 72.3184C133.021 73.7698 128.861 73.7698 126.284 72.3184C123.706 70.8671 123.706 68.5086 126.284 67.0573C128.861 65.6059 133.021 65.6059 135.598 67.0573Z" fill="url(#paint56_linear_288_267)"/>
<path d="M90.3225 92.7028C92.8995 94.1541 92.8995 96.5126 90.3225 97.9639C87.7454 99.4153 83.585 99.4153 81.0079 97.9639C78.4309 96.5126 78.4309 94.1541 81.0079 92.7028C83.585 91.2514 87.7454 91.2514 90.3225 92.7028Z" fill="url(#paint57_linear_288_267)"/>
<path d="M180.587 127.123L178.869 128.097L175.989 126.48L104.117 85.8423L91.08 93.2145L86.1617 95.9853C85.7574 96.2162 85.2184 96.0843 84.9826 95.672C84.7468 95.2761 84.8984 94.7483 85.3027 94.5174L89.3451 92.2415L103.679 84.1436C103.949 83.9951 104.269 83.9951 104.538 84.1436L177.707 125.507L180.587 127.123Z" fill="url(#paint58_linear_288_267)"/>
<path d="M300.682 58.7779L298.964 59.751L296.083 58.1347L264.855 40.4711C264.586 40.3226 264.417 40.0422 264.417 39.7454C264.417 39.4485 264.586 39.1681 264.855 39.0197L279.425 30.7733L243.767 10.2399L240.381 8.29379C239.977 8.0629 239.842 7.53513 240.078 7.13931C240.314 6.72699 240.853 6.59506 241.257 6.84245L245.569 9.31636L281.564 30.0641C281.834 30.2126 281.985 30.493 281.985 30.7898C281.985 31.0867 281.817 31.3671 281.547 31.5155L266.994 39.7454L297.801 57.1617L300.682 58.7779Z" fill="url(#paint59_linear_288_267)"/>
<path d="M244.963 4.43422C247.54 5.88558 247.54 8.24404 244.963 9.69539C242.386 11.1467 238.226 11.1467 235.649 9.69539C233.072 8.24404 233.072 5.88558 235.649 4.43422C238.226 2.98286 242.386 2.98286 244.963 4.43422Z" fill="url(#paint60_linear_288_267)"/>
<path d="M156.4 63.7086C158.977 65.16 158.977 67.5185 156.4 68.9698C153.823 70.4212 149.662 70.4212 147.085 68.9698C144.508 67.5185 144.508 65.16 147.085 63.7086C149.662 62.2573 153.823 62.2573 156.4 63.7086Z" fill="url(#paint61_linear_288_267)"/>
<path d="M171.929 37.1061C174.506 38.5575 174.506 40.9159 171.929 42.3673C169.352 43.8186 165.192 43.8186 162.615 42.3673C160.038 40.9159 160.038 38.5575 162.615 37.1061C165.192 35.6547 169.352 35.6547 171.929 37.1061Z" fill="url(#paint62_linear_288_267)"/>
<path d="M187.089 1.46547C189.666 2.91683 189.666 5.27529 187.089 6.72664C184.512 8.178 180.351 8.178 177.774 6.72664C175.197 5.27529 175.197 2.91683 177.774 1.46547C180.351 0.0141139 184.512 0.0141139 187.089 1.46547Z" fill="url(#paint63_linear_288_267)"/>
<path d="M227.968 8.77211C230.545 10.2235 230.545 12.5819 227.968 14.0333C225.391 15.4846 221.231 15.4846 218.654 14.0333C216.077 12.5819 216.077 10.2235 218.654 8.77211C221.231 7.32075 225.391 7.32075 227.968 8.77211Z" fill="url(#paint64_linear_288_267)"/>
<path d="M206.341 34.6657C208.918 36.117 208.918 38.4755 206.341 39.9268C203.764 41.3782 199.603 41.3782 197.026 39.9268C194.449 38.4755 194.449 36.117 197.026 34.6657C199.603 33.2143 203.764 33.2143 206.341 34.6657Z" fill="url(#paint65_linear_288_267)"/>
<path d="M545.975 125.688C545.975 125.985 545.807 126.266 545.537 126.414L502.619 150.675L499.739 152.291L498.004 151.318L500.885 149.685L543.398 125.655L504.388 102.763L502.704 101.757L493.086 96.1169C492.817 95.9685 492.665 95.6881 492.665 95.3912C492.665 95.0944 492.833 94.814 493.103 94.6656L518.958 80.0531L524.045 77.1833C524.449 76.9524 524.988 77.0844 525.224 77.4967C525.459 77.909 525.325 78.4203 524.92 78.6512L520.625 81.0756L495.242 95.4242L504.422 100.817L506.123 101.807L545.571 124.946C545.823 125.111 545.992 125.375 545.992 125.672L545.975 125.688Z" fill="url(#paint66_linear_288_267)"/>
<path d="M504.844 72.3842L501.458 74.3303L465.8 94.8637L480.37 103.094C480.639 103.242 480.808 103.522 480.808 103.819C480.808 104.116 480.639 104.397 480.37 104.545L450.708 121.318L447.828 122.934L446.11 121.961L448.99 120.345L478.214 103.819L463.661 95.5894C463.392 95.441 463.223 95.1606 463.223 94.8637C463.223 94.5669 463.392 94.2865 463.644 94.1381L499.639 73.3903L503.951 70.9163C504.372 70.6854 504.894 70.8174 505.13 71.2132C505.366 71.6091 505.231 72.1368 504.827 72.3677L504.844 72.3842Z" fill="url(#paint67_linear_288_267)"/>
<path d="M468.023 35.7372L462.482 38.8708L434.656 54.6049L456.351 66.8589C456.62 67.0074 456.789 67.2877 456.789 67.5846C456.789 67.8815 456.62 68.1618 456.351 68.3103L406.662 96.3973L403.782 98.0301L402.047 97.0571L404.927 95.4408L454.195 67.5846L432.5 55.3305C432.23 55.1821 432.062 54.9017 432.062 54.6049C432.062 54.308 432.23 54.0276 432.5 53.8792L460.983 37.7823L467.181 34.2859C467.602 34.055 468.124 34.1869 468.36 34.5992C468.596 35.0115 468.461 35.5228 468.04 35.7537L468.023 35.7372Z" fill="url(#paint68_linear_288_267)"/>
<path d="M592.362 142.396L588.657 144.49L563.61 158.641C563.341 158.789 563.021 158.789 562.751 158.641L543.903 147.987L520.878 160.999L517.998 162.632L516.263 161.659L519.143 160.043L543.465 146.304C543.735 146.156 544.072 146.156 544.324 146.304L563.172 156.959L586.753 143.632L591.487 140.961C591.908 140.73 592.43 140.862 592.666 141.274C592.901 141.686 592.767 142.198 592.346 142.429L592.362 142.396Z" fill="url(#paint69_linear_288_267)"/>
<path d="M433.022 40.2723L429.367 42.3339L370.195 75.7975L367.315 77.4138L365.58 76.4408L368.46 74.8245L427.463 41.4763L432.18 38.8044C432.601 38.5735 433.123 38.7055 433.359 39.1178C433.595 39.5301 433.46 40.0414 433.039 40.2723H433.022Z" fill="url(#paint70_linear_288_267)"/>
<path d="M453.874 7.50176L451.129 9.05208L351.549 65.2757L348.669 66.8919L346.934 65.9189L349.814 64.3026L448.973 8.30991L452.998 6.03391C453.419 5.80301 453.942 5.93496 454.177 6.34728C454.413 6.75959 454.278 7.27086 453.857 7.50176H453.874Z" fill="url(#paint71_linear_288_267)"/>
<path d="M485.002 68.7723L480.925 71.0647L421.366 104.743L418.486 106.359L416.751 105.386L419.631 103.77L479.039 70.1906L484.143 67.3044C484.564 67.0735 485.086 67.2055 485.322 67.6178C485.557 68.0301 485.423 68.5414 485.002 68.7723Z" fill="url(#paint72_linear_288_267)"/>
<path d="M420.457 68.0136L413.955 71.6915L388.403 86.139L385.523 87.7553L383.788 86.7823L386.669 85.166L412.136 70.7679L419.564 66.5622C419.985 66.3313 420.507 66.4633 420.743 66.8756C420.979 67.2879 420.844 67.7992 420.423 68.0301L420.457 68.0136Z" fill="url(#paint73_linear_288_267)"/>
<path d="M412.759 65.8698C410.182 67.3211 410.182 69.6796 412.759 71.1309C415.336 72.5823 419.496 72.5823 422.073 71.1309C424.651 69.6796 424.651 67.3211 422.073 65.8698C419.496 64.4184 415.336 64.4184 412.759 65.8698Z" fill="url(#paint74_linear_288_267)"/>
<path d="M587.159 138.569C584.581 140.02 584.581 142.379 587.159 143.83C589.736 145.282 593.896 145.282 596.473 143.83C599.05 142.379 599.05 140.02 596.473 138.569C593.896 137.118 589.736 137.118 587.159 138.569Z" fill="url(#paint75_linear_288_267)"/>
<path d="M500.262 68.525C497.685 69.9764 497.685 72.3349 500.262 73.7862C502.839 75.2376 506.999 75.2376 509.576 73.7862C512.153 72.3349 512.153 69.9764 509.576 68.525C506.999 67.0737 502.839 67.0737 500.262 68.525Z" fill="url(#paint76_linear_288_267)"/>
<path d="M545.538 94.1705C542.96 95.6219 542.96 97.9804 545.538 99.4317C548.115 100.883 552.275 100.883 554.852 99.4317C557.429 97.9804 557.429 95.6219 554.852 94.1705C552.275 92.7192 548.115 92.7192 545.538 94.1705Z" fill="url(#paint77_linear_288_267)"/>
<path d="M550.877 97.1397C550.641 97.552 550.119 97.684 549.698 97.4531L544.797 94.6823L531.76 87.3101L506.124 101.807L504.406 102.78L461.168 127.222L458.288 128.839L456.57 127.866L459.45 126.249L502.721 101.774L504.439 100.818L531.355 85.6113C531.625 85.4629 531.962 85.4629 532.215 85.6113L546.548 93.7257L550.591 96.0017C550.995 96.2326 551.147 96.7439 550.911 97.1562L550.877 97.1397Z" fill="url(#paint78_linear_288_267)"/>
<path d="M395.495 9.76104L392.126 11.7072L356.468 32.2406L371.038 40.4704C371.307 40.6189 371.476 40.8992 371.476 41.1961C371.476 41.493 371.307 41.7734 371.038 41.9218L340.669 59.0907L337.788 60.707L326.958 66.8258C326.823 66.9082 326.672 66.9412 326.537 66.9412C326.234 66.9412 325.947 66.7928 325.796 66.5124C325.56 66.1001 325.695 65.5888 326.099 65.3579L336.053 59.7174L338.934 58.1011L368.865 41.1796L354.312 32.9498C354.042 32.8013 353.891 32.521 353.874 32.2241C353.874 31.9272 354.042 31.6469 354.295 31.4984L390.29 10.7506L394.602 8.27671C395.006 8.04581 395.545 8.17774 395.781 8.57356C396.017 8.98588 395.882 9.49717 395.478 9.72807L395.495 9.76104Z" fill="url(#paint79_linear_288_267)"/>
<path d="M390.896 5.90199C388.319 7.35335 388.319 9.71181 390.896 11.1632C393.474 12.6145 397.634 12.6145 400.211 11.1632C402.788 9.71181 402.788 7.35335 400.211 5.90199C397.634 4.45064 393.474 4.45064 390.896 5.90199Z" fill="url(#paint80_linear_288_267)"/>
<path d="M479.476 65.1764C476.899 66.6278 476.899 68.9862 479.476 70.4376C482.054 71.8889 486.214 71.8889 488.791 70.4376C491.368 68.9862 491.368 66.6278 488.791 65.1764C486.214 63.7251 482.054 63.7251 479.476 65.1764Z" fill="url(#paint81_linear_288_267)"/>
<path d="M462.178 33.445C459.601 34.8963 459.601 37.2548 462.178 38.7061C464.755 40.1575 468.915 40.1575 471.493 38.7061C474.07 37.2548 474.07 34.8963 471.493 33.445C468.915 31.9936 464.755 31.9936 462.178 33.445Z" fill="url(#paint82_linear_288_267)"/>
<path d="M448.771 2.93324C446.194 4.3846 446.194 6.74306 448.771 8.19442C451.348 9.64577 455.509 9.64577 458.086 8.19442C460.663 6.74306 460.663 4.3846 458.086 2.93324C455.509 1.48189 451.348 1.48189 448.771 2.93324Z" fill="url(#paint83_linear_288_267)"/>
<path d="M519.885 75.4684C517.308 76.9198 517.308 79.2782 519.885 80.7295C522.462 82.1809 526.622 82.1809 529.199 80.7295C531.776 79.2782 531.776 76.9198 529.199 75.4684C526.622 74.017 522.462 74.017 519.885 75.4684Z" fill="url(#paint84_linear_288_267)"/>
<path d="M427.767 36.4137C425.19 37.8651 425.19 40.2235 427.767 41.6749C430.344 43.1262 434.504 43.1262 437.081 41.6749C439.658 40.2235 439.658 37.8651 437.081 36.4137C434.504 34.9624 430.344 34.9624 427.767 36.4137Z" fill="url(#paint85_linear_288_267)"/>
<defs>
<linearGradient id="paint0_linear_288_267" x1="393.187" y1="159.021" x2="393.187" y2="260.088" gradientUnits="userSpaceOnUse">
<stop offset="0.208333" stop-color="#FF2D2B"/>
<stop offset="1" stop-color="#0B00CF"/>
</linearGradient>
<linearGradient id="paint1_linear_288_267" x1="243.717" y1="159.021" x2="243.717" y2="260.088" gradientUnits="userSpaceOnUse">
<stop offset="0.208333" stop-color="#FF2D2B"/>
<stop offset="1" stop-color="#0B00CF"/>
</linearGradient>
<linearGradient id="paint2_linear_288_267" x1="318.233" y1="74.248" x2="318.233" y2="243.793" gradientUnits="userSpaceOnUse">
<stop offset="0.208333" stop-color="#FF2D2B"/>
<stop offset="1" stop-color="#0B00CF"/>
</linearGradient>
<linearGradient id="paint3_linear_288_267" x1="318.224" y1="118.992" x2="318.224" y2="197.085" gradientUnits="userSpaceOnUse">
<stop offset="0.208333" stop-color="#FF2D2B"/>
<stop offset="1" stop-color="#0B00CF"/>
</linearGradient>
<linearGradient id="paint4_linear_288_267" x1="318.224" y1="118.992" x2="318.224" y2="197.085" gradientUnits="userSpaceOnUse">
<stop offset="0.208333" stop-color="#FF2D2B"/>
<stop offset="1" stop-color="#0B00CF"/>
</linearGradient>
<linearGradient id="paint5_linear_288_267" x1="318.233" y1="45.7646" x2="318.233" y2="324.491" gradientUnits="userSpaceOnUse">
<stop offset="0.208333" stop-color="#FF2D2B"/>
<stop offset="1" stop-color="#0B00CF"/>
</linearGradient>
<linearGradient id="paint6_linear_288_267" x1="58.0513" y1="202.812" x2="58.0513" y2="242.242" gradientUnits="userSpaceOnUse">
<stop offset="0.208333" stop-color="#FF2D2B"/>
<stop offset="1" stop-color="#0B00CF"/>
</linearGradient>
<linearGradient id="paint7_linear_288_267" x1="204.388" y1="284.963" x2="204.388" y2="324.393" gradientUnits="userSpaceOnUse">
<stop offset="0.208333" stop-color="#FF2D2B"/>
<stop offset="1" stop-color="#0B00CF"/>
</linearGradient>
<linearGradient id="paint8_linear_288_267" x1="147.928" y1="252.637" x2="147.928" y2="292.067" gradientUnits="userSpaceOnUse">
<stop offset="0.208333" stop-color="#FF2D2B"/>
<stop offset="1" stop-color="#0B00CF"/>
</linearGradient>
<linearGradient id="paint9_linear_288_267" x1="120.911" y1="227.696" x2="120.911" y2="267.493" gradientUnits="userSpaceOnUse">
<stop offset="0.208333" stop-color="#FF2D2B"/>
<stop offset="1" stop-color="#0B00CF"/>
</linearGradient>
<linearGradient id="paint10_linear_288_267" x1="244.122" y1="297.13" x2="244.122" y2="336.481" gradientUnits="userSpaceOnUse">
<stop offset="0.208333" stop-color="#FF2D2B"/>
<stop offset="1" stop-color="#0B00CF"/>
</linearGradient>
<linearGradient id="paint11_linear_288_267" x1="185.54" y1="264.26" x2="185.54" y2="304.057" gradientUnits="userSpaceOnUse">
<stop offset="0.208333" stop-color="#FF2D2B"/>
<stop offset="1" stop-color="#0B00CF"/>
</linearGradient>
<linearGradient id="paint12_linear_288_267" x1="169.748" y1="233.848" x2="169.748" y2="330.379" gradientUnits="userSpaceOnUse">
<stop offset="0.208333" stop-color="#FF2D2B"/>
<stop offset="1" stop-color="#0B00CF"/>
</linearGradient>
<linearGradient id="paint13_linear_288_267" x1="6.90403" y1="237.344" x2="6.90403" y2="244.782" gradientUnits="userSpaceOnUse">
<stop offset="0.208333" stop-color="#FF2D2B"/>
<stop offset="1" stop-color="#0B00CF"/>
</linearGradient>
<linearGradient id="paint14_linear_288_267" x1="96.2434" y1="211.187" x2="96.2434" y2="268.977" gradientUnits="userSpaceOnUse">
<stop offset="0.208333" stop-color="#FF2D2B"/>
<stop offset="1" stop-color="#0B00CF"/>
</linearGradient>
<linearGradient id="paint15_linear_288_267" x1="66.4967" y1="264.441" x2="66.4967" y2="271.88" gradientUnits="userSpaceOnUse">
<stop offset="0.208333" stop-color="#FF2D2B"/>
<stop offset="1" stop-color="#0B00CF"/>
</linearGradient>
<linearGradient id="paint16_linear_288_267" x1="260.858" y1="303.991" x2="260.858" y2="361.188" gradientUnits="userSpaceOnUse">
<stop offset="0.208333" stop-color="#FF2D2B"/>
<stop offset="1" stop-color="#0B00CF"/>
</linearGradient>
<linearGradient id="paint17_linear_288_267" x1="232.945" y1="355.844" x2="232.945" y2="363.282" gradientUnits="userSpaceOnUse">
<stop offset="0.208333" stop-color="#FF2D2B"/>
<stop offset="1" stop-color="#0B00CF"/>
</linearGradient>
<linearGradient id="paint18_linear_288_267" x1="86.2714" y1="262.99" x2="86.2714" y2="270.428" gradientUnits="userSpaceOnUse">
<stop offset="0.208333" stop-color="#FF2D2B"/>
<stop offset="1" stop-color="#0B00CF"/>
</linearGradient>
<linearGradient id="paint19_linear_288_267" x1="96.1583" y1="286.229" x2="96.1583" y2="293.667" gradientUnits="userSpaceOnUse">
<stop offset="0.208333" stop-color="#FF2D2B"/>
<stop offset="1" stop-color="#0B00CF"/>
</linearGradient>
<linearGradient id="paint20_linear_288_267" x1="151.288" y1="299.555" x2="151.288" y2="306.993" gradientUnits="userSpaceOnUse">
<stop offset="0.208333" stop-color="#FF2D2B"/>
<stop offset="1" stop-color="#0B00CF"/>
</linearGradient>
<linearGradient id="paint21_linear_288_267" x1="151.54" y1="319.147" x2="151.54" y2="326.586" gradientUnits="userSpaceOnUse">
<stop offset="0.208333" stop-color="#FF2D2B"/>
<stop offset="1" stop-color="#0B00CF"/>
</linearGradient>
<linearGradient id="paint22_linear_288_267" x1="190.836" y1="324.723" x2="190.836" y2="332.161" gradientUnits="userSpaceOnUse">
<stop offset="0.208333" stop-color="#FF2D2B"/>
<stop offset="1" stop-color="#0B00CF"/>
</linearGradient>
<linearGradient id="paint23_linear_288_267" x1="210.206" y1="332.177" x2="210.206" y2="339.615" gradientUnits="userSpaceOnUse">
<stop offset="0.208333" stop-color="#FF2D2B"/>
<stop offset="1" stop-color="#0B00CF"/>
</linearGradient>
<linearGradient id="paint24_linear_288_267" x1="548.029" y1="206.568" x2="548.029" y2="263.584" gradientUnits="userSpaceOnUse">
<stop offset="0.208333" stop-color="#FF2D2B"/>
<stop offset="1" stop-color="#0B00CF"/>
</linearGradient>
<linearGradient id="paint25_linear_288_267" x1="369.411" y1="308.131" x2="369.411" y2="364.932" gradientUnits="userSpaceOnUse">
<stop offset="0.208333" stop-color="#FF2D2B"/>
<stop offset="1" stop-color="#0B00CF"/>
</linearGradient>
<linearGradient id="paint26_linear_288_267" x1="457.248" y1="258.29" x2="457.248" y2="310.506" gradientUnits="userSpaceOnUse">
<stop offset="0.208333" stop-color="#FF2D2B"/>
<stop offset="1" stop-color="#0B00CF"/>
</linearGradient>
<linearGradient id="paint27_linear_288_267" x1="517.424" y1="230.45" x2="517.424" y2="308.279" gradientUnits="userSpaceOnUse">
<stop offset="0.208333" stop-color="#FF2D2B"/>
<stop offset="1" stop-color="#0B00CF"/>
</linearGradient>
<linearGradient id="paint28_linear_288_267" x1="422.594" y1="294.606" x2="422.594" y2="329.422" gradientUnits="userSpaceOnUse">
<stop offset="0.208333" stop-color="#FF2D2B"/>
<stop offset="1" stop-color="#0B00CF"/>
</linearGradient>
<linearGradient id="paint29_linear_288_267" x1="523.412" y1="223.144" x2="523.412" y2="262.116" gradientUnits="userSpaceOnUse">
<stop offset="0.208333" stop-color="#FF2D2B"/>
<stop offset="1" stop-color="#0B00CF"/>
</linearGradient>
<linearGradient id="paint30_linear_288_267" x1="569.252" y1="197.02" x2="569.252" y2="235.876" gradientUnits="userSpaceOnUse">
<stop offset="0.208333" stop-color="#FF2D2B"/>
<stop offset="1" stop-color="#0B00CF"/>
</linearGradient>
<linearGradient id="paint31_linear_288_267" x1="470.512" y1="253.095" x2="470.512" y2="291.737" gradientUnits="userSpaceOnUse">
<stop offset="0.208333" stop-color="#FF2D2B"/>
<stop offset="1" stop-color="#0B00CF"/>
</linearGradient>
<linearGradient id="paint32_linear_288_267" x1="384.612" y1="302.045" x2="384.612" y2="340.753" gradientUnits="userSpaceOnUse">
<stop offset="0.208333" stop-color="#FF2D2B"/>
<stop offset="1" stop-color="#0B00CF"/>
</linearGradient>
<linearGradient id="paint33_linear_288_267" x1="442.066" y1="237.394" x2="442.066" y2="290.747" gradientUnits="userSpaceOnUse">
<stop offset="0.208333" stop-color="#FF2D2B"/>
<stop offset="1" stop-color="#0B00CF"/>
</linearGradient>
<linearGradient id="paint34_linear_288_267" x1="397.221" y1="360.775" x2="397.221" y2="368.214" gradientUnits="userSpaceOnUse">
<stop offset="0.208333" stop-color="#FF2D2B"/>
<stop offset="1" stop-color="#0B00CF"/>
</linearGradient>
<linearGradient id="paint35_linear_288_267" x1="417.433" y1="336.399" x2="417.433" y2="343.838" gradientUnits="userSpaceOnUse">
<stop offset="0.208333" stop-color="#FF2D2B"/>
<stop offset="1" stop-color="#0B00CF"/>
</linearGradient>
<linearGradient id="paint36_linear_288_267" x1="402.408" y1="285.635" x2="402.408" y2="293.073" gradientUnits="userSpaceOnUse">
<stop offset="0.208333" stop-color="#FF2D2B"/>
<stop offset="1" stop-color="#0B00CF"/>
</linearGradient>
<linearGradient id="paint37_linear_288_267" x1="481.22" y1="325.233" x2="481.22" y2="332.672" gradientUnits="userSpaceOnUse">
<stop offset="0.208333" stop-color="#FF2D2B"/>
<stop offset="1" stop-color="#0B00CF"/>
</linearGradient>
<linearGradient id="paint38_linear_288_267" x1="484.858" y1="306.943" x2="484.858" y2="314.382" gradientUnits="userSpaceOnUse">
<stop offset="0.208333" stop-color="#FF2D2B"/>
<stop offset="1" stop-color="#0B00CF"/>
</linearGradient>
<linearGradient id="paint39_linear_288_267" x1="503.521" y1="286.657" x2="503.521" y2="294.095" gradientUnits="userSpaceOnUse">
<stop offset="0.208333" stop-color="#FF2D2B"/>
<stop offset="1" stop-color="#0B00CF"/>
</linearGradient>
<linearGradient id="paint40_linear_288_267" x1="556.797" y1="304.09" x2="556.797" y2="311.528" gradientUnits="userSpaceOnUse">
<stop offset="0.208333" stop-color="#FF2D2B"/>
<stop offset="1" stop-color="#0B00CF"/>
</linearGradient>
<linearGradient id="paint41_linear_288_267" x1="556.493" y1="257.795" x2="556.493" y2="265.233" gradientUnits="userSpaceOnUse">
<stop offset="0.208333" stop-color="#FF2D2B"/>
<stop offset="1" stop-color="#0B00CF"/>
</linearGradient>
<linearGradient id="paint42_linear_288_267" x1="576.049" y1="259.229" x2="576.049" y2="266.668" gradientUnits="userSpaceOnUse">
<stop offset="0.208333" stop-color="#FF2D2B"/>
<stop offset="1" stop-color="#0B00CF"/>
</linearGradient>
<linearGradient id="paint43_linear_288_267" x1="602.174" y1="230.929" x2="602.174" y2="238.367" gradientUnits="userSpaceOnUse">
<stop offset="0.208333" stop-color="#FF2D2B"/>
<stop offset="1" stop-color="#0B00CF"/>
</linearGradient>
<linearGradient id="paint44_linear_288_267" x1="228.541" y1="10.3574" x2="228.541" y2="87.1285" gradientUnits="userSpaceOnUse">
<stop offset="0.208333" stop-color="#FF2D2B"/>
<stop offset="1" stop-color="#0B00CF"/>
</linearGradient>
<linearGradient id="paint45_linear_288_267" x1="71.8792" y1="115.993" x2="71.8792" y2="172" gradientUnits="userSpaceOnUse">
<stop offset="0.208333" stop-color="#FF2D2B"/>
<stop offset="1" stop-color="#0B00CF"/>
</linearGradient>
<linearGradient id="paint46_linear_288_267" x1="160.765" y1="69.3682" x2="160.765" y2="122.192" gradientUnits="userSpaceOnUse">
<stop offset="0.208333" stop-color="#FF2D2B"/>
<stop offset="1" stop-color="#0B00CF"/>
</linearGradient>
<linearGradient id="paint47_linear_288_267" x1="197.305" y1="37.9502" x2="197.305" y2="100.224" gradientUnits="userSpaceOnUse">
<stop offset="0.208333" stop-color="#FF2D2B"/>
<stop offset="1" stop-color="#0B00CF"/>
</linearGradient>
<linearGradient id="paint48_linear_288_267" x1="122.318" y1="107.054" x2="122.318" y2="134.561" gradientUnits="userSpaceOnUse">
<stop offset="0.208333" stop-color="#FF2D2B"/>
<stop offset="1" stop-color="#0B00CF"/>
</linearGradient>
<linearGradient id="paint49_linear_288_267" x1="235.658" y1="36.9434" x2="235.658" y2="76.8532" gradientUnits="userSpaceOnUse">
<stop offset="0.208333" stop-color="#FF2D2B"/>
<stop offset="1" stop-color="#0B00CF"/>
</linearGradient>
<linearGradient id="paint50_linear_288_267" x1="235.667" y1="4.43652" x2="235.667" y2="65.9353" gradientUnits="userSpaceOnUse">
<stop offset="0.208333" stop-color="#FF2D2B"/>
<stop offset="1" stop-color="#0B00CF"/>
</linearGradient>
<linearGradient id="paint51_linear_288_267" x1="185.322" y1="65.707" x2="185.322" y2="105.534" gradientUnits="userSpaceOnUse">
<stop offset="0.208333" stop-color="#FF2D2B"/>
<stop offset="1" stop-color="#0B00CF"/>
</linearGradient>
<linearGradient id="paint52_linear_288_267" x1="115.601" y1="131.896" x2="115.601" y2="154.089" gradientUnits="userSpaceOnUse">
<stop offset="0.208333" stop-color="#FF2D2B"/>
<stop offset="1" stop-color="#0B00CF"/>
</linearGradient>
<linearGradient id="paint53_linear_288_267" x1="44.5158" y1="112.544" x2="44.5158" y2="119.982" gradientUnits="userSpaceOnUse">
<stop offset="0.208333" stop-color="#FF2D2B"/>
<stop offset="1" stop-color="#0B00CF"/>
</linearGradient>
<linearGradient id="paint54_linear_288_267" x1="99.7461" y1="130.257" x2="99.7461" y2="137.695" gradientUnits="userSpaceOnUse">
<stop offset="0.208333" stop-color="#FF2D2B"/>
<stop offset="1" stop-color="#0B00CF"/>
</linearGradient>
<linearGradient id="paint55_linear_288_267" x1="75.4576" y1="104.116" x2="75.4576" y2="111.554" gradientUnits="userSpaceOnUse">
<stop offset="0.208333" stop-color="#FF2D2B"/>
<stop offset="1" stop-color="#0B00CF"/>
</linearGradient>
<linearGradient id="paint56_linear_288_267" x1="130.941" y1="65.9688" x2="130.941" y2="73.407" gradientUnits="userSpaceOnUse">
<stop offset="0.208333" stop-color="#FF2D2B"/>
<stop offset="1" stop-color="#0B00CF"/>
</linearGradient>
<linearGradient id="paint57_linear_288_267" x1="85.6652" y1="91.6143" x2="85.6652" y2="99.0525" gradientUnits="userSpaceOnUse">
<stop offset="0.208333" stop-color="#FF2D2B"/>
<stop offset="1" stop-color="#0B00CF"/>
</linearGradient>
<linearGradient id="paint58_linear_288_267" x1="132.729" y1="84.0322" x2="132.729" y2="128.097" gradientUnits="userSpaceOnUse">
<stop offset="0.208333" stop-color="#FF2D2B"/>
<stop offset="1" stop-color="#0B00CF"/>
</linearGradient>
<linearGradient id="paint59_linear_288_267" x1="270.322" y1="6.71777" x2="270.322" y2="59.751" gradientUnits="userSpaceOnUse">
<stop offset="0.208333" stop-color="#FF2D2B"/>
<stop offset="1" stop-color="#0B00CF"/>
</linearGradient>
<linearGradient id="paint60_linear_288_267" x1="240.306" y1="3.3457" x2="240.306" y2="10.7839" gradientUnits="userSpaceOnUse">
<stop offset="0.208333" stop-color="#FF2D2B"/>
<stop offset="1" stop-color="#0B00CF"/>
</linearGradient>
<linearGradient id="paint61_linear_288_267" x1="151.743" y1="62.6201" x2="151.743" y2="70.0583" gradientUnits="userSpaceOnUse">
<stop offset="0.208333" stop-color="#FF2D2B"/>
<stop offset="1" stop-color="#0B00CF"/>
</linearGradient>
<linearGradient id="paint62_linear_288_267" x1="167.272" y1="36.0176" x2="167.272" y2="43.4558" gradientUnits="userSpaceOnUse">
<stop offset="0.208333" stop-color="#FF2D2B"/>
<stop offset="1" stop-color="#0B00CF"/>
</linearGradient>
<linearGradient id="paint63_linear_288_267" x1="182.431" y1="0.376953" x2="182.431" y2="7.81516" gradientUnits="userSpaceOnUse">
<stop offset="0.208333" stop-color="#FF2D2B"/>
<stop offset="1" stop-color="#0B00CF"/>
</linearGradient>
<linearGradient id="paint64_linear_288_267" x1="223.311" y1="7.68359" x2="223.311" y2="15.1218" gradientUnits="userSpaceOnUse">
<stop offset="0.208333" stop-color="#FF2D2B"/>
<stop offset="1" stop-color="#0B00CF"/>
</linearGradient>
<linearGradient id="paint65_linear_288_267" x1="201.683" y1="33.5771" x2="201.683" y2="41.0154" gradientUnits="userSpaceOnUse">
<stop offset="0.208333" stop-color="#FF2D2B"/>
<stop offset="1" stop-color="#0B00CF"/>
</linearGradient>
<linearGradient id="paint66_linear_288_267" x1="519.328" y1="77.0703" x2="519.328" y2="152.291" gradientUnits="userSpaceOnUse">
<stop offset="0.208333" stop-color="#FF2D2B"/>
<stop offset="1" stop-color="#0B00CF"/>
</linearGradient>
<linearGradient id="paint67_linear_288_267" x1="475.678" y1="70.8027" x2="475.678" y2="122.934" gradientUnits="userSpaceOnUse">
<stop offset="0.208333" stop-color="#FF2D2B"/>
<stop offset="1" stop-color="#0B00CF"/>
</linearGradient>
<linearGradient id="paint68_linear_288_267" x1="435.261" y1="34.1729" x2="435.261" y2="98.0301" gradientUnits="userSpaceOnUse">
<stop offset="0.208333" stop-color="#FF2D2B"/>
<stop offset="1" stop-color="#0B00CF"/>
</linearGradient>
<linearGradient id="paint69_linear_288_267" x1="554.522" y1="140.848" x2="554.522" y2="162.632" gradientUnits="userSpaceOnUse">
<stop offset="0.208333" stop-color="#FF2D2B"/>
<stop offset="1" stop-color="#0B00CF"/>
</linearGradient>
<linearGradient id="paint70_linear_288_267" x1="399.527" y1="38.6914" x2="399.527" y2="77.4138" gradientUnits="userSpaceOnUse">
<stop offset="0.208333" stop-color="#FF2D2B"/>
<stop offset="1" stop-color="#0B00CF"/>
</linearGradient>
<linearGradient id="paint71_linear_288_267" x1="400.613" y1="5.9209" x2="400.613" y2="66.8919" gradientUnits="userSpaceOnUse">
<stop offset="0.208333" stop-color="#FF2D2B"/>
<stop offset="1" stop-color="#0B00CF"/>
</linearGradient>
<linearGradient id="paint72_linear_288_267" x1="451.094" y1="67.1914" x2="451.094" y2="106.359" gradientUnits="userSpaceOnUse">
<stop offset="0.208333" stop-color="#FF2D2B"/>
<stop offset="1" stop-color="#0B00CF"/>
</linearGradient>
<linearGradient id="paint73_linear_288_267" x1="402.323" y1="66.4492" x2="402.323" y2="87.7553" gradientUnits="userSpaceOnUse">
<stop offset="0.208333" stop-color="#FF2D2B"/>
<stop offset="1" stop-color="#0B00CF"/>
</linearGradient>
<linearGradient id="paint74_linear_288_267" x1="417.416" y1="64.7812" x2="417.416" y2="72.2195" gradientUnits="userSpaceOnUse">
<stop offset="0.208333" stop-color="#FF2D2B"/>
<stop offset="1" stop-color="#0B00CF"/>
</linearGradient>
<linearGradient id="paint75_linear_288_267" x1="591.816" y1="137.48" x2="591.816" y2="144.919" gradientUnits="userSpaceOnUse">
<stop offset="0.208333" stop-color="#FF2D2B"/>
<stop offset="1" stop-color="#0B00CF"/>
</linearGradient>
<linearGradient id="paint76_linear_288_267" x1="504.919" y1="67.4365" x2="504.919" y2="74.8747" gradientUnits="userSpaceOnUse">
<stop offset="0.208333" stop-color="#FF2D2B"/>
<stop offset="1" stop-color="#0B00CF"/>
</linearGradient>
<linearGradient id="paint77_linear_288_267" x1="550.195" y1="93.082" x2="550.195" y2="100.52" gradientUnits="userSpaceOnUse">
<stop offset="0.208333" stop-color="#FF2D2B"/>
<stop offset="1" stop-color="#0B00CF"/>
</linearGradient>
<linearGradient id="paint78_linear_288_267" x1="503.796" y1="85.5" x2="503.796" y2="128.839" gradientUnits="userSpaceOnUse">
<stop offset="0.208333" stop-color="#FF2D2B"/>
<stop offset="1" stop-color="#0B00CF"/>
</linearGradient>
<linearGradient id="paint79_linear_288_267" x1="360.788" y1="8.16309" x2="360.788" y2="66.9412" gradientUnits="userSpaceOnUse">
<stop offset="0.208333" stop-color="#FF2D2B"/>
<stop offset="1" stop-color="#0B00CF"/>
</linearGradient>
<linearGradient id="paint80_linear_288_267" x1="395.554" y1="4.81348" x2="395.554" y2="12.2517" gradientUnits="userSpaceOnUse">
<stop offset="0.208333" stop-color="#FF2D2B"/>
<stop offset="1" stop-color="#0B00CF"/>
</linearGradient>
<linearGradient id="paint81_linear_288_267" x1="484.134" y1="64.0879" x2="484.134" y2="71.5261" gradientUnits="userSpaceOnUse">
<stop offset="0.208333" stop-color="#FF2D2B"/>
<stop offset="1" stop-color="#0B00CF"/>
</linearGradient>
<linearGradient id="paint82_linear_288_267" x1="466.835" y1="32.3564" x2="466.835" y2="39.7947" gradientUnits="userSpaceOnUse">
<stop offset="0.208333" stop-color="#FF2D2B"/>
<stop offset="1" stop-color="#0B00CF"/>
</linearGradient>
<linearGradient id="paint83_linear_288_267" x1="453.429" y1="1.84473" x2="453.429" y2="9.28293" gradientUnits="userSpaceOnUse">
<stop offset="0.208333" stop-color="#FF2D2B"/>
<stop offset="1" stop-color="#0B00CF"/>
</linearGradient>
<linearGradient id="paint84_linear_288_267" x1="524.542" y1="74.3799" x2="524.542" y2="81.8181" gradientUnits="userSpaceOnUse">
<stop offset="0.208333" stop-color="#FF2D2B"/>
<stop offset="1" stop-color="#0B00CF"/>
</linearGradient>
<linearGradient id="paint85_linear_288_267" x1="432.424" y1="35.3252" x2="432.424" y2="42.7634" gradientUnits="userSpaceOnUse">
<stop offset="0.208333" stop-color="#FF2D2B"/>
<stop offset="1" stop-color="#0B00CF"/>
</linearGradient>
</defs>
</svg>
