<svg width="98" height="105" viewBox="0 0 98 105" fill="none" xmlns="http://www.w3.org/2000/svg">
<g filter="url(#filter0_d_298_2538)">
<path d="M64.3378 68.6104L66.2929 69.0333C66.8666 66.381 67.8071 63.8155 69.0878 61.4083L67.3222 60.4688C65.955 63.0386 64.9506 65.7779 64.3378 68.6104ZM71.666 57.3897L70.0771 56.1758C69.5751 56.8321 69.0913 57.522 68.6376 58.2261L70.3192 59.3091C70.7436 58.6495 71.1967 58.004 71.666 57.3897ZM27.1318 58.5445C27.645 59.315 28.1289 60.1094 28.5703 60.9053L30.3193 59.9356C29.852 59.0928 29.3398 58.2515 28.7968 57.4361L27.1318 58.5445ZM34.2006 72.0298C33.8783 68.9531 33.0722 65.9019 31.8051 62.9595L29.9682 63.7505C31.1557 66.5073 31.9101 69.3628 32.2114 72.2378L34.2006 72.0298Z" fill="white"/>
<path d="M73.5171 38.9974C72.9722 26.6825 62.9155 16.4168 50.6221 15.6273C36.3457 14.7186 24.459 26.0472 24.459 40.1127C24.459 45.4237 26.125 50.476 29.2778 54.7231C33.8823 60.9257 36.3164 67.9721 36.3164 75.1005V76.2397H38.5066C38.2961 76.6867 38.1694 77.1801 38.1694 77.706C38.1694 78.6708 38.5674 79.5433 39.2059 80.1723C38.5674 80.8015 38.1694 81.674 38.1694 82.6391C38.1694 83.6039 38.5674 84.4763 39.2058 85.1054C38.5674 85.7346 38.1694 86.6069 38.1694 87.5717C38.1694 89.4828 39.7246 91.038 41.6357 91.038H42.6245C43.1076 94.1266 45.7784 96.4994 49.0004 96.4994C52.222 96.4994 54.8927 94.1266 55.3758 91.038H56.3646C58.2757 91.038 59.8309 89.4828 59.8309 87.5717C59.8309 86.6069 59.4329 85.7345 58.7945 85.1054C59.4329 84.4762 59.8309 83.6039 59.8309 82.6391C59.8309 81.674 59.4329 80.8015 58.7944 80.1723C59.4329 79.5433 59.8309 78.6708 59.8309 77.706C59.8309 77.1801 59.7043 76.6867 59.4937 76.2397H61.6839V75.0976C61.6839 65.5463 64.9012 60.5961 68.0125 55.809C71.0211 51.1805 73.8624 46.8084 73.5171 38.9974ZM71.3484 37.2469L67.4761 39.6217L60.5383 35.7124C60.6311 35.3983 60.6964 35.0726 60.6964 34.7289C60.6964 34.4203 60.6535 34.1132 60.5722 33.8148L67.9453 28.0345C69.7164 30.7784 70.915 33.9063 71.3484 37.2469ZM54.9614 44.638L52.8392 42.5096C53.0769 42.0291 53.2164 41.5067 53.2164 40.9691C53.2164 40.5441 53.1343 40.1349 52.9904 39.7506L55.5036 37.7804C56.0174 38.0646 56.5928 38.2289 57.1963 38.2289C58.0553 38.2289 58.8328 37.9058 59.4426 37.3903L65.5257 40.818L59.0194 44.808C57.8683 43.9024 56.298 43.7603 54.9614 44.638ZM57.796 48.7245C57.0301 49.3291 56.2401 48.8692 56.1354 48.851C55.3389 48.4167 55.1096 47.3536 55.6901 46.62C56.2795 45.8763 57.5153 45.8969 58.0714 46.663C58.5592 47.3238 58.4248 48.2254 57.796 48.7245ZM52.8782 55.1198C52.8373 55.1182 52.7967 55.1092 52.7559 55.1092C52.0093 55.1092 51.3129 55.3575 50.7245 55.7825L43.6964 49.9379C44.0627 49.3771 44.2862 48.7257 44.2862 48.0389C44.2862 47.596 44.1932 47.1634 44.0344 46.7612L47.7573 43.8509C48.3302 44.2407 49.0034 44.4691 49.7163 44.4691C50.337 44.4691 50.9363 44.2836 51.4714 43.9701L53.6624 46.1675C53.0397 47.6036 53.4453 49.1208 54.4926 50.0924L52.8782 55.1198ZM54.2559 58.6092C54.2559 59.4206 53.5965 60.1092 52.7559 60.1092C51.9288 60.1092 51.2559 59.4363 51.2559 58.6092C51.2559 57.7901 51.9191 57.1092 52.7559 57.1092C53.569 57.1092 54.2559 57.768 54.2559 58.6092ZM40.7862 44.5389C39.9544 44.5389 39.1717 44.8342 38.5599 45.3385L34.9832 41.5242C35.3835 40.9464 35.6261 40.2613 35.6261 39.539C35.6261 38.7961 35.3896 38.1093 34.9932 37.5421L38.2815 33.9878C38.8792 34.4631 39.6253 34.7593 40.4464 34.7593C40.9639 34.7593 41.4643 34.6336 41.9235 34.4204L46.7147 39.2117C46.4026 39.7449 46.2165 40.346 46.2165 40.9693C46.2165 41.4362 46.3161 41.8834 46.4902 42.303L42.7918 45.1946C42.2111 44.7809 41.5222 44.5389 40.7862 44.5389ZM41.6719 49.2445C41.0352 49.7167 40.0933 49.5799 39.6021 48.9608C39.2447 48.5056 39.173 47.8457 39.4766 47.3133C39.9687 46.4001 41.2783 46.2398 41.9688 47.1278C42.4609 47.7361 42.3956 48.7203 41.6719 49.2445ZM38.9463 31.2591C38.9463 30.3901 39.6507 29.7591 40.4463 29.7591C41.2857 29.7591 41.9463 30.4436 41.9463 31.2591C41.9463 32.1368 41.2401 32.7591 40.4463 32.7591C39.6192 32.7591 38.9463 32.0863 38.9463 31.2591ZM43.8425 30.4303L50.5429 26.8405C51.2659 27.5938 52.2889 28.0192 53.5135 27.8578L55.002 32.0072C54.1902 32.6611 53.6964 33.652 53.6964 34.7289C53.6964 35.2975 53.8472 35.8396 54.105 36.335L51.7714 38.1645C51.1787 37.7296 50.465 37.4692 49.7164 37.4692C49.1747 37.4692 48.653 37.6076 48.1751 37.844L43.4145 33.0834C43.7477 32.5396 43.9464 31.9165 43.9464 31.2593C43.9463 30.9754 43.9069 30.6981 43.8425 30.4303ZM50.8301 41.9715C50.2193 42.6356 49.1094 42.5941 48.5601 41.9256C48.0417 41.2911 48.1243 40.3967 48.709 39.8587C49.3583 39.269 50.3803 39.3527 50.9209 40.0848C51.3416 40.6376 51.316 41.4258 50.8301 41.9715ZM55.6963 34.7289C55.6963 33.901 56.3698 33.2289 57.1963 33.2289C58.0177 33.2289 58.6963 33.8988 58.6963 34.7289C58.6963 35.556 58.0234 36.2289 57.1963 36.2289C56.3384 36.2289 55.6963 35.5389 55.6963 34.7289ZM66.7867 26.4007L59.504 32.1102C58.873 31.5551 58.0575 31.2289 57.1963 31.2289C57.0833 31.2289 56.9725 31.2521 56.8601 31.2631L55.3483 27.0484C56.0994 26.393 56.5562 25.4313 56.5562 24.4091C56.5562 22.5144 55.04 20.975 53.1586 20.9195L52.0383 17.7979C57.9788 18.6089 63.2311 21.8215 66.7867 26.4007ZM53.0562 22.909C53.8833 22.909 54.5562 23.5819 54.5562 24.409C54.5562 24.9813 54.2247 25.5111 53.7095 25.7591C52.7597 26.2206 51.5562 25.5283 51.5562 24.409C51.5562 23.5595 52.2535 22.909 53.0562 22.909ZM49.8414 17.5985L51.2181 21.4344C50.2057 22.056 49.5562 23.1632 49.5562 24.409C49.5562 24.6292 49.5937 24.8448 49.6344 25.0587L42.8329 28.7025C42.1962 28.1085 41.3445 27.7591 40.4464 27.7591C39.7937 27.7591 39.1709 27.9583 38.6241 28.2932L33.8104 23.4791C38.0096 19.6427 43.6609 17.3744 49.8414 17.5985ZM32.3956 24.8924L37.2851 29.7823C37.0718 30.2419 36.9464 30.7419 36.9464 31.2591C36.9464 31.6227 37.0179 31.9667 37.1213 32.2967L33.4228 36.2945C33.0209 36.1331 32.5849 36.0389 32.126 36.0389C30.3647 36.0389 28.9174 37.3515 28.6757 39.0472L26.471 39.6566C26.5848 33.9725 28.809 28.8011 32.3956 24.8924ZM33.626 39.5389C33.626 40.4058 32.9169 41.0389 32.126 41.0389C31.3889 41.0389 30.6745 40.5142 30.626 39.5389C30.626 38.7118 31.2989 38.0389 32.126 38.0389C32.9531 38.0389 33.626 38.7118 33.626 39.5389ZM30.8834 53.5306C28.3084 50.0616 26.8208 46.0055 26.5221 41.7175L28.9686 41.0414C29.5348 42.2299 30.7387 43.039 32.126 43.039C32.5738 43.039 33.0078 42.944 33.4184 42.7796L37.4304 47.058C37.3383 47.3727 37.2862 47.7023 37.2862 48.039C37.2862 48.4775 37.3774 48.9074 37.5354 49.3118L31.3267 54.174C31.1747 53.961 31.04 53.7417 30.8834 53.5306ZM49.0005 94.4994C46.8855 94.4994 45.1182 93.0162 44.6616 91.038H53.3389C52.8825 93.0162 51.1155 94.4994 49.0005 94.4994ZM56.3648 89.0379H41.6358C40.8272 89.0379 40.1695 88.3802 40.1695 87.5716C40.1695 86.763 40.8272 86.1053 41.6358 86.1053H56.3648C57.1734 86.1053 57.8311 86.763 57.8311 87.5716C57.8311 88.3802 57.1734 89.0379 56.3648 89.0379ZM56.3648 84.1053H41.6358C40.8272 84.1053 40.1695 83.4476 40.1695 82.639C40.1695 81.8304 40.8272 81.1722 41.6358 81.1722H56.3648C57.1734 81.1722 57.8311 81.8304 57.8311 82.639C57.8311 83.4476 57.1734 84.1053 56.3648 84.1053ZM56.3648 79.1722H41.6358C40.8272 79.1722 40.1695 78.5145 40.1695 77.7059C40.1695 76.8973 40.8272 76.2396 41.6358 76.2396H56.3648C57.1734 76.2396 57.8311 76.8973 57.8311 77.7059C57.8311 78.5145 57.1734 79.1722 56.3648 79.1722ZM59.6929 74.2396C51.6684 74.2396 45.4106 74.2396 38.3052 74.2396C38.1405 67.8419 36.1339 61.5411 32.4634 55.8238L38.7745 50.8814C39.3599 51.2964 40.0518 51.5389 40.7862 51.5389C41.2614 51.5389 41.7195 51.4337 42.1472 51.2508L49.4961 57.3621C49.3433 57.7596 49.2559 58.178 49.2559 58.6092C49.2559 60.5389 50.8262 62.1092 52.7559 62.1092C53.4133 62.1092 54.0304 61.9165 54.5738 61.5816L60.6537 66.6381C60.1071 68.8475 59.7512 71.3436 59.6929 74.2396ZM61.2584 64.5389L55.9098 60.0905C56.1279 59.628 56.2559 59.127 56.2559 58.6092C56.2559 57.4475 55.6811 56.3936 54.7745 55.7559L56.3086 50.9786C56.8417 51.065 57.3798 51.1288 58.2462 50.7533L64.7322 57.2389C63.4379 59.3506 62.1913 61.6932 61.2584 64.5389ZM66.3355 54.7191C66.1669 54.9786 65.9967 55.2408 65.8262 55.5047L59.7764 49.4554C60.1462 48.8929 60.3662 48.2418 60.3662 47.5491C60.3662 47.1673 60.303 46.7943 60.1838 46.4402L71.5271 39.4837C71.7319 46.3978 69.231 50.2645 66.3355 54.7191Z" fill="white"/>
<path d="M50 1.5H48V10.305H50V1.5Z" fill="white"/>
<path d="M35.4396 13.6703L31.0371 6.04492L29.3051 7.04492L33.7076 14.6703L35.4396 13.6703Z" fill="white"/>
<path d="M15.8854 21.1971L23.5107 25.5996L24.5107 23.8676L16.8854 19.4651L15.8854 21.1971Z" fill="white"/>
<path d="M20.1439 38.1602H11.3389V40.1602H20.1439V38.1602Z" fill="white"/>
<path d="M23.5101 52.7205L15.8848 57.123L16.8848 58.8551L24.5101 54.4526L23.5101 52.7205Z" fill="white"/>
<path d="M82.1107 57.1252L74.4854 52.7227L73.4854 54.4547L81.1107 58.8572L82.1107 57.1252Z" fill="white"/>
<path d="M86.6614 38.1602H77.8564V40.1602H86.6614V38.1602Z" fill="white"/>
<path d="M74.4928 25.5998L82.1182 21.1973L81.1182 19.4652L73.4928 23.8677L74.4928 25.5998Z" fill="white"/>
<path d="M66.965 6.04848L62.5625 13.6738L64.2946 14.6738L68.697 7.04848L66.965 6.04848Z" fill="white"/>
</g>
<defs>
<filter id="filter0_d_298_2538" x="-4" y="0" width="106" height="106" filterUnits="userSpaceOnUse" color-interpolation-filters="sRGB">
<feFlood flood-opacity="0" result="BackgroundImageFix"/>
<feColorMatrix in="SourceAlpha" type="matrix" values="0 0 0 0 0 0 0 0 0 0 0 0 0 0 0 0 0 0 127 0" result="hardAlpha"/>
<feOffset dy="4"/>
<feGaussianBlur stdDeviation="2"/>
<feComposite in2="hardAlpha" operator="out"/>
<feColorMatrix type="matrix" values="0 0 0 0 0 0 0 0 0 0 0 0 0 0 0 0 0 0 0.25 0"/>
<feBlend mode="normal" in2="BackgroundImageFix" result="effect1_dropShadow_298_2538"/>
<feBlend mode="normal" in="SourceGraphic" in2="effect1_dropShadow_298_2538" result="shape"/>
</filter>
</defs>
</svg>
