<svg width="255" height="370" viewBox="0 0 255 370" fill="none" xmlns="http://www.w3.org/2000/svg">
<path d="M31.855 306.278L17.5548 298.147C15.9883 297.256 14.8261 295.491 14.3713 292.704L28.6716 300.835C29.1264 303.622 30.2717 305.387 31.855 306.278Z" fill="#DAD9E8"/>
<mask id="mask0_288_561" style="mask-type:luminance" maskUnits="userSpaceOnUse" x="14" y="292" width="18" height="15">
<path d="M31.855 306.278L17.5548 298.147C15.9883 297.256 14.8261 295.491 14.3713 292.704L28.6716 300.835C29.1264 303.622 30.2717 305.387 31.855 306.278Z" fill="white"/>
</mask>
<g mask="url(#mask0_288_561)">
<path d="M31.8548 306.278L17.5546 298.147C15.9881 297.256 14.8428 295.508 14.388 292.754L28.6882 300.885C29.143 303.639 30.2884 305.387 31.8548 306.278Z" fill="#DAD9E8"/>
<path d="M28.6883 300.884L14.3881 292.754C14.3881 292.754 14.3881 292.721 14.3881 292.704L28.6883 300.835C28.6883 300.835 28.6883 300.868 28.6883 300.884Z" fill="#DAD9E8"/>
</g>
<path d="M44.1679 160.185L58.4682 168.316C54.291 165.941 48.5136 166.238 42.0288 169.9L27.7286 161.769C34.2134 158.107 39.9907 157.81 44.1679 160.185Z" fill="#DAD9E8"/>
<mask id="mask1_288_561" style="mask-type:luminance" maskUnits="userSpaceOnUse" x="27" y="158" width="32" height="12">
<path d="M44.1679 160.185L58.4682 168.316C54.291 165.941 48.5136 166.238 42.0288 169.9L27.7286 161.769C34.2134 158.107 39.9907 157.81 44.1679 160.185Z" fill="white"/>
</mask>
<g mask="url(#mask1_288_561)">
<path d="M42.0288 169.9L27.7286 161.769C34.2134 158.107 39.9907 157.81 44.1679 160.185L58.4682 168.316C54.291 165.941 48.5136 166.238 42.0288 169.9Z" fill="#DAD9E8"/>
</g>
<path d="M28.6884 300.835L14.3882 292.687L0.643799 207.321L14.944 215.469L28.6884 300.835Z" fill="#DAD9E8"/>
<path d="M37.666 172.373L23.3658 164.226L27.7283 161.769L42.0285 169.899L37.666 172.373Z" fill="#EBEBF1"/>
<path d="M14.944 215.468L0.643789 207.338C-1.69747 192.808 9.13298 172.291 23.3827 164.242L37.6829 172.373C23.4332 180.422 12.6028 200.938 14.944 215.468Z" fill="#EBEBF1"/>
<mask id="mask2_288_561" style="mask-type:luminance" maskUnits="userSpaceOnUse" x="0" y="164" width="38" height="52">
<path d="M14.944 215.468L0.643789 207.338C-1.69747 192.808 9.13298 172.291 23.3827 164.242L37.6829 172.373C23.4332 180.422 12.6028 200.938 14.944 215.468Z" fill="white"/>
</mask>
<g mask="url(#mask2_288_561)">
<path d="M14.944 215.468L0.643804 207.338C-0.0636272 202.918 0.44169 197.953 1.89024 192.939L16.1905 201.07C14.7419 206.068 14.2366 211.048 14.944 215.468Z" fill="#EBEBF1"/>
<path d="M16.1904 201.07L1.8902 192.939C3.52403 187.299 6.3369 181.625 9.97512 176.645L24.2754 184.775C20.654 189.756 17.8243 195.43 16.1904 201.07Z" fill="#EBEBF1"/>
<path d="M24.2585 184.776L9.95831 176.645C12.7375 172.835 15.9715 169.437 19.5087 166.766L33.8089 174.897C30.2717 177.568 27.0209 180.966 24.2585 184.776Z" fill="#EBEBF1"/>
<path d="M33.8253 174.896L19.525 166.765C20.7715 165.825 22.0516 164.968 23.3822 164.226L37.6824 172.356C36.3686 173.099 35.0885 173.956 33.8253 174.896Z" fill="#EBEBF1"/>
</g>
<path d="M42.0282 169.9C56.2779 161.851 67.1758 170.081 64.9356 187.201L51.7302 287.79C50.6859 295.739 45.4643 302.369 40.2428 305.338C35.0045 308.29 29.7661 307.581 28.6881 300.835L14.9437 215.469C12.6025 200.939 23.4329 180.422 37.6826 172.374L42.0451 169.916L42.0282 169.9Z" fill="#C4C3EC"/>
<path d="M57.8442 170.625L67.7988 176.299C63.571 173.891 57.7094 174.237 51.2583 177.882L41.3038 172.208C47.7717 168.547 53.6164 168.217 57.8442 170.625Z" fill="url(#paint0_linear_288_561)"/>
<mask id="mask3_288_561" style="mask-type:luminance" maskUnits="userSpaceOnUse" x="41" y="169" width="27" height="9">
<path d="M57.8442 170.625L67.7988 176.299C63.571 173.891 57.7094 174.237 51.2583 177.882L41.3038 172.208C47.7717 168.547 53.6164 168.217 57.8442 170.625Z" fill="white"/>
</mask>
<g mask="url(#mask3_288_561)">
<path d="M51.2583 177.882L41.3038 172.208C47.7717 168.547 53.6164 168.217 57.8442 170.625L67.7988 176.299C63.571 173.891 57.7094 174.237 51.2583 177.882Z" fill="url(#paint1_linear_288_561)"/>
</g>
<path d="M53.5827 187.415C62.3751 182.434 69.5505 186.442 69.5842 196.354C69.6179 206.25 62.493 218.339 53.6838 223.303C44.8914 228.284 37.6992 224.276 37.6824 214.381C37.6487 204.485 44.7904 192.379 53.5827 187.415Z" fill="url(#paint2_linear_288_561)"/>
<path d="M34.8695 231.813L24.9149 226.14C20.7377 223.765 18.1438 218.718 18.127 211.527C18.0933 197.08 28.469 179.466 41.3206 172.192L51.2752 177.866C38.4235 185.123 28.0479 202.737 28.0816 217.201C28.0984 224.375 30.6923 229.422 34.8695 231.797V231.813Z" fill="url(#paint3_linear_288_561)"/>
<mask id="mask4_288_561" style="mask-type:luminance" maskUnits="userSpaceOnUse" x="18" y="172" width="34" height="60">
<path d="M34.8695 231.813L24.9149 226.14C20.7377 223.765 18.1438 218.718 18.127 211.527C18.0933 197.08 28.469 179.466 41.3206 172.192L51.2752 177.866C38.4235 185.123 28.0479 202.737 28.0816 217.201C28.0984 224.375 30.6923 229.422 34.8695 231.797V231.813Z" fill="white"/>
</mask>
<g mask="url(#mask4_288_561)">
<path d="M34.8695 231.813L24.9149 226.14C21.2093 224.029 18.7502 219.807 18.228 213.869L28.1826 219.543C28.7048 225.48 31.1639 229.702 34.8695 231.813Z" fill="url(#paint4_linear_288_561)"/>
<path d="M28.1826 219.543L18.2281 213.87C18.1607 213.127 18.127 212.336 18.127 211.544C18.0933 199.076 25.8077 184.265 36.1665 175.771L46.1211 181.445C35.7623 189.939 28.0479 204.749 28.0816 217.218C28.0816 218.026 28.1153 218.801 28.1826 219.543Z" fill="url(#paint5_linear_288_561)"/>
<path d="M46.1211 181.445L36.1665 175.771C37.8172 174.419 39.5521 173.215 41.3206 172.209L51.2752 177.882C49.5066 178.889 47.7886 180.076 46.1211 181.445Z" fill="url(#paint6_linear_288_561)"/>
</g>
<path d="M53.583 187.415L51.2755 177.882C64.1271 170.625 74.5702 176.447 74.6039 190.911C74.6375 205.359 64.2619 222.973 51.4271 230.23C38.5754 237.486 28.1323 231.664 28.0818 217.217C28.0481 202.769 38.4238 185.155 51.2755 177.882L53.583 187.415C44.7907 192.379 37.649 204.484 37.6827 214.38C37.6995 224.276 44.8917 228.283 53.6841 223.303C62.4765 218.338 69.6182 206.249 69.5845 196.354C69.5676 186.441 62.3922 182.434 53.583 187.415Z" fill="url(#paint7_linear_288_561)"/>
<mask id="mask5_288_561" style="mask-type:luminance" maskUnits="userSpaceOnUse" x="28" y="174" width="47" height="60">
<path d="M53.583 187.415L51.2755 177.882C64.1271 170.625 74.5702 176.447 74.6039 190.911C74.6375 205.359 64.2619 222.973 51.4271 230.23C38.5754 237.486 28.1323 231.664 28.0818 217.217C28.0481 202.769 38.4238 185.155 51.2755 177.882L53.583 187.415C44.7907 192.379 37.649 204.484 37.6827 214.38C37.6995 224.276 44.8917 228.283 53.6841 223.303C62.4765 218.338 69.6182 206.249 69.5845 196.354C69.5676 186.441 62.3922 182.434 53.583 187.415Z" fill="white"/>
</mask>
<g mask="url(#mask5_288_561)">
<path d="M53.583 187.415L51.2755 177.882C64.1271 170.625 74.5702 176.447 74.6039 190.911C74.6375 205.359 64.2619 222.973 51.4271 230.23C38.5754 237.486 28.1323 231.664 28.0818 217.217C28.0481 202.769 38.4238 185.155 51.2755 177.882L53.583 187.415C44.7907 192.379 37.649 204.484 37.6827 214.38C37.6995 224.276 44.8917 228.283 53.6841 223.303C62.4765 218.338 69.6182 206.249 69.5845 196.354C69.5676 186.441 62.3922 182.434 53.583 187.415Z" fill="#12B0F3"/>
</g>
<path d="M26.4127 13.4279L21.5651 14.8818L47.3845 97.4195L52.2322 95.9656L26.4127 13.4279Z" fill="#171C29"/>
<path d="M80.5672 355.854C56.885 341.522 51.5456 322.291 49.2717 314.078C51.1077 321.962 57.4072 329.796 68.1534 336.129C95.0021 351.945 139.452 352.391 167.447 337.118C179.456 330.554 186.497 322.159 188.467 313.468C186.648 320.279 183.903 330.587 173.409 342.495C169.434 346.997 160.675 355.392 146.678 360.884C125.388 369.246 99.4489 367.267 80.5672 355.854Z" fill="#919DD6"/>
<path d="M167.901 167.92C194.076 183.341 193.184 207.931 165.897 222.824C138.61 237.717 95.2885 237.288 69.1135 221.868C42.9385 206.447 43.8312 181.856 71.1179 166.964C98.4045 152.071 141.726 152.5 167.901 167.92Z" fill="#E4E3EE"/>
<path d="M49.2208 313.848L28.1158 223.55C30.575 234.073 38.7609 244.265 52.7243 252.495C87.6074 273.061 145.364 273.622 181.73 253.765C197.344 245.238 206.473 234.337 209.05 223.039L188.467 313.452C186.479 322.144 179.456 330.538 167.446 337.103C139.469 352.375 95.0018 351.946 68.1531 336.113C57.4068 329.78 51.1073 321.946 49.2208 313.831V313.848Z" fill="#B7B6E3"/>
<path d="M59.8832 165.529C95.5243 146.578 145.988 147.139 179.877 166.865C176.862 165.083 172.634 165.215 167.884 167.805C141.709 152.384 98.3709 151.955 71.1011 166.848C43.8144 181.741 42.9217 206.315 69.0967 221.752C95.2717 237.173 138.61 237.602 165.88 222.709C193.167 207.816 194.059 183.242 167.884 167.805C172.634 165.215 176.862 165.083 179.877 166.865C186.968 171.351 197.698 178.146 205.159 192.428C212.116 205.754 210.01 217.711 209.101 222.824C206.456 234.419 197.327 245.32 181.713 253.83C145.348 273.688 87.591 273.11 52.7078 252.561C38.7613 244.347 30.5753 234.171 28.0993 223.649C27.2234 219.064 26.3981 214.726 27.2403 207.931C28.2846 199.421 31.7544 192.989 31.906 192.725C34.4999 187.975 41.4058 175.358 59.8664 165.545L59.8832 165.529Z" fill="#DAD9E8"/>
<path d="M156.481 56.4618C176.559 68.287 175.868 87.1547 154.948 98.5676C134.029 109.997 100.779 109.667 80.7016 97.8254C60.6241 86.0002 61.3146 67.149 82.2344 55.7196C103.154 44.2902 136.403 44.62 156.481 56.4618Z" fill="#EBEBF1"/>
<path d="M54.19 197.524C21.8671 177.947 14.776 152.037 14.5233 133.747C14.5738 148.442 24.2084 163.121 43.5449 174.517C83.3969 198.003 149.39 198.662 190.926 175.985C212.301 164.308 223.047 148.739 222.997 133.153C222.643 142.719 222.104 147.667 218.179 158.387C215.097 166.782 209.606 173.923 206.642 177.766C205.26 179.564 192.442 195.545 167.699 204.995C124.782 221.356 79.7755 213.044 54.19 197.541V197.524Z" fill="#B7B6E3"/>
<path d="M57.1713 52.7677C76.1035 42.6741 97.3433 37.7098 120.318 38.0067C143.916 38.3036 165.105 43.7956 183.279 54.351C176.475 50.3432 166.975 50.7226 156.481 56.462C136.404 44.6368 103.171 44.3069 82.2346 55.7199C61.3148 67.1493 60.6242 86.0004 80.7018 97.8257C100.779 109.651 134.012 109.981 154.948 98.5679C175.868 87.1384 176.559 68.2873 156.481 56.462C166.975 50.7226 176.475 50.3432 183.279 54.351C192.863 60.4038 222.02 78.8426 222.946 118.128C222.997 133.697 212.25 149.283 190.876 160.96C149.34 183.637 83.3462 182.994 43.4943 159.508C24.1578 148.112 14.5232 133.417 14.4727 118.738C14.6917 113.032 14.9275 106.55 17.4877 98.6503C20.5027 89.2825 23.1135 85.2583 27.4255 78.5952C30.8279 73.3341 41.4225 61.1789 57.1713 52.7842V52.7677Z" fill="#E4E3EE"/>
<path d="M139.217 176.364C105.462 180.256 69.0798 174.582 43.4943 159.492C24.2589 148.161 14.6244 133.565 14.4728 118.969C14.4391 109.486 18.431 100.728 25.1517 93.7188C25.2864 106.814 33.9272 119.893 51.1751 130.069C74.1329 143.593 106.759 148.672 137.027 145.192C138.374 155.913 139.183 166.88 139.217 176.364Z" fill="#042F8F"/>
<path d="M14.5233 133.746L14.4727 118.738C14.5232 133.433 24.1578 148.112 43.4943 159.508C83.3462 182.994 149.34 183.653 190.876 160.959C212.25 149.283 222.997 133.714 222.946 118.128L222.997 133.136C223.047 148.705 212.301 164.291 190.926 175.968C149.39 198.645 83.3968 198.002 43.5448 174.5C24.2083 163.103 14.5738 148.409 14.5233 133.73V133.746Z" fill="#DAD9E8"/>
<path d="M31.417 134.192C29.3621 139.866 25.8587 140.245 23.4332 135.05C19.3739 126.391 23.5006 115.935 28.7726 117.419C29.7327 117.683 30.238 118.227 30.7601 118.805C34.1289 123.505 32.3266 131.685 31.417 134.192Z" fill="#05D4F4"/>
<path d="M90.504 159.855C88.9712 168.365 78.0397 169.8 72.515 162.213C66.7545 154.296 73.0709 145.16 81.139 146.149C81.4421 146.182 81.8295 146.265 82.1159 146.314C89.2239 148.326 91.2956 155.451 90.504 159.855Z" fill="#05D4F4"/>
<path d="M187.861 123.242C187.861 118.195 184.239 116.166 179.793 118.673C175.346 121.18 171.725 127.315 171.725 132.362C171.725 137.409 175.346 139.438 179.793 136.931C184.256 134.407 187.861 128.289 187.861 123.242Z" fill="#1393F2"/>
<path d="M180.837 130.399C180.062 130.399 179.304 130.053 178.799 129.41C177.957 128.305 178.193 126.755 179.304 125.93L238.139 82.6861C239.251 81.8615 240.851 82.0759 241.693 83.1809C242.535 84.2694 242.299 85.8362 241.188 86.6608L182.353 129.905C181.898 130.235 181.359 130.399 180.837 130.399Z" fill="#171C29"/>
<path d="M254.612 81.5805C254.612 74.1753 248.481 68.1885 240.935 68.1885C233.389 68.1885 227.258 74.1918 227.258 81.5805C227.258 88.9693 233.389 94.9726 240.935 94.9726C248.481 94.9726 254.612 88.9693 254.612 81.5805Z" fill="#BE0A2D"/>
<path d="M36.4367 14.1587C36.4367 6.75345 30.3056 0.766602 22.7596 0.766602C15.2137 0.766602 9.08264 6.76994 9.08264 14.1587C9.08264 21.5474 15.2137 27.5507 22.7596 27.5507C30.3056 27.5507 36.4367 21.5474 36.4367 14.1587Z" fill="#BE0A2D"/>
<path d="M199.954 218.718L209.908 224.391C205.681 221.983 199.819 222.33 193.368 225.975L183.413 220.301C189.881 216.64 195.726 216.31 199.954 218.718Z" fill="url(#paint8_linear_288_561)"/>
<mask id="mask6_288_561" style="mask-type:luminance" maskUnits="userSpaceOnUse" x="183" y="217" width="27" height="9">
<path d="M199.954 218.718L209.908 224.391C205.681 221.983 199.819 222.33 193.368 225.975L183.413 220.301C189.881 216.64 195.726 216.31 199.954 218.718Z" fill="white"/>
</mask>
<g mask="url(#mask6_288_561)">
<path d="M193.368 225.975L183.413 220.301C189.881 216.64 195.726 216.31 199.954 218.718L209.908 224.391C205.681 221.983 199.819 222.33 193.368 225.975Z" fill="url(#paint9_linear_288_561)"/>
</g>
<path d="M195.676 235.507C204.468 230.526 211.644 234.534 211.677 244.446C211.711 254.342 204.586 266.431 195.777 271.395C186.968 276.376 179.792 272.368 179.776 262.473C179.742 252.577 186.884 240.471 195.676 235.507Z" fill="url(#paint10_linear_288_561)"/>
<path d="M176.963 279.905L167.008 274.232C162.831 271.857 160.237 266.81 160.22 259.636C160.186 245.188 170.562 227.574 183.414 220.301L193.368 225.974C180.517 233.231 170.141 250.845 170.175 265.309C170.192 272.484 172.786 277.53 176.963 279.905Z" fill="url(#paint11_linear_288_561)"/>
<mask id="mask7_288_561" style="mask-type:luminance" maskUnits="userSpaceOnUse" x="160" y="220" width="34" height="60">
<path d="M176.963 279.905L167.008 274.232C162.831 271.857 160.237 266.81 160.22 259.636C160.186 245.188 170.562 227.574 183.414 220.301L193.368 225.974C180.517 233.231 170.141 250.845 170.175 265.309C170.192 272.484 172.786 277.53 176.963 279.905Z" fill="white"/>
</mask>
<g mask="url(#mask7_288_561)">
<path d="M176.963 279.905L167.008 274.232C163.303 272.12 160.843 267.898 160.321 261.961L170.276 267.634C170.798 273.572 173.257 277.794 176.963 279.905Z" fill="url(#paint12_linear_288_561)"/>
<path d="M170.292 267.635L160.338 261.961C160.27 261.219 160.237 260.428 160.237 259.636C160.203 247.167 167.917 232.357 178.276 223.863L188.231 229.537C177.872 238.031 170.158 252.841 170.191 265.309C170.191 266.118 170.225 266.893 170.292 267.635Z" fill="url(#paint13_linear_288_561)"/>
<path d="M188.231 229.52L178.276 223.847C179.927 222.494 181.662 221.29 183.43 220.284L193.385 225.958C191.616 226.964 189.898 228.151 188.231 229.52Z" fill="url(#paint14_linear_288_561)"/>
</g>
<path d="M195.676 235.507L193.369 225.974C206.22 218.718 216.663 224.556 216.697 239.004C216.731 253.451 206.355 271.049 193.52 278.322C180.669 285.579 170.226 279.757 170.175 265.31C170.141 250.862 180.517 233.248 193.369 225.974L195.676 235.507C186.884 240.472 179.742 252.577 179.776 262.473C179.793 272.368 186.985 276.376 195.777 271.395C204.57 266.431 211.711 254.342 211.678 244.446C211.661 234.534 204.485 230.526 195.676 235.507Z" fill="url(#paint15_linear_288_561)"/>
<mask id="mask8_288_561" style="mask-type:luminance" maskUnits="userSpaceOnUse" x="170" y="222" width="47" height="60">
<path d="M195.676 235.507L193.369 225.974C206.22 218.718 216.663 224.556 216.697 239.004C216.731 253.451 206.355 271.049 193.52 278.322C180.669 285.579 170.226 279.757 170.175 265.31C170.141 250.862 180.517 233.248 193.369 225.974L195.676 235.507C186.884 240.472 179.742 252.577 179.776 262.473C179.793 272.368 186.985 276.376 195.777 271.395C204.57 266.431 211.711 254.342 211.678 244.446C211.661 234.534 204.485 230.526 195.676 235.507Z" fill="white"/>
</mask>
<g mask="url(#mask8_288_561)">
<path d="M195.676 235.507L193.369 225.974C206.22 218.718 216.663 224.556 216.697 239.004C216.731 253.451 206.355 271.049 193.52 278.322C180.669 285.579 170.226 279.757 170.175 265.31C170.141 250.862 180.517 233.248 193.369 225.974L195.676 235.507C186.884 240.472 179.742 252.577 179.776 262.473C179.793 272.368 186.985 276.376 195.777 271.395C204.57 266.431 211.711 254.342 211.678 244.446C211.661 234.534 204.485 230.526 195.676 235.507Z" fill="#12B0F3"/>
</g>
<path d="M200.072 369.197L185.772 361.066C184.205 360.175 183.043 358.41 182.589 355.623L196.889 363.754C197.344 366.541 198.489 368.306 200.072 369.197Z" fill="#DAD9E8"/>
<mask id="mask9_288_561" style="mask-type:luminance" maskUnits="userSpaceOnUse" x="182" y="355" width="19" height="15">
<path d="M200.072 369.197L185.772 361.066C184.205 360.175 183.043 358.41 182.589 355.623L196.889 363.754C197.344 366.541 198.489 368.306 200.072 369.197Z" fill="white"/>
</mask>
<g mask="url(#mask9_288_561)">
<path d="M200.072 369.197L185.772 361.066C184.205 360.175 183.06 358.427 182.605 355.673L196.905 363.804C197.36 366.558 198.506 368.306 200.072 369.197Z" fill="#DAD9E8"/>
<path d="M196.905 363.803L182.605 355.673C182.605 355.673 182.605 355.64 182.605 355.623L196.905 363.754C196.905 363.754 196.905 363.787 196.905 363.803Z" fill="#DAD9E8"/>
</g>
<path d="M212.385 223.104L226.685 231.235C222.508 228.86 216.73 229.157 210.246 232.819L195.945 224.688C202.43 221.026 208.208 220.729 212.385 223.104Z" fill="#DAD9E8"/>
<mask id="mask10_288_561" style="mask-type:luminance" maskUnits="userSpaceOnUse" x="195" y="221" width="32" height="12">
<path d="M212.385 223.104L226.685 231.235C222.508 228.86 216.73 229.157 210.246 232.819L195.945 224.688C202.43 221.026 208.208 220.729 212.385 223.104Z" fill="white"/>
</mask>
<g mask="url(#mask10_288_561)">
<path d="M210.246 232.819L195.945 224.688C202.43 221.026 208.208 220.729 212.385 223.104L226.685 231.235C222.508 228.86 216.73 229.157 210.246 232.819Z" fill="#DAD9E8"/>
</g>
<path d="M196.889 363.754L182.588 355.606L168.844 270.24L183.144 278.388L196.889 363.754Z" fill="#DAD9E8"/>
<path d="M205.883 235.292L191.583 227.145L195.945 224.688L210.246 232.818L205.883 235.292Z" fill="#EBEBF1"/>
<path d="M183.144 278.387L168.844 270.257C166.503 255.726 177.333 235.21 191.583 227.161L205.883 235.292C191.634 243.34 180.803 263.857 183.144 278.387Z" fill="#EBEBF1"/>
<mask id="mask11_288_561" style="mask-type:luminance" maskUnits="userSpaceOnUse" x="168" y="227" width="38" height="52">
<path d="M183.144 278.387L168.844 270.257C166.503 255.726 177.333 235.21 191.583 227.161L205.883 235.292C191.634 243.34 180.803 263.857 183.144 278.387Z" fill="white"/>
</mask>
<g mask="url(#mask11_288_561)">
<path d="M183.144 278.387L168.844 270.257C168.137 265.836 168.642 260.872 170.091 255.858L184.391 263.989C182.942 268.987 182.437 273.967 183.144 278.387Z" fill="#EBEBF1"/>
<path d="M184.391 263.989L170.091 255.858C171.724 250.218 174.537 244.544 178.175 239.563L192.476 247.694C188.854 252.675 186.025 258.349 184.391 263.989Z" fill="#EBEBF1"/>
<path d="M192.476 247.695L178.175 239.564C180.955 235.754 184.189 232.356 187.726 229.685L202.026 237.815C198.489 240.487 195.238 243.885 192.476 247.695Z" fill="#EBEBF1"/>
<path d="M202.026 237.815L187.725 229.684C188.972 228.744 190.269 227.887 191.583 227.145L205.883 235.275C204.569 236.018 203.289 236.875 202.026 237.815Z" fill="#EBEBF1"/>
</g>
<path d="M210.246 232.819C224.496 224.77 235.394 233 233.153 250.12L219.948 350.708C218.904 358.658 213.682 365.288 208.461 368.257C203.222 371.209 197.984 370.5 196.906 363.754L183.161 278.388C180.82 263.858 191.651 243.358 205.9 235.293L210.263 232.835L210.246 232.819Z" fill="#C4C3EC"/>
<defs>
<linearGradient id="paint0_linear_288_561" x1="54.5513" y1="169.084" x2="54.5513" y2="177.882" gradientUnits="userSpaceOnUse">
<stop offset="0.208333" stop-color="#FF2D2B"/>
<stop offset="1" stop-color="#0B00CF"/>
</linearGradient>
<linearGradient id="paint1_linear_288_561" x1="54.5513" y1="169.084" x2="54.5513" y2="177.882" gradientUnits="userSpaceOnUse">
<stop offset="0.208333" stop-color="#FF2D2B"/>
<stop offset="1" stop-color="#0B00CF"/>
</linearGradient>
<linearGradient id="paint2_linear_288_561" x1="53.6333" y1="185.274" x2="53.6333" y2="225.444" gradientUnits="userSpaceOnUse">
<stop offset="0.208333" stop-color="#FF2D2B"/>
<stop offset="1" stop-color="#0B00CF"/>
</linearGradient>
<linearGradient id="paint3_linear_288_561" x1="34.7011" y1="172.192" x2="34.7011" y2="231.813" gradientUnits="userSpaceOnUse">
<stop offset="0.208333" stop-color="#FF2D2B"/>
<stop offset="1" stop-color="#0B00CF"/>
</linearGradient>
<linearGradient id="paint4_linear_288_561" x1="26.5488" y1="213.869" x2="26.5488" y2="231.813" gradientUnits="userSpaceOnUse">
<stop offset="0.208333" stop-color="#FF2D2B"/>
<stop offset="1" stop-color="#0B00CF"/>
</linearGradient>
<linearGradient id="paint5_linear_288_561" x1="32.124" y1="175.771" x2="32.124" y2="219.543" gradientUnits="userSpaceOnUse">
<stop offset="0.208333" stop-color="#FF2D2B"/>
<stop offset="1" stop-color="#0B00CF"/>
</linearGradient>
<linearGradient id="paint6_linear_288_561" x1="43.7209" y1="172.209" x2="43.7209" y2="181.445" gradientUnits="userSpaceOnUse">
<stop offset="0.208333" stop-color="#FF2D2B"/>
<stop offset="1" stop-color="#0B00CF"/>
</linearGradient>
<linearGradient id="paint7_linear_288_561" x1="51.3428" y1="174.76" x2="51.3428" y2="233.352" gradientUnits="userSpaceOnUse">
<stop offset="0.208333" stop-color="#FF2D2B"/>
<stop offset="1" stop-color="#0B00CF"/>
</linearGradient>
<linearGradient id="paint8_linear_288_561" x1="196.661" y1="217.177" x2="196.661" y2="225.975" gradientUnits="userSpaceOnUse">
<stop offset="0.208333" stop-color="#FF2D2B"/>
<stop offset="1" stop-color="#0B00CF"/>
</linearGradient>
<linearGradient id="paint9_linear_288_561" x1="196.661" y1="217.177" x2="196.661" y2="225.975" gradientUnits="userSpaceOnUse">
<stop offset="0.208333" stop-color="#FF2D2B"/>
<stop offset="1" stop-color="#0B00CF"/>
</linearGradient>
<linearGradient id="paint10_linear_288_561" x1="195.726" y1="233.366" x2="195.726" y2="273.536" gradientUnits="userSpaceOnUse">
<stop offset="0.208333" stop-color="#FF2D2B"/>
<stop offset="1" stop-color="#0B00CF"/>
</linearGradient>
<linearGradient id="paint11_linear_288_561" x1="176.794" y1="220.301" x2="176.794" y2="279.905" gradientUnits="userSpaceOnUse">
<stop offset="0.208333" stop-color="#FF2D2B"/>
<stop offset="1" stop-color="#0B00CF"/>
</linearGradient>
<linearGradient id="paint12_linear_288_561" x1="168.642" y1="261.961" x2="168.642" y2="279.905" gradientUnits="userSpaceOnUse">
<stop offset="0.208333" stop-color="#FF2D2B"/>
<stop offset="1" stop-color="#0B00CF"/>
</linearGradient>
<linearGradient id="paint13_linear_288_561" x1="174.234" y1="223.863" x2="174.234" y2="267.635" gradientUnits="userSpaceOnUse">
<stop offset="0.208333" stop-color="#FF2D2B"/>
<stop offset="1" stop-color="#0B00CF"/>
</linearGradient>
<linearGradient id="paint14_linear_288_561" x1="185.831" y1="220.284" x2="185.831" y2="229.52" gradientUnits="userSpaceOnUse">
<stop offset="0.208333" stop-color="#FF2D2B"/>
<stop offset="1" stop-color="#0B00CF"/>
</linearGradient>
<linearGradient id="paint15_linear_288_561" x1="193.436" y1="222.855" x2="193.436" y2="281.445" gradientUnits="userSpaceOnUse">
<stop offset="0.208333" stop-color="#FF2D2B"/>
<stop offset="1" stop-color="#0B00CF"/>
</linearGradient>
</defs>
</svg>
