<svg width="103" height="111" viewBox="0 0 103 111" fill="none" xmlns="http://www.w3.org/2000/svg">
<path d="M93.6978 53.4005C94.834 52.3467 95.6744 50.9718 96.1244 49.4308C96.5744 47.8899 96.616 46.2441 96.2446 44.679C95.8731 43.1139 95.1034 41.6917 94.0222 40.5728C92.9409 39.4539 91.5911 38.6827 90.125 38.3461C87.4916 31.4666 83.3226 25.3943 77.9883 20.6683C72.654 15.9423 66.3194 12.7089 59.5469 11.2552C59.2736 9.18809 58.3173 7.29666 56.8539 5.92833C55.3904 4.56 53.518 3.80664 51.5805 3.80664C49.643 3.80664 47.7705 4.56 46.3071 5.92833C44.8436 7.29666 43.8874 9.18809 43.6141 11.2552C36.8124 12.6828 30.445 15.9043 25.0809 20.6317C19.7168 25.3592 15.5232 31.4454 12.875 38.3461C11.4139 38.6923 10.0712 39.4706 8.99779 40.5935C7.92437 41.7165 7.16269 43.1397 6.79828 44.7034C6.43387 46.2671 6.48115 47.9092 6.93483 49.4455C7.3885 50.9818 8.2306 52.3514 9.36656 53.4005C7.52257 54.4139 5.97329 55.9551 4.88877 57.8551C3.80426 59.7551 3.22644 61.9403 3.21875 64.171V71.1085C3.21875 71.5685 3.38831 72.0096 3.69012 72.3349C3.99194 72.6601 4.40129 72.8429 4.82812 72.8429H12.875C15.3094 79.129 19.037 84.7371 23.7765 89.2438C28.516 93.7505 34.1436 97.0381 40.2344 98.8585V105.796C40.2344 106.256 40.4039 106.697 40.7057 107.022C41.0076 107.348 41.4169 107.53 41.8438 107.53H61.1562C61.5831 107.53 61.9924 107.348 62.2943 107.022C62.5961 106.697 62.7656 106.256 62.7656 105.796V98.8585C68.8564 97.0381 74.484 93.7505 79.2235 89.2438C83.963 84.7371 87.6906 79.129 90.125 72.8429H98.1719C98.5987 72.8429 99.0081 72.6601 99.3099 72.3349C99.6117 72.0096 99.7812 71.5685 99.7812 71.1085V64.171C99.7796 61.9475 99.2115 59.7672 98.1387 57.8679C97.0659 55.9686 95.5298 54.4233 93.6978 53.4005ZM93.3438 46.8272C93.3438 47.8563 93.0606 48.8623 92.5301 49.7179C91.9995 50.5736 91.2455 51.2405 90.3633 51.6343C89.481 52.0281 88.5103 52.1311 87.5737 51.9304C86.6371 51.7296 85.7769 51.2341 85.1016 50.5064C84.4264 49.7787 83.9666 48.8516 83.7803 47.8423C83.594 46.833 83.6896 45.7868 84.055 44.8361C84.4204 43.8853 85.0393 43.0727 85.8333 42.501C86.6272 41.9293 87.5607 41.6241 88.5156 41.6241C89.7961 41.6241 91.0242 42.1723 91.9296 43.1481C92.8351 44.1238 93.3438 45.4473 93.3438 46.8272ZM51.5 6.9366C52.4549 6.9366 53.3884 7.24176 54.1824 7.81349C54.9763 8.38522 55.5952 9.19783 55.9606 10.1486C56.326 11.0993 56.4216 12.1455 56.2354 13.1548C56.0491 14.1641 55.5892 15.0912 54.914 15.8189C54.2388 16.5466 53.3785 17.0421 52.4419 17.2429C51.5054 17.4436 50.5346 17.3406 49.6524 16.9468C48.7701 16.553 48.0161 15.8861 47.4856 15.0304C46.955 14.1748 46.6719 13.1688 46.6719 12.1397C46.6719 10.7598 47.1805 9.43634 48.086 8.46056C48.9914 7.48479 50.2195 6.9366 51.5 6.9366ZM9.65625 46.8272C9.65625 45.7981 9.93941 44.7922 10.4699 43.9365C11.0005 43.0809 11.7545 42.414 12.6367 42.0202C13.519 41.6264 14.4897 41.5233 15.4263 41.7241C16.3629 41.9248 17.2232 42.4204 17.8984 43.1481C18.5736 43.8757 19.0334 44.8028 19.2197 45.8121C19.406 46.8215 19.3104 47.8676 18.945 48.8184C18.5796 49.7691 17.9607 50.5817 17.1667 51.1535C16.3728 51.7252 15.4393 52.0304 14.4844 52.0304C13.2039 52.0304 11.9758 51.4822 11.0704 50.5064C10.1649 49.5306 9.65625 48.2072 9.65625 46.8272ZM46.6719 81.5147C46.6719 80.4856 46.955 79.4797 47.4856 78.624C48.0161 77.7684 48.7701 77.1015 49.6524 76.7077C50.5346 76.3139 51.5054 76.2108 52.4419 76.4116C53.3785 76.6123 54.2388 77.1079 54.914 77.8356C55.5892 78.5632 56.0491 79.4903 56.2354 80.4997C56.4216 81.509 56.326 82.5551 55.9606 83.5059C55.5952 84.4566 54.9763 85.2692 54.1824 85.841C53.3884 86.4127 52.4549 86.7179 51.5 86.7179C50.2195 86.7179 48.9914 86.1697 48.086 85.1939C47.1805 84.2181 46.6719 82.8947 46.6719 81.5147ZM62.315 95.3897C61.8872 93.8146 61.1674 92.3493 60.1993 91.0823C59.2311 89.8154 58.0347 88.7732 56.6822 88.0186C57.9447 86.8733 58.8499 85.3373 59.2752 83.6189C59.7004 81.9005 59.6251 80.0828 59.0594 78.412C58.4938 76.7413 57.4651 75.2984 56.1129 74.2789C54.7607 73.2594 53.1503 72.7126 51.5 72.7126C49.8497 72.7126 48.2393 73.2594 46.8871 74.2789C45.5349 75.2984 44.5063 76.7413 43.9406 78.412C43.3749 80.0828 43.2996 81.9005 43.7248 83.6189C44.1501 85.3373 45.0553 86.8733 46.3178 88.0186C44.9653 88.7732 43.7689 89.8154 42.8007 91.0823C41.8326 92.3493 41.1128 93.8146 40.685 95.3897C35.3723 93.7263 30.4531 90.8524 26.2604 86.9625C22.0678 83.0726 18.6995 78.2574 16.3834 72.8429H24.1406C24.5675 72.8429 24.9768 72.6601 25.2786 72.3349C25.5804 72.0096 25.75 71.5685 25.75 71.1085V64.171C25.7484 61.9475 25.1802 59.7672 24.1075 57.8679C23.0347 55.9686 21.4985 54.4233 19.6666 53.4005C20.7887 52.3583 21.6221 51.0025 22.0749 49.4824C22.5277 47.9624 22.5824 46.3372 22.2329 44.7858C21.8834 43.2344 21.1433 41.8171 20.0942 40.6901C19.045 39.563 17.7275 38.7699 16.2869 38.3982C18.8128 32.3786 22.6294 27.0916 27.4224 22.9727C32.2153 18.8538 37.8476 16.0206 43.8555 14.7066C44.3097 16.2654 45.1632 17.6542 46.3178 18.713C44.4858 19.7358 42.9497 21.2811 41.8769 23.1804C40.8042 25.0797 40.236 27.26 40.2344 29.4835V36.421C40.2344 36.881 40.4039 37.3221 40.7057 37.6474C41.0076 37.9726 41.4169 38.1554 41.8438 38.1554H61.1562C61.5831 38.1554 61.9924 37.9726 62.2943 37.6474C62.5961 37.3221 62.7656 36.881 62.7656 36.421V29.4835C62.764 27.26 62.1959 25.0797 61.1231 23.1804C60.0503 21.2811 58.5142 19.7358 56.6822 18.713C57.8368 17.6542 58.6903 16.2654 59.1445 14.7066C65.1509 16.0246 70.7815 18.8592 75.5739 22.9777C80.3664 27.0962 84.1839 32.381 86.7131 38.3982C85.2725 38.7699 83.955 39.563 82.9058 40.6901C81.8567 41.8171 81.1166 43.2344 80.7671 44.7858C80.4176 46.3372 80.4723 47.9624 80.9251 49.4824C81.3779 51.0025 82.2113 52.3583 83.3334 53.4005C81.5015 54.4233 79.9653 55.9686 78.8925 57.8679C77.8198 59.7672 77.2516 61.9475 77.25 64.171V71.1085C77.25 71.5685 77.4196 72.0096 77.7214 72.3349C78.0232 72.6601 78.4325 72.8429 78.8594 72.8429H86.6166C84.3005 78.2574 80.9322 83.0726 76.7396 86.9625C72.5469 90.8524 67.6277 93.7263 62.315 95.3897Z" fill="white"/>
</svg>
