<?xml version="1.0" encoding="UTF-8"?>
<svg version="1.1" xmlns="http://www.w3.org/2000/svg" width="3240" height="1350">
<path d="M0 0 C7.98589989 7.03259286 13.09292037 16.14552524 13.99609375 26.7578125 C14.65609375 26.7578125 15.31609375 26.7578125 15.99609375 26.7578125 C15.99609375 27.4178125 15.99609375 28.0778125 15.99609375 28.7578125 C16.63933594 28.7671582 17.28257812 28.77650391 17.9453125 28.78613281 C49.3966437 29.35817914 49.3966437 29.35817914 58.99609375 35.7578125 C62.90049349 35.37721555 66.21996225 33.90302867 69.80859375 32.3828125 C90.19339851 24.53375263 111.57848763 25.92857394 132.92578125 28.25 C138.86654787 28.8824858 144.81465323 29.17323779 150.7824707 29.41577148 C154.93009962 29.59586409 158.90669998 29.97363398 162.99609375 30.7578125 C162.99609375 30.0978125 162.99609375 29.4378125 162.99609375 28.7578125 C163.65609375 28.7578125 164.31609375 28.7578125 164.99609375 28.7578125 C165.10953125 28.03207031 165.22296875 27.30632813 165.33984375 26.55859375 C167.59029846 16.95397453 174.97202034 9.63537699 183.03515625 4.4453125 C191.57515829 -0.1819396 200.71142858 -0.63088984 210.24609375 -0.6171875 C211.90282104 -0.61585815 211.90282104 -0.61585815 213.59301758 -0.61450195 C224.35313028 -0.45830549 232.4054176 1.85715953 241.99609375 6.7578125 C242.45757813 6.23832031 242.9190625 5.71882812 243.39453125 5.18359375 C250.89770483 -2.83857405 259.71176936 -7.63696638 270.80322266 -8.44726562 C273.9742506 -8.54656607 277.13608733 -8.56419171 280.30859375 -8.5546875 C281.37271484 -8.57080078 282.43683594 -8.58691406 283.53320312 -8.60351562 C295.57599473 -8.61086327 307.18225334 -5.96357964 316.18359375 2.3828125 C321.43087233 7.90898187 324.7278859 14.24201229 325.99609375 21.7578125 C326.65609375 21.7578125 327.31609375 21.7578125 327.99609375 21.7578125 C327.99609375 22.4178125 327.99609375 23.0778125 327.99609375 23.7578125 C328.65609375 23.7578125 329.31609375 23.7578125 329.99609375 23.7578125 C329.99609375 24.4178125 329.99609375 25.0778125 329.99609375 25.7578125 C330.59969727 25.82774414 331.20330078 25.89767578 331.82519531 25.96972656 C368.16608629 30.27853979 368.16608629 30.27853979 379.12109375 42.0390625 C380.80544108 43.97598847 380.80544108 43.97598847 382.89453125 43.73828125 C385.67214508 42.44240565 388.08402459 40.79119274 390.62109375 39.0703125 C395.88061038 35.6796907 401.18439986 33.3448342 407.12109375 31.3828125 C407.83604004 31.14473877 408.55098633 30.90666504 409.28759766 30.66137695 C419.70231616 27.38774122 429.79163357 26.39400898 440.68359375 26.4453125 C442.53416382 26.45268433 442.53416382 26.45268433 444.42211914 26.46020508 C459.01257785 26.64720077 473.57751773 28.54082616 486.37890625 36.1796875 C488.68309105 37.51760126 490.3521517 38.37751947 492.99609375 38.7578125 C496.10047814 37.60736417 498.80957465 36.05354897 501.69140625 34.42578125 C513.98380527 28.22146165 529.92202515 28.98477685 543.3359375 28.1875 C547.10592101 27.96277118 550.83917513 27.69091679 554.5859375 27.21875 C578.78053012 24.3414344 604.01117728 26.77694397 623.99609375 41.7578125 C632.78880618 49.06181172 638.04665363 58.63020332 642.99609375 68.7578125 C643.15464844 67.46488281 643.31320312 66.17195312 643.4765625 64.83984375 C644.82191181 54.55193672 646.51061063 45.21716946 650.99609375 35.7578125 C651.41503906 34.8296875 651.83398438 33.9015625 652.265625 32.9453125 C656.1924399 24.978518 661.79247756 18.98895953 667.99609375 12.7578125 C668.83914063 11.86255859 668.83914063 11.86255859 669.69921875 10.94921875 C684.11942973 -3.05356507 707.85417016 -7.33843567 727.1484375 -7.27734375 C746.61802895 -6.86302113 766.46067627 -3.13820204 781.8125 9.6328125 C783.97403892 11.04907082 783.97403892 11.04907082 786.45703125 10.15234375 C789.09522354 8.70336737 791.56983299 7.13827042 794.05859375 5.4453125 C815.54601555 -8.40917796 844.68246205 -10.70724344 869.49609375 -6.0546875 C871.67720234 -5.50493563 873.84583548 -4.90237777 875.99609375 -4.2421875 C877.17558594 -3.89027344 878.35507813 -3.53835938 879.5703125 -3.17578125 C889.22059248 -0.01466251 897.96070064 4.5332122 905.99609375 10.7578125 C909.03218531 9.30706924 911.91858043 7.64800931 914.81640625 5.94018555 C939.16227344 -8.32414762 966.52210669 -10.04435279 993.68359375 -3.5546875 C1001.3410651 -1.38670683 1008.02521194 1.97920367 1014.99609375 5.7578125 C1016.32637507 6.43054857 1017.65823438 7.10027578 1018.99609375 7.7578125 C1019.46917969 7.37109375 1019.94226562 6.984375 1020.4296875 6.5859375 C1037.67591386 -6.99588599 1060.06582242 -6.4602389 1081.05859375 -6.4296875 C1081.82689514 -6.42908325 1082.59519653 -6.428479 1083.38677979 -6.42785645 C1127.22438719 -6.33441765 1127.22438719 -6.33441765 1143.55859375 8.0078125 C1144.99609375 9.7578125 1144.99609375 9.7578125 1144.99609375 11.7578125 C1145.65609375 11.7578125 1146.31609375 11.7578125 1146.99609375 11.7578125 C1147.81214374 13.6729704 1148.62380007 15.59000084 1149.43359375 17.5078125 C1149.88605469 18.57515625 1150.33851562 19.6425 1150.8046875 20.7421875 C1153.33803141 27.1544547 1153.17963564 33.0432 1153.18359375 39.8828125 C1153.19583984 40.97335937 1153.20808594 42.06390625 1153.22070312 43.1875 C1153.23289693 49.98351386 1152.52464552 56.14877834 1150.99609375 62.7578125 C1149.55939093 71.15428061 1152.14700175 76.92256293 1155.85327148 84.26318359 C1165.83486741 104.13774861 1167.78341481 130.52567995 1160.99609375 151.7578125 C1160.69445313 152.72203125 1160.3928125 153.68625 1160.08203125 154.6796875 C1153.30883602 174.6138068 1140.65405822 189.38760873 1121.79736328 198.89404297 C1097.99713818 210.30705414 1067.96562885 211.49480195 1043.08813477 202.80737305 C1041.36619745 202.17679481 1039.65707899 201.51151526 1037.94921875 200.84375 C1032.8756295 198.89277661 1032.8756295 198.89277661 1027.63671875 199.46484375 C1026.8478125 199.82964844 1026.05890625 200.19445312 1025.24609375 200.5703125 C1012.48061188 206.05474175 999.00670827 205.92796038 985.34375 205.9609375 C984.54702818 205.96376488 983.75030636 205.96659225 982.92944145 205.96950531 C978.70710809 205.98443286 974.48480828 205.99370106 970.26245117 205.99804688 C965.95632921 206.00350073 961.65052833 206.02748167 957.34450626 206.05601883 C953.98535847 206.07488003 950.62628414 206.07986324 947.26708794 206.08138275 C945.68265479 206.08436075 944.09822134 206.09221888 942.51384163 206.10556793 C926.48046611 206.23094119 911.02270865 204.76173881 896.4921875 197.5078125 C894.06420785 196.50836244 894.06420785 196.50836244 891.98828125 197.48046875 C891.28960938 197.92261719 890.5909375 198.36476563 889.87109375 198.8203125 C884.86362848 201.57291013 879.86851737 203.08434401 874.37109375 204.5078125 C873.57171387 204.71801025 872.77233398 204.92820801 871.94873047 205.14477539 C850.65860254 210.51891847 822.28517165 210.33766222 802.61328125 199.4375 C800.35410869 198.18590266 798.53417488 197.25458994 795.99609375 196.7578125 C793.32574558 197.62994641 791.15237178 198.87593254 788.73828125 200.30859375 C779.55887661 205.15981757 767.73532605 205.86338539 757.50463867 205.91894531 C756.80247223 205.92391022 756.10030579 205.92887512 755.37686157 205.93399048 C753.07675146 205.9484707 750.77671053 205.955394 748.4765625 205.9609375 C747.68017176 205.96376488 746.88378101 205.96659225 746.06325722 205.96950531 C741.83977561 205.98444842 737.61632766 205.99370586 733.39282227 205.99804688 C729.93958878 206.00241478 726.4866075 206.01624715 723.03344727 206.0390625 C674.730947 206.35199105 674.730947 206.35199105 661.99609375 198.7578125 C660.98546875 198.2009375 659.97484375 197.6440625 658.93359375 197.0703125 C653.41605697 192.72671972 647.87795032 188.00437297 646.99609375 180.7578125 C646.33609375 180.7578125 645.67609375 180.7578125 644.99609375 180.7578125 C644.33609375 182.7378125 643.67609375 184.7178125 642.99609375 186.7578125 C642.33609375 186.7578125 641.67609375 186.7578125 640.99609375 186.7578125 C640.76921875 187.3146875 640.54234375 187.8715625 640.30859375 188.4453125 C635.93020497 196.15961655 627.89677734 200.0993971 619.68359375 202.5703125 C603.87697853 206.07394441 585.86976277 204.81535629 571.55859375 196.9453125 C567.52019766 194.76767988 564.7860656 194.21645398 560.26171875 195.0390625 C557.74978443 195.83595201 555.57497016 196.90076175 553.24609375 198.1328125 C537.85054127 206.26675677 519.80313639 205.30327856 503.4140625 201.0234375 C499.99609375 199.7578125 499.99609375 199.7578125 496.796875 197.5546875 C494.27175084 195.55836987 494.27175084 195.55836987 492.01171875 195.83203125 C491.3465625 196.13753906 490.68140625 196.44304687 489.99609375 196.7578125 C488.56523437 197.38623047 488.56523437 197.38623047 487.10546875 198.02734375 C485.996875 198.53652344 484.88828125 199.04570313 483.74609375 199.5703125 C459.2330754 210.43411084 429.39371939 211.24726113 404.30859375 201.7578125 C397.99767762 199.28466972 397.99767762 199.28466972 395.19018555 197.80786133 C391.98649532 196.18523576 390.52077318 195.58938832 387.0390625 196.70703125 C386.09675781 197.28066406 385.15445313 197.85429688 384.18359375 198.4453125 C370.60781977 205.8760867 352.84189454 205.75281245 338.01953125 201.828125 C334.60295355 200.61863884 331.43482006 199.10738608 328.18359375 197.5078125 C322.37971685 194.66655665 322.37971685 194.66655665 316.14453125 194.93359375 C312.05910891 196.50091032 308.14483027 198.44628385 304.1953125 200.32421875 C292.16401886 205.71553104 277.29441952 204.52817007 264.43359375 203.1328125 C260.66120058 202.74250353 257.58580959 202.90265207 253.88671875 203.71484375 C247.98895011 204.857019 242.30518474 205.10399299 236.30859375 205.0703125 C235.26276123 205.06539795 234.21692871 205.0604834 233.1394043 205.05541992 C219.20065683 204.84638695 204.28895372 202.86970844 192.3828125 195.0390625 C190.13949403 193.55771033 190.13949403 193.55771033 187.9140625 193.921875 C185.86307271 194.81578909 184.14826633 195.86008304 182.30859375 197.1328125 C167.38864945 206.56308695 146.5870509 205.1452869 129.5625 206.29296875 C125.39181057 206.57654645 121.23184572 206.90921084 117.0703125 207.3046875 C101.29064739 208.77707318 81.13868716 208.68341925 66.9140625 200.5703125 C63.09429167 198.95216111 58.76995854 201.11716714 54.97265625 202.29296875 C48.73095909 204.00750257 42.81729454 204.25296653 36.37109375 204.1953125 C35.23534912 204.19208984 34.09960449 204.18886719 32.92944336 204.18554688 C24.72347545 204.05063195 17.40628237 202.80983683 9.52734375 200.6640625 C1.32700863 198.55955172 -5.45998696 199.79592279 -13.50390625 201.7578125 C-28.65723292 205.40698747 -43.2305801 204.80606909 -58.00390625 199.7578125 C-58.98746094 199.15324219 -59.97101562 198.54867187 -60.984375 197.92578125 C-64.074997 196.36903302 -64.074997 196.36903302 -67.59765625 197.890625 C-68.90911577 198.53597293 -70.21093222 199.20118344 -71.50390625 199.8828125 C-94.71013578 211.09269264 -122.99233398 210.1945913 -147.12890625 202.3203125 C-151.04728414 200.95324323 -154.6532992 199.55375292 -158.19140625 197.3828125 C-160.75336791 195.51594964 -160.75336791 195.51594964 -162.9609375 196.0390625 C-165.30999264 196.8069875 -165.30999264 196.8069875 -168.50390625 198.6328125 C-179.88663627 204.35964778 -192.60139219 204.58089622 -205.06640625 205.3828125 C-206.8457725 205.50419562 -208.62507037 205.62658544 -210.40429688 205.75 C-212.97979175 205.92855529 -215.55530484 206.1062725 -218.13119507 206.27903748 C-222.53649437 206.57591382 -226.93234065 206.91311772 -231.328125 207.33203125 C-251.01460073 209.2027352 -271.13441218 206.82983261 -288.3828125 196.734375 C-290.97163326 195.47831107 -290.97163326 195.47831107 -293.578125 196.46875 C-294.37863281 196.89414062 -295.17914062 197.31953125 -296.00390625 197.7578125 C-296.7103125 198.0878125 -297.41671875 198.4178125 -298.14453125 198.7578125 C-299.5422819 199.42044985 -300.93815051 200.0870729 -302.33203125 200.7578125 C-309.73099933 203.52701693 -316.96521862 204.11810234 -324.81640625 204.0703125 C-325.78545898 204.06467285 -326.75451172 204.0590332 -327.75292969 204.05322266 C-339.97987095 203.84609064 -350.9478322 201.54301998 -360.0390625 192.80078125 C-369.00390625 182.8461883 -369.00390625 182.8461883 -369.00390625 178.7578125 C-369.66390625 178.7578125 -370.32390625 178.7578125 -371.00390625 178.7578125 C-371.00390625 177.4378125 -371.00390625 176.1178125 -371.00390625 174.7578125 C-372.32390625 174.7578125 -373.64390625 174.7578125 -375.00390625 174.7578125 C-375.33390625 176.7378125 -375.66390625 178.7178125 -376.00390625 180.7578125 C-376.66390625 180.7578125 -377.32390625 180.7578125 -378.00390625 180.7578125 C-378.31328125 182.02625 -378.31328125 182.02625 -378.62890625 183.3203125 C-381.72173086 191.05237401 -387.80979019 195.85209603 -395.00390625 199.7578125 C-409.35780241 205.8451909 -429.43715209 206.22288484 -444.00390625 200.7578125 C-449.46997711 198.06624381 -454.39630571 194.7510663 -459.00390625 190.7578125 C-459.40480469 191.14453125 -459.80570313 191.53125 -460.21875 191.9296875 C-470.21047885 201.08310803 -482.1678852 203.154685 -495.37890625 203.0703125 C-496.29575195 203.06539795 -497.21259766 203.0604834 -498.15722656 203.05541992 C-510.22940708 202.84724207 -520.69421801 200.26200862 -529.94140625 192.1953125 C-531.72944143 190.08218001 -532.96528551 188.30715431 -534.00390625 185.7578125 C-534.66390625 185.7578125 -535.32390625 185.7578125 -536.00390625 185.7578125 C-539.81808837 178.76514528 -542.52725994 171.8697947 -542.00390625 163.7578125 C-542.66390625 163.7578125 -543.32390625 163.7578125 -544.00390625 163.7578125 C-544.00390625 162.7678125 -544.00390625 161.7778125 -544.00390625 160.7578125 C-544.99390625 160.7578125 -545.98390625 160.7578125 -547.00390625 160.7578125 C-547.00390625 160.0978125 -547.00390625 159.4378125 -547.00390625 158.7578125 C-550.63390625 158.7578125 -554.26390625 158.7578125 -558.00390625 158.7578125 C-558.00390625 159.4178125 -558.00390625 160.0778125 -558.00390625 160.7578125 C-559.32390625 160.7578125 -560.64390625 160.7578125 -562.00390625 160.7578125 C-562.33390625 163.3978125 -562.66390625 166.0378125 -563.00390625 168.7578125 C-563.66390625 168.7578125 -564.32390625 168.7578125 -565.00390625 168.7578125 C-565.06578125 170.0571875 -565.12765625 171.3565625 -565.19140625 172.6953125 C-566.07090955 180.57368012 -570.54148875 187.17124915 -576.00390625 192.7578125 C-589.32905572 203.37629099 -604.64962824 203.60795787 -621.00390625 202.7578125 C-629.85212574 201.71580661 -639.45367703 198.98474247 -645.52734375 192.0078125 C-646.90264275 190.55634368 -646.90264275 190.55634368 -648.73828125 190.8359375 C-651.31919077 191.88610069 -653.7705032 193.1318134 -656.23095703 194.43701172 C-682.02918098 208.09269724 -713.23600389 211.14492754 -741.39013672 203.07373047 C-764.37299036 195.97991833 -782.19368329 182.63927588 -793.75390625 161.1953125 C-796.31524981 155.79396068 -798.19233437 150.39995412 -799.75390625 144.6328125 C-800.03379395 143.60692017 -800.03379395 143.60692017 -800.31933594 142.56030273 C-800.96348598 139.97242704 -801.48757919 137.3743715 -802.00390625 134.7578125 C-802.39993042 132.92089844 -802.39993042 132.92089844 -802.80395508 131.046875 C-806.15465436 113.78562247 -805.3473096 96.11544361 -805.2098999 78.61737061 C-805.17877468 74.22542701 -805.16541746 69.8334292 -805.15039062 65.44140625 C-805.11856782 56.88006251 -805.06761658 48.31897818 -805.00390625 39.7578125 C-804.34390625 39.7578125 -803.68390625 39.7578125 -803.00390625 39.7578125 C-803.00390625 36.4578125 -803.00390625 33.1578125 -803.00390625 29.7578125 C-802.34390625 29.7578125 -801.68390625 29.7578125 -801.00390625 29.7578125 C-800.94203125 28.4790625 -800.88015625 27.2003125 -800.81640625 25.8828125 C-799.80995626 17.21918215 -795.55399758 10.39560951 -789.2421875 4.51171875 C-776.80619351 -5.23306537 -760.42784117 -6.27025749 -745.25390625 -4.6171875 C-734.80719608 -2.9549607 -725.06059736 0.51808788 -718.00390625 8.7578125 C-718.00390625 9.4178125 -718.00390625 10.0778125 -718.00390625 10.7578125 C-717.34390625 10.7578125 -716.68390625 10.7578125 -716.00390625 10.7578125 C-712.00390625 16.16957721 -712.00390625 16.16957721 -712.00390625 18.7578125 C-711.34390625 18.7578125 -710.68390625 18.7578125 -710.00390625 18.7578125 C-710.00390625 19.4178125 -710.00390625 20.0778125 -710.00390625 20.7578125 C-709.34390625 20.7578125 -708.68390625 20.7578125 -708.00390625 20.7578125 C-708.00390625 20.0978125 -708.00390625 19.4378125 -708.00390625 18.7578125 C-707.34390625 18.7578125 -706.68390625 18.7578125 -706.00390625 18.7578125 C-705.62878906 17.67306641 -705.62878906 17.67306641 -705.24609375 16.56640625 C-700.96977606 6.89762507 -692.50286096 1.50221373 -683.00390625 -2.2421875 C-670.19313393 -6.72595781 -653.53466185 -6.43436134 -640.75 -2.15234375 C-636.8615514 -0.86356918 -634.02807685 -1.69970554 -630.13916016 -2.74194336 C-623.79791643 -4.33796336 -617.71158282 -4.59016236 -611.19140625 -4.5546875 C-609.5969165 -4.54731567 -609.5969165 -4.54731567 -607.97021484 -4.53979492 C-600.6339823 -4.4300048 -593.89469738 -3.95241904 -587.00390625 -1.2421875 C-586.153125 -0.91347656 -585.30234375 -0.58476563 -584.42578125 -0.24609375 C-576.23465502 3.38463551 -569.96949846 9.30588328 -564.140625 16.0078125 C-563.65907959 16.55687256 -563.17753418 17.10593262 -562.68139648 17.67163086 C-561.74850734 18.74907235 -560.83171954 19.84072575 -559.93383789 20.94750977 C-557.82599436 23.40260266 -556.28015888 24.67584743 -553.16015625 25.6015625 C-548.10298825 24.2496463 -545.59005179 20.5703309 -542.25390625 16.6953125 C-531.69303725 5.00017249 -520.79157352 -3.38645491 -504.40771484 -4.40332031 C-501.39799956 -4.44918874 -498.38894154 -4.47745049 -495.37890625 -4.4921875 C-494.34894531 -4.5128125 -493.31898438 -4.5334375 -492.2578125 -4.5546875 C-478.44680244 -4.62417686 -467.06936606 -0.67855607 -457.00390625 8.7578125 C-456.38515625 8.0359375 -455.76640625 7.3140625 -455.12890625 6.5703125 C-446.22091013 -2.14027651 -432.51143423 -4.20063676 -420.50390625 -4.6171875 C-406.12756951 -4.11846089 -392.71377321 -1.01167159 -382.6328125 9.76171875 C-380.18063922 12.76666011 -378.00390625 15.78207491 -378.00390625 19.7578125 C-377.34390625 19.7578125 -376.68390625 19.7578125 -376.00390625 19.7578125 C-375.67390625 21.4078125 -375.34390625 23.0578125 -375.00390625 24.7578125 C-373.68390625 24.7578125 -372.36390625 24.7578125 -371.00390625 24.7578125 C-371.00390625 23.7678125 -371.00390625 22.7778125 -371.00390625 21.7578125 C-370.34390625 21.7578125 -369.68390625 21.7578125 -369.00390625 21.7578125 C-368.74609375 20.8709375 -368.48828125 19.9840625 -368.22265625 19.0703125 C-365.24216738 10.96949658 -359.13688773 5.00956049 -351.6484375 0.9375 C-344.81007112 -2.11299726 -337.46835156 -3.77565967 -330.00390625 -4.2421875 C-329.22015625 -4.29503906 -328.43640625 -4.34789062 -327.62890625 -4.40234375 C-313.77072436 -4.87665652 -299.31410232 -2.17093399 -288.75390625 7.2578125 C-283.54338765 12.82840759 -279.20206904 20.4477718 -278.84765625 28.15625 C-278.89921875 29.01476562 -278.95078125 29.87328125 -279.00390625 30.7578125 C-273.89501339 30.18082131 -269.02287802 29.33448701 -264.00390625 28.1953125 C-247.93774751 24.95343611 -231.19510088 26.49140595 -215.03125 28.2578125 C-210.10861331 28.7826909 -205.19877621 29.00399914 -200.25390625 29.1953125 C-187.49843684 29.77209308 -175.12679324 30.99159241 -164.00390625 37.7578125 C-163.34390625 38.0878125 -162.68390625 38.4178125 -162.00390625 38.7578125 C-159.72246182 37.75760309 -157.53247322 36.70024719 -155.31640625 35.5703125 C-133.48653116 24.88279719 -106.34423074 23.21030868 -83.00390625 29.7578125 C-81.67109031 30.09320862 -80.33799074 30.42749831 -79.00390625 30.7578125 C-78.96523437 29.84902344 -78.96523437 29.84902344 -78.92578125 28.921875 C-78.14106844 17.32952673 -73.82204279 7.7486996 -65.0078125 0.00390625 C-47.58622368 -12.75061474 -17.42780583 -12.7270949 0 0 Z M648.99609375 97.7578125 C649.14949219 98.82 649.30289063 99.8821875 649.4609375 100.9765625 C650.17871518 106.71878392 650.34775645 112.47879665 650.55859375 118.2578125 C650.60177734 119.36640625 650.64496094 120.475 650.68945312 121.6171875 C650.79471589 124.33062756 650.89685221 127.04414667 650.99609375 129.7578125 C651.60066406 128.99210937 652.20523438 128.22640625 652.828125 127.4375 C654.37490432 125.52562502 656.004228 123.6793433 657.68359375 121.8828125 C660.43848479 118.15998677 661.31606465 116.39739061 660.99609375 111.7578125 C659.46139545 109.50604719 657.75477184 107.64020144 655.8515625 105.69140625 C654.18397379 103.95360328 652.90430607 102.28519256 651.62109375 100.2578125 C650.81671875 99.0203125 650.81671875 99.0203125 649.99609375 97.7578125 C649.66609375 97.7578125 649.33609375 97.7578125 648.99609375 97.7578125 Z " fill="#000000" transform="translate(1997.00390625,619.2421875)"/>
<path d="M0 0 C0 0.66 0 1.32 0 2 C0.66 2 1.32 2 2 2 C2 2.66 2 3.32 2 4 C2.66 4 3.32 4 4 4 C4 4.66 4 5.32 4 6 C4.5775 6.2475 5.155 6.495 5.75 6.75 C8.32939979 8.18299988 10.06121592 9.78424676 12 12 C12 12.66 12 13.32 12 14 C12.66 14 13.32 14 14 14 C14 14.66 14 15.32 14 16 C14.66 16 15.32 16 16 16 C16 16.66 16 17.32 16 18 C16.86519257 18.41747498 16.86519257 18.41747498 17.74786377 18.84338379 C33.80652748 27.09053621 52.4813314 41.64377598 59 59 C65.81588867 84.61076261 61.39878459 114.94419788 59 141 C59.61941467 140.72348602 60.23882935 140.44697205 60.87701416 140.16207886 C61.68878113 139.80034576 62.5005481 139.43861267 63.33691406 139.06591797 C64.54447357 138.527397 64.54447357 138.527397 65.77642822 137.97799683 C68.0796803 136.9649541 70.40052913 136.02534468 72.75 135.125 C76.87432233 133.48434977 80.94615684 131.74565692 85 129.9375 C86.093125 129.45152344 87.18625 128.96554687 88.3125 128.46484375 C92.20903833 126.34100382 93.22904905 123.67270247 94.5 119.625 C95.54904511 116.35600589 96.72482987 113.18792533 98 110 C98.34061422 108.66850804 98.67294077 107.33488619 99 106 C99.41472359 104.45205081 99.85295502 102.91023965 100.3125 101.375 C100.53550781 100.59898437 100.75851562 99.82296875 100.98828125 99.0234375 C102.26416962 96.47166076 103.33096972 95.90817665 106 95 C108.75 95.375 108.75 95.375 111 96 C111 96.66 111 97.32 111 98 C111.66 98 112.32 98 113 98 C114 101 115 104 116 107 C115.67 107.66 115.34 108.32 115 109 C115.66 109 116.32 109 117 109 C117.32613281 109.95261719 117.65226563 110.90523437 117.98828125 111.88671875 C118.42939503 113.15374769 118.87081771 114.42066913 119.3125 115.6875 C119.95638672 117.54955078 119.95638672 117.54955078 120.61328125 119.44921875 C122.8395586 125.55290745 122.8395586 125.55290745 127.75 129.40625 C128.8225 129.7671875 129.895 130.128125 131 130.5 C136.26292997 132.36371017 141.31037949 134.42710515 146.3671875 136.7890625 C149.55259067 138.25415891 152.77562706 139.62311581 156 141 C155.99815641 140.45039423 155.99631283 139.90078846 155.99441338 139.33452797 C155.95028135 125.97317398 155.91729394 112.61183273 155.89637566 99.25042152 C155.88592088 92.78899045 155.87173085 86.32761182 155.84912109 79.86621094 C155.82745303 73.63521176 155.81544415 67.40426315 155.81024551 61.17322922 C155.80653888 58.79128599 155.79930118 56.40934566 155.78853989 54.02742386 C155.77410522 50.70132631 155.77201869 47.37544003 155.77294922 44.04931641 C155.76575867 43.05597794 155.75856812 42.06263947 155.75115967 41.03919983 C155.753909 40.13613602 155.75665833 39.2330722 155.75949097 38.30264282 C155.75764738 37.51543161 155.75580379 36.72822041 155.75390434 35.91715431 C156 34 156 34 158 32 C160.86001587 31.75949097 160.86001587 31.75949097 164.56103516 31.77294922 C165.23432358 31.77265717 165.907612 31.77236511 166.6013031 31.77206421 C168.83068654 31.77345953 171.05973732 31.78902984 173.2890625 31.8046875 C174.83319923 31.80841692 176.37733833 31.81126423 177.92147827 31.81326294 C181.98875443 31.82090501 186.05588811 31.84055832 190.12310791 31.8626709 C194.2721565 31.88311704 198.42122807 31.89226201 202.5703125 31.90234375 C210.71360711 31.92380375 218.85678584 31.95794651 227 32 C228.18407609 34.36815217 228.12531313 35.78423939 228.12584114 38.42596436 C228.12975276 39.83041243 228.12975276 39.83041243 228.13374341 41.26323318 C228.13039732 42.81660952 228.13039732 42.81660952 228.12698364 44.40136719 C228.12854363 45.49605694 228.13010362 46.59074669 228.13171089 47.71860886 C228.13572091 51.41137766 228.13253122 55.10410584 228.12939453 58.796875 C228.13074857 61.43428672 228.13249215 64.07169558 228.13470459 66.70910645 C228.13916028 73.14381114 228.13818671 79.57850419 228.13529195 86.01320934 C228.13303713 91.24102563 228.13272574 96.46883864 228.13381577 101.69665527 C228.133969 102.43960366 228.13412223 103.18255205 228.13428011 103.94801402 C228.13459982 105.45711549 228.13492403 106.96621696 228.1352527 108.47531843 C228.1381069 122.6391126 228.1348214 136.8029003 228.12945233 150.9666934 C228.12498435 163.13014259 228.1257603 175.29358223 228.13037109 187.45703125 C228.1357179 201.56879966 228.13783222 215.68056241 228.13475883 229.7923317 C228.13444027 231.29600271 228.1341259 232.79967372 228.13381577 234.30334473 C228.13366149 235.04325488 228.13350721 235.78316503 228.13334826 236.5454967 C228.13248343 241.76938688 228.13394527 246.99327347 228.13629532 252.21716309 C228.1390947 258.57995587 228.13835213 264.94273632 228.13301457 271.30552769 C228.13037943 274.55432498 228.12990416 277.80309731 228.13266373 281.05189514 C228.13537563 284.56749526 228.13199355 288.0830365 228.12698364 291.59863281 C228.12921436 292.63421703 228.13144509 293.66980125 228.13374341 294.73676682 C228.13113566 295.67306553 228.12852791 296.60936424 228.12584114 297.57403564 C228.12567879 298.38631245 228.12551644 299.19858925 228.12534916 300.0354805 C228 302 228 302 227 304 C218.03807605 304.0462815 209.07619305 304.0818478 200.1141758 304.10362434 C195.95302747 304.11407446 191.79196074 304.12825592 187.63085938 304.15087891 C183.61733571 304.17256371 179.60389067 304.18455937 175.59031296 304.18975449 C174.05685564 304.19345811 172.52340276 304.20069011 170.98997879 304.21146011 C168.84690199 304.22591729 166.70415264 304.2279804 164.56103516 304.22705078 C163.33969879 304.231492 162.11836243 304.23593323 160.86001587 304.24050903 C158 304 158 304 156 302 C155.73828697 299.38006401 155.73828697 299.38006401 155.7215271 295.98898315 C155.71036362 294.70728241 155.69920013 293.42558167 155.68769836 292.1050415 C155.68533316 290.67663603 155.68315756 289.24823024 155.68115234 287.81982422 C155.67185846 286.32200577 155.6616906 284.82419253 155.65071106 283.3263855 C155.62333604 279.25226477 155.60823954 275.17817875 155.59528303 271.10399008 C155.57968519 266.84916276 155.55288438 262.5944067 155.5272522 258.33963013 C155.48040496 250.2790493 155.4436897 242.21845515 155.41057932 234.15780747 C155.37239985 224.9825592 155.32297882 215.80738239 155.27259517 206.63219428 C155.16918693 187.75484843 155.07995554 168.87745901 155 150 C154.06929687 150.47566406 153.13859375 150.95132813 152.1796875 151.44140625 C149 153 149 153 146.125 153.9375 C142.85814572 155.04823045 139.94744075 156.48350939 136.8828125 158.05078125 C133.77301026 159.61858612 130.95952028 160.89272444 127.484375 161.28125 C124.87967479 161.74284287 124.87967479 161.74284287 123.77734375 163.86328125 C123.50019531 164.67152344 123.22304688 165.47976563 122.9375 166.3125 C122.61652344 167.21613281 122.29554688 168.11976563 121.96484375 169.05078125 C121.64644531 170.02402344 121.32804688 170.99726562 121 172 C120.50693359 173.47533203 120.50693359 173.47533203 120.00390625 174.98046875 C119.334375 176.99427285 118.66640707 179.00859739 118 181.0234375 C117.03211556 183.90440604 116.05183201 186.77354917 115 189.625 C114.71125 190.42164063 114.4225 191.21828125 114.125 192.0390625 C112.74179227 194.45007042 111.58738734 195.07197023 109 196 C106.34185266 195.83890016 105.32137784 195.32137784 103.4375 193.4375 C100.85818285 189.06387526 99.37215214 184.389368 98.0625 179.5 C97.00552635 176.01820444 95.62274586 173.08214422 93.90234375 169.89453125 C93 168 93 168 92.55078125 165.89453125 C91.59710833 162.61416693 88.83531918 161.63576107 86 160 C82.86433419 158.51926892 79.63298176 157.59368969 76.3125 156.625 C71.72465205 155.28171119 67.3444129 153.60679913 62.93359375 151.76953125 C61.19199568 150.93837133 61.19199568 150.93837133 60 151 C59.98786972 152.70342056 59.98786972 152.70342056 59.97549438 154.44125366 C59.89813006 165.12465336 59.81041569 175.80792417 59.71247292 186.49115562 C59.66245044 191.98398674 59.61612107 197.47679805 59.578125 202.96972656 C59.54134721 208.26714611 59.49500806 213.56440239 59.44193649 218.86168289 C59.42335251 220.88632987 59.40825949 222.91101189 59.39665604 224.93571091 C59.37986187 227.76378988 59.35084394 230.59149162 59.31884766 233.41943359 C59.31560738 234.68502357 59.31560738 234.68502357 59.31230164 235.97618103 C59.22810432 241.77189568 59.22810432 241.77189568 57 244 C54.15344238 244.25396729 54.15344238 244.25396729 50.47070312 244.25878906 C49.46558937 244.26404602 49.46558937 244.26404602 48.44017029 244.26940918 C46.22042548 244.27822732 44.00099817 244.27237724 41.78125 244.265625 C40.24190204 244.26697163 38.7025545 244.26891215 37.16320801 244.27142334 C33.93509883 244.27437471 30.70710024 244.27007661 27.47900391 244.26074219 C23.33594206 244.24934757 19.19313931 244.25590699 15.05008698 244.26788712 C11.87085 244.27510542 8.69167472 244.27281794 5.51243591 244.26763153 C3.98457305 244.26629495 2.45670464 244.26794306 0.92884827 244.27259064 C-1.20448699 244.27765547 -3.33739945 244.26994669 -5.47070312 244.25878906 C-6.68600708 244.25719788 -7.90131104 244.25560669 -9.15344238 244.25396729 C-12 244 -12 244 -14 242 C-14.24609566 238.98962975 -14.24609566 238.98962975 -14.24050903 235.03988647 C-14.24221788 234.31538886 -14.24392673 233.59089124 -14.24568737 232.84443915 C-14.24899489 230.40449452 -14.23795802 227.96482185 -14.22705078 225.52490234 C-14.22648694 223.78078722 -14.2268027 222.03667161 -14.22793579 220.29255676 C-14.22851136 215.5469175 -14.21672412 210.80137863 -14.20278788 206.05576277 C-14.19031443 201.10030083 -14.1891127 196.14483678 -14.18673706 191.18936157 C-14.18051231 181.80063296 -14.16408806 172.41195074 -14.14403808 163.02324259 C-14.12170999 152.3365862 -14.11069344 141.64992763 -14.10064721 130.96325374 C-14.07972268 108.97547657 -14.04452742 86.9877412 -14 65 C-14.79957626 65.00222061 -15.59915253 65.00444122 -16.42295837 65.00672913 C-23.94259639 65.02673092 -31.46222159 65.04197355 -38.98187923 65.05181217 C-42.84820118 65.05704026 -46.71450121 65.06413654 -50.58081055 65.07543945 C-54.30903401 65.086271 -58.03723634 65.0922774 -61.76547432 65.09487724 C-63.19089656 65.09673101 -64.61631759 65.10035071 -66.04173088 65.10573006 C-68.03163408 65.11294393 -70.02155834 65.11340808 -72.01147461 65.11352539 C-73.14620712 65.115746 -74.28093964 65.11796661 -75.45005798 65.12025452 C-78 65 -78 65 -79 64 C-82.09112483 52.18503398 -82.78240598 39.13897709 -76.49804688 28.29736328 C-57.19643071 -1.27170125 -32.95425992 -4.6654932 0 0 Z M57 59 C57 86.72 57 114.44 57 143 C57.33 143 57.66 143 58 143 C58 115.28 58 87.56 58 59 C57.67 59 57.34 59 57 59 Z M57 144 C58 147 58 147 58 147 Z " fill="#D0E9FB" transform="translate(656,519)"/>
<path d="M0 0 C0.67007584 -0.00350464 1.34015167 -0.00700928 2.03053284 -0.01062012 C4.25027765 -0.01943826 6.46970495 -0.01358818 8.68945312 -0.00683594 C10.22880108 -0.00818257 11.76814862 -0.01012308 13.30749512 -0.01263428 C16.53560429 -0.01558565 19.76360288 -0.01128755 22.99169922 -0.00195312 C27.13476107 0.00944149 31.27756381 0.00288208 35.42061615 -0.00909805 C38.59985312 -0.01631635 41.77902841 -0.01402888 44.95826721 -0.00884247 C46.48613007 -0.00750588 48.01399848 -0.009154 49.54185486 -0.01380157 C51.67519012 -0.0188664 53.80810257 -0.01115763 55.94140625 0 C57.76436218 0.00238678 57.76436218 0.00238678 59.62414551 0.00482178 C62.47070312 0.25878906 62.47070312 0.25878906 64.47070312 2.25878906 C64.66382696 4.81727232 64.73122155 7.26704582 64.71121216 9.82632446 C64.71292101 10.61615892 64.71462986 11.40599337 64.71639049 12.21976221 C64.71969906 14.88081109 64.70865935 17.54161085 64.69775391 20.20263672 C64.69719009 22.10438532 64.69750578 24.00613435 64.69863892 25.90788269 C64.69921457 31.08325688 64.68742589 36.25853904 64.673491 41.43389177 C64.66101904 46.8377896 64.65981594 52.24168936 64.65744019 57.64559937 C64.65121499 67.88430933 64.63479016 78.12297678 64.61474121 88.36166799 C64.59241448 100.0156584 64.58139691 111.66965081 64.57135034 123.32365727 C64.5504248 147.30206357 64.51373564 171.28041154 64.47070312 195.25878906 C91.53070313 195.25878906 118.59070313 195.25878906 146.47070312 195.25878906 C146.45910156 185.10355469 146.4475 174.94832031 146.43554688 164.48535156 C146.43044001 158.06868464 146.42558495 151.65201919 146.421875 145.23535156 C146.41593351 135.04068501 146.40893598 124.8460267 146.39526367 114.65136719 C146.38531244 107.22778231 146.37884865 99.80420409 146.37661463 92.38061273 C146.37530827 88.44802486 146.37222712 84.51545607 146.36497307 80.5828743 C146.35820595 76.88444505 146.35608759 73.18604281 146.35759544 69.48760796 C146.35718743 67.47695955 146.35179582 65.46631411 146.34628296 63.45567322 C146.34765762 62.26652817 146.34903229 61.07738312 146.35044861 59.85220337 C146.34906592 58.29529502 146.34906592 58.29529502 146.3476553 56.70693398 C146.47070312 54.25878906 146.47070312 54.25878906 147.47070312 52.25878906 C156.30224301 52.21250668 165.13374133 52.17694081 173.9653759 52.15516472 C178.0659907 52.1447148 182.1665227 52.13053369 186.26708984 52.10791016 C190.22225893 52.08622466 194.17734824 52.07422955 198.13257217 52.06903458 C199.64370098 52.06533107 201.15482529 52.05809931 202.66592026 52.04732895 C204.77786544 52.03287084 206.88947836 52.0308087 209.00146484 52.03173828 C210.20503632 52.02729706 211.40860779 52.02285583 212.64865112 52.01828003 C215.47070312 52.25878906 215.47070312 52.25878906 217.47070312 54.25878906 C217.72238541 56.95122528 217.72238541 56.95122528 217.72467041 60.44616699 C217.72935038 61.40829015 217.72935038 61.40829015 217.7341249 62.38985014 C217.74213068 64.54872932 217.73577141 66.70732944 217.72949219 68.86621094 C217.73220091 70.41004095 217.73576117 71.95386967 217.7401123 73.49769592 C217.74925272 77.6980231 217.74568528 81.89825236 217.73935413 86.09858131 C217.73430267 90.48723242 217.7389832 94.87587495 217.74212646 99.26452637 C217.74576861 106.63551342 217.74096052 114.00646043 217.73144531 121.37744141 C217.72056028 129.90825912 217.72408568 138.43898126 217.73509812 146.96979666 C217.74416395 154.28446571 217.74545974 161.59910593 217.74022079 168.91377878 C217.73709719 173.28676833 217.73670237 177.6597129 217.74329376 182.03269958 C217.74905638 186.14322335 217.74509034 190.25362347 217.73350525 194.36413383 C217.73085283 195.87587211 217.73163362 197.38762073 217.73603058 198.89935493 C217.74146473 200.95684917 217.73467837 203.0139427 217.72467041 205.07141113 C217.72353933 206.80140728 217.72353933 206.80140728 217.72238541 208.56635284 C217.47070312 211.25878906 217.47070312 211.25878906 215.47070312 213.25878906 C212.74679436 213.43390555 210.12327027 213.49042188 207.40039062 213.45410156 C206.3418689 213.45108032 206.3418689 213.45108032 205.26196289 213.44799805 C202.62314362 213.43752542 199.98441692 213.40960282 197.34570312 213.38378906 C188.49757813 213.32191406 188.49757813 213.32191406 179.47070312 213.25878906 C179.47070312 229.75878906 179.47070312 246.25878906 179.47070312 263.25878906 C176.67306038 264.65761043 174.37635763 264.38475568 171.24536133 264.38577271 C170.27711284 264.38811269 170.27711284 264.38811269 169.28930378 264.39049995 C167.1166744 264.39450282 164.94411434 264.39132306 162.77148438 264.38818359 C161.21780354 264.38953795 159.66412302 264.39131808 158.11044312 264.39349365 C153.88328138 264.39806389 149.65614396 264.3962801 145.42898178 264.39311457 C141.01230553 264.39058886 136.59563141 264.39292909 132.17895508 264.39450073 C124.76090113 264.39632181 117.34285713 264.39391773 109.92480469 264.38916016 C101.33947992 264.38371765 92.7541789 264.38548035 84.16885471 264.39098656 C76.80748319 264.39551944 69.44611883 264.39616738 62.08474636 264.39354789 C57.68382312 264.39198609 53.28291105 264.39178873 48.88198853 264.39508438 C44.74523427 264.39796563 40.60851072 264.3959827 36.4717598 264.39019012 C34.95034461 264.38886389 33.42892685 264.38925434 31.90751266 264.39145279 C29.8369881 264.39416965 27.76656308 264.39077657 25.69604492 264.38577271 C24.53533981 264.38539568 23.3746347 264.38501865 22.17875671 264.3846302 C19.47070313 264.25878906 19.47070313 264.25878906 17.47070312 263.25878906 C17.47070312 246.42878906 17.47070312 229.59878906 17.47070312 212.25878906 C9.55070312 212.25878906 1.63070312 212.25878906 -6.52929688 212.25878906 C-9.08380811 209.70427782 -8.77180652 208.04898061 -8.79678369 204.56594276 C-8.79232224 203.76381544 -8.7878608 202.96168812 -8.78326416 202.13525391 C-8.78638414 201.2855773 -8.78950412 200.43590069 -8.79271865 199.5604763 C-8.80073291 196.69682369 -8.79436172 193.83338097 -8.78808594 190.96972656 C-8.79079428 188.9234403 -8.79435432 186.87715501 -8.79870605 184.83087158 C-8.80785099 179.26076127 -8.80427715 173.69072476 -8.79794788 168.1206131 C-8.79289875 162.30257462 -8.7975763 156.48454263 -8.80072021 150.66650391 C-8.80436304 140.89451966 -8.79955247 131.1225656 -8.79003906 121.35058594 C-8.77915392 110.03866596 -8.78267927 98.72681806 -8.79369187 87.41489983 C-8.80275575 77.71808694 -8.80405444 68.02129581 -8.79881454 58.32448006 C-8.79568987 52.52626488 -8.79529905 46.72808363 -8.80188751 40.92987061 C-8.80764728 35.4798519 -8.80368927 30.02992649 -8.792099 24.57991791 C-8.78944506 22.57473659 -8.79022992 20.56954747 -8.79462433 18.5643692 C-8.8000524 15.83691335 -8.79327921 13.10976053 -8.78326416 10.38232422 C-8.78995633 9.17913323 -8.78995633 9.17913323 -8.79678369 7.95163536 C-8.74438127 0.64417587 -7.00369216 0.00916987 0 0 Z " fill="#4C63D3" transform="translate(203.529296875,550.7412109375)"/>
<path d="M0 0 C0.94650925 -0.00412399 1.89301849 -0.00824799 2.86820984 -0.01249695 C3.90470673 -0.00171112 4.94120361 0.00907471 6.0091095 0.02018738 C7.64836647 0.01953026 7.64836647 0.01953026 9.32073975 0.01885986 C12.94075757 0.0209535 16.56031494 0.04431224 20.18025208 0.0677948 C22.68702949 0.07338869 25.19381018 0.07765977 27.70059204 0.08065796 C33.62919989 0.09095044 39.55765947 0.11460585 45.48619109 0.14470643 C52.89785381 0.18152079 60.30953698 0.19763949 67.7212677 0.21427917 C80.94335719 0.24647245 94.16530977 0.2971138 107.38728333 0.36076355 C107.38728333 1.02076355 107.38728333 1.68076355 107.38728333 2.36076355 C107.9715509 2.62050964 108.55581848 2.88025574 109.15779114 3.14787292 C111.54289497 4.44541955 113.13918969 5.85417477 115.05915833 7.76701355 C115.72302551 8.42830261 116.3868927 9.08959167 117.07087708 9.7709198 C117.75279114 10.46056824 118.4347052 11.15021667 119.13728333 11.86076355 C119.83466614 12.55041199 120.53204895 13.24006042 121.25056458 13.9506073 C121.90927551 14.61189636 122.56798645 15.27318542 123.24665833 15.95451355 C123.84961731 16.55972839 124.45257629 17.16494324 125.07380676 17.78849792 C126.38728333 19.36076355 126.38728333 19.36076355 126.38728333 21.36076355 C127.04728333 21.36076355 127.70728333 21.36076355 128.38728333 21.36076355 C128.38728333 22.02076355 128.38728333 22.68076355 128.38728333 23.36076355 C128.9697583 23.61857605 129.55223328 23.87638855 130.15235901 24.14201355 C132.57791783 25.46472045 134.19242774 26.91204809 136.14607239 28.86076355 C136.86651733 29.57490417 137.58696228 30.2890448 138.32923889 31.02482605 C139.0960498 31.79568542 139.86286072 32.5665448 140.65290833 33.36076355 C141.44630615 34.15224792 142.23970398 34.9437323 143.05714417 35.75920105 C144.73052387 37.43122092 146.40138514 39.10576452 148.06990051 40.78263855 C150.63441929 43.35788753 153.20945322 45.92227407 155.78572083 48.48576355 C157.40875859 50.11012239 159.03117613 51.73510124 160.65290833 53.36076355 C161.42781616 54.13162292 162.202724 54.9024823 163.00111389 55.69670105 C164.06286835 56.76791199 164.06286835 56.76791199 165.14607239 57.86076355 C165.7735437 58.48982605 166.40101501 59.11888855 167.04750061 59.76701355 C168.38728333 61.36076355 168.38728333 61.36076355 168.38728333 63.36076355 C169.04728333 63.36076355 169.70728333 63.36076355 170.38728333 63.36076355 C170.38728333 64.02076355 170.38728333 64.68076355 170.38728333 65.36076355 C171.04728333 65.36076355 171.70728333 65.36076355 172.38728333 65.36076355 C172.38728333 66.02076355 172.38728333 66.68076355 172.38728333 67.36076355 C173.04728333 67.36076355 173.70728333 67.36076355 174.38728333 67.36076355 C174.43394838 90.53453028 174.46924516 113.70828929 174.49090767 136.88209343 C174.50123208 147.64143822 174.51531459 158.40075387 174.53816223 169.16007996 C174.55806053 178.53496034 174.57099128 187.90981962 174.57546031 197.28472054 C174.57807375 202.25131665 174.58424049 207.21785237 174.59874344 212.18442917 C174.61227117 216.85467246 174.61651576 221.52483022 174.61349869 226.19509125 C174.61405101 227.91324197 174.618057 229.63139543 174.62569427 231.34952927 C174.63558044 233.68735493 174.63327562 236.02485362 174.62779236 238.36268616 C174.62963594 239.67347578 174.63147953 240.9842654 174.63337898 242.33477592 C174.38728333 245.36076355 174.38728333 245.36076355 172.38728333 247.36076355 C169.54072571 247.61473083 169.54072571 247.61473083 165.85798645 247.61955261 C164.8528727 247.62480957 164.8528727 247.62480957 163.82745361 247.63017273 C161.6077088 247.63899087 159.3882815 247.63314079 157.16853333 247.62638855 C155.62918537 247.62773518 154.08983783 247.6296757 152.55049133 247.63218689 C149.32238216 247.63513826 146.09438357 247.63084016 142.86628723 247.62150574 C138.72322538 247.61011112 134.58042264 247.61667054 130.4373703 247.62865067 C127.25813333 247.63586897 124.07895804 247.63358149 120.89971924 247.62839508 C119.37185638 247.6270585 117.84398797 247.62870661 116.31613159 247.63335419 C114.18279633 247.63841902 112.04988388 247.63071024 109.9165802 247.61955261 C108.70127625 247.61796143 107.48597229 247.61637024 106.23384094 247.61473083 C103.38728333 247.36076355 103.38728333 247.36076355 101.38728333 245.36076355 C101.14118767 242.38162804 101.14118767 242.38162804 101.14677429 238.47657776 C101.14506544 237.76024725 101.14335659 237.04391673 101.14159596 236.30587924 C101.13828858 233.89357253 101.14932506 231.48154093 101.16023254 229.06925964 C101.16079639 227.3448487 101.16048062 225.62043728 101.15934753 223.89602661 C101.15877198 219.20410417 101.17055902 214.51228327 101.18449545 209.8203845 C101.1969691 204.92097706 101.19817064 200.02156748 101.20054626 195.12214661 C101.20677096 185.83966565 101.22319512 176.5572316 101.24324524 167.27477133 C101.26974576 154.73472741 101.2805689 142.19467072 101.29224968 129.65460587 C101.31107504 109.88995659 101.35091412 90.12540635 101.38728333 70.36076355 C54.85728333 70.36076355 8.32728333 70.36076355 -39.61271667 70.36076355 C-39.94271667 59.14076355 -40.27271667 47.92076355 -40.61271667 36.36076355 C-39.95271667 36.36076355 -39.29271667 36.36076355 -38.61271667 36.36076355 C-38.30430847 35.56557312 -38.30430847 35.56557312 -37.9896698 34.75431824 C-36.03847284 31.36255671 -33.33727286 28.80025768 -30.58146667 26.06388855 C-29.9897467 25.47025513 -29.39802673 24.8766217 -28.78837585 24.26499939 C-27.54006086 23.01532637 -26.28922845 21.76816363 -25.03605652 20.52336121 C-23.11263671 18.61068403 -21.20015568 16.68753236 -19.28849792 14.7631073 C-18.07429528 13.55022557 -16.85947275 12.33796403 -15.64396667 11.12638855 C-15.06997131 10.54834473 -14.49597595 9.9703009 -13.90458679 9.3747406 C-9.84265101 5.36076355 -9.84265101 5.36076355 -7.61271667 5.36076355 C-7.61271667 4.70076355 -7.61271667 4.04076355 -7.61271667 3.36076355 C-5.33512969 0.34870712 -3.69522695 -0.01241398 0 0 Z " fill="#8EA3E3" transform="translate(393.6127166748047,515.6392364501953)"/>
<path d="M0 0 C0 0.66 0 1.32 0 2 C0.66 2 1.32 2 2 2 C2 2.66 2 3.32 2 4 C2.66 4 3.32 4 4 4 C4 4.66 4 5.32 4 6 C4.5775 6.2475 5.155 6.495 5.75 6.75 C8.32939979 8.18299988 10.06121592 9.78424676 12 12 C12 12.66 12 13.32 12 14 C12.66 14 13.32 14 14 14 C14 14.66 14 15.32 14 16 C14.66 16 15.32 16 16 16 C16 16.66 16 17.32 16 18 C16.57930204 18.28458761 17.15860409 18.56917522 17.75546074 18.8623867 C34.20475956 27.19948349 51.24986417 40.26437822 58 58 C65.57770004 84.68702803 61.53718995 116.24687028 60.29163289 143.57808709 C59.79971616 154.54511364 59.53514645 165.51442501 59.28553939 176.48921466 C58.76858684 199.00356779 57.97885701 221.50131536 57 244 C48.03807605 244.0462815 39.07619305 244.0818478 30.1141758 244.10362434 C25.95302747 244.11407446 21.79196074 244.12825592 17.63085938 244.15087891 C13.61733571 244.17256371 9.60389067 244.18455937 5.59031296 244.18975449 C4.05685564 244.19345811 2.52340276 244.20069011 0.98997879 244.21146011 C-1.15309801 244.22591729 -3.29584736 244.2279804 -5.43896484 244.22705078 C-7.27096939 244.23371262 -7.27096939 244.23371262 -9.13998413 244.24050903 C-12 244 -12 244 -14 242 C-14.24609566 238.98962975 -14.24609566 238.98962975 -14.24050903 235.03988647 C-14.24221788 234.31538886 -14.24392673 233.59089124 -14.24568737 232.84443915 C-14.24899489 230.40449452 -14.23795802 227.96482185 -14.22705078 225.52490234 C-14.22648694 223.78078722 -14.2268027 222.03667161 -14.22793579 220.29255676 C-14.22851136 215.5469175 -14.21672412 210.80137863 -14.20278788 206.05576277 C-14.19031443 201.10030083 -14.1891127 196.14483678 -14.18673706 191.18936157 C-14.18051231 181.80063296 -14.16408806 172.41195074 -14.14403808 163.02324259 C-14.12170999 152.3365862 -14.11069344 141.64992763 -14.10064721 130.96325374 C-14.07972268 108.97547657 -14.04452742 86.9877412 -14 65 C-14.79957626 65.00222061 -15.59915253 65.00444122 -16.42295837 65.00672913 C-23.94259639 65.02673092 -31.46222159 65.04197355 -38.98187923 65.05181217 C-42.84820118 65.05704026 -46.71450121 65.06413654 -50.58081055 65.07543945 C-54.30903401 65.086271 -58.03723634 65.0922774 -61.76547432 65.09487724 C-63.19089656 65.09673101 -64.61631759 65.10035071 -66.04173088 65.10573006 C-68.03163408 65.11294393 -70.02155834 65.11340808 -72.01147461 65.11352539 C-73.14620712 65.115746 -74.28093964 65.11796661 -75.45005798 65.12025452 C-78 65 -78 65 -79 64 C-82.09112483 52.18503398 -82.78240598 39.13897709 -76.49804688 28.29736328 C-57.19643071 -1.27170125 -32.95425992 -4.6654932 0 0 Z " fill="#B9D2F1" transform="translate(656,519)"/>
<path d="M0 0 C14.88768911 12.63197864 21.87047829 30.99355253 23.83984375 50.078125 C25.43648936 74.50933726 22.13008545 98.46575312 6.0859375 117.84375 C-4.97115692 130.08026782 -19.14545138 134.87873397 -35.1953125 135.8046875 C-50.42666567 135.96468071 -65.15592342 131.26616042 -76.2578125 120.58984375 C-91.92715738 103.90199146 -97.55160409 82.20619568 -97.16796875 59.6484375 C-95.70025025 37.65524032 -89.90829064 16.04164804 -72.9140625 0.84375 C-51.3849959 -14.93028057 -21.8909962 -16.19816341 0 0 Z " fill="#FCFBFB" transform="translate(2878.9140625,649.15625)"/>
<path d="M0 0 C3.36221164 2.65836701 5.84645404 5.50210299 8.42578125 8.91796875 C8.75578125 4.29796875 9.08578125 -0.32203125 9.42578125 -5.08203125 C17.67578125 -5.08203125 25.92578125 -5.08203125 34.42578125 -5.08203125 C34.42578125 29.89796875 34.42578125 64.87796875 34.42578125 100.91796875 C26.17578125 100.91796875 17.92578125 100.91796875 9.42578125 100.91796875 C9.09578125 96.62796875 8.76578125 92.33796875 8.42578125 87.91796875 C7.10578125 89.56796875 5.78578125 91.21796875 4.42578125 92.91796875 C-7.36424842 103.19152721 -20.20501791 105.09375147 -35.32324219 104.14550781 C-43.90475269 103.27804927 -50.81767549 99.01724668 -57.57421875 93.91796875 C-58.79818359 93.02271484 -58.79818359 93.02271484 -60.046875 92.109375 C-67.83153669 85.35945969 -72.83134667 75.70744591 -75.57421875 65.91796875 C-75.79722656 65.22960937 -76.02023438 64.54125 -76.25 63.83203125 C-80.41411295 49.04518118 -77.72330877 31.67289335 -70.94921875 18.10546875 C-63.66351134 5.99298018 -53.74918684 -2.70184685 -40.19921875 -7.01953125 C-25.99832357 -10.30923503 -12.03809012 -8.17057057 0 0 Z " fill="#FCFBFB" transform="translate(2128.57421875,680.08203125)"/>
<path d="M0 0 C3.36221164 2.65836701 5.84645404 5.50210299 8.42578125 8.91796875 C8.75578125 4.29796875 9.08578125 -0.32203125 9.42578125 -5.08203125 C17.67578125 -5.08203125 25.92578125 -5.08203125 34.42578125 -5.08203125 C34.42578125 29.89796875 34.42578125 64.87796875 34.42578125 100.91796875 C26.17578125 100.91796875 17.92578125 100.91796875 9.42578125 100.91796875 C9.09578125 96.62796875 8.76578125 92.33796875 8.42578125 87.91796875 C7.10578125 89.56796875 5.78578125 91.21796875 4.42578125 92.91796875 C-7.36424842 103.19152721 -20.20501791 105.09375147 -35.32324219 104.14550781 C-43.90475269 103.27804927 -50.81767549 99.01724668 -57.57421875 93.91796875 C-58.79818359 93.02271484 -58.79818359 93.02271484 -60.046875 92.109375 C-67.83153669 85.35945969 -72.83134667 75.70744591 -75.57421875 65.91796875 C-75.79722656 65.22960937 -76.02023437 64.54125 -76.25 63.83203125 C-80.41411295 49.04518118 -77.72330877 31.67289335 -70.94921875 18.10546875 C-63.66351134 5.99298018 -53.74918684 -2.70184685 -40.19921875 -7.01953125 C-25.99832357 -10.30923503 -12.03809012 -8.17057057 0 0 Z " fill="#FCFBFB" transform="translate(1780.57421875,680.08203125)"/>
<path d="M0 0 C23 0 23 0 27.625 3.875 C28.78613257 5.89633592 29.90588338 7.94161797 31 10 C32.94683018 12.84598026 35.01315888 15.60230889 37.0625 18.375 C38.1878752 19.94020165 39.31153111 21.50664069 40.43359375 23.07421875 C44.71322069 29.01385103 49.11378087 34.8609416 53.52441406 40.70361328 C56.49479982 44.64267053 59.44351361 48.59239313 62.32421875 52.59765625 C62.83194824 53.30188721 63.33967773 54.00611816 63.86279297 54.73168945 C64.80625925 56.0452017 65.74438517 57.36257182 66.67626953 58.68432617 C67.73636394 60.15847464 68.86179914 61.58528707 70 63 C70.66 63 71.32 63 72 63 C73.38156568 61.50560078 73.38156568 61.50560078 74.765625 59.51171875 C75.31855225 58.7525415 75.87147949 57.99336426 76.44116211 57.21118164 C77.03807861 56.3783667 77.63499512 55.54555176 78.25 54.6875 C79.52720619 52.92958754 80.80455375 51.1717778 82.08203125 49.4140625 C82.73510254 48.51075195 83.38817383 47.60744141 84.06103516 46.67675781 C86.99786694 42.62243602 89.96625236 38.59163401 92.9375 34.5625 C93.5042041 33.79301025 94.0709082 33.02352051 94.65478516 32.23071289 C99.11890941 26.17601727 103.61442254 20.1451548 108.125 14.125 C108.75269287 13.28654541 109.38038574 12.44809082 110.02709961 11.58422852 C110.61885986 10.79588623 111.21062012 10.00754395 111.8203125 9.1953125 C112.33867676 8.50453613 112.85704102 7.81375977 113.39111328 7.10205078 C115.22457818 4.70658298 117.11554658 2.35556677 119 0 C126.59 0 134.18 0 142 0 C142 46.2 142 92.4 142 140 C133.42 140 124.84 140 116 140 C115.505 92.48 115.505 92.48 115 44 C110.71 49.94 106.42 55.88 102 62 C99.10235773 65.949206 96.20003306 69.89324205 93.26904297 73.81762695 C90.24572185 77.88320043 87.31630961 81.98174233 84.5078125 86.19921875 C83.65509766 87.45412109 83.65509766 87.45412109 82.78515625 88.734375 C81.70530446 90.33001482 80.64663869 91.94027012 79.61328125 93.56640625 C76.19868437 98.55766395 76.19868437 98.55766395 73.04101562 99.72290039 C69.92551056 100.02317672 67.90473354 99.72511111 65.43212891 97.7434082 C63.87317024 95.9321465 62.56360262 94.05884395 61.25 92.0625 C60.7439624 91.34175293 60.2379248 90.62100586 59.71655273 89.87841797 C58.65309725 88.35891412 57.60109219 86.83133902 56.56005859 85.29638672 C54.59432725 82.40285479 52.56758802 79.55534688 50.53955078 76.70532227 C49.05294329 74.61154005 47.57834767 72.50970672 46.10546875 70.40625 C42.18955164 64.82976179 38.18907395 59.31467855 34.18774414 53.79931641 C33.66946045 53.08437012 33.15117676 52.36942383 32.6171875 51.6328125 C32.15940918 51.00262207 31.70163086 50.37243164 31.22998047 49.72314453 C30.12187193 48.17073682 29.05799145 46.58698718 28 45 C27.67 76.35 27.34 107.7 27 140 C18.09 140 9.18 140 0 140 C0 93.8 0 47.6 0 0 Z " fill="#FCFBFB" transform="translate(1373,640)"/>
<path d="M0 0 C10.27234307 8.40464433 17.2422905 21.35478901 19.58203125 34.33984375 C21.20955035 51.19770452 18.62764939 66.34347855 8.58203125 80.33984375 C0.16318841 90.49565974 -11.47198714 97.55353893 -24.41796875 100.33984375 C-43.7670759 101.79157744 -58.615088 99.64692483 -74.04296875 87.2265625 C-82.98952268 79.11192898 -90.5730301 66.10347309 -91.63378906 53.84594727 C-92.46760155 34.65978635 -89.90383275 20.17933249 -77.23046875 5.15234375 C-56.64321157 -16.77756063 -23.75034356 -16.3067787 0 0 Z " fill="#FCFBFB" transform="translate(2474.41796875,683.66015625)"/>
<path d="M0 0 C8.91 0 17.82 0 27 0 C27 19.14 27 38.28 27 58 C49.77 58 72.54 58 96 58 C96 38.86 96 19.72 96 0 C104.91 0 113.82 0 123 0 C123 46.2 123 92.4 123 140 C114.09 140 105.18 140 96 140 C96 120.86 96 101.72 96 82 C73.23 82 50.46 82 27 82 C27 101.14 27 120.28 27 140 C18.09 140 9.18 140 0 140 C0 93.8 0 47.6 0 0 Z " fill="#FAF9F9" transform="translate(1563,641)"/>
<path d="M0 0 C8.58 0 17.16 0 26 0 C26.0093457 2.62799561 26.01869141 5.25599121 26.02832031 7.96362305 C26.06222938 16.68886172 26.11785505 25.41386733 26.18390274 34.13891888 C26.22325448 39.424086 26.25550301 44.70908958 26.27099609 49.99438477 C26.28624407 55.10393941 26.32083262 60.21304404 26.36830902 65.32239723 C26.38303933 67.26258219 26.39103617 69.20283143 26.39188385 71.14307213 C26.40388137 84.84614709 26.44063567 98.93579381 36.45703125 109.54296875 C43.89278617 116.59561686 52.02515056 118.57923579 62.08862305 118.47924805 C68.90644189 118.19777474 74.70625526 116.51839242 80.140625 112.36328125 C82 111 82 111 84 111 C84.26683594 110.46117187 84.53367187 109.92234375 84.80859375 109.3671875 C85.68041428 107.63498015 86.57114264 105.91225354 87.47265625 104.1953125 C87.99730469 103.18210937 88.52195312 102.16890625 89.0625 101.125 C89.58972656 100.11695313 90.11695313 99.10890625 90.66015625 98.0703125 C93.19756098 92.2557349 93.1610458 86.38516717 93.20532227 80.14892578 C93.21522186 79.27998184 93.22512146 78.4110379 93.23532104 77.51576233 C93.26677289 74.65897293 93.29162863 71.80216693 93.31640625 68.9453125 C93.33698988 66.95848166 93.35798672 64.97165506 93.37937927 62.98483276 C93.43445442 57.76692143 93.48392766 52.54897153 93.53222656 47.33099365 C93.58254814 42.00187771 93.63817848 36.67281745 93.69335938 31.34375 C93.80076281 20.89587924 93.90175619 10.44796091 94 0 C102.58 0 111.16 0 120 0 C120.09075036 12.12738945 120.16397398 24.25454947 120.20724869 36.3822031 C120.22802942 42.01494126 120.25617136 47.64743294 120.30175781 53.2800293 C120.34555721 58.72656071 120.36920845 64.17285662 120.37950897 69.6195507 C120.38683961 71.68655028 120.40115265 73.75353852 120.42292023 75.82043648 C120.6224683 95.57271534 118.40332364 112.30058704 104.25 127.375 C90.00286464 140.82464064 72.82373773 143.50607964 54.0546875 143.27734375 C38.74242283 142.80252653 25.59149364 136.42417963 14.578125 125.8828125 C0.4895074 110.12917645 -0.60758695 91.18986976 -0.390625 71.09375 C-0.38314515 69.03154047 -0.37746049 66.96932373 -0.37347412 64.90710449 C-0.35835491 59.53456262 -0.31919472 54.16246786 -0.2746582 48.7901001 C-0.23340613 43.28590947 -0.21539979 37.78164511 -0.1953125 32.27734375 C-0.15268429 21.51800323 -0.08245014 10.7591091 0 0 Z " fill="#FDFCFC" transform="translate(1228,640)"/>
<path d="M0 0 C9.04127907 7.18891945 14.90624182 17.45099345 16.921875 28.84765625 C18.31972043 43.45980052 14.73057788 56.16448716 5.83984375 67.78515625 C-1.53164077 76.61153904 -9.73296143 84.40493486 -18.73046875 91.55078125 C-22.63754823 94.76587117 -26.32232355 98.19708934 -30.00756836 101.66210938 C-30.51811768 102.14099609 -31.02866699 102.61988281 -31.5546875 103.11328125 C-31.9978833 103.53254883 -32.4410791 103.95181641 -32.89770508 104.38378906 C-35.40119334 106.63164324 -38.01292534 108.75621382 -40.59765625 110.91015625 C-20.79765625 110.91015625 -0.99765625 110.91015625 19.40234375 110.91015625 C19.40234375 118.17015625 19.40234375 125.43015625 19.40234375 132.91015625 C-14.58765625 132.91015625 -48.57765625 132.91015625 -83.59765625 132.91015625 C-83.59765625 117.91015625 -83.59765625 117.91015625 -81.10546875 114.13671875 C-79.48364258 112.7824707 -79.48364258 112.7824707 -77.72265625 111.53515625 C-77.13057373 111.0558667 -76.53849121 110.57657715 -75.9284668 110.08276367 C-74.73353947 109.11590173 -73.5251623 108.16539976 -72.30322266 107.23291016 C-69.88543375 105.3577913 -67.65704248 103.29753205 -65.41015625 101.22265625 C-63.80665642 99.78441244 -62.20250088 98.34689932 -60.59765625 96.91015625 C-54.72235855 91.64232067 -48.87595057 86.34501265 -43.06787109 81.00317383 C-39.85194037 78.0485957 -36.60818025 75.12812319 -33.34765625 72.22265625 C-17.67908927 58.28046599 -17.67908927 58.28046599 -10.28515625 39.25 C-10.00709547 32.93280669 -10.85756528 28.08497065 -14.59765625 22.91015625 C-19.27162452 18.10635553 -25.33211655 15.81289592 -31.97265625 15.47265625 C-38.08766345 15.73668938 -43.79860551 17.46392703 -48.45703125 21.53515625 C-54.26870766 28.44011832 -55.15953606 37.28143509 -56.59765625 45.91015625 C-65.17765625 45.91015625 -73.75765625 45.91015625 -82.59765625 45.91015625 C-82.59765625 39.62660716 -82.46553622 34.84270256 -80.91015625 28.97265625 C-80.72864014 28.28026855 -80.54712402 27.58788086 -80.36010742 26.87451172 C-76.76378452 13.78114756 -69.56352146 3.33090151 -57.86328125 -3.91015625 C-40.06959345 -13.17514542 -16.30628392 -11.27791443 0 0 Z " fill="#FCFBFB" transform="translate(2993.59765625,648.08984375)"/>
<path d="M0 0 C0.84691406 0.3403125 1.69382812 0.680625 2.56640625 1.03125 C14.48326881 6.41658026 22.01104397 15.21189971 26.8125 27.25 C30.91645419 40.20985535 29.54006285 53.35004698 23.5 65.5 C14.18364557 81.61098886 -2.71800432 95.20202923 -17.171875 106.671875 C-21.21298171 109.99853191 -25.08788587 113.52256522 -29 117 C-9.2 117 10.6 117 31 117 C31 124.26 31 131.52 31 139 C-2.66 139 -36.32 139 -71 139 C-71 123 -71 123 -67.75 119.1875 C-66.17078926 118.11888213 -64.58692125 117.05713369 -63 116 C-61.01099944 114.23169676 -59.06034395 112.44935537 -57.125 110.625 C-56.0873405 109.66774774 -55.04828132 108.71201047 -54.0078125 107.7578125 C-53.50024414 107.29149414 -52.99267578 106.82517578 -52.46972656 106.34472656 C-50.32540918 104.38278302 -48.16342952 102.44082584 -46 100.5 C-41.79280067 96.7243083 -37.62065706 92.91155324 -33.4609375 89.08374023 C-30.33508601 86.2108623 -27.1772686 83.37825246 -24 80.5625 C-6.99005224 65.96965271 -6.99005224 65.96965271 1.3359375 45.9140625 C1.41801875 39.00282141 1.34896003 34.49342319 -3 29 C-8.21023541 23.78976459 -13.1706117 21.9871655 -20.4375 21.6875 C-27.18905594 21.86002698 -33.24674158 24.11470662 -38 29 C-42.19687162 34.77618219 -42.81684161 41.17085643 -43.60546875 48.12109375 C-44 51 -44 51 -45 52 C-46.92667507 52.08748207 -48.85651861 52.10697334 -50.78515625 52.09765625 C-52.53989258 52.09282227 -52.53989258 52.09282227 -54.33007812 52.08789062 C-56.17762695 52.07532227 -56.17762695 52.07532227 -58.0625 52.0625 C-59.91584961 52.05573242 -59.91584961 52.05573242 -61.80664062 52.04882812 C-64.87114117 52.03699608 -67.93554721 52.02051173 -71 52 C-70.35600412 34.90190941 -66.35827058 20.92380174 -54.515625 8.296875 C-40.53713811 -4.46609129 -17.31220198 -6.9585512 0 0 Z " fill="#FCFBFB" transform="translate(2744,642)"/>
<path d="M0 0 C25.74 0 51.48 0 78 0 C78 7.26 78 14.52 78 22 C59.52 22 41.04 22 22 22 C21.67 25.96 21.34 29.92 21 34 C20.69059652 36.69035998 20.36123882 39.37860845 20 42.0625 C19.835 43.31160156 19.67 44.56070313 19.5 45.84765625 C19 49 19 49 18 52 C18.70906494 51.98428955 19.41812988 51.9685791 20.14868164 51.95239258 C61.56795694 51.15657837 61.56795694 51.15657837 77.0625 65.3125 C86.00699898 75.36376779 87.88037459 87.96083062 87.1953125 100.91992188 C86.01819046 113.45627155 78.52810606 125.10528355 69 133 C56.01006709 142.47914023 40.65520247 145.5498176 24.88818359 143.34570312 C11.3322284 141.01787963 -0.41403915 134.9893974 -9 124 C-14.88865263 115.21077962 -16.40753385 106.2625596 -18 96 C-9.42 96 -0.84 96 8 96 C9.65 99.96 11.3 103.92 13 108 C18.75432599 113.99746653 22.91168759 117.54547557 31.3671875 118.30078125 C42.47192845 118.44658383 42.47192845 118.44658383 51.9296875 113.37109375 C57.58251393 107.56580519 59.93408259 100.89821499 60.4375 92.875 C59.73365575 86.6409509 57.62083745 82.65767466 53.25 78.1875 C45.23692872 72.79408664 37.05490752 71.84528566 27.484375 72 C26.05338529 72.00115873 24.62239169 71.99977557 23.19140625 71.99609375 C20.97415641 71.99169347 18.76113824 71.99974109 16.54443359 72.05126953 C7.81107501 72.23633959 -0.63437625 71.95418071 -7.30126953 65.58935547 C-11.53096286 56.65216788 -7.9680144 45.40310656 -6.3125 36.0625 C-5.93659187 33.68379998 -5.56609288 31.30423846 -5.20117188 28.92382812 C-3.68664694 19.22940566 -1.92469574 9.6234787 0 0 Z " fill="#FCFBFB" transform="translate(3040,641)"/>
<path d="M0 0 C8.58 0 17.16 0 26 0 C26 17.16 26 34.32 26 52 C28.475 49.03 28.475 49.03 31 46 C42.1297792 37.07190609 53.95623383 34.71011848 68 36 C76.1835808 37.58652114 82.92163266 40.24366537 89 46 C89.61488281 46.56332031 90.22976562 47.12664063 90.86328125 47.70703125 C102.97507463 60.02630717 103.31898418 78.39041757 103.1953125 94.609375 C103.19157184 96.07195846 103.18872986 97.53454446 103.18673706 98.99713135 C103.1791833 102.80451657 103.15960824 106.61174367 103.1373291 110.41906738 C103.11669032 114.32102318 103.10769721 118.22300509 103.09765625 122.125 C103.0763525 129.75007966 103.04124024 137.37499733 103 145 C94.42 145 85.84 145 77 145 C76.98541748 143.0833252 76.97083496 141.16665039 76.95581055 139.19189453 C76.90395108 132.82553221 76.8386104 126.45941706 76.76428509 120.09327888 C76.71975149 116.23733781 76.68045917 112.38149827 76.65356445 108.52539062 C76.62736005 104.79691451 76.5868402 101.06883272 76.53681374 97.34060287 C76.52025985 95.92546406 76.50867468 94.51025722 76.50238609 93.09503555 C76.57028871 79.17359863 76.57028871 79.17359863 70.5625 67.0625 C69.716875 66.381875 68.87125 65.70125 68 65 C67.319375 64.4225 66.63875 63.845 65.9375 63.25 C60.48607012 59.73294846 53.1997062 60.39288591 47 61 C40.10921547 62.95111993 35.76422516 66.71850666 31.47265625 72.328125 C26.84577952 80.72277668 26.53519152 88.76818614 26.48828125 98.22265625 C26.47140308 99.57744439 26.45324871 100.93221717 26.43388367 102.28697205 C26.38671717 105.8230204 26.35669375 109.35900646 26.33044434 112.89526367 C26.30046869 116.51558733 26.25399762 120.13569699 26.20898438 123.75585938 C26.12333177 130.83712989 26.05734702 137.91843536 26 145 C17.42 145 8.84 145 0 145 C0 97.15 0 49.3 0 0 Z " fill="#FCFBFB" transform="translate(2265,636)"/>
<path d="M0 0 C8.25 0 16.5 0 25 0 C25.33 28.38 25.66 56.76 26 86 C36.64784643 72.42530155 36.64784643 72.42530155 46.875 58.5625 C48.37435129 56.46538102 49.87284727 54.37129456 51.41113281 52.30249023 C53.09753667 49.95121392 53.09753667 49.95121392 54.58105469 47.04321289 C56.48555777 43.77808784 58.10499631 41.44474828 61 39 C66.57079237 37.66060108 71.82112984 37.94915701 77.5 38.3125 C79.00502889 38.36775569 80.51025332 38.4179322 82.015625 38.46289062 C85.68118677 38.58334627 89.33933247 38.77263922 93 39 C90.14948582 43.31998716 87.16034731 47.45275727 83.9375 51.5 C82.96351091 52.73174651 81.98955352 53.96351809 81.015625 55.1953125 C80.27022461 56.13552246 80.27022461 56.13552246 79.50976562 57.09472656 C77.06253191 60.18305319 74.62385201 63.2780848 72.1875 66.375 C71.72939941 66.95717285 71.27129883 67.5393457 70.79931641 68.13916016 C67.46948843 72.38010487 64.20753049 76.66549934 61 81 C64.70671503 88.76479802 68.94476369 96.12885463 73.375 103.5 C74.79148579 105.8709544 76.2046256 108.24389366 77.6171875 110.6171875 C77.97629211 111.22009613 78.33539673 111.82300476 78.7053833 112.44418335 C82.34700901 118.56666785 85.93347753 124.72062973 89.49688721 130.88891602 C90.48897573 132.60592034 91.48348826 134.32152332 92.47802734 136.03710938 C93.37062256 137.58495117 93.37062256 137.58495117 94.28125 139.1640625 C94.80783203 140.07623535 95.33441406 140.9884082 95.87695312 141.92822266 C97 144 97 144 97 145 C87.49772232 146.48324526 77.34799732 147.82460323 68 145 C61.50354766 139.8696531 58.59509248 131.79751564 55.47509766 124.35009766 C53.1141466 118.98813632 50.11076631 114.03182089 47.125 109 C46.12385207 107.25214381 45.12606895 105.50235273 44.1328125 103.75 C43.71918457 103.02296875 43.30555664 102.2959375 42.87939453 101.546875 C42.58919434 101.03640625 42.29899414 100.5259375 42 100 C39.58940338 99.76480155 39.58940338 99.76480155 37.25 102.73828125 C36.1610966 103.92459881 35.07800498 105.11627041 34 106.3125 C33.4534375 106.90740234 32.906875 107.50230469 32.34375 108.11523438 C27.92717999 112.95938898 25.76411991 115.83608999 25.5859375 122.63671875 C25.54726562 123.93544922 25.50859375 125.23417969 25.46875 126.57226562 C25.43729483 127.94400573 25.40604749 129.31575061 25.375 130.6875 C25.33680803 132.07098785 25.29775558 133.45445223 25.2578125 134.83789062 C25.16339733 138.22503472 25.08060428 141.61249911 25 145 C16.75 145 8.5 145 0 145 C0 97.15 0 49.3 0 0 Z " fill="#FDFCFC" transform="translate(1952,636)"/>
<path d="M0 0 C9.21677299 8.17668576 13.57243522 18.87930064 15.25 30.99609375 C15.33426652 33.36387484 15.36780206 35.73375112 15.36352539 38.10302734 C15.36367142 38.78665344 15.36381744 39.47027954 15.3639679 40.17462158 C15.36327608 42.41462474 15.35551822 44.65454278 15.34765625 46.89453125 C15.34578947 48.45537267 15.34436679 50.01621467 15.34336853 51.57705688 C15.33956383 55.67052855 15.32975116 59.76396432 15.31866455 63.85742188 C15.30840628 68.04035965 15.30386147 72.22330326 15.29882812 76.40625 C15.28812694 84.60288283 15.27054685 92.79947968 15.25 100.99609375 C7 100.99609375 -1.25 100.99609375 -9.75 100.99609375 C-9.779729 98.30283936 -9.779729 98.30283936 -9.81005859 95.55517578 C-9.87813915 89.58799303 -9.95493599 83.62097436 -10.03752708 77.65397835 C-10.08723374 74.04019041 -10.13356336 70.42642813 -10.171875 66.8125 C-10.20905501 63.31751353 -10.25549783 59.8227563 -10.30806351 56.3279686 C-10.33530737 54.36188073 -10.35323463 52.39567077 -10.37094116 50.42947388 C-10.5927573 34.46653693 -10.5927573 34.46653693 -18.5625 21.24609375 C-25.4105431 16.41218097 -32.60544097 16.08688916 -40.75 16.99609375 C-48.24188415 19.19958909 -52.89182908 23.30178395 -56.75 29.99609375 C-60.00871452 36.10297608 -60.85056993 42.14766947 -60.95532227 49.00146484 C-60.97526749 50.16221527 -60.99521271 51.3229657 -61.01576233 52.51889038 C-61.03247482 53.75660187 -61.04918732 54.99431335 -61.06640625 56.26953125 C-61.08718735 57.54841217 -61.10796844 58.82729309 -61.12937927 60.14492798 C-61.1835522 63.52814579 -61.23384226 66.9113754 -61.28222656 70.29467773 C-61.33265931 73.7537951 -61.3881819 77.2128306 -61.44335938 80.671875 C-61.55105518 87.44655092 -61.65030795 94.22127642 -61.75 100.99609375 C-70 100.99609375 -78.25 100.99609375 -86.75 100.99609375 C-86.75 66.01609375 -86.75 31.03609375 -86.75 -5.00390625 C-78.83 -5.00390625 -70.91 -5.00390625 -62.75 -5.00390625 C-62.42 -0.71390625 -62.09 3.57609375 -61.75 7.99609375 C-60.6775 6.79984375 -59.605 5.60359375 -58.5 4.37109375 C-43.39250853 -10.73639772 -17.06751064 -13.15620612 0 0 Z " fill="#FDFCFC" transform="translate(2596.75,680.00390625)"/>
<path d="M0 0 C8.66578585 7.12196518 14.27944423 16.56695884 17.63671875 27.22265625 C17.63671875 27.88265625 17.63671875 28.54265625 17.63671875 29.22265625 C13.45042076 29.48539462 9.26624828 29.64430406 5.07421875 29.78515625 C3.89279297 29.86056641 2.71136719 29.93597656 1.49414062 30.01367188 C-7.16927739 30.23207737 -7.16927739 30.23207737 -10.68164062 27.26269531 C-12.43505142 24.99094045 -13.90347381 22.68917032 -15.36328125 20.22265625 C-20.90864855 14.67728895 -27.70133047 13.06820921 -35.36328125 12.78515625 C-44.10178146 13.05130346 -50.2891985 16.40938737 -56.63671875 22.2890625 C-63.99371181 30.52822894 -64.00270687 40.69818925 -63.54248047 51.17578125 C-62.95399324 57.89768437 -59.7474089 63.78806187 -55.20703125 68.6875 C-49.06286347 73.80330072 -41.60566157 76.57099223 -33.640625 76.4375 C-26.54752261 75.7683394 -19.38757936 73.42552392 -14.36328125 68.22265625 C-13.55632639 66.51615908 -12.76862969 64.80047715 -11.99609375 63.078125 C-10.05165795 59.75356249 -9.20035502 58.45593107 -5.44335938 57.40893555 C-1.91150874 57.23743406 1.4847485 57.34927806 5.01171875 57.59765625 C6.22472656 57.64277344 7.43773437 57.68789063 8.6875 57.734375 C11.67563599 57.85201815 14.6536302 58.01607117 17.63671875 58.22265625 C13.89726574 73.21722789 7.0895101 84.95441179 -6.11328125 93.53515625 C-19.76132875 101.00413346 -34.85526968 102.367605 -50.09375 99.52734375 C-65.14445508 94.89336211 -76.95946024 85.00841672 -84.36328125 71.22265625 C-92.2144616 55.05413171 -91.68739309 39.0235787 -86.36328125 22.22265625 C-81.80593865 9.2862625 -71.05127874 -0.71393043 -59.12109375 -6.94921875 C-39.55884379 -16.29036233 -17.05103245 -12.82350374 0 0 Z " fill="#FCFBFB" transform="translate(1920.36328125,683.77734375)"/>
<path d="M0 0 C9.53140752 8.3936074 14.11312096 20.74132554 15.30322266 33.16552734 C15.4358789 36.38753394 15.46756392 39.58796401 15.4375 42.8125 C15.43065186 43.94743896 15.42380371 45.08237793 15.41674805 46.25170898 C15.14442752 60.53986741 12.13730986 73.51904691 2.3125 84.3125 C-3.9088679 90.12762186 -10.17023209 92.19314255 -18.625 92.4375 C-28.26005817 92.05435149 -33.6463464 89.32100473 -40.66796875 82.64453125 C-52.34226014 69.4058457 -52.99151212 51.51540098 -52.21142578 34.76171875 C-51.29602806 22.80446817 -47.46049227 12.300568 -39.5625 3.1875 C-27.693645 -6.94444939 -13.51196856 -9.57991422 0 0 Z " fill="#000000" transform="translate(2861,668)"/>
<path d="M0 0 C8.58 0 17.16 0 26 0 C26 10.23 26 20.46 26 31 C36.56 31 47.12 31 58 31 C58 38.26 58 45.52 58 53 C47.44 53 36.88 53 26 53 C26.0740897 60.13560479 26.15700705 67.26997729 26.26245117 74.4050293 C26.29564466 76.83074498 26.32369384 79.25653686 26.34643555 81.68237305 C26.38008331 85.17529684 26.43240631 88.66752585 26.48828125 92.16015625 C26.49467117 93.23959 26.5010611 94.31902374 26.50764465 95.4311676 C26.62287244 101.3719795 27.10321903 105.76803622 30 111 C33.61756515 114.39146732 37.04048291 115.11080837 41.88671875 115.31640625 C42.73194092 115.35451416 43.57716309 115.39262207 44.44799805 115.43188477 C45.51703369 115.47498779 46.58606934 115.51809082 47.6875 115.5625 C51.090625 115.706875 54.49375 115.85125 58 116 C58 122.93 58 129.86 58 137 C53.64302082 137.09264693 49.28955857 137.17201841 44.93237305 137.21972656 C43.45536622 137.23964487 41.97843616 137.26679007 40.50170898 137.30175781 C29.7790659 137.54900764 20.24074097 136.90766272 11.1875 130.5 C2.8642273 122.5368689 0.46793253 111.07383841 -0.17384338 100.00045776 C-0.22860177 96.96178366 -0.22571728 93.92962002 -0.1953125 90.890625 C-0.1924826 89.79780212 -0.18965271 88.70497925 -0.18673706 87.57904053 C-0.1756656 84.135909 -0.15058633 80.69305106 -0.125 77.25 C-0.11495332 74.89583713 -0.10583045 72.54167012 -0.09765625 70.1875 C-0.07748247 64.45814669 -0.03830934 58.72937455 0 53 C-7.26 53 -14.52 53 -22 53 C-22 45.74 -22 38.48 -22 31 C-14.74 31 -7.48 31 0 31 C0 20.77 0 10.54 0 0 Z " fill="#FBFAFA" transform="translate(2194,644)"/>
<path d="M0 0 C3.3 0 6.6 0 10 0 C10 151.8 10 303.6 10 460 C6.7 460 3.4 460 0 460 C0 308.2 0 156.4 0 0 Z " fill="#FFFFFF" transform="translate(1070,481)"/>
<path d="M0 0 C7.30196863 7.63387629 10.69690411 15.82320529 11.0625 26.25 C10.82085156 36.527166 7.44940004 44.08513329 0.2734375 51.375 C-6.6243616 57.5719532 -14.19232655 59.07115344 -23.25 58.875 C-32.23474728 57.35023924 -38.84153613 53.16875473 -44.63671875 46.19140625 C-50.39970885 37.91670134 -51.37137921 28.72711736 -50.25 18.875 C-48.00447535 9.7289024 -43.13123955 2.39430419 -35.125 -2.5625 C-23.6068837 -9.14684374 -10.76349595 -7.03767043 0 0 Z " fill="#000000" transform="translate(2458.25,702.125)"/>
<path d="M0 0 C7.27465883 4.81180956 11.70813398 11.64024201 14 20 C14.23717928 22.63655103 14.38129976 25.11733156 14.375 27.75 C14.37258301 28.80453369 14.37258301 28.80453369 14.37011719 29.88037109 C14.22934838 35.89340726 12.91176353 40.70403984 10 46 C9.443125 47.0725 8.88625 48.145 8.3125 49.25 C2.12339665 56.6100148 -6.48335152 60.47460491 -15.9375 61.375 C-25.91673871 60.89885342 -33.39636459 56.73151417 -40.25 49.6875 C-46.11804124 40.67586524 -48.1363194 31.4464543 -46.3125 20.75 C-43.99220416 11.25650198 -39.20678058 3.77711776 -30.71484375 -1.390625 C-20.70299548 -6.01398258 -9.54257251 -5.41923871 0 0 Z " fill="#000000" transform="translate(2123,700)"/>
<path d="M0 0 C7.27465883 4.81180956 11.70813398 11.64024201 14 20 C14.23717928 22.63655103 14.38129976 25.11733156 14.375 27.75 C14.37258301 28.80453369 14.37258301 28.80453369 14.37011719 29.88037109 C14.22934838 35.89340726 12.91176353 40.70403984 10 46 C9.443125 47.0725 8.88625 48.145 8.3125 49.25 C2.12339665 56.6100148 -6.48335152 60.47460491 -15.9375 61.375 C-25.91673871 60.89885342 -33.39636459 56.73151417 -40.25 49.6875 C-46.11804124 40.67586524 -48.1363194 31.4464543 -46.3125 20.75 C-43.99220416 11.25650198 -39.20678058 3.77711776 -30.71484375 -1.390625 C-20.70299548 -6.01398258 -9.54257251 -5.41923871 0 0 Z " fill="#000000" transform="translate(1775,700)"/>
<path d="M0 0 C0.33 0 0.66 0 1 0 C1.33 31.68 1.66 63.36 2 96 C2.66 96.33 3.32 96.66 4 97 C3.814375 97.763125 3.62875 98.52625 3.4375 99.3125 C2.77180827 102.08967375 2.77180827 102.08967375 4 105 C4.144375 105.845625 4.28875 106.69125 4.4375 107.5625 C4.81118788 110.1645205 4.81118788 110.1645205 7 112 C7.495 111.01 7.495 111.01 8 110 C8.99 110.33 9.98 110.66 11 111 C11 113.31 11 115.62 11 118 C9.35 118 7.7 118 6 118 C4.15199903 125.58936319 2.74694617 133.15533122 3 141 C2.01 141.33 1.02 141.66 0 142 C0 95.14 0 48.28 0 0 Z " fill="#737EEC" transform="translate(350,605)"/>
<path d="M0 0 C0.33 0 0.66 0 1 0 C1 8.91 1 17.82 1 27 C-10.88 27 -22.76 27 -35 27 C-35 26.67 -35 26.34 -35 26 C-33.02 25.67 -31.04 25.34 -29 25 C-28.67 24.01 -28.34 23.02 -28 22 C-27.01 22.33 -26.02 22.66 -25 23 C-24.67 23.99 -24.34 24.98 -24 26 C-19.03088634 24.87302957 -19.03088634 24.87302957 -15 22 C-15 23.32 -15 24.64 -15 26 C-13.02 25.67 -11.04 25.34 -9 25 C-9.20625 24.4225 -9.4125 23.845 -9.625 23.25 C-10.08661261 20.48032433 -9.42944945 19.35438733 -8 17 C-8.99 16.67 -9.98 16.34 -11 16 C-11 15.34 -11 14.68 -11 14 C-10.34 14 -9.68 14 -9 14 C-8.979375 13.319375 -8.95875 12.63875 -8.9375 11.9375 C-7.7082485 8.08584529 -5.51892764 6.25417288 -2.59375 3.55078125 C-0.89864768 2.0715957 -0.89864768 2.0715957 0 0 Z " fill="#788FDE" transform="translate(418,737)"/>
<path d="M0 0 C36.3 0 72.6 0 110 0 C110 0.33 110 0.66 110 1 C109.0795842 1.00586624 108.1591684 1.01173248 107.21086121 1.01777649 C98.54381399 1.07564037 89.87702621 1.1476806 81.21023083 1.23571491 C76.75434865 1.28047428 72.29855908 1.31971793 67.8425293 1.34643555 C63.54352801 1.37241328 59.24488204 1.41277588 54.94610023 1.46318626 C53.30467454 1.47989255 51.66318734 1.49138336 50.02168846 1.49761391 C47.72526019 1.50721446 45.42974869 1.53522314 43.13354492 1.56762695 C41.82560471 1.57873001 40.51766449 1.58983307 39.17008972 1.60127258 C35.73663487 2.03312553 35.13487071 2.47111606 33 5 C29.8125 5.1875 29.8125 5.1875 27 5 C26.67 3.68 26.34 2.36 26 1 C24.68 1 23.36 1 22 1 C21.67 1.99 21.34 2.98 21 4 C20.34 3.67 19.68 3.34 19 3 C19 2.34 19 1.68 19 1 C18.01 1 17.02 1 16 1 C15.67 1.66 15.34 2.32 15 3 C15 2.34 15 1.68 15 1 C10.05 1.33 5.1 1.66 0 2 C0 1.34 0 0.68 0 0 Z M-3 3 C-2.01 3.495 -2.01 3.495 -1 4 C-1.99 4.495 -1.99 4.495 -3 5 C-3 4.34 -3 3.68 -3 3 Z M-5 5 C-4.34 5.33 -3.68 5.66 -3 6 C-12.9 15.9 -22.8 25.8 -33 36 C-33 33 -33 33 -30.4296875 30.08911133 C-29.25246159 28.91236127 -28.06695862 27.74385576 -26.875 26.58203125 C-26.25351074 25.96478683 -25.63202148 25.34754242 -24.99169922 24.71159363 C-23.00138167 22.73809421 -21.00089605 20.77526775 -19 18.8125 C-17.65035991 17.47790263 -16.30139264 16.14262449 -14.953125 14.80664062 C-11.64317773 11.52980425 -8.32407262 8.26250403 -5 5 Z M-36 36 C-34 37 -34 37 -34 37 Z " fill="#5B70E0" transform="translate(389,516)"/>
<path d="M0 0 C0.33 0 0.66 0 1 0 C1 17.49 1 34.98 1 53 C0.34 53 -0.32 53 -1 53 C-2.0625 51.125 -2.0625 51.125 -3 49 C-2.67 48.34 -2.34 47.68 -2 47 C-2.89363605 44.39068734 -2.89363605 44.39068734 -4 42 C-4.66 42.99 -5.32 43.98 -6 45 C-6.66 45 -7.32 45 -8 45 C-7.25 42.5625 -7.25 42.5625 -6 40 C-4.02 39.505 -4.02 39.505 -2 39 C-1.67 34.05 -1.34 29.1 -1 24 C-1.66 24 -2.32 24 -3 24 C-4.64599285 21.03721286 -5.65262237 18.38693192 -6 15 C-5.34 14.01 -4.68 13.02 -4 12 C-3.34 12 -2.68 12 -2 12 C-1.93941406 11.21753906 -1.87882812 10.43507813 -1.81640625 9.62890625 C-1.73261719 8.61699219 -1.64882813 7.60507812 -1.5625 6.5625 C-1.48128906 5.55316406 -1.40007812 4.54382813 -1.31640625 3.50390625 C-1 1 -1 1 0 0 Z " fill="#5A64B8" transform="translate(382,761)"/>
<path d="M0 0 C16.17 0 32.34 0 49 0 C49 1.98 49 3.96 49 6 C48.690625 5.34 48.38125 4.68 48.0625 4 C45.59903118 1.61118175 44.83083363 1.6791599 41.5 1.625 C37.97598575 1.68373357 37.07356275 1.95095817 34 4 C34 3.01 34 2.02 34 1 C31.36 1.99 28.72 2.98 26 4 C25.67 3.01 25.34 2.02 25 1 C23.08268082 1.11455681 21.1661325 1.24206258 19.25 1.375 C17.64898437 1.47941406 17.64898437 1.47941406 16.015625 1.5859375 C13.19793568 1.9728223 11.4169634 2.55686166 9 4 C9 4.66 9 5.32 9 6 C8.34 6 7.68 6 7 6 C6.67 6.99 6.34 7.98 6 9 C4.0549 6.08235 3.54723683 4.37462715 3 1 C2.01 0.67 1.02 0.34 0 0 Z " fill="#7381D0" transform="translate(370,603)"/>
<path d="M0 0 C2.42115191 2.42115191 2.60948898 3.64160525 3 7 C2.84273438 7.71929688 2.68546875 8.43859375 2.5234375 9.1796875 C1.86335925 12.73622851 1.8927042 16.21160667 1.9375 19.8125 C1.94201172 20.50537109 1.94652344 21.19824219 1.95117188 21.91210938 C1.96286844 23.60811068 1.98080076 25.30406703 2 27 C3.32 27.66 4.64 28.32 6 29 C5.34805664 29.53463867 4.69611328 30.06927734 4.02441406 30.62011719 C1.44803232 33.6488882 1.53234685 35.14968935 1.609375 39.078125 C1.62226563 40.23828125 1.63515625 41.3984375 1.6484375 42.59375 C1.68195313 43.8003125 1.71546875 45.006875 1.75 46.25 C1.76804687 47.47203125 1.78609375 48.6940625 1.8046875 49.953125 C1.851819 52.96954078 1.91760587 55.98437491 2 59 C1.34 59 0.68 59 0 59 C0 39.53 0 20.06 0 0 Z " fill="#99ABE1" transform="translate(496,618)"/>
<path d="M0 0 C1.485 0.495 1.485 0.495 3 1 C-7.33333333 11.33333333 -17.66666667 21.66666667 -28 32 C-28.99 31.67 -29.98 31.34 -31 31 C-20.77 20.77 -10.54 10.54 0 0 Z " fill="#99C2DA" transform="translate(609,520)"/>
<path d="M0 0 C1.49821059 3.37097383 2 5.20442119 2 9 C-2.95 9 -7.9 9 -13 9 C-11.68 8.67 -10.36 8.34 -9 8 C-9 6.02 -9 4.04 -9 2 C-8.01 2 -7.02 2 -6 2 C-1.875 0 -1.875 0 0 0 Z " fill="#758DDE" transform="translate(400,577)"/>
<path d="M0 0 C1.9375 0.3125 1.9375 0.3125 4 1 C4.33 1.99 4.66 2.98 5 4 C9.96911366 2.87302957 9.96911366 2.87302957 14 0 C14 1.32 14 2.64 14 4 C14.70511719 3.82597656 15.41023438 3.65195312 16.13671875 3.47265625 C19.20093804 2.96683015 21.73160701 3.10342727 24.8125 3.4375 C25.78832031 3.53933594 26.76414062 3.64117188 27.76953125 3.74609375 C28.87361328 3.87177734 28.87361328 3.87177734 30 4 C30 4.33 30 4.66 30 5 C18.12 5 6.24 5 -6 5 C-6 4.67 -6 4.34 -6 4 C-4.02 3.67 -2.04 3.34 0 3 C0 2.01 0 1.02 0 0 Z " fill="#7A83F1" transform="translate(389,759)"/>
<path d="M0 0 C7.92 0 15.84 0 24 0 C24 1.98 24 3.96 24 6 C23.5359375 5.01 23.5359375 5.01 23.0625 4 C20.59903118 1.61118175 19.83083363 1.6791599 16.5 1.625 C12.97598575 1.68373357 12.07356275 1.95095817 9 4 C9 3.01 9 2.02 9 1 C6.36 1.99 3.72 2.98 1 4 C0.67 2.68 0.34 1.36 0 0 Z " fill="#818FEE" transform="translate(395,603)"/>
<path d="M0 0 C0.66 0 1.32 0 2 0 C4.12573241 7.50258496 4.12573241 7.50258496 3.5546875 9.76171875 C2.55083729 13.81246642 3.00425303 18.09092834 3.12695312 22.24414062 C3.18732617 26.06895075 3.1777602 27.73335971 1 31 C0.67 20.77 0.34 10.54 0 0 Z " fill="#9DAFE2" transform="translate(495,586)"/>
<path d="M0 0 C0.99 0.33 1.98 0.66 3 1 C3 4.63 3 8.26 3 12 C2.34 12 1.68 12 1 12 C-0.64599285 9.03721286 -1.65262237 6.38693192 -2 3 C-1.34 2.01 -0.68 1.02 0 0 Z " fill="#7389DE" transform="translate(378,773)"/>
<path d="M0 0 C0.99 0 1.98 0 3 0 C4.39802632 7.26973684 4.39802632 7.26973684 2 11 C1.67 11.99 1.34 12.98 1 14 C0.67 14 0.34 14 0 14 C0 9.38 0 4.76 0 0 Z " fill="#5D73D7" transform="translate(351,643)"/>
<path d="M0 0 C3.3 0 6.6 0 10 0 C9.34 1.32 8.68 2.64 8 4 C5.69 4 3.38 4 1 4 C0.67 2.68 0.34 1.36 0 0 Z " fill="#6D83DC" transform="translate(415,517)"/>
<path d="M0 0 C0.99 0.66 1.98 1.32 3 2 C3 2.66 3 3.32 3 4 C2.34 4 1.68 4 1 4 C1 4.99 1 5.98 1 7 C-0.65 7 -2.3 7 -4 7 C-1.125 1.125 -1.125 1.125 0 0 Z " fill="#8299E1" transform="translate(415,579)"/>
<path d="M0 0 C0 2.64 0 5.28 0 8 C-0.66 7.01 -1.32 6.02 -2 5 C-2.66 4.34 -3.32 3.68 -4 3 C-4.33 3.99 -4.66 4.98 -5 6 C-5.66 6 -6.32 6 -7 6 C-6.25 3.5625 -6.25 3.5625 -5 1 C-3.19863649 0.29037195 -1.91823096 0 0 0 Z " fill="#6E84DC" transform="translate(381,800)"/>
<path d="M0 0 C0.66 0.66 1.32 1.32 2 2 C1.01 3.98 0.02 5.96 -1 8 C-1.66 7.67 -2.32 7.34 -3 7 C-3.625 4.9375 -3.625 4.9375 -4 3 C-2.68 2.01 -1.36 1.02 0 0 Z " fill="#6A80DB" transform="translate(396,555)"/>
<path d="M0 0 C0.33 0 0.66 0 1 0 C1 1.98 1 3.96 1 6 C1.66 6 2.32 6 3 6 C2.25 10.75 2.25 10.75 0 13 C0 8.71 0 4.42 0 0 Z " fill="#869ADD" transform="translate(496,749)"/>
<path d="M0 0 C0.33 0 0.66 0 1 0 C1 2.31 1 4.62 1 7 C0.34 7 -0.32 7 -1 7 C-1.33 8.32 -1.66 9.64 -2 11 C-2.93750716 7.33519927 -3.28668844 5.59943946 -1.625 2.125 C-1.08875 1.42375 -0.5525 0.7225 0 0 Z " fill="#859CE2" transform="translate(418,641)"/>
<path d="M0 0 C0 0.99 0 1.98 0 3 C-0.66 3 -1.32 3 -2 3 C-2.33 3.99 -2.66 4.98 -3 6 C-4.65 5.67 -6.3 5.34 -8 5 C-7.360625 4.71125 -6.72125 4.4225 -6.0625 4.125 C-3.84793921 3.17176549 -3.84793921 3.17176549 -3 1 C-2.01 0.67 -1.02 0.34 0 0 Z " fill="#6F86DC" transform="translate(366,694)"/>
<path d="M0 0 C0.99 0.66 1.98 1.32 3 2 C3 2.66 3 3.32 3 4 C2.34 4 1.68 4 1 4 C1 4.99 1 5.98 1 7 C0.34 6.67 -0.32 6.34 -1 6 C-0.67 5.34 -0.34 4.68 0 4 C-0.99 3.67 -1.98 3.34 -3 3 C-2.01 2.01 -1.02 1.02 0 0 Z " fill="#677DDA" transform="translate(398,544)"/>
<path d="M0 0 C0.66 0 1.32 0 2 0 C2 0.99 2 1.98 2 3 C1.34 3 0.68 3 0 3 C0.66 4.32 1.32 5.64 2 7 C1.01 7.33 0.02 7.66 -1 8 C-1.625 5.6875 -1.625 5.6875 -2 3 C-1.34 2.01 -0.68 1.02 0 0 Z " fill="#6C82DB" transform="translate(378,773)"/>
<path d="M0 0 C0.99 0.33 1.98 0.66 3 1 C2.67 2.65 2.34 4.3 2 6 C0.68 5.34 -0.64 4.68 -2 4 C-1.34 2.68 -0.68 1.36 0 0 Z " fill="#6B81DB" transform="translate(366,685)"/>
<path d="M0 0 C0.66 0.66 1.32 1.32 2 2 C-0.75 6.875 -0.75 6.875 -3 8 C-2.74438677 5.6568787 -2.40729228 3.32156597 -2 1 C-1.34 0.67 -0.68 0.34 0 0 Z " fill="#7A91DF" transform="translate(419,537)"/>
<path d="M0 0 C3 1 3 1 3 1 Z " fill="#C0FFFF" transform="translate(762,613)"/>
<path d="" fill="#BAFFFF" transform="translate(0,0)"/>
<path d="" fill="#B1FFFF" transform="translate(0,0)"/>
<path d="" fill="#B2FFFF" transform="translate(0,0)"/>
<path d="" fill="#FFFFFF" transform="translate(0,0)"/>
<path d="" fill="#FFFFFF" transform="translate(0,0)"/>
<path d="" fill="#ACFFFF" transform="translate(0,0)"/>
<path d="" fill="#8DFFFF" transform="translate(0,0)"/>
<path d="" fill="#FFFFFF" transform="translate(0,0)"/>
</svg>
